<svg width="46" height="46" viewBox="0 0 46 46" fill="none" xmlns="http://www.w3.org/2000/svg">
<path d="M23.0006 0C10.3661 0 0.0288086 10.35 0.0288086 23C0.0288086 35.65 10.2943 46 23.0006 46C35.7069 46 45.9724 35.7218 45.9724 23C45.9724 10.35 35.6351 0 23.0006 0ZM23.0006 44.5626C11.1558 44.5626 1.46455 34.8594 1.46455 23C1.46455 11.1406 11.1558 1.43745 23.0006 1.43745C34.8454 1.43745 44.5367 11.0687 44.5367 23C44.5367 34.8594 34.8454 44.5626 23.0006 44.5626Z" fill="#656565"/>
<path d="M32.4048 15.9564C31.7587 15.3095 30.6101 15.3095 29.964 15.9564L20.9189 24.9409L16.0373 20.1252C15.3913 19.4782 14.2427 19.4782 13.5966 20.1252L12.0173 21.7064C11.3712 22.3533 11.3712 23.5032 12.0173 24.1502L19.6985 31.8408C19.9856 32.2002 20.4881 32.344 20.9189 32.344H20.9906C21.4931 32.344 21.9239 32.2002 22.211 31.8408L33.9841 20.0532C34.6301 19.4063 34.6301 18.2563 33.9841 17.6094L32.4048 15.9564ZM32.979 18.975L21.1342 30.8344C21.0624 30.9064 20.9906 30.9064 20.9189 30.9064H20.8471C20.7753 30.9064 20.7035 30.9064 20.6317 30.8344L13.0223 23.1438C12.8787 23.0001 12.8787 22.8563 13.0223 22.7126L14.6016 21.1314C14.6734 21.0594 14.7452 21.0594 14.817 21.0594C14.8888 21.0594 14.9605 21.0594 15.0323 21.1314L20.4163 26.5221C20.7035 26.8095 21.1342 26.8095 21.4214 26.5221L30.8972 16.9626C30.969 16.8906 31.0408 16.8906 31.1126 16.8906C31.1844 16.8906 31.2562 16.8906 31.328 16.9626L32.9073 18.5438C33.0508 18.6875 33.0508 18.9032 32.979 18.975Z" fill="#656565"/>
</svg>
