<svg width="250" height="150" viewBox="0 0 250 150" fill="none" xmlns="http://www.w3.org/2000/svg">
<rect width="250" height="150" rx="2" fill="#F2F2F2"/>
<g opacity="0.2" clip-path="url(#clip0)">
<path d="M125.986 97.599C126.878 97.599 127.602 96.8753 127.602 95.9826C127.602 95.0899 126.878 94.3662 125.986 94.3662C125.093 94.3662 124.369 95.0899 124.369 95.9826C124.369 96.8753 125.093 97.599 125.986 97.599Z" fill="#222222"/>
<path d="M176.161 30.049H114.558C113.666 30.049 112.942 30.7728 112.942 31.6654C112.942 32.5581 113.666 33.2818 114.558 33.2818H176.161C176.591 33.2818 176.94 33.6314 176.94 34.0611V88.2387H73.0609V34.0609C73.0609 33.6312 73.4105 33.2816 73.8402 33.2816H108.093C108.985 33.2816 109.709 32.5579 109.709 31.6652C109.709 30.7725 108.985 30.0488 108.093 30.0488H73.8402C71.6279 30.049 69.8281 31.8488 69.8281 34.0609V99.7228C69.8281 101.935 71.6279 103.735 73.8402 103.735H89.2081C90.1008 103.735 90.8245 103.011 90.8245 102.118C90.8245 101.226 90.1008 100.502 89.2081 100.502H73.8402C73.4105 100.502 73.0609 100.152 73.0609 99.7228V91.4715H176.94V99.7228C176.94 100.152 176.591 100.502 176.161 100.502H95.6736C94.7809 100.502 94.0572 101.226 94.0572 102.118C94.0572 103.011 94.7809 103.735 95.6736 103.735H113.154V110.581H109.929C108.026 110.581 106.476 112.13 106.476 114.034V117.648C106.476 118.918 107.51 119.951 108.78 119.951H141.221C142.491 119.951 143.524 118.918 143.524 117.648V114.034C143.524 112.13 141.975 110.581 140.071 110.581H136.847V103.735H176.161C178.373 103.735 180.173 101.935 180.173 99.7228V34.0609C180.173 31.8488 178.373 30.049 176.161 30.049ZM140.292 114.034V116.718H109.709V114.034C109.709 113.912 109.808 113.813 109.929 113.813H140.072C140.193 113.813 140.292 113.912 140.292 114.034ZM133.615 110.581H116.387V103.735H133.615V110.581Z" fill="#222222"/>
<path d="M86.6855 61.0692C86.6855 70.4629 94.3278 78.1052 103.722 78.1052C113.115 78.1052 120.758 70.4629 120.758 61.0692C120.758 51.6754 113.115 44.0332 103.722 44.0332C94.328 44.0332 86.6855 51.6754 86.6855 61.0692ZM117.525 61.0692C117.525 68.6804 111.333 74.8724 103.722 74.8724C96.1108 74.8724 89.9185 68.6802 89.9185 61.0692C89.9185 53.458 96.1105 47.266 103.722 47.266C111.333 47.266 117.525 53.458 117.525 61.0692Z" fill="#222222"/>
<path d="M99.1967 53.9971C98.3263 54.4996 97.8066 55.3996 97.8066 56.4048V65.7335C97.8066 66.7386 98.3263 67.6386 99.1967 68.1412C99.6321 68.3925 100.109 68.5182 100.587 68.5182C101.064 68.5182 101.542 68.3925 101.977 68.1412L110.056 63.477C110.926 62.9744 111.446 62.0744 111.446 61.0693C111.446 61.0212 111.445 60.9733 111.442 60.9257C111.395 59.979 110.884 59.1399 110.056 58.6615L101.977 53.9971C101.106 53.4945 100.067 53.4945 99.1967 53.9971ZM101.039 64.9494V57.1884L107.761 61.0688L101.039 64.9494Z" fill="#222222"/>
<path d="M133.005 53.1165H160.968C161.861 53.1165 162.584 52.3928 162.584 51.5002C162.584 50.6075 161.861 49.8838 160.968 49.8838H133.005C132.112 49.8838 131.389 50.6075 131.389 51.5002C131.389 52.3928 132.112 53.1165 133.005 53.1165Z" fill="#222222"/>
<path d="M133.005 62.6644H160.968C161.861 62.6644 162.584 61.9407 162.584 61.048C162.584 60.1553 161.861 59.4316 160.968 59.4316H133.005C132.112 59.4316 131.389 60.1553 131.389 61.048C131.389 61.9407 132.112 62.6644 133.005 62.6644Z" fill="#222222"/>
<path d="M133.005 72.221H160.968C161.861 72.221 162.584 71.4973 162.584 70.6047C162.584 69.712 161.861 68.9883 160.968 68.9883H133.005C132.112 68.9883 131.389 69.712 131.389 70.6047C131.389 71.4973 132.112 72.221 133.005 72.221Z" fill="#222222"/>
</g>
<defs>
<clipPath id="clip0">
<rect width="110.345" height="110.345" fill="white" transform="translate(69.8281 19.8271)"/>
</clipPath>
</defs>
</svg>
