<svg width="40" height="40" viewBox="0 0 40 40" fill="none" xmlns="http://www.w3.org/2000/svg">
<circle cx="20" cy="20" r="20" fill="#F2F2F2"/>
<mask id="mask0" mask-type="alpha" maskUnits="userSpaceOnUse" x="0" y="0" width="40" height="40">
<circle cx="20" cy="20" r="20" fill="#F2F2F2"/>
</mask>
<g mask="url(#mask0)">
<path d="M20.0001 26.5844C24.225 26.5844 27.6503 22.4242 27.6503 17.2923C27.6503 12.1602 26.5257 8 20.0001 8C13.4744 8 12.3496 12.1602 12.3496 17.2923C12.3496 22.4242 15.7749 26.5844 20.0001 26.5844Z" fill="#CCCCCC"/>
<path d="M34.4336 40.3977C34.2919 31.4578 33.1244 28.9103 24.1897 27.2979C24.1897 27.2979 22.932 28.9005 20.0006 28.9005C17.0692 28.9005 15.8113 27.2979 15.8113 27.2979C6.97415 28.8928 5.73557 31.4024 5.57271 40.1073C5.55936 40.8181 5.55317 40.8555 5.55078 40.7729C5.55132 40.9275 5.55198 41.2135 5.55198 41.7122C5.55198 41.7122 7.6791 46.0003 20.0006 46.0003C32.3219 46.0003 34.4493 41.7122 34.4493 41.7122C34.4493 41.3918 34.4495 41.169 34.4498 41.0174C34.4474 41.0685 34.4426 40.9696 34.4336 40.3977Z" fill="#CCCCCC"/>
</g>
</svg>
