<svg width="389" height="273" viewBox="0 0 389 273" fill="none" xmlns="http://www.w3.org/2000/svg">
<path fill-rule="evenodd" clip-rule="evenodd" d="M111.575 41.003C114.856 36.6732 117.076 31.3668 116.705 25.4209C115.636 8.28917 94.4293 12.0579 90.3041 20.7046C86.179 29.3512 86.6692 51.2842 92.0005 52.8296C94.1267 53.4459 98.656 51.9362 103.266 48.8116L100.372 71.8314H117.457L111.575 41.003Z" fill="#B28B67"/>
<path fill-rule="evenodd" clip-rule="evenodd" d="M124.154 19.7181C124.706 19.1031 125.007 18.2254 125.267 17.3919C125.537 16.5261 125.8 15.6514 125.98 14.7502C126.338 12.9497 126.342 10.879 125.2 9.48081C124.283 8.35963 122.909 7.85675 121.64 7.74746C120.795 7.67457 119.927 7.80768 119.117 8.10719C118.313 8.40432 117.62 8.99649 116.841 9.36403C116.811 7.42365 116.516 5.39334 115.64 3.73654C114.798 2.14244 113.455 1.24788 111.926 1.01122C110.356 0.768346 108.806 1.18145 107.4 2.0361C107.048 2.25014 106.7 2.47437 106.366 2.72816C106.087 2.94069 105.797 3.19663 105.469 3.28305C105.103 3.37952 104.922 3.14222 104.685 2.84247C104.407 2.49102 104.093 2.18147 103.761 1.90705C102.293 0.693865 100.368 0.19505 98.6672 0.922244C97.8838 1.25728 97.122 1.82628 96.5905 2.61035C96.1167 3.30926 95.7787 4.41794 95.1248 4.90488C94.8473 5.11159 94.6514 4.83773 94.3987 4.63532C94.0192 4.33119 93.6573 3.99559 93.2732 3.69974C92.7337 3.28409 92.1496 2.97319 91.524 2.81045C90.6083 2.57219 89.3428 2.62803 89.081 3.97679C88.9827 4.48341 89.0581 5.02524 89.0898 5.53569C89.1334 6.2366 89.1789 6.93726 89.233 7.63713C89.2741 8.16853 89.326 8.68176 89.4152 9.2036C89.4628 9.48176 89.6116 10.0003 89.5056 10.2789C89.373 10.6271 88.7612 10.4291 88.4999 10.4412C87.9836 10.4652 87.4652 10.567 86.9879 10.8151C86.618 11.0074 86.229 11.2902 86.0729 11.767C85.9769 12.0599 86.0022 12.3607 86.0475 12.6621C86.1019 13.0237 86.0397 13.2156 85.9991 13.5805C85.3058 13.1965 82.9031 12.3435 82.6008 13.7408C82.5001 14.2061 82.7293 14.7318 82.9042 15.1242C83.2109 15.8125 83.613 16.4415 84.0241 17.0414C84.8816 18.2929 85.9053 19.3724 87.0067 20.2955C85.7163 20.9407 85.3794 22.8436 86.4967 23.9774C86.99 24.4779 87.6533 24.5894 88.2755 24.5574C88.5033 24.5456 88.8316 24.4472 89.0108 24.4918C89.1073 24.5158 89.2105 24.6077 89.3441 24.618C90.2223 24.6856 91.2136 24.4477 92.0721 24.2285C93.6018 23.838 95.0499 23.0231 96.2325 21.7818C96.5359 21.4635 96.7865 21.2802 97.1948 21.2849C97.5526 21.2889 97.9037 21.3992 98.2612 21.4094C99.2071 21.4366 100.06 20.9166 100.938 20.5705C100.992 21.9048 101.33 23.3744 101.815 24.5749C102.211 25.5538 103.038 25.6961 103.85 25.7819C106.447 26.0567 109.054 25.7501 111.654 25.7541C109.137 26.394 106.535 26.6578 104.04 27.4108C102.912 27.7511 103.774 28.6059 104.256 29.1984C105.05 30.1742 105.64 31.3833 106.05 32.657C107.281 30.8518 109.458 29.6624 111.387 30.2169C113.517 30.8296 115.018 34.07 113.655 36.3996C112.864 37.7519 111.436 38.274 110.247 38.855C111.174 39.9391 111.398 41.5403 111.957 42.8891C112.232 43.5542 112.618 44.3063 113.234 44.5381C113.462 44.6239 113.729 44.6312 113.908 44.84C114.131 45.0985 114.184 45.3875 114.468 45.6096C115.602 46.4964 117.374 46.428 118.379 45.2709C119.288 44.2243 119.052 42.5682 118.293 41.5072C119.501 40.9407 121.703 40.212 121.223 38.0946C123.842 37.899 130.2 33.1226 126.685 29.6323C128.614 28.4063 130.386 25.4101 129.147 22.7689C128.193 20.7351 125.974 19.8259 124.154 19.7181Z" fill="#191847"/>
<path fill-rule="evenodd" clip-rule="evenodd" d="M148.336 171.898H93.3417L86.1356 271.164H168L148.336 171.898Z" fill="#C5CFD6"/>
<path fill-rule="evenodd" clip-rule="evenodd" d="M148.336 171.898H131.422L121.299 271.164H168L148.336 171.898Z" fill="black" fill-opacity="0.1"/>
<path fill-rule="evenodd" clip-rule="evenodd" d="M30.6438 154.892C24.7804 150.932 14.9428 156.019 14.9496 161.682C14.9698 178.625 28.7194 258.476 29.4373 263.524C30.1552 268.572 37.8455 269.905 38.2934 263.541C39.006 253.414 40.3298 218.355 39.0052 202.128C38.4585 195.43 37.8696 189.051 37.2899 183.36C44.5049 198.012 55.6631 218.99 70.7647 246.294L78.9629 242.082C72.5251 218.23 67.2462 201.39 63.1262 191.564C56.0717 174.74 49.457 160.332 46.6731 155.256C42.294 147.273 34.6715 150.059 30.6438 154.892Z" fill="#B28B67"/>
<path fill-rule="evenodd" clip-rule="evenodd" d="M78.3767 228.836L50.2383 153.876C43.4975 141.682 24.5978 156.357 26.8966 163.43C32.1156 179.487 58.658 231.469 60.2129 236.253L78.3767 228.836Z" fill="#2579E7"/>
<path fill-rule="evenodd" clip-rule="evenodd" d="M80.0802 237.479C81.8068 239.179 82.9265 240.559 83.4393 241.62C84.063 242.911 84.7868 244.913 85.6108 247.625C84.3136 248.446 72.6556 255.82 50.6369 269.746C48.0522 266.852 47.6721 264.648 49.4966 263.133C51.3211 261.618 52.8271 260.339 54.0146 259.297L66.2282 240.649C66.4632 240.29 66.9082 240.22 67.2221 240.493C67.2275 240.498 67.2328 240.502 67.238 240.507L69.6966 242.773C71.9811 242.603 73.69 242.159 74.8233 241.442C75.7441 240.86 76.8083 239.626 78.0159 237.741L78.0159 237.741C78.4793 237.018 79.3679 236.868 80.0006 237.406C80.0279 237.43 80.0544 237.454 80.0802 237.479Z" fill="#E4E4E4"/>
<path fill-rule="evenodd" clip-rule="evenodd" d="M40.0945 259.478C40.8909 261.869 41.2891 263.657 41.2891 264.844C41.2891 266.288 41.0752 268.395 40.6475 271.164C39.1583 271.164 25.7748 271.164 0.497047 271.164C-0.546322 267.285 0.0559692 265.191 2.30392 264.882C4.55188 264.572 6.41929 264.293 7.90616 264.044L26.5677 254.688C26.9268 254.508 27.3477 254.69 27.5077 255.093C27.5105 255.1 27.5131 255.107 27.5157 255.114L28.7152 258.387C30.7963 259.478 32.4873 260.024 33.7884 260.024C34.8455 260.024 36.3053 259.544 38.1679 258.584L38.1679 258.584C38.8827 258.216 39.7278 258.568 40.0554 259.372C40.0696 259.407 40.0826 259.442 40.0945 259.478Z" fill="#E4E4E4"/>
<path fill-rule="evenodd" clip-rule="evenodd" d="M12.9776 167.441C12.9776 188.709 21.959 238.318 21.9647 243.001L41.2887 243.018C38.4603 198.752 37.4573 176.381 38.2799 175.904C39.5137 175.189 88.8585 181.444 103.658 181.444C124.998 181.444 133.827 166.311 134.543 138.276H92.2679C83.6604 139.311 38.7624 149.495 22.0882 152.996C14.9497 154.495 12.9776 161.583 12.9776 167.441Z" fill="#2579E7"/>
<path fill-rule="evenodd" clip-rule="evenodd" d="M85.6816 88.4027L60.973 73.1843C56.8641 67.6972 52.8157 63.4357 48.8278 60.3998C47.6092 59.8277 45.4782 59.4814 47.4711 63.4591C49.4639 67.4369 51.4011 71.7217 50.3858 72.9471C49.3705 74.1726 46.8388 72.4607 45.6275 74.4968C44.8201 75.8542 49.1453 77.9985 58.6033 80.9297L76.5571 99.416L85.6816 88.4027ZM46.9833 101.243L36.1298 94.538C34.607 88.0214 32.7865 84.7427 30.6685 84.7019C29.0415 83.8505 31.875 92.0848 28.7906 91.3707C25.7063 90.6567 18.1782 84.3604 16.8811 85.6388C14.9621 87.5301 16.6732 93.3374 18.6893 96.2262C22.4573 101.625 25.5771 103.472 33.2882 105.89C37.3199 107.154 41.6789 109.688 46.3652 113.491L46.9833 101.243Z" fill="#997659"/>
<path fill-rule="evenodd" clip-rule="evenodd" d="M97.7138 85.0125C89.0592 84.9097 77.5183 82.8541 65.2041 74.0639L60.3681 86.192C68.8621 95.6716 80.8055 103.46 91.2486 103.13C99.4784 102.871 103.684 91.676 97.7138 85.0125Z" fill="#2026A2"/>
<path fill-rule="evenodd" clip-rule="evenodd" d="M86.0608 104.462C76.873 107.039 61.4654 104 39.8383 95.3458C34.4739 107.826 31.994 116.724 32.3988 122.038C50.9517 132.937 66.8531 137.796 79.9538 138.117C79.5375 146.858 80.4836 155.176 83.6621 162.777C90.1965 178.402 128.459 163.931 141.324 166.779C149.38 137.356 133.803 125.399 133.79 106.572C133.777 85.9546 119.056 54.2197 116.89 54.2197H97.1378C96.048 69.9654 90.5626 87.3185 86.0608 104.462Z" fill="#1F28CF"/>
<path fill-rule="evenodd" clip-rule="evenodd" d="M328.946 55.0995C331.978 51.0974 334.03 46.1928 333.687 40.6971C332.7 24.8623 313.098 28.3457 309.286 36.3378C305.473 44.3298 305.926 64.6023 310.854 66.0307C312.819 66.6003 317.005 65.2049 321.266 62.3169L318.592 83.594H334.383L328.946 55.0995Z" fill="#B28B67"/>
<path fill-rule="evenodd" clip-rule="evenodd" d="M302.29 25.2584C302.617 23.9658 303.496 22.859 304.681 22.5307C304.969 22.4511 305.266 22.4189 305.562 22.4323C305.668 22.4371 305.697 22.4715 305.747 22.388C305.784 22.3262 305.785 22.1751 305.8 22.1024C305.847 21.8763 305.906 21.6531 305.978 21.4356C306.226 20.694 306.643 20.0376 307.146 19.4846C308.086 18.4502 309.355 17.7363 310.675 17.6071C311.397 17.5365 312.114 17.6684 312.796 17.9326C313.15 18.0693 313.492 18.2396 313.826 18.4278C313.927 18.4845 314.253 18.762 314.353 18.744C314.465 18.7242 314.689 18.4129 314.779 18.3348C315.899 17.3689 317.281 16.9891 318.676 17.0005C320.249 17.0138 321.765 17.1023 323.078 18.1812C323.355 18.4096 323.62 18.6597 323.872 18.9231C324.005 19.0617 324.133 19.2055 324.256 19.3553C324.33 19.4457 324.402 19.5381 324.471 19.633C324.589 19.7941 324.57 19.847 324.734 19.7347C325.366 19.3031 326.098 19.1012 326.836 19.2031C327.273 19.2636 327.699 19.4115 328.104 19.606C328.242 19.6723 328.56 19.9365 328.707 19.939C328.853 19.9416 329.167 19.6967 329.317 19.6344C330.127 19.2981 331 19.2152 331.852 19.3706C332.73 19.531 333.593 19.925 334.337 20.4696C334.695 20.7316 335.007 21.0218 335.258 21.4113C335.367 21.5795 335.464 21.7574 335.587 21.9133C335.659 22.0046 335.801 22.0983 335.84 22.2139C335.817 22.1447 336.801 21.7182 336.893 21.691C337.388 21.5457 337.891 21.5752 338.376 21.7544C339.286 22.0914 340.069 22.8471 340.713 23.6219C341.043 24.0199 341.333 24.4598 341.578 24.9285C341.696 25.153 341.804 25.3839 341.902 25.6197C341.95 25.7339 341.981 25.8768 342.044 25.9798C342.125 26.1124 342.18 26.1149 342.326 26.1727C343.072 26.4663 343.751 26.9633 344.268 27.6348C344.792 28.3141 345.131 29.1507 345.274 30.0318C345.282 30.0837 345.287 30.2987 345.314 30.3268C345.351 30.3655 345.501 30.3484 345.557 30.3559C345.754 30.3818 345.949 30.4203 346.141 30.4715C346.496 30.5659 346.841 30.7048 347.167 30.8864C348.44 31.5945 349.35 32.9219 349.795 34.4155C350.262 35.983 350.254 37.7788 349.696 39.3171C349.605 39.5655 349.498 39.8067 349.372 40.0348C349.294 40.1749 349.269 40.1752 349.32 40.3221C349.376 40.4856 349.478 40.6445 349.545 40.8042C349.762 41.3254 349.914 41.8783 350.009 42.4429C350.167 43.3691 350.245 44.3425 350.089 45.2757C350.017 45.7091 349.892 46.1327 349.7 46.5187C349.603 46.7155 349.489 46.9021 349.36 47.0748C349.293 47.1644 349.221 47.2501 349.147 47.3321C349.104 47.3789 349.049 47.4199 349.013 47.4723C348.924 47.5999 348.906 47.495 348.951 47.6823C349.015 47.9443 349.159 48.2028 349.248 48.4577C349.339 48.7204 349.421 48.9867 349.496 49.2556C349.649 49.8001 349.778 50.3545 349.858 50.9184C350.013 52.0011 349.986 53.1547 349.531 54.1484C349.336 54.5734 349.057 54.9463 348.718 55.2363C348.552 55.3782 348.372 55.5005 348.184 55.601C348.087 55.6527 347.964 55.6748 347.919 55.7801C347.872 55.8933 347.942 56.1182 347.959 56.2448C348.099 57.346 348.169 58.5022 347.878 59.5813C347.61 60.5753 347.019 61.4528 346.253 62.0339C344.766 63.161 342.762 63.0974 341.2 62.1951C340.793 61.9599 340.412 61.6678 340.072 61.3233C339.206 62.6334 337.426 62.5919 336.161 62.2187C334.585 61.7536 333.321 60.5215 332.592 58.9026C331.596 60.2662 329.506 59.8238 328.815 58.3444C328.646 57.9824 328.546 57.5833 328.496 57.1795C328.47 56.9672 328.487 56.753 328.467 56.5423C328.442 56.2739 328.283 56.0131 328.191 55.7534C328.013 55.248 327.902 54.726 327.897 54.1809C327.895 53.8963 327.927 53.6189 327.951 53.3366C327.972 53.0825 327.91 52.8457 327.874 52.5948C328.278 52.6697 328.771 52.5471 329.151 52.4153C329.525 52.286 329.875 51.9454 330.139 51.6344C330.751 50.9121 331.125 49.9653 331.381 49.0229C331.943 46.9547 331.712 44.4732 329.862 43.3381C329.001 42.8093 326.419 42.811 325.392 43.0724C324.313 43.3472 323.09 46.0251 323.03 46.2768C322.992 46.4326 323.011 46.6255 322.884 46.7292C322.604 46.9575 322.143 46.5614 321.937 46.3659C321.581 46.0285 321.327 45.5796 321.107 45.1246C320.628 44.1333 320.241 43.0703 319.968 41.9851C319.758 41.1484 319.624 40.2856 319.349 39.4703C319.075 38.659 318.644 37.9339 317.973 37.4743C317.243 36.9743 316.407 36.711 315.606 36.3968C314.813 36.0854 314.032 35.7048 313.417 35.0441C313.282 34.8988 313.15 34.7445 313.041 34.5734C312.955 34.4384 312.87 34.1799 312.739 34.0942C312.536 33.9611 312.239 34.3074 312.062 34.4332C311.194 35.0537 310.469 35.9191 309.884 36.8645C309.303 37.8048 308.826 38.7096 308.438 39.7595C308.151 40.5382 307.971 41.5354 307.466 42.1736C307.24 42.4586 305.562 42.6309 305.018 42.3822C304.474 42.1334 303.865 41.4874 303.683 41.0826C303.496 40.6683 303.451 40.2131 303.531 39.7595C303.578 39.4926 303.674 39.2433 303.726 38.9812C303.771 38.7611 303.811 38.5529 303.906 38.3512C304.087 37.969 304.395 37.6943 304.767 37.5794C304.38 37.1779 304.059 36.6975 303.837 36.1606C303.606 35.6027 303.411 34.9244 303.355 34.3121C303.31 33.8148 303.38 33.2996 303.622 32.8722C303.876 32.4239 304.326 32.1314 304.715 31.8518C304.12 31.3286 303.612 30.6924 303.193 29.988C302.38 28.6182 301.876 26.8915 302.29 25.2584Z" fill="#191847"/>
<path fill-rule="evenodd" clip-rule="evenodd" d="M378.467 179.085H302.8C296.986 179.085 292.272 184.385 292.272 190.924V258.997C292.272 265.535 296.986 270.836 302.8 270.836H378.467C384.281 270.836 388.994 265.535 388.994 258.997V190.924C388.994 184.385 384.281 179.085 378.467 179.085ZM367.939 199.803C369.393 199.803 370.571 201.128 370.571 202.762V247.158C370.571 248.793 369.393 250.118 367.939 250.118H313.328C311.874 250.118 310.696 248.793 310.696 247.158V202.762C310.696 201.128 311.874 199.803 313.328 199.803H367.939Z" fill="#C5CFD6"/>
<path fill-rule="evenodd" clip-rule="evenodd" d="M245.221 265.364C253.651 244.381 259.748 226.11 262.195 216.47C266.386 199.964 269.573 185.44 270.379 180.016C272.3 167.082 255.6 166.328 253.392 172.756C250.051 182.486 244.218 214.452 237.21 262.736L245.221 265.364ZM343.009 199.513C335.274 196.075 308.187 185.315 295.123 182.271C291.369 181.397 287.73 180.584 284.309 179.85C274.141 177.667 268.873 198.295 278.666 199.88C303.055 203.828 337.631 207.904 340.59 208.361C344.737 209.003 347.87 201.674 343.009 199.513Z" fill="#B28B67"/>
<path fill-rule="evenodd" clip-rule="evenodd" d="M278.068 174.173L319.906 150.222V145.008H314.931C274.454 156.607 253.77 164.04 252.88 167.308C252.87 167.343 252.861 167.378 252.853 167.413C252.833 167.443 252.813 167.474 252.793 167.504C244.771 179.91 239.967 240.478 238.391 245.013L253.762 247.592C259.642 223.073 278.454 205.991 277.954 176.624C278.089 175.763 278.123 174.946 278.068 174.173Z" fill="#1F28CF"/>
<path fill-rule="evenodd" clip-rule="evenodd" d="M316.431 188.397C320.259 187.536 323.784 186.767 326.801 186.172C346.285 182.328 351.967 170.599 348.608 145.008H312.708C306.843 146.902 276.366 161.275 260.554 168.92C250.088 173.979 253.387 192.218 259.314 196.965C259.346 197.256 259.453 197.454 259.643 197.543C291.524 212.402 316.745 204.605 325.171 207.097L329.068 193.272L316.431 188.397Z" fill="#2B44FF"/>
<path fill-rule="evenodd" clip-rule="evenodd" d="M340.166 197.214C342.294 197.376 343.806 197.684 344.705 198.137C345.797 198.689 347.307 199.695 349.232 201.156C348.638 202.56 343.301 215.18 333.221 239.015C329.869 238.517 328.524 237.149 329.186 234.911C329.849 232.674 330.382 230.806 330.786 229.309L331.147 208.139C331.154 207.732 331.459 207.404 331.828 207.407C331.835 207.407 331.841 207.407 331.847 207.408L334.803 207.527C336.459 205.981 337.546 204.595 338.065 203.369C338.487 202.372 338.706 200.812 338.722 198.689L338.722 198.689C338.728 197.874 339.332 197.212 340.071 197.21C340.103 197.21 340.135 197.211 340.166 197.214Z" fill="#E4E4E4"/>
<path fill-rule="evenodd" clip-rule="evenodd" d="M249.058 261.474C249.794 263.684 250.162 265.337 250.162 266.434C250.162 267.768 249.964 269.715 249.569 272.275C248.193 272.275 235.822 272.275 212.458 272.275C211.494 268.69 212.051 266.754 214.128 266.468C216.206 266.183 217.932 265.924 219.307 265.694L236.555 257.047C236.887 256.88 237.276 257.048 237.424 257.421C237.427 257.428 237.429 257.434 237.431 257.441L238.54 260.465C240.464 261.474 242.027 261.979 243.229 261.979C244.206 261.979 245.556 261.535 247.277 260.648L247.277 260.648C247.938 260.307 248.719 260.633 249.022 261.376C249.035 261.408 249.047 261.441 249.058 261.474Z" fill="#E4E4E4"/>
<path fill-rule="evenodd" clip-rule="evenodd" d="M281.717 133.26L263.078 153.707C257.654 156.309 253.211 159.181 249.747 162.325C248.968 163.382 248.12 165.406 251.785 164.5C255.45 163.594 259.341 162.827 260.03 164.167C260.719 165.507 258.689 167.561 259.962 169.316C260.811 170.485 263.665 166.765 268.525 158.156L287.907 145.305L281.717 133.26ZM364.448 136.143L350.698 136.204C359.188 167.025 363.771 183.378 364.448 185.264C365.97 189.507 362.748 195.969 361.37 199.442C365.858 201.7 365.38 193.337 371.04 196.299C376.207 199.002 380.138 203.9 386.107 199.758C386.841 199.249 387.645 197.331 385.702 195.833C380.861 192.1 373.885 185.567 372.942 183.416C371.656 180.483 368.825 164.726 364.448 136.143Z" fill="#B28B67"/>
<path fill-rule="evenodd" clip-rule="evenodd" d="M325.372 71.2608L319.683 70.1634C309.887 97.6814 292.785 122.685 268.376 145.174L286.821 170.374C311.226 138.352 326.27 105.314 325.372 71.2608Z" fill="#37A000"/>
<path fill-rule="evenodd" clip-rule="evenodd" d="M350.176 151.667H299.512C311.25 119.573 317.118 92.3092 317.118 69.8761L332.401 67.3154C344.412 89.0385 347.804 115.784 350.176 151.667Z" fill="#DDE3E9"/>
<path fill-rule="evenodd" clip-rule="evenodd" d="M332.723 67.3276C332.721 67.3235 332.719 67.3195 332.717 67.3154H331.72C330.526 67.3617 328.708 67.4449 326.265 67.5653L322.572 79.4331C322.182 93.9028 319.9 123.063 315.729 166.914H348.94C348.853 169.943 348.709 172.999 348.509 176.085H373.203C369.509 129.221 356.02 92.9642 332.735 67.3154L332.723 67.3276V67.3276Z" fill="#37A000"/>
<path fill-rule="evenodd" clip-rule="evenodd" d="M346.747 128.162C345.801 147.041 343.435 160.055 339.647 167.205H348.932C349.338 153.623 348.61 140.608 346.747 128.162V128.162Z" fill="black" fill-opacity="0.1"/>
<path fill-rule="evenodd" clip-rule="evenodd" d="M341.549 144.268L325.172 135.706V144.268H341.549Z" fill="white" fill-opacity="0.2"/>
</svg>
