<svg width="52" height="52" viewBox="0 0 52 52" fill="none" xmlns="http://www.w3.org/2000/svg">
<path d="M47.7344 8.48199L39.2524 0H14.0156V31.2996C8.58599 31.6162 4.26562 36.133 4.26562 41.6406C4.26562 47.3528 8.91282 52 14.625 52C18.4932 52 21.8725 49.8685 23.6515 46.7188H47.7344V8.48199ZM39.6094 2.08051L45.6539 8.125H39.6094V2.08051ZM14.625 50.7812C9.58486 50.7812 5.48438 46.6808 5.48438 41.6406C5.48438 36.6005 9.58486 32.5 14.625 32.5C19.6651 32.5 23.7656 36.6005 23.7656 41.6406C23.7656 46.6808 19.6651 50.7812 14.625 50.7812ZM24.2382 45.5C24.719 44.3066 24.9844 43.0041 24.9844 41.6406C24.9844 36.133 20.664 31.6162 15.2344 31.2996V1.21875H38.3906V9.34375H46.5156V45.5H24.2382Z" fill="white"/>
<path d="M19.5 6.5H29.25V7.71875H19.5V6.5Z" fill="white"/>
<path d="M19.5 9.75H26V10.9688H19.5V9.75Z" fill="white"/>
<path d="M19.5 14.625H42.25V15.8438H19.5V14.625Z" fill="white"/>
<path d="M19.5 17.875H42.25V19.0938H19.5V17.875Z" fill="white"/>
<path d="M19.5 24.375H42.25V25.5938H19.5V24.375Z" fill="white"/>
<path d="M19.5 27.625H35.75V28.8438H19.5V27.625Z" fill="white"/>
<path d="M19.5 21.125H42.25V22.3438H19.5V21.125Z" fill="white"/>
<path d="M34.125 32.5H42.25V33.7188H34.125V32.5Z" fill="white"/>
<path d="M14.0152 36.6117V43.2656H15.2339V36.6117L17.4436 38.8215L18.3055 37.9596L14.6245 34.2788L10.9436 37.9596L11.8055 38.8215L14.0152 36.6117Z" fill="white"/>
<path d="M18.0781 45.9062H11.1719V43.2656H9.95312V47.125H19.2969V43.2656H18.0781V45.9062Z" fill="white"/>
</svg>
