<svg width="94" height="71" viewBox="0 0 94 71" fill="none" xmlns="http://www.w3.org/2000/svg">
<g clip-path="url(#clip0)">
<path d="M88.1542 69.8636H5.0773C2.46191 69.8636 0.461914 67.8636 0.461914 65.2482V5.2482C0.461914 2.63281 2.46191 0.632812 5.0773 0.632812H88.1542C90.7696 0.632812 92.7696 2.63281 92.7696 5.2482V65.2482C92.7696 67.7097 90.6158 69.8636 88.1542 69.8636Z" fill="white" stroke="#37A000" stroke-miterlimit="10"/>
<path d="M92.7696 9.09435H0.461914V5.2482C0.461914 2.63281 2.46191 0.632812 5.0773 0.632812H88.1542C90.7696 0.632812 92.7696 2.63281 92.7696 5.2482V9.09435Z" fill="#9CCE7C" stroke="#37A000" stroke-miterlimit="10"/>
<path d="M77.3851 55.4031H15.6928C14.7697 55.4031 14.1543 54.7877 14.1543 53.8646V20.0184C14.1543 19.0954 14.7697 18.48 15.6928 18.48H77.5389C78.462 18.48 79.0774 19.0954 79.0774 20.0184V53.8646C78.9235 54.7877 78.3081 55.4031 77.3851 55.4031Z" fill="white" stroke="#37A000" stroke-width="0.5" stroke-miterlimit="10"/>
<path d="M21.0771 25.4033H71.5387" stroke="#37A000" stroke-width="0.5" stroke-miterlimit="10"/>
<path d="M21.0771 32.0164H60.1541" stroke="#37A000" stroke-width="0.5" stroke-miterlimit="10"/>
<path d="M21.0771 38.4805H53.5387" stroke="#37A000" stroke-width="0.5" stroke-miterlimit="10"/>
<path d="M21.0771 45.0928H50.9233" stroke="#37A000" stroke-width="0.5" stroke-miterlimit="10"/>
<path d="M65.7747 31.1101L57.7246 39.1602L60.8794 42.3149L68.9294 34.2648L65.7747 31.1101Z" fill="#9CCE7C"/>
<path d="M68.9235 30.0173C68.3081 29.5558 67.5388 29.5558 66.9235 30.0173L66.4619 30.4788L69.6927 33.7096L70.1542 33.2481C70.6158 32.7865 70.7696 31.8635 70.1542 31.2481L68.9235 30.0173Z" fill="#9CCE7C"/>
<path d="M55.8467 44.1724L60.1544 42.7878L57.2313 40.0186L55.8467 44.1724Z" fill="#9CCE7C"/>
<path d="M69.5397 29.402C68.6167 28.4789 67.232 28.4789 66.309 29.402L65.5397 30.1713L56.9244 38.7866L54.7705 44.7866C54.7705 44.9405 54.7705 45.0943 54.9244 45.2482C55.0782 45.402 55.0782 45.402 55.2321 45.402H55.3859L61.232 43.402L70.7705 33.8636C71.6936 32.9405 71.6936 31.5559 70.7705 30.6328L69.5397 29.402ZM55.8474 44.1713L57.232 40.0174L60.0013 42.7866L55.8474 44.1713ZM60.9244 42.3251L57.6936 39.0943L65.6936 31.0943L68.9243 34.3251L60.9244 42.3251ZM70.1551 33.2482L69.6936 33.7097L66.4628 30.4789L66.9244 30.0174C67.3859 29.5559 68.309 29.5559 68.9243 30.0174L70.1551 31.2482C70.6167 31.8636 70.6167 32.6328 70.1551 33.2482Z" fill="#37A000"/>
</g>
<defs>
<clipPath id="clip0">
<rect width="93.0769" height="70" fill="white" transform="translate(0 0.170898)"/>
</clipPath>
</defs>
</svg>
