<svg width="94" height="71" viewBox="0 0 94 71" fill="none" xmlns="http://www.w3.org/2000/svg">
<g clip-path="url(#clip0)">
<path d="M88.1542 69.8636H5.0773C2.46191 69.8636 0.461914 67.8636 0.461914 65.2482V5.2482C0.461914 2.63281 2.46191 0.632812 5.0773 0.632812H88.1542C90.7696 0.632812 92.7696 2.63281 92.7696 5.2482V65.2482C92.7696 67.7097 90.6158 69.8636 88.1542 69.8636Z" fill="white" stroke="#37A000" stroke-miterlimit="10"/>
<path d="M92.7696 9.09435H0.461914V5.2482C0.461914 2.63281 2.46191 0.632812 5.0773 0.632812H88.1542C90.7696 0.632812 92.7696 2.63281 92.7696 5.2482V9.09435Z" fill="#9CCE7C" stroke="#37A000" stroke-miterlimit="10"/>
<path d="M35.8467 26.0176H68.6159" stroke="#37A000" stroke-width="0.5" stroke-miterlimit="10"/>
<path d="M35.8467 30.6328H78.4621" stroke="#37A000" stroke-width="0.5" stroke-miterlimit="10"/>
<path opacity="0.5" d="M36.4619 47.5564H69.2311" stroke="#37A000" stroke-width="0.5" stroke-miterlimit="10"/>
<path opacity="0.5" d="M36.4619 53.71H73.5388" stroke="#37A000" stroke-width="0.5" stroke-miterlimit="10"/>
<path opacity="0.5" d="M36.4619 50.6328H79.2311" stroke="#37A000" stroke-width="0.5" stroke-miterlimit="10"/>
<path d="M28.1544 36.0179H15.0775C14.1544 36.0179 13.5391 35.4025 13.5391 34.4794V21.4025C13.5391 20.4794 14.1544 19.864 15.0775 19.864H28.1544C29.0775 19.864 29.6929 20.4794 29.6929 21.4025V34.4794C29.6929 35.2486 28.9237 36.0179 28.1544 36.0179Z" fill="#9CCE7C" stroke="#37A000" stroke-width="0.5" stroke-miterlimit="10"/>
<path opacity="0.5" d="M28.1544 59.0943H15.0775C14.1544 59.0943 13.5391 58.4789 13.5391 57.5558V44.4789C13.5391 43.5558 14.1544 42.9404 15.0775 42.9404H28.1544C29.0775 42.9404 29.6929 43.5558 29.6929 44.4789V57.5558C29.6929 58.3251 28.9237 59.0943 28.1544 59.0943Z" stroke="#37A000" stroke-width="0.5" stroke-miterlimit="10"/>
<path d="M17.5381 27.4025L20.7689 30.6333L25.5381 25.7102" stroke="white" stroke-width="0.75" stroke-miterlimit="10"/>
<path d="M18.4616 47.0938L21.5385 50.1707L24.4616 47.2476L25.2308 48.0168L22.3078 50.9399L25.3847 54.0168L24.6155 54.7861L21.5385 51.7091L18.6155 54.6322L17.8462 53.863L20.7693 50.9399L17.6924 47.863L18.4616 47.0938Z" fill="#9CCE7C"/>
</g>
<defs>
<clipPath id="clip0">
<rect width="93.0769" height="70" fill="white" transform="translate(0 0.170898)"/>
</clipPath>
</defs>
</svg>
