<svg width="94" height="70" viewBox="0 0 94 70" fill="none" xmlns="http://www.w3.org/2000/svg">
<g clip-path="url(#clip0)">
<path d="M88.1542 69.6927H5.0773C2.46191 69.6927 0.461914 67.6927 0.461914 65.0773V5.0773C0.461914 2.46191 2.46191 0.461914 5.0773 0.461914H88.1542C90.7696 0.461914 92.7696 2.46191 92.7696 5.0773V65.0773C92.7696 67.5388 90.6158 69.6927 88.1542 69.6927Z" fill="white" stroke="#37A000" stroke-miterlimit="10"/>
<path d="M92.7696 8.92345H0.461914V5.0773C0.461914 2.46191 2.46191 0.461914 5.0773 0.461914H88.1542C90.7696 0.461914 92.7696 2.46191 92.7696 5.0773V8.92345Z" fill="#9CCE7C" stroke="#37A000" stroke-miterlimit="10"/>
<path d="M43.5384 23.6936C43.5384 22.0013 44.923 20.6166 46.6153 20.6166V17.8474H14.3076V28.6166H46.6153V26.7705C44.923 26.7705 43.5384 25.3859 43.5384 23.6936Z" fill="white" stroke="#37A000" stroke-width="0.5" stroke-miterlimit="10"/>
<path d="M52.4627 17.8474V20.6166C50.7704 20.6166 49.3857 22.0013 49.3857 23.6936C49.3857 25.3859 50.7704 26.7705 52.4627 26.7705V28.6166H84.7703V17.8474H52.4627Z" fill="#9CCE7C" stroke="#37A000" stroke-width="0.5" stroke-miterlimit="10"/>
<path d="M43.5384 39.0778C43.5384 37.3855 44.923 36.0009 46.6153 36.0009V33.2317H14.3076V44.0009H46.6153V42.1548C44.923 42.1548 43.5384 40.7702 43.5384 39.0778Z" fill="white" stroke="#37A000" stroke-width="0.5" stroke-miterlimit="10"/>
<path d="M46.4617 33.2317V36.0009C44.7694 36.0009 43.3848 37.3855 43.3848 39.0778C43.3848 40.7702 44.7694 42.1548 46.4617 42.1548V44.0009H78.7694V33.2317H46.4617Z" fill="#9CCE7C" stroke="#37A000" stroke-width="0.5" stroke-miterlimit="10"/>
<path d="M43.5384 54.4626C43.5384 52.7703 44.923 51.3857 46.6153 51.3857V48.6165H14.3076V59.3857H46.6153V57.5395C44.923 57.5395 43.5384 56.1549 43.5384 54.4626Z" fill="white" stroke="#37A000" stroke-width="0.5" stroke-miterlimit="10"/>
<path d="M46.4617 48.6165V51.3857C44.7694 51.3857 43.3848 52.7703 43.3848 54.4626C43.3848 56.1549 44.7694 57.5395 46.4617 57.5395V59.3857H78.7694V48.6165H46.4617Z" fill="#9CCE7C" stroke="#37A000" stroke-width="0.5" stroke-miterlimit="10"/>
<path d="M72.7699 29.2288C72.3084 29.2288 72.0007 29.5365 72.0007 29.998V31.8442C72.0007 31.998 71.8468 32.1519 71.693 32.1519C71.5391 32.1519 71.3853 31.998 71.3853 31.8442V29.2288C71.3853 28.7673 71.0776 28.4596 70.6161 28.4596C70.1545 28.4596 69.8468 28.7673 69.8468 29.2288V31.8442C69.8468 31.998 69.693 32.1519 69.5391 32.1519C69.3853 32.1519 69.2314 31.998 69.2314 31.8442V28.4596C69.2314 27.998 68.9237 27.6904 68.4622 27.6904C68.0007 27.6904 67.693 27.998 67.693 28.4596V31.8442C67.693 31.998 67.5391 32.1519 67.3853 32.1519C67.2314 32.1519 67.0776 31.998 67.0776 31.8442V24.7673C67.0776 24.3057 66.7699 23.998 66.3084 23.998C65.8468 23.998 65.5391 24.3057 65.5391 24.7673V34.1519C65.5391 34.3057 65.5391 34.4596 65.3853 34.4596C65.2314 34.4596 65.0776 34.4596 65.0776 34.4596L62.4622 33.2288C62.3084 33.075 62.0007 33.075 61.8468 33.075C61.5391 33.075 61.2314 33.3827 61.2314 33.6904C61.2314 33.8442 61.2314 33.998 61.3853 34.1519L66.1545 38.9211C67.0776 39.8442 68.3084 40.4596 69.693 40.4596C72.0007 40.4596 73.8468 38.6134 73.8468 36.3057V29.998C73.3853 29.5365 73.0776 29.2288 72.7699 29.2288Z" fill="white"/>
<path d="M72.7701 28.4607C72.4624 28.4607 72.1548 28.6146 72.0009 28.7684C71.8471 28.153 71.2317 27.8453 70.6163 27.8453C70.3086 27.8453 70.0009 27.9992 69.8471 28.153C69.6932 27.5376 69.0778 27.2299 68.4624 27.2299C68.1548 27.2299 68.0009 27.2299 67.6932 27.3838V24.9223C67.6932 24.153 67.0778 23.3838 66.1548 23.3838C65.3855 23.3838 64.6163 23.9992 64.6163 24.9223V33.6915L62.6163 32.6146C62.3086 32.4607 62.0009 32.3069 61.6932 32.3069C60.924 32.3069 60.3086 32.9223 60.3086 33.6915C60.3086 33.9992 60.4624 34.4607 60.7701 34.7684L65.5394 39.5376C66.6163 40.6146 68.0009 41.2299 69.6932 41.2299C72.3086 41.2299 74.4625 39.0761 74.4625 36.4607V30.153C74.1548 29.2299 73.5394 28.4607 72.7701 28.4607ZM73.3855 36.3069C73.3855 38.6146 71.5394 40.4607 69.2317 40.4607C67.8471 40.4607 66.6163 39.9992 65.6932 38.9223L60.924 34.153C60.7701 33.9992 60.7701 33.8453 60.7701 33.6915C60.7701 33.3838 61.0778 33.0761 61.3855 33.0761C61.5394 33.0761 61.8471 33.0761 62.0009 33.2299L64.6163 34.4607C64.7701 34.4607 64.924 34.4607 64.924 34.4607C65.0778 34.4607 65.0778 34.3069 65.0778 34.153V24.7684C65.0778 24.3069 65.3855 23.9992 65.8471 23.9992C66.3086 23.9992 66.6163 24.3069 66.6163 24.7684V31.8453C66.6163 31.9992 66.7701 32.153 66.924 32.153C67.0778 32.153 67.2317 31.9992 67.2317 31.8453V28.4607C67.2317 27.9992 67.5394 27.6915 68.0009 27.6915C68.4624 27.6915 68.7701 27.9992 68.7701 28.4607V31.8453C68.7701 31.9992 68.924 32.153 69.0778 32.153C69.2317 32.153 69.3855 31.9992 69.3855 31.8453V29.2299C69.3855 28.7684 69.6932 28.4607 70.1548 28.4607C70.6163 28.4607 70.924 28.7684 70.924 29.2299V31.8453C70.924 31.9992 71.0778 32.153 71.2317 32.153C71.3855 32.153 71.5394 31.9992 71.5394 31.8453V29.9992C71.5394 29.5376 71.8471 29.2299 72.3086 29.2299C72.7701 29.2299 73.0778 29.5376 73.0778 29.9992L73.3855 36.3069Z" fill="#808080"/>
</g>
<defs>
<clipPath id="clip0">
<rect width="93.0769" height="70" fill="white"/>
</clipPath>
</defs>
</svg>
