<svg width="94" height="71" viewBox="0 0 94 71" fill="none" xmlns="http://www.w3.org/2000/svg">
<g clip-path="url(#clip0)">
<path d="M88.1542 69.8636H5.0773C2.46191 69.8636 0.461914 67.8636 0.461914 65.2482V5.2482C0.461914 2.63281 2.46191 0.632812 5.0773 0.632812H88.1542C90.7696 0.632812 92.7696 2.63281 92.7696 5.2482V65.2482C92.7696 67.7097 90.6158 69.8636 88.1542 69.8636Z" fill="white" stroke="#37A000" stroke-miterlimit="10"/>
<path d="M92.7696 9.09435H0.461914V5.2482C0.461914 2.63281 2.46191 0.632812 5.0773 0.632812H88.1542C90.7696 0.632812 92.7696 2.63281 92.7696 5.2482V9.09435Z" fill="#9CCE7C" stroke="#37A000" stroke-miterlimit="10"/>
<path d="M48.461 32.9401H27.6918C26.7687 32.9401 26.1533 32.3247 26.1533 31.4016V24.7863C26.1533 23.8632 26.7687 23.2478 27.6918 23.2478H48.461C49.3841 23.2478 49.9995 23.8632 49.9995 24.7863V31.4016C49.9995 32.1709 49.3841 32.9401 48.461 32.9401Z" fill="white" stroke="#37A000" stroke-width="0.5" stroke-miterlimit="10"/>
<path d="M39.6925 56.4792H18.9232C18.0002 56.4792 17.3848 55.8638 17.3848 54.9407V48.3253C17.3848 47.4023 18.0002 46.7869 18.9232 46.7869H39.6925C40.6155 46.7869 41.2309 47.4023 41.2309 48.3253V54.9407C41.2309 55.7099 40.6155 56.4792 39.6925 56.4792Z" fill="white" stroke="#CCCCCC" stroke-width="0.5" stroke-miterlimit="10"/>
<path d="M44.1544 49.5558H23.3851C22.4621 49.5558 21.8467 48.9405 21.8467 48.0174V41.402C21.8467 40.4789 22.4621 39.8635 23.3851 39.8635H44.1544C45.0775 39.8635 45.6928 40.4789 45.6928 41.402V48.0174C45.6928 48.7866 44.9236 49.5558 44.1544 49.5558Z" fill="#9CCE7C" stroke="#37A000" stroke-width="0.5" stroke-miterlimit="10"/>
<path d="M26.1553 44.634H41.2322" stroke="#37A000" stroke-width="0.5" stroke-miterlimit="10"/>
<path d="M75.0772 56.4792H54.308C53.3849 56.4792 52.7695 55.8638 52.7695 54.9407V48.3253C52.7695 47.4023 53.3849 46.7869 54.308 46.7869H75.0772C76.0003 46.7869 76.6157 47.4023 76.6157 48.3253V54.9407C76.6157 55.7099 76.0003 56.4792 75.0772 56.4792Z" fill="#9CCE7C" stroke="#37A000" stroke-width="0.5" stroke-miterlimit="10"/>
<path d="M57.2314 51.5574H72.3084" stroke="#37A000" stroke-width="0.5" stroke-miterlimit="10"/>
<path d="M46.1693 50.3477C45.7078 50.3477 45.4001 50.6554 45.4001 51.1169V52.9631C45.4001 53.1169 45.2462 53.2708 45.0924 53.2708C44.9385 53.2708 44.7847 53.1169 44.7847 52.9631V50.3477C44.7847 49.8862 44.477 49.5785 44.0155 49.5785C43.5539 49.5785 43.2462 49.8862 43.2462 50.3477V52.9631C43.2462 53.1169 43.0924 53.2708 42.9385 53.2708C42.7847 53.2708 42.6309 53.1169 42.6309 52.9631V49.5785C42.6309 49.1169 42.3232 48.8092 41.8616 48.8092C41.4001 48.8092 41.0924 49.1169 41.0924 49.5785V52.9631C41.0924 53.1169 40.9385 53.2708 40.7847 53.2708C40.6309 53.2708 40.477 53.1169 40.477 52.9631V45.8862C40.477 45.4246 40.1693 45.1169 39.7078 45.1169C39.2462 45.1169 38.9385 45.4246 38.9385 45.8862V55.2708C38.9385 55.4246 38.9385 55.5785 38.7847 55.5785C38.6309 55.5785 38.477 55.5785 38.477 55.5785L35.8616 54.3477C35.7078 54.1939 35.4001 54.1939 35.2462 54.1939C34.9386 54.1939 34.6309 54.5016 34.6309 54.8093C34.6309 54.9631 34.6309 55.1169 34.7847 55.2708L39.5539 60.04C40.477 60.9631 41.7078 61.5785 43.0924 61.5785C45.4001 61.5785 47.2462 59.7323 47.2462 57.4246V51.1169C46.7847 50.6554 46.477 50.3477 46.1693 50.3477Z" fill="white"/>
<path d="M46.4625 49.8631C46.1548 49.8631 45.8471 50.0169 45.6933 50.1707C45.5394 49.5554 44.9241 49.2477 44.3087 49.2477C44.001 49.2477 43.6933 49.4015 43.5394 49.5554C43.3856 48.94 42.7702 48.6323 42.1548 48.6323C41.8471 48.6323 41.6933 48.6323 41.3856 48.7861V46.3246C41.3856 45.5554 40.7702 44.7861 39.8471 44.7861C39.0779 44.7861 38.3087 45.4015 38.3087 46.3246V55.0938L36.3087 54.0169C36.001 53.8631 35.6933 53.7092 35.3856 53.7092C34.6164 53.7092 34.001 54.3246 34.001 55.0938C34.001 55.4015 34.1548 55.8631 34.4625 56.1707L39.2317 60.94C40.3087 62.0169 41.6933 62.6323 43.3856 62.6323C46.001 62.6323 48.1548 60.4784 48.1548 57.8631V51.5554C47.8471 50.4784 47.2317 49.8631 46.4625 49.8631ZM47.0779 57.7092C47.0779 60.0169 45.2317 61.8631 42.9241 61.8631C41.5394 61.8631 40.3087 61.4015 39.3856 60.3246L34.6164 55.5554C34.4625 55.4015 34.4625 55.2477 34.4625 55.0938C34.4625 54.7861 34.7702 54.4784 35.0779 54.4784C35.2317 54.4784 35.5394 54.4784 35.6933 54.6323L38.3087 55.8631C38.4625 55.8631 38.6164 55.8631 38.6164 55.8631C38.7702 55.8631 38.7702 55.7092 38.7702 55.5554V46.1707C38.7702 45.7092 39.0779 45.4015 39.5394 45.4015C40.001 45.4015 40.3087 45.7092 40.3087 46.1707V53.2477C40.3087 53.4015 40.4625 53.5554 40.6164 53.5554C40.7702 53.5554 40.9241 53.4015 40.9241 53.2477V49.8631C40.9241 49.4015 41.2317 49.0938 41.6933 49.0938C42.1548 49.0938 42.4625 49.4015 42.4625 49.8631V53.2477C42.4625 53.4015 42.6164 53.5554 42.7702 53.5554C42.9241 53.5554 43.0779 53.4015 43.0779 53.2477V50.6323C43.0779 50.1707 43.3856 49.8631 43.8471 49.8631C44.3087 49.8631 44.6164 50.1707 44.6164 50.6323V53.2477C44.6164 53.4015 44.7702 53.5554 44.9241 53.5554C45.0779 53.5554 45.2317 53.4015 45.2317 53.2477V51.4015C45.2317 50.94 45.5394 50.6323 46.001 50.6323C46.4625 50.6323 46.7702 50.94 46.7702 51.4015L47.0779 57.7092Z" fill="#808080"/>
<path d="M14.1543 19.0945H78.9235" stroke="#37A000" stroke-width="0.5" stroke-miterlimit="10"/>
<path d="M14.1543 28.0183H21.8466" stroke="#37A000" stroke-width="0.5" stroke-miterlimit="10"/>
<path d="M53.3857 28.0183H78.9242" stroke="#37A000" stroke-width="0.5" stroke-miterlimit="10"/>
</g>
<defs>
<clipPath id="clip0">
<rect width="93.0769" height="70" fill="white" transform="translate(0 0.170898)"/>
</clipPath>
</defs>
</svg>
