<svg width="250" height="167" viewBox="0 0 250 167" fill="none" xmlns="http://www.w3.org/2000/svg">
<path fill-rule="evenodd" clip-rule="evenodd" d="M158.971 156.092C148.311 161.166 136.381 164.006 123.788 164.006C78.5191 164.006 16.6973 157.046 16.6973 111.77C16.6973 66.4945 78.4515 0 123.788 0C164.268 0.0604276 197.886 29.4081 204.545 67.9905C228.218 79.9634 249.999 102.196 249.999 119.948C249.999 145.559 224.933 166.305 194.055 166.305C180.771 166.305 168.571 162.482 158.971 156.092Z" fill="#EBF7EC"/>
<g clip-path="url(#clip0)">
<path d="M114.049 134.114C114.049 134.114 117.616 135.451 119.734 140.354C121.853 145.145 117.728 157.512 114.049 156.843C110.37 156.286 121.295 160.408 125.866 151.495C130.437 142.582 123.525 132.666 114.049 134.114Z" fill="#F0FFE8"/>
<path d="M59.533 134.114C59.533 134.114 63.1005 135.451 65.2188 140.354C67.337 145.145 63.212 157.512 59.533 156.843C55.854 156.286 66.7796 160.408 71.3505 151.495C75.9213 142.582 69.0093 132.666 59.533 134.114Z" fill="#F0FFE8"/>
<path d="M220.852 151.271C220.406 153.276 216.393 154.167 216.393 154.167C216.393 154.167 211.265 154.167 203.349 154.167C197.998 152.608 208.589 149.488 210.261 146.145C211.934 142.803 211.042 138.569 208.032 132.776C205.022 126.982 206.025 114.392 205.579 111.607C205.244 108.821 207.251 104.142 201.342 101.357C198.221 99.9082 196.437 97.1228 195.322 94.8945H206.025C211.599 94.8945 213.94 100.354 213.94 100.354C213.94 100.354 219.18 133.667 219.738 137.678C220.295 141.689 221.298 149.377 220.852 151.271Z" fill="#C2EDAC"/>
<path d="M110.371 57.7609H83.8372C81.8305 57.7609 80.1582 55.9953 80.1582 53.8765C80.1582 51.7578 81.8305 49.9922 83.8372 49.9922H108.364C110.371 49.9922 112.043 51.7578 112.043 53.8765V55.9953C112.043 56.9369 111.263 57.7609 110.371 57.7609Z" fill="#C2EDAC"/>
<path d="M76.7607 66.3833H63.8575C62.8816 66.3833 62.0684 65.2078 62.0684 63.7971C62.0684 62.3865 62.8816 61.2109 63.8575 61.2109H75.7848C76.7607 61.2109 77.5739 62.3865 77.5739 63.7971V65.2078C77.5739 65.8348 77.1944 66.3833 76.7607 66.3833Z" fill="#C2EDAC"/>
<path d="M148.499 19.0195L143.371 26.1501L176.148 46.0934L179.604 39.5199L178.935 36.1775L150.283 19.0195H148.499Z" fill="#C2EDAC"/>
<path d="M138.241 79.6309L121.073 126.091L117.617 127.874C117.617 127.874 114.272 127.874 109.144 127.874C104.127 125.757 113.046 121.857 115.61 121.3C118.174 120.743 127.316 89.2126 127.316 85.6473C127.316 82.082 124.529 82.5277 123.971 77.6254C123.748 75.3971 119.846 73.5031 115.61 72.0547H131.775L136.681 74.283L138.241 79.6309Z" fill="#C2EDAC"/>
<path d="M116.279 129.098H59.5325C55.965 129.098 52.8434 126.759 51.7285 123.416L29.6544 53.4474C29.097 51.6648 27.4247 50.4392 25.641 50.4392H23.7457C23.0768 50.4392 22.6309 49.9936 22.6309 49.3251C22.6309 48.6566 23.0768 48.2109 23.7457 48.2109H25.641C28.5396 48.2109 30.9923 49.9936 31.8841 52.779L53.9582 122.748C54.7386 125.199 56.9683 126.87 59.644 126.87H116.39C118.954 126.87 121.184 125.31 121.964 122.859L137.015 80.1871C137.572 78.5158 137.349 76.7332 136.346 75.2848C135.343 73.8364 133.782 73.0565 131.998 73.0565H50.7252C50.0562 73.0565 49.6103 72.6108 49.6103 71.9424C49.6103 71.2739 50.0562 70.8282 50.7252 70.8282H131.886C134.339 70.8282 136.68 71.9424 138.13 74.0592C139.579 76.1761 139.913 78.6273 139.133 80.967L124.082 123.639C122.856 126.87 119.735 129.098 116.279 129.098Z" fill="#008329"/>
<path d="M100.055 138.568H77.3121C76.6432 138.568 76.1973 138.122 76.1973 137.454C76.1973 136.786 76.6432 136.34 77.3121 136.34H100.167C100.836 136.34 101.281 136.786 101.281 137.454C101.281 138.122 100.724 138.568 100.055 138.568Z" fill="#008329"/>
<path d="M56.6344 71.7211C55.9655 71.7211 55.5195 71.2755 55.5195 70.607V69.27C55.5195 64.8134 59.1985 61.1367 63.658 61.1367H78.151C78.82 61.1367 79.2659 61.5824 79.2659 62.2509C79.2659 62.9194 78.82 63.365 78.151 63.365H63.5465C60.3134 63.365 57.6378 66.039 57.6378 69.27V70.607C57.7492 71.2755 57.1918 71.7211 56.6344 71.7211Z" fill="#008329"/>
<path d="M78.0387 71.7195C77.3698 71.7195 76.9238 71.2739 76.9238 70.6054V55.5643C76.9238 51.5534 80.2684 48.2109 84.2819 48.2109H105.799C109.812 48.2109 113.157 51.5534 113.157 55.5643V68.1542C113.157 68.8227 112.711 69.2684 112.042 69.2684C111.373 69.2684 110.927 68.8227 110.927 68.1542V55.5643C110.927 52.779 108.586 50.4392 105.799 50.4392H84.2819C81.4947 50.4392 79.1535 52.779 79.1535 55.5643V70.6054C79.1535 71.2739 78.7076 71.7195 78.0387 71.7195Z" fill="#008329"/>
<path d="M112.043 58.908H83.8375C83.1686 58.908 82.7227 58.4623 82.7227 57.7938C82.7227 57.1253 83.1686 56.6797 83.8375 56.6797H111.932C112.601 56.6797 113.047 57.1253 113.047 57.7938C113.047 58.4623 112.712 58.908 112.043 58.908Z" fill="#008329"/>
<path d="M137.029 20.4171C136.918 20.4171 136.806 20.4171 136.695 20.4171L129.448 18.4117C128.891 18.3003 128.556 17.6318 128.668 17.0747C128.779 16.5176 129.448 16.1834 130.006 16.2948L137.252 18.3003C137.81 18.4117 138.144 19.0802 138.033 19.6372C137.921 20.0829 137.475 20.4171 137.029 20.4171Z" fill="#008329"/>
<path d="M147.063 14.0657C146.617 14.0657 146.171 13.7315 146.06 13.2858L143.607 5.7096C143.384 5.15252 143.718 4.48403 144.276 4.2612C144.833 4.03837 145.502 4.37262 145.725 4.92969L148.178 12.5059C148.401 13.063 148.066 13.7315 147.509 13.9543C147.286 13.9543 147.174 14.0657 147.063 14.0657Z" fill="#008329"/>
<path d="M159.326 12.6173C159.103 12.6173 158.991 12.6173 158.768 12.5059C158.211 12.1716 158.1 11.5031 158.323 10.9461L162.782 3.14701C163.116 2.58993 163.785 2.47852 164.343 2.70135C164.9 3.03559 165.012 3.70408 164.789 4.26116L160.329 12.0602C160.106 12.3945 159.66 12.6173 159.326 12.6173Z" fill="#008329"/>
<path d="M162.099 67.8192C161.207 67.8192 160.427 67.5964 159.647 67.1507L132.89 52.2211C131.664 51.5526 130.772 50.4385 130.438 49.1015C130.103 47.7645 130.215 46.4275 130.995 45.202L145.377 20.5792C146.045 19.3537 147.16 18.5737 148.498 18.2395C149.836 17.9053 151.174 18.1281 152.4 18.7966L178.376 34.2833C180.717 35.7317 181.609 38.7399 180.16 41.191L166.447 65.2567C165.555 66.8165 163.883 67.8192 162.099 67.8192ZM147.272 21.6934L132.89 46.3161C132.556 46.9846 132.444 47.7645 132.556 48.5444C132.779 49.3243 133.225 49.8814 133.894 50.327L160.65 65.2567C161.988 66.0366 163.772 65.4795 164.552 64.1425L178.265 40.0769C179.045 38.7399 178.599 36.9572 177.261 36.1773L151.174 20.6906C150.505 20.245 149.725 20.1336 148.944 20.3564C148.275 20.5792 147.606 21.0249 147.272 21.6934Z" fill="#008329"/>
<path d="M143.956 25.2166L142.799 27.1211L175.577 47.0204L176.735 45.1158L143.956 25.2166Z" fill="#008329"/>
<path d="M169.873 31.3948L158.532 50.999C157.529 52.7817 155.299 53.3388 153.515 52.336L149.167 49.7735C147.495 48.7707 146.938 46.5424 147.941 44.8712L157.944 28.2751C158.836 26.8267 160.619 26.3811 162.069 27.161L169.873 31.3948Z" fill="#C2EDAC"/>
<path d="M133.833 92.3338H89.9078C89.2389 92.3338 88.793 91.8881 88.793 91.2196C88.793 90.5511 89.2389 90.1055 89.9078 90.1055H133.833C134.502 90.1055 134.948 90.5511 134.948 91.2196C134.948 91.8881 134.502 92.3338 133.833 92.3338Z" fill="#008329"/>
<path d="M61.0942 158.625C54.0707 158.625 48.2734 152.832 48.2734 145.813C48.2734 138.794 54.0707 133 61.0942 133C68.1178 133 73.9151 138.794 73.9151 145.813C73.9151 152.832 68.1178 158.625 61.0942 158.625ZM61.0942 135.228C55.297 135.228 50.5031 140.019 50.5031 145.813C50.5031 151.606 55.297 156.397 61.0942 156.397C66.8915 156.397 71.6854 151.606 71.6854 145.813C71.6854 140.019 66.8915 135.228 61.0942 135.228Z" fill="#008329"/>
<path d="M61.0937 149.932C63.3719 149.932 65.2187 148.087 65.2187 145.81C65.2187 143.533 63.3719 141.688 61.0937 141.688C58.8156 141.688 56.9688 143.533 56.9688 145.81C56.9688 148.087 58.8156 149.932 61.0937 149.932Z" fill="#008329"/>
<path d="M115.721 158.625C108.698 158.625 102.9 152.832 102.9 145.813C102.9 138.794 108.698 133 115.721 133C122.745 133 128.542 138.794 128.542 145.813C128.542 152.832 122.745 158.625 115.721 158.625ZM115.721 135.228C109.924 135.228 105.13 140.019 105.13 145.813C105.13 151.606 109.924 156.397 115.721 156.397C121.518 156.397 126.312 151.606 126.312 145.813C126.312 140.019 121.518 135.228 115.721 135.228Z" fill="#008329"/>
<path d="M115.723 149.932C118.001 149.932 119.848 148.087 119.848 145.81C119.848 143.533 118.001 141.688 115.723 141.688C113.444 141.688 111.598 143.533 111.598 145.81C111.598 148.087 113.444 149.932 115.723 149.932Z" fill="#008329"/>
<path d="M216.394 155.281H149.168C147.385 155.281 145.712 154.501 144.597 153.164C143.483 151.827 142.925 150.044 143.148 148.261L150.172 101.801C150.841 97.1218 154.854 93.668 159.648 93.668H206.026C210.82 93.668 214.722 97.1218 215.502 101.801L222.526 148.261C222.749 150.044 222.303 151.827 221.076 153.164C219.85 154.501 218.178 155.281 216.394 155.281ZM159.536 95.8963C155.857 95.8963 152.847 98.5702 152.29 102.136L145.266 148.596C145.155 149.71 145.378 150.824 146.158 151.715C146.939 152.607 147.942 153.052 149.057 153.052H216.282C217.397 153.052 218.512 152.607 219.181 151.715C219.85 150.824 220.184 149.71 220.073 148.596L213.049 102.136C212.492 98.5702 209.482 95.8963 205.803 95.8963H159.536Z" fill="#008329"/>
<path d="M200.451 110.937C199.782 110.937 199.336 110.491 199.336 109.823V94.1134C199.336 85.5345 192.424 78.6267 183.839 78.6267C175.255 78.6267 168.343 85.6459 168.343 94.1134V108.709C168.343 109.377 167.897 109.823 167.228 109.823C166.559 109.823 166.113 109.377 166.113 108.709V94.1134C166.113 84.3089 174.029 76.3984 183.839 76.3984C193.65 76.3984 201.566 84.3089 201.566 94.1134V109.823C201.566 110.491 201.008 110.937 200.451 110.937Z" fill="#008329"/>
<path d="M194.542 132.999H175.924C172.133 132.999 169.012 129.879 169.012 126.091C169.012 122.303 172.133 119.184 175.924 119.184H194.542C198.332 119.184 201.454 122.303 201.454 126.091C201.454 129.879 198.332 132.999 194.542 132.999ZM175.924 121.3C173.36 121.3 171.241 123.417 171.241 125.98C171.241 128.542 173.36 130.659 175.924 130.659H194.542C197.106 130.659 199.224 128.542 199.224 125.98C199.224 123.417 197.106 121.3 194.542 121.3H175.924Z" fill="#008329"/>
<path d="M155.41 53.8929C154.518 53.8929 153.738 53.67 152.957 53.2244L148.609 50.6618C146.38 49.3249 145.711 46.4281 146.937 44.1998L155.744 29.1587C156.079 28.6017 156.748 28.4902 157.305 28.7131C157.863 29.0473 157.974 29.7158 157.751 30.2729L148.944 45.3139C148.275 46.5395 148.609 47.9879 149.836 48.7678L154.184 51.3303C154.741 51.6646 155.41 51.776 156.079 51.6646C156.748 51.4417 157.305 51.1075 157.64 50.439L168.119 31.8327C168.454 31.2756 169.123 31.0528 169.68 31.387C170.238 31.7213 170.46 32.3898 170.126 32.9468L159.646 51.5532C158.977 52.6673 157.974 53.4472 156.748 53.7815C156.19 53.8929 155.856 53.8929 155.41 53.8929Z" fill="#008329"/>
<path d="M20.5133 53.5615H4.34793C2.00674 53.5615 0 51.6674 0 49.2163C0 46.7651 1.89525 44.8711 4.34793 44.8711H20.5133C22.8545 44.8711 24.8612 46.7651 24.8612 49.2163C24.8612 51.6674 22.8545 53.5615 20.5133 53.5615ZM4.34793 47.2108C3.23307 47.2108 2.22971 48.1021 2.22971 49.3277C2.22971 50.5533 3.12159 51.4446 4.34793 51.4446H20.5133C21.6281 51.4446 22.6315 50.5533 22.6315 49.3277C22.6315 48.1021 21.7396 47.2108 20.5133 47.2108H4.34793Z" fill="#008329"/>
</g>
<defs>
<clipPath id="clip0">
<rect y="2.58984" width="223.275" height="156.034" fill="white"/>
</clipPath>
</defs>
</svg>