<svg xmlns="http://www.w3.org/2000/svg" data-name="Layer 1" viewBox="0 0 24 24" width="24" height="24"><title>android alt</title><g class="nc-icon-wrapper"><path d="M2.992 9a1 1 0 0 0-1 1v4a1 1 0 0 0 2 0v-4a1 1 0 0 0-1-1zm18 0a1 1 0 0 0-1 1v4a1 1 0 0 0 2 0v-4a1 1 0 0 0-1-1zm-4.135-5.5a1 1 0 1 0-1.731-1l-.614 1.063a5.928 5.928 0 0 0-5.04 0L8.857 2.5a1 1 0 1 0-1.731 1l.692 1.198A5.979 5.979 0 0 0 5.992 9v8a1 1 0 0 0 1 1h2v3a1 1 0 0 0 2 0v-3h2v3a1 1 0 0 0 2 0v-3h2a1 1 0 0 0 1-1V9a5.979 5.979 0 0 0-1.827-4.302zM15.992 16h-8v-5h8zm-8-7a4 4 0 0 1 8 0z"/></g></svg>