<svg xmlns="http://www.w3.org/2000/svg" data-name="Layer 1" viewBox="0 0 24 24" width="24" height="24"><title>intercom alt</title><g class="nc-icon-wrapper"><path d="M9.991 15a1 1 0 0 0 1-1V6a1 1 0 1 0-2 0v8a1 1 0 0 0 1 1zm4 0a1 1 0 0 0 1-1V6a1 1 0 1 0-2 0v8a1 1 0 0 0 1 1zm-8-2a1 1 0 0 0 1-1V8a1 1 0 0 0-2 0v4a1 1 0 0 0 1 1zm14-12h-16a3.003 3.003 0 0 0-3 3v16a3.003 3.003 0 0 0 3 3h16a3.003 3.003 0 0 0 3-3V4a3.003 3.003 0 0 0-3-3zm1 19a1 1 0 0 1-1 1h-16a1 1 0 0 1-1-1V4a1 1 0 0 1 1-1h16a1 1 0 0 1 1 1zm-3.643-4.591A8.82 8.82 0 0 1 11.99 17a8.987 8.987 0 0 1-5.356-1.591 1 1 0 1 0-1.287 1.53A10.8 10.8 0 0 0 11.99 19a10.8 10.8 0 0 0 6.644-2.06 1 1 0 0 0-1.287-1.531zM17.99 7a1 1 0 0 0-1 1v4a1 1 0 1 0 2 0V8a1 1 0 0 0-1-1z"/></g></svg>