<svg xmlns="http://www.w3.org/2000/svg" data-name="Layer 1" viewBox="0 0 24 24" width="24" height="24"><title>slack alt</title><g class="nc-icon-wrapper"><path d="M23 9.5A3.504 3.504 0 0 0 19.5 6a3.46 3.46 0 0 0-1.5.351V4.5a3.495 3.495 0 0 0-6-2.442A3.487 3.487 0 0 0 6.351 6H4.5a3.495 3.495 0 0 0-2.442 6A3.487 3.487 0 0 0 6 17.649V19.5a3.495 3.495 0 0 0 6 2.442A3.487 3.487 0 0 0 17.649 18H19.5a3.495 3.495 0 0 0 2.442-6A3.486 3.486 0 0 0 23 9.5zm-10-5a1.5 1.5 0 0 1 3 0v5a1.5 1.5 0 0 1-3 0zm-7 10A1.5 1.5 0 1 1 4.5 13H6zm5 5a1.5 1.5 0 0 1-3 0v-5a1.5 1.5 0 0 1 3 0zM9.5 11h-5a1.5 1.5 0 0 1 0-3h5a1.5 1.5 0 0 1 0 3zM11 6H9.5A1.5 1.5 0 1 1 11 4.5zm1 6.058a3.725 3.725 0 0 0-.058-.058l.058-.058.058.058-.058.058zM14.5 21a1.502 1.502 0 0 1-1.5-1.5V18h1.5a1.5 1.5 0 0 1 0 3zm5-5h-5a1.5 1.5 0 0 1 0-3h5a1.5 1.5 0 0 1 0 3zm0-5H18V9.5a1.5 1.5 0 1 1 1.5 1.5z"/></g></svg>