<svg width="21" height="20" viewBox="0 0 21 20" fill="none" xmlns="http://www.w3.org/2000/svg">
<path d="M20.0005 7.66966C19.9373 7.48674 19.8224 7.32608 19.6698 7.20716C19.5171 7.08823 19.3333 7.01615 19.1405 6.99966L13.4505 6.16966L10.9005 0.999657C10.8186 0.830586 10.6907 0.687999 10.5316 0.58823C10.3724 0.488462 10.1883 0.435547 10.0005 0.435547C9.81261 0.435547 9.62855 0.488462 9.46938 0.58823C9.3102 0.687999 9.18235 0.830586 9.10047 0.999657L6.55047 6.15966L0.860466 6.99966C0.675388 7.02596 0.50139 7.10362 0.358216 7.22381C0.215042 7.34401 0.108426 7.50193 0.0504657 7.67966C-0.00258931 7.85333 -0.00735037 8.03817 0.0366935 8.21435C0.0807373 8.39052 0.171923 8.55138 0.300466 8.67966L4.43047 12.6797L3.43047 18.3597C3.39477 18.5471 3.41346 18.7409 3.48434 18.9181C3.55522 19.0953 3.67532 19.2485 3.83047 19.3597C3.98168 19.4678 4.16004 19.5316 4.34551 19.5439C4.53099 19.5563 4.71624 19.5167 4.88047 19.4297L10.0005 16.7597L15.1005 19.4397C15.2408 19.5188 15.3993 19.5602 15.5605 19.5597C15.7723 19.5604 15.9789 19.4939 16.1505 19.3697C16.3056 19.2585 16.4257 19.1053 16.4966 18.9281C16.5675 18.7509 16.5862 18.5571 16.5505 18.3697L15.5505 12.6897L19.6805 8.68966C19.8248 8.56734 19.9316 8.40656 19.9882 8.22601C20.0448 8.04545 20.0491 7.85253 20.0005 7.66966ZM13.8505 11.6697C13.7332 11.7831 13.6454 11.9235 13.5949 12.0786C13.5444 12.2338 13.5325 12.3989 13.5605 12.5597L14.2805 16.7497L10.5205 14.7497C10.3758 14.6726 10.2144 14.6323 10.0505 14.6323C9.88655 14.6323 9.72515 14.6726 9.58047 14.7497L5.82047 16.7497L6.54047 12.5597C6.5684 12.3989 6.55658 12.2338 6.50603 12.0786C6.45548 11.9235 6.36774 11.7831 6.25047 11.6697L3.25047 8.66966L7.46047 8.05966C7.62246 8.03712 7.77646 7.9752 7.90896 7.87931C8.04147 7.78342 8.14842 7.65649 8.22047 7.50966L10.0005 3.69966L11.8805 7.51966C11.9525 7.66649 12.0595 7.79342 12.192 7.88931C12.3245 7.9852 12.4785 8.04712 12.6405 8.06966L16.8505 8.67966L13.8505 11.6697Z" fill="#32AF85"/>
</svg>
