<svg width="32" height="32" viewBox="0 0 32 32" fill="none" xmlns="http://www.w3.org/2000/svg">
<rect width="32" height="32" fill="#E5E5E5"/>
<g clip-path="url(#clip0)">
<rect x="-752" y="-1274" width="1440" height="2927" fill="#F2F2F2"/>
<g filter="url(#filter0_d)">
<rect x="-277" y="-351" width="815" height="789" fill="white"/>
</g>
<rect x="-255.5" y="-278.5" width="772" height="694" rx="1.5" fill="white" stroke="#E0E0E0"/>
<g filter="url(#filter1_d)">
<rect x="-236" y="-176" width="733" height="572" rx="2" fill="#F9F9F9"/>
<rect x="-235.5" y="-175.5" width="732" height="571" rx="1.5" stroke="#E0E0E0"/>
</g>
<g filter="url(#filter2_d)">
<rect x="-53" y="-18" width="166" height="67" rx="2" fill="white"/>
<rect x="-52.5" y="-17.5" width="165" height="66" rx="1.5" stroke="#37A000"/>
</g>
<path d="M30.6668 9.33301L21.3335 15.9997L30.6668 22.6663V9.33301Z" stroke="#37A000" stroke-width="2" stroke-linecap="round" stroke-linejoin="round"/>
<path d="M18.6668 6.66699H4.00016C2.5274 6.66699 1.3335 7.8609 1.3335 9.33366V22.667C1.3335 24.1398 2.5274 25.3337 4.00016 25.3337H18.6668C20.1396 25.3337 21.3335 24.1398 21.3335 22.667V9.33366C21.3335 7.8609 20.1396 6.66699 18.6668 6.66699Z" stroke="#37A000" stroke-width="2" stroke-linecap="round" stroke-linejoin="round"/>
</g>
<defs>
<filter id="filter0_d" x="-282" y="-356" width="825" height="799" filterUnits="userSpaceOnUse" color-interpolation-filters="sRGB">
<feFlood flood-opacity="0" result="BackgroundImageFix"/>
<feColorMatrix in="SourceAlpha" type="matrix" values="0 0 0 0 0 0 0 0 0 0 0 0 0 0 0 0 0 0 127 0"/>
<feOffset/>
<feGaussianBlur stdDeviation="2.5"/>
<feColorMatrix type="matrix" values="0 0 0 0 0 0 0 0 0 0 0 0 0 0 0 0 0 0 0.05 0"/>
<feBlend mode="normal" in2="BackgroundImageFix" result="effect1_dropShadow"/>
<feBlend mode="normal" in="SourceGraphic" in2="effect1_dropShadow" result="shape"/>
</filter>
<filter id="filter1_d" x="-241" y="-181" width="743" height="582" filterUnits="userSpaceOnUse" color-interpolation-filters="sRGB">
<feFlood flood-opacity="0" result="BackgroundImageFix"/>
<feColorMatrix in="SourceAlpha" type="matrix" values="0 0 0 0 0 0 0 0 0 0 0 0 0 0 0 0 0 0 127 0"/>
<feOffset/>
<feGaussianBlur stdDeviation="2.5"/>
<feColorMatrix type="matrix" values="0 0 0 0 0 0 0 0 0 0 0 0 0 0 0 0 0 0 0.05 0"/>
<feBlend mode="normal" in2="BackgroundImageFix" result="effect1_dropShadow"/>
<feBlend mode="normal" in="SourceGraphic" in2="effect1_dropShadow" result="shape"/>
</filter>
<filter id="filter2_d" x="-58" y="-20" width="176" height="77" filterUnits="userSpaceOnUse" color-interpolation-filters="sRGB">
<feFlood flood-opacity="0" result="BackgroundImageFix"/>
<feColorMatrix in="SourceAlpha" type="matrix" values="0 0 0 0 0 0 0 0 0 0 0 0 0 0 0 0 0 0 127 0"/>
<feOffset dy="3"/>
<feGaussianBlur stdDeviation="2.5"/>
<feColorMatrix type="matrix" values="0 0 0 0 0 0 0 0 0 0 0 0 0 0 0 0 0 0 0.2 0"/>
<feBlend mode="normal" in2="BackgroundImageFix" result="effect1_dropShadow"/>
<feBlend mode="normal" in="SourceGraphic" in2="effect1_dropShadow" result="shape"/>
</filter>
<clipPath id="clip0">
<rect x="-752" y="-1274" width="1440" height="2927" fill="white"/>
</clipPath>
</defs>
</svg>
