<svg width="246" height="245" viewBox="0 0 246 245" fill="none" xmlns="http://www.w3.org/2000/svg">
<path d="M0.507935 191.413V52.8764C0.507935 23.6622 24.2764 0 53.6218 0H192.78C222.125 0 245.894 23.6622 245.894 52.8764V191.413C245.894 220.627 222.125 244.289 192.78 244.289H53.6218C24.2764 244.289 0.507935 220.627 0.507935 191.413Z" fill="url(#paint0_linear)"/>
<path d="M188.796 122.277C188.796 121.219 188.664 120.162 188.531 119.104C188 114.477 186.008 110.115 182.556 106.546C178.97 102.977 174.456 100.994 169.675 100.597C168.348 100.333 166.887 100.201 165.426 100.069H133.425L156.264 77.3317C165.161 67.9462 165.692 53.6695 157.194 45.2093C148.696 36.7491 134.355 37.1457 124.927 46.1346L65.0412 105.753C63.979 106.81 63.1823 108 62.3856 109.058C59.4643 112.759 57.7381 117.253 57.7381 122.144C57.7381 125.053 58.402 127.829 59.4643 130.472C60.5266 133.248 62.12 135.76 64.2446 137.875C67.5642 141.18 71.8133 143.163 76.3279 143.692C77.9213 143.956 79.5147 144.22 81.1081 144.22H113.375L90.6686 166.825C81.7721 176.211 81.2409 190.355 89.7391 198.947C98.2374 207.408 112.578 207.011 122.006 198.022L181.759 138.536C183.751 136.553 185.211 134.306 186.274 131.927C187.867 129.018 188.796 125.714 188.796 122.277ZM127.981 50.1004C128.114 49.9682 128.247 49.9682 128.247 49.836C132.097 46.2668 136.878 44.284 141.924 44.284C146.438 44.284 150.554 45.8703 153.476 48.9107C160.115 55.5202 159.717 66.6243 152.546 74.0269C152.414 74.1591 152.413 74.2913 152.281 74.2913L126.388 100.069H80.9754C79.7803 100.069 78.4525 100.201 77.2574 100.465L127.981 50.1004ZM93.4572 139.329H81.6393C81.5065 139.329 81.3738 139.329 81.241 139.329C79.9131 139.329 78.5853 139.065 77.2574 138.801C71.1494 137.479 66.3691 133.645 64.1117 128.49C62.2528 123.334 63.0494 117.121 66.5018 111.966C69.8215 107.868 75.1329 105.224 81.241 105.092C81.3738 105.092 81.5065 105.092 81.6393 105.092H121.475H128.512H153.343C152.281 105.753 151.351 106.546 150.422 107.471L118.288 139.461H93.4572V139.329ZM118.819 194.321C118.686 194.453 118.553 194.453 118.553 194.585C114.703 198.154 109.922 200.137 104.877 200.137C100.362 200.137 96.2456 198.551 93.3243 195.51C86.6851 188.901 87.0835 177.797 94.2538 170.394C94.3866 170.262 94.3866 170.13 94.5194 170.13L120.412 144.353L125.458 139.329L153.609 111.305C153.741 111.173 153.874 111.173 153.874 111.04C157.725 107.471 162.505 105.488 167.551 105.488C168.082 105.488 168.48 105.488 169.012 105.621C177.244 107.207 183.352 113.552 183.883 121.351C184.016 124.127 183.352 126.903 182.157 129.547C181.228 131.662 179.9 133.513 178.174 135.364C178.041 135.496 178.041 135.628 177.908 135.628L169.543 143.956L118.819 194.321Z" fill="white"/>
<defs>
<linearGradient id="paint0_linear" x1="123.219" y1="-3.04806" x2="123.219" y2="248.702" gradientUnits="userSpaceOnUse">
<stop stop-color="#6FDA44"/>
<stop offset="0.9944" stop-color="#37A000"/>
</linearGradient>
</defs>
</svg>
