<svg width="80" height="60" viewBox="0 0 80 60" fill="none" xmlns="http://www.w3.org/2000/svg">
<g clip-path="url(#clip0)">
<path d="M75.5608 59.7371H4.35204C2.11028 59.7371 0.395996 58.0229 0.395996 55.7811V4.35253C0.395996 2.11077 2.11028 0.396484 4.35204 0.396484H75.5608C77.8026 0.396484 79.5169 2.11077 79.5169 4.35253V55.7811C79.5169 57.891 77.6707 59.7371 75.5608 59.7371Z" fill="white" stroke="#37A000" stroke-miterlimit="10"/>
<path d="M79.5169 7.64923H0.395996V4.35253C0.395996 2.11077 2.11028 0.396484 4.35204 0.396484H75.5608C77.8026 0.396484 79.5169 2.11077 79.5169 4.35253V7.64923Z" fill="#9CCE7C" stroke="#37A000" stroke-miterlimit="10"/>
<path d="M41.5384 28.088H23.7362C22.945 28.088 22.4175 27.5605 22.4175 26.7693V21.099C22.4175 20.3077 22.945 19.7803 23.7362 19.7803H41.5384C42.3296 19.7803 42.857 20.3077 42.857 21.099V26.7693C42.857 27.4286 42.3296 28.088 41.5384 28.088Z" fill="white" stroke="#37A000" stroke-width="0.5" stroke-miterlimit="10"/>
<path d="M34.0222 48.2647H16.22C15.4288 48.2647 14.9014 47.7373 14.9014 46.946V41.2757C14.9014 40.4845 15.4288 39.957 16.22 39.957H34.0222C34.8135 39.957 35.3409 40.4845 35.3409 41.2757V46.946C35.3409 47.6054 34.8135 48.2647 34.0222 48.2647Z" fill="white" stroke="#CCCCCC" stroke-width="0.5" stroke-miterlimit="10"/>
<path d="M37.847 42.3302H20.0448C19.2535 42.3302 18.7261 41.8027 18.7261 41.0115V35.3411C18.7261 34.5499 19.2535 34.0225 20.0448 34.0225H37.847C38.6382 34.0225 39.1656 34.5499 39.1656 35.3411V41.0115C39.1656 41.6708 38.5063 42.3302 37.847 42.3302Z" fill="#9CCE7C" stroke="#37A000" stroke-width="0.5" stroke-miterlimit="10"/>
<path d="M22.4189 38.1113H35.342" stroke="#37A000" stroke-width="0.5" stroke-miterlimit="10"/>
<path d="M64.3518 48.2647H46.5496C45.7584 48.2647 45.231 47.7373 45.231 46.946V41.2757C45.231 40.4845 45.7584 39.957 46.5496 39.957H64.3518C65.143 39.957 65.6705 40.4845 65.6705 41.2757V46.946C65.6705 47.6054 65.143 48.2647 64.3518 48.2647Z" fill="#9CCE7C" stroke="#37A000" stroke-width="0.5" stroke-miterlimit="10"/>
<path d="M49.0557 44.0459H61.9787" stroke="#37A000" stroke-width="0.5" stroke-miterlimit="10"/>
<path d="M39.5737 43.0089C39.1781 43.0089 38.9144 43.2726 38.9144 43.6682V45.2507C38.9144 45.3825 38.7825 45.5144 38.6506 45.5144C38.5188 45.5144 38.3869 45.3825 38.3869 45.2507V43.0089C38.3869 42.6133 38.1231 42.3496 37.7275 42.3496C37.3319 42.3496 37.0682 42.6133 37.0682 43.0089V45.2507C37.0682 45.3825 36.9363 45.5144 36.8045 45.5144C36.6726 45.5144 36.5407 45.3825 36.5407 45.2507V42.3496C36.5407 41.954 36.277 41.6902 35.8814 41.6902C35.4858 41.6902 35.222 41.954 35.222 42.3496V45.2507C35.222 45.3825 35.0902 45.5144 34.9583 45.5144C34.8264 45.5144 34.6946 45.3825 34.6946 45.2507V39.1847C34.6946 38.7891 34.4308 38.5254 34.0352 38.5254C33.6396 38.5254 33.3759 38.7891 33.3759 39.1847V47.2287C33.3759 47.3606 33.3759 47.4924 33.244 47.4924C33.1122 47.4924 32.9803 47.4924 32.9803 47.4924L30.7385 46.4375C30.6067 46.3056 30.3429 46.3056 30.2111 46.3056C29.9473 46.3056 29.6836 46.5693 29.6836 46.8331C29.6836 46.965 29.6836 47.0968 29.8155 47.2287L33.9034 51.3166C34.6946 52.1078 35.7495 52.6353 36.9363 52.6353C38.9144 52.6353 40.4968 51.0529 40.4968 49.0748V43.6682C40.1012 43.2726 39.8374 43.0089 39.5737 43.0089Z" fill="white"/>
<path d="M39.8249 42.5938C39.5611 42.5938 39.2974 42.7257 39.1655 42.8576C39.0337 42.3301 38.5062 42.0664 37.9787 42.0664C37.715 42.0664 37.4512 42.1982 37.3194 42.3301C37.1875 41.8026 36.66 41.5389 36.1326 41.5389C35.8688 41.5389 35.737 41.5389 35.4732 41.6708V39.5609C35.4732 38.9015 34.9458 38.2422 34.1545 38.2422C33.4952 38.2422 32.8359 38.7697 32.8359 39.5609V47.0774L31.1216 46.1543C30.8578 46.0224 30.5941 45.8905 30.3304 45.8905C29.671 45.8905 29.1436 46.418 29.1436 47.0774C29.1436 47.3411 29.2754 47.7367 29.5392 48.0004L33.6271 52.0883C34.5501 53.0114 35.737 53.5389 37.1875 53.5389C39.4293 53.5389 41.2754 51.6927 41.2754 49.451V44.0444C41.0117 43.1213 40.4842 42.5938 39.8249 42.5938ZM40.3524 49.3191C40.3524 51.2971 38.7699 52.8795 36.7919 52.8795C35.6051 52.8795 34.5501 52.4839 33.7589 51.5609L29.671 47.473C29.5392 47.3411 29.5392 47.2092 29.5392 47.0774C29.5392 46.8136 29.8029 46.5499 30.0666 46.5499C30.1985 46.5499 30.4622 46.5499 30.5941 46.6817L32.8359 47.7367C32.9677 47.7367 33.0996 47.7367 33.0996 47.7367C33.2315 47.7367 33.2315 47.6048 33.2315 47.473V39.429C33.2315 39.0334 33.4952 38.7697 33.8908 38.7697C34.2864 38.7697 34.5502 39.0334 34.5502 39.429V45.4949C34.5502 45.6268 34.682 45.7587 34.8139 45.7587C34.9458 45.7587 35.0776 45.6268 35.0776 45.4949V42.5938C35.0776 42.1982 35.3414 41.9345 35.737 41.9345C36.1326 41.9345 36.3963 42.1982 36.3963 42.5938V45.4949C36.3963 45.6268 36.5282 45.7587 36.66 45.7587C36.7919 45.7587 36.9238 45.6268 36.9238 45.4949V43.2532C36.9238 42.8576 37.1875 42.5938 37.5831 42.5938C37.9787 42.5938 38.2425 42.8576 38.2425 43.2532V45.4949C38.2425 45.6268 38.3743 45.7587 38.5062 45.7587C38.6381 45.7587 38.7699 45.6268 38.7699 45.4949V43.9125C38.7699 43.5169 39.0337 43.2532 39.4293 43.2532C39.8249 43.2532 40.0886 43.5169 40.0886 43.9125L40.3524 49.3191Z" fill="#808080"/>
<path d="M12.1328 16.2207H67.6493" stroke="#37A000" stroke-width="0.5" stroke-miterlimit="10"/>
<path d="M12.1328 23.8701H18.7262" stroke="#37A000" stroke-width="0.5" stroke-miterlimit="10"/>
<path d="M45.7588 23.8701H67.6489" stroke="#37A000" stroke-width="0.5" stroke-miterlimit="10"/>
</g>
<defs>
<clipPath id="clip0">
<rect width="79.7802" height="60" fill="white"/>
</clipPath>
</defs>
</svg>
