<svg width="80" height="60" viewBox="0 0 80 60" fill="none" xmlns="http://www.w3.org/2000/svg">
<g clip-path="url(#clip0)">
<path d="M75.5608 59.7371H4.35204C2.11028 59.7371 0.395996 58.0229 0.395996 55.7811V4.35253C0.395996 2.11077 2.11028 0.396484 4.35204 0.396484H75.5608C77.8026 0.396484 79.5169 2.11077 79.5169 4.35253V55.7811C79.5169 57.891 77.6707 59.7371 75.5608 59.7371Z" fill="white" stroke="#37A000" stroke-miterlimit="10"/>
<path d="M79.5169 7.64923H0.395996V4.35253C0.395996 2.11077 2.11028 0.396484 4.35204 0.396484H75.5608C77.8026 0.396484 79.5169 2.11077 79.5169 4.35253V7.64923Z" fill="#9CCE7C" stroke="#37A000" stroke-miterlimit="10"/>
<path d="M66.3306 47.3427H13.4515C12.6603 47.3427 12.1328 46.8152 12.1328 46.024V17.013C12.1328 16.2218 12.6603 15.6943 13.4515 15.6943H66.4625C67.2537 15.6943 67.7812 16.2218 67.7812 17.013V46.024C67.6493 46.8152 67.1218 47.3427 66.3306 47.3427Z" fill="white" stroke="#37A000" stroke-width="0.5" stroke-miterlimit="10"/>
<path d="M18.0669 21.6279H61.3196" stroke="#37A000" stroke-width="0.5" stroke-miterlimit="10"/>
<path d="M18.0669 27.2969H51.5614" stroke="#37A000" stroke-width="0.5" stroke-miterlimit="10"/>
<path d="M18.0669 32.8369H45.8911" stroke="#37A000" stroke-width="0.5" stroke-miterlimit="10"/>
<path d="M18.0669 38.5049H43.6493" stroke="#37A000" stroke-width="0.5" stroke-miterlimit="10"/>
<path d="M56.3786 26.5199L49.4785 33.4199L52.1826 36.124L59.0827 29.2239L56.3786 26.5199Z" fill="#9CCE7C"/>
<path d="M59.0777 25.5828C58.5502 25.1872 57.8909 25.1872 57.3634 25.5828L56.9678 25.9784L59.737 28.7477L60.1326 28.3521C60.5282 27.9565 60.6601 27.1653 60.1326 26.6378L59.0777 25.5828Z" fill="#9CCE7C"/>
<path d="M47.8687 37.7167L51.561 36.5299L49.0555 34.1562L47.8687 37.7167Z" fill="#9CCE7C"/>
<path d="M59.6051 25.0563C58.8139 24.2651 57.6271 24.2651 56.8359 25.0563L56.1766 25.7156L48.792 33.1003L46.9458 38.2431C46.9458 38.375 46.9458 38.5069 47.0777 38.6387C47.2095 38.7706 47.2095 38.7706 47.3414 38.7706H47.4733L52.4843 37.0563L60.6601 28.8805C61.4513 28.0893 61.4513 26.9025 60.6601 26.1112L59.6051 25.0563ZM47.8689 37.7156L49.0557 34.1552L51.4293 36.5288L47.8689 37.7156ZM52.2205 36.1332L49.4513 33.364L56.3084 26.5068L59.0777 29.2761L52.2205 36.1332ZM60.1326 28.353L59.737 28.7486L56.9678 25.9794L57.3634 25.5838C57.759 25.1882 58.5502 25.1882 59.0777 25.5838L60.1326 26.6387C60.5282 27.1662 60.5282 27.8255 60.1326 28.353Z" fill="#37A000"/>
</g>
<defs>
<clipPath id="clip0">
<rect width="79.7802" height="60" fill="white"/>
</clipPath>
</defs>
</svg>
