<svg width="80" height="60" viewBox="0 0 80 60" fill="none" xmlns="http://www.w3.org/2000/svg">
<g clip-path="url(#clip0)">
<path d="M75.5608 59.7367H4.35204C2.11028 59.7367 0.395996 58.0224 0.395996 55.7806V4.35204C0.395996 2.11028 2.11028 0.395996 4.35204 0.395996H75.5608C77.8026 0.395996 79.5169 2.11028 79.5169 4.35204V55.7806C79.5169 57.8905 77.6707 59.7367 75.5608 59.7367Z" fill="white" stroke="#37A000" stroke-miterlimit="10"/>
<path d="M79.5169 7.64874H0.395996V4.35204C0.395996 2.11028 2.11028 0.395996 4.35204 0.395996H75.5608C77.8026 0.395996 79.5169 2.11028 79.5169 4.35204V7.64874Z" fill="#9CCE7C" stroke="#37A000" stroke-miterlimit="10"/>
<path d="M22.2866 43.5679L58.2866 43.5679" stroke="#37A000" stroke-width="0.5" stroke-miterlimit="10"/>
<path d="M18.8584 50.4248L61.7155 50.4248" stroke="#37A000" stroke-width="0.5" stroke-miterlimit="10"/>
<path d="M35.7964 37.6389L35.9669 37.8095L35.9671 37.5683L35.9678 36.5698C35.968 36.3477 36.148 36.1678 36.37 36.1678H41.7925C43.2324 36.1678 44.4037 34.9965 44.4037 33.5566V30.0912C44.4037 29.8691 44.5838 29.689 44.8059 29.689C45.0281 29.689 45.2082 29.8691 45.2082 30.0912V33.5566C45.2082 35.4399 43.6758 36.9723 41.7925 36.9723H36.8719H36.7719L36.7719 37.0722L36.7707 38.7801C36.7706 38.9428 36.6725 39.0893 36.5222 39.1515L36.5604 39.2439L36.5222 39.1515C36.4725 39.1721 36.4203 39.1821 36.3685 39.1821C36.2638 39.1821 36.161 39.1412 36.084 39.0643L34.0213 37.0016L33.992 36.9723H33.9506H30.9443C29.061 36.9723 27.5287 35.4399 27.5287 33.5566V25.8223C27.5287 23.939 29.061 22.4066 30.9443 22.4066H36.0169C36.239 22.4066 36.4191 22.5867 36.4191 22.8089C36.4191 23.031 36.239 23.2111 36.0169 23.2111H30.9443C29.5045 23.2111 28.3332 24.3824 28.3332 25.8223V33.5566C28.3332 34.9965 29.5045 36.1678 30.9443 36.1678H34.2078C34.3722 36.1678 34.5145 36.2667 34.5767 36.4095L34.5843 36.4269L34.5977 36.4403L35.7964 37.6389Z" fill="#37A000" stroke="white" stroke-width="0.2"/>
<path d="M49.6867 25.9793C51.3082 24.7581 52.2385 22.8945 52.2385 20.8676C52.2385 17.3412 49.3698 14.4723 45.8433 14.4723H44.5722C41.0457 14.4723 38.1769 17.3412 38.1769 20.8676C38.1769 24.3941 41.0457 27.2629 44.5722 27.2629H45.8433C46.484 27.2629 47.1169 27.1683 47.7243 26.9817L47.7243 26.9816C47.7632 26.9697 47.803 26.9639 47.8424 26.9639C47.9475 26.9639 48.0502 27.0051 48.1268 27.0816C48.1268 27.0816 48.1268 27.0816 48.1268 27.0816L49.3558 28.31L49.5265 28.4806V28.2392V26.3006C49.5265 26.1743 49.5858 26.0553 49.6867 25.9793ZM49.6867 25.9793L49.6265 25.8994L49.6867 25.9793C49.6867 25.9793 49.6867 25.9793 49.6867 25.9793ZM47.7667 27.8591L47.7261 27.8185L47.6707 27.8331C47.0763 27.9886 46.463 28.0673 45.8433 28.0673H44.5722C40.6023 28.0673 37.3725 24.8375 37.3725 20.8676C37.3725 16.8978 40.6023 13.6679 44.5722 13.6679H45.8433C49.8131 13.6679 53.043 16.8978 53.043 20.8676C53.043 22.0179 52.7799 23.1167 52.2607 24.1344C51.8036 25.0304 51.1522 25.8327 50.368 26.4678L50.3309 26.4978V26.5455V29.4512C50.3309 29.6139 50.233 29.7605 50.0827 29.8228L50.0827 29.8228C50.0329 29.8434 49.9807 29.8534 49.9288 29.8534C49.8241 29.8534 49.7213 29.8126 49.6444 29.7357C49.6444 29.7357 49.6444 29.7357 49.6444 29.7357L47.7667 27.8591Z" fill="#37A000" stroke="white" stroke-width="0.2"/>
<path d="M43.9729 17.7313L43.9729 17.7313C43.5637 18.1132 43.329 18.6534 43.329 19.2128C43.329 19.435 43.5091 19.6151 43.7312 19.6151C43.9533 19.6151 44.1335 19.435 44.1335 19.2128C44.1335 18.8707 44.2717 18.5529 44.5218 18.3194L44.5218 18.3194C44.772 18.086 45.0994 17.9703 45.4428 17.994C45.4428 17.994 45.4428 17.994 45.4428 17.994L43.9729 17.7313ZM43.9729 17.7313C44.3879 17.3439 44.9295 17.1524 45.498 17.1914L43.9729 17.7313Z" fill="#37A000" stroke="white" stroke-width="0.2"/>
<path d="M45.3484 24.0302C45.4539 24.0302 45.5581 24.0733 45.6328 24.148L45.6328 24.148C45.7074 24.2228 45.7507 24.3269 45.7507 24.4324C45.7507 24.5383 45.7076 24.642 45.6327 24.7174C45.5582 24.7918 45.4542 24.8346 45.3484 24.8346C45.2426 24.8346 45.1386 24.7918 45.0641 24.7173C44.9894 24.6426 44.9462 24.5385 44.9462 24.4324C44.9462 24.3269 44.9894 24.2227 45.0641 24.148C45.1387 24.0734 45.2429 24.0302 45.3484 24.0302Z" fill="#37A000" stroke="white" stroke-width="0.2"/>
<path d="M30.6429 29.2372H41.24C41.4621 29.2372 41.6422 29.4173 41.6422 29.6394C41.6422 29.8616 41.4621 30.0417 41.24 30.0417H30.6429C30.4207 30.0417 30.2406 29.8616 30.2406 29.6394C30.2406 29.4173 30.4207 29.2372 30.6429 29.2372Z" fill="#37A000" stroke="white" stroke-width="0.2"/>
<path d="M41.5243 32.1676L41.5243 32.1676C41.599 32.2423 41.6423 32.3464 41.6423 32.4519C41.6423 32.5579 41.5991 32.6616 41.5244 32.7363L41.5243 32.7363C41.4497 32.811 41.3456 32.8542 41.24 32.8542C41.1345 32.8542 41.0303 32.811 40.9557 32.7363C40.881 32.6616 40.8378 32.5575 40.8378 32.4519C40.8378 32.3464 40.8809 32.2423 40.9556 32.1676L40.9557 32.1676C41.0303 32.0929 41.1345 32.0497 41.24 32.0497C41.3456 32.0497 41.4497 32.0929 41.5243 32.1676Z" fill="#37A000" stroke="white" stroke-width="0.2"/>
<path d="M30.6429 32.0497H39.2645C39.4866 32.0497 39.6668 32.2298 39.6668 32.4519C39.6668 32.6741 39.4867 32.8542 39.2645 32.8542H30.6429C30.4207 32.8542 30.2406 32.6741 30.2406 32.4519C30.2406 32.2298 30.4207 32.0497 30.6429 32.0497Z" fill="#37A000" stroke="white" stroke-width="0.2"/>
<path d="M30.6429 26.4247H37.9754C38.1976 26.4247 38.3777 26.6048 38.3777 26.8269C38.3777 27.0491 38.1976 27.2292 37.9754 27.2292H30.6429C30.4207 27.2292 30.2406 27.0491 30.2406 26.8269C30.2406 26.6048 30.4207 26.4247 30.6429 26.4247Z" fill="#37A000" stroke="white" stroke-width="0.2"/>
</g>
<defs>
<clipPath id="clip0">
<rect width="79.7802" height="60" fill="white"/>
</clipPath>
</defs>
</svg>
