<svg width="80" height="60" viewBox="0 0 80 60" fill="none" xmlns="http://www.w3.org/2000/svg">
<g clip-path="url(#clip0)">
<path d="M75.5608 59.7367H4.35204C2.11028 59.7367 0.395996 58.0224 0.395996 55.7806V4.35204C0.395996 2.11028 2.11028 0.395996 4.35204 0.395996H75.5608C77.8026 0.395996 79.5169 2.11028 79.5169 4.35204V55.7806C79.5169 57.8905 77.6707 59.7367 75.5608 59.7367Z" fill="white" stroke="#37A000" stroke-miterlimit="10"/>
<path d="M79.5169 7.64874H0.395996V4.35204C0.395996 2.11028 2.11028 0.395996 4.35204 0.395996H75.5608C77.8026 0.395996 79.5169 2.11028 79.5169 4.35204V7.64874Z" fill="#9CCE7C" stroke="#37A000" stroke-miterlimit="10"/>
<path d="M66.3306 47.3417H13.4515C12.6603 47.3417 12.1328 46.8142 12.1328 46.023V17.012C12.1328 16.2208 12.6603 15.6934 13.4515 15.6934H66.4625C67.2537 15.6934 67.7812 16.2208 67.7812 17.012V46.023C67.6493 46.8142 67.1218 47.3417 66.3306 47.3417Z" fill="white" stroke="#37A000" stroke-width="0.5" stroke-miterlimit="10"/>
<path d="M18.0669 21.6279H61.3196" stroke="#37A000" stroke-width="0.5" stroke-miterlimit="10"/>
<path d="M18.0669 27.2964H51.5614" stroke="#37A000" stroke-width="0.5" stroke-miterlimit="10"/>
<path d="M18.0669 32.8369H45.8911" stroke="#37A000" stroke-width="0.5" stroke-miterlimit="10"/>
<path d="M18.0669 38.5044H43.6493" stroke="#37A000" stroke-width="0.5" stroke-miterlimit="10"/>
<path d="M56.3786 26.5194L49.4785 33.4194L52.1826 36.1235L59.0827 29.2235L56.3786 26.5194Z" fill="#9CCE7C"/>
<path d="M59.0777 25.5828C58.5502 25.1872 57.8909 25.1872 57.3634 25.5828L56.9678 25.9784L59.737 28.7477L60.1326 28.3521C60.5282 27.9565 60.6601 27.1653 60.1326 26.6378L59.0777 25.5828Z" fill="#9CCE7C"/>
<path d="M47.8687 37.7157L51.561 36.5289L49.0555 34.1553L47.8687 37.7157Z" fill="#9CCE7C"/>
<path d="M59.6051 25.0553C58.8139 24.2641 57.6271 24.2641 56.8359 25.0553L56.1766 25.7147L48.792 33.0993L46.9458 38.2421C46.9458 38.374 46.9458 38.5059 47.0777 38.6377C47.2095 38.7696 47.2095 38.7696 47.3414 38.7696H47.4733L52.4843 37.0553L60.6601 28.8795C61.4513 28.0883 61.4513 26.9015 60.6601 26.1103L59.6051 25.0553ZM47.8689 37.7147L49.0557 34.1542L51.4293 36.5279L47.8689 37.7147ZM52.2205 36.1322L49.4513 33.363L56.3084 26.5059L59.0777 29.2751L52.2205 36.1322ZM60.1326 28.352L59.737 28.7476L56.9678 25.9784L57.3634 25.5828C57.759 25.1872 58.5502 25.1872 59.0777 25.5828L60.1326 26.6377C60.5282 27.1652 60.5282 27.8246 60.1326 28.352Z" fill="#37A000"/>
</g>
<defs>
<clipPath id="clip0">
<rect width="79.7802" height="60" fill="white"/>
</clipPath>
</defs>
</svg>
