<svg width="80" height="60" viewBox="0 0 80 60" fill="none" xmlns="http://www.w3.org/2000/svg">
<g clip-path="url(#clip0)">
<path d="M75.5608 59.7367H4.35204C2.11028 59.7367 0.395996 58.0224 0.395996 55.7806V4.35204C0.395996 2.11028 2.11028 0.395996 4.35204 0.395996H75.5608C77.8026 0.395996 79.5169 2.11028 79.5169 4.35204V55.7806C79.5169 57.8905 77.6707 59.7367 75.5608 59.7367Z" fill="white" stroke="#37A000" stroke-miterlimit="10"/>
<path d="M79.5169 7.64874H0.395996V4.35204C0.395996 2.11028 2.11028 0.395996 4.35204 0.395996H75.5608C77.8026 0.395996 79.5169 2.11028 79.5169 4.35204V7.64874Z" fill="#9CCE7C" stroke="#37A000" stroke-miterlimit="10"/>
<path d="M37.3191 20.3088C37.3191 18.8583 38.5059 17.6715 39.9565 17.6715V15.2979H12.2642V24.5286H39.9565V22.9462C38.5059 22.9462 37.3191 21.7594 37.3191 20.3088Z" fill="white" stroke="#37A000" stroke-width="0.5" stroke-miterlimit="10"/>
<path d="M44.9679 15.2979V17.6715C43.5174 17.6715 42.3306 18.8583 42.3306 20.3088C42.3306 21.7594 43.5174 22.9462 44.9679 22.9462V24.5286H72.6602V15.2979H44.9679Z" fill="#9CCE7C" stroke="#37A000" stroke-width="0.5" stroke-miterlimit="10"/>
<path d="M37.3191 33.4954C37.3191 32.0448 38.5059 30.858 39.9565 30.858V28.4844H12.2642V37.7151H39.9565V36.1327C38.5059 36.1327 37.3191 34.9459 37.3191 33.4954Z" fill="white" stroke="#37A000" stroke-width="0.5" stroke-miterlimit="10"/>
<path d="M39.8249 28.4844V30.858C38.3743 30.858 37.1875 32.0448 37.1875 33.4954C37.1875 34.9459 38.3743 36.1327 39.8249 36.1327V37.7151H67.5172V28.4844H39.8249Z" fill="#9CCE7C" stroke="#37A000" stroke-width="0.5" stroke-miterlimit="10"/>
<path d="M37.3191 46.6824C37.3191 45.2318 38.5059 44.045 39.9565 44.045V41.6714H12.2642V50.9022H39.9565V49.3197C38.5059 49.3197 37.3191 48.1329 37.3191 46.6824Z" fill="white" stroke="#37A000" stroke-width="0.5" stroke-miterlimit="10"/>
<path d="M39.8249 41.6714V44.045C38.3743 44.045 37.1875 45.2318 37.1875 46.6824C37.1875 48.1329 38.3743 49.3197 39.8249 49.3197V50.9022H67.5172V41.6714H39.8249Z" fill="#9CCE7C" stroke="#37A000" stroke-width="0.5" stroke-miterlimit="10"/>
<path d="M62.374 25.0529C61.9784 25.0529 61.7146 25.3166 61.7146 25.7122V27.2946C61.7146 27.4265 61.5828 27.5583 61.4509 27.5583C61.319 27.5583 61.1872 27.4265 61.1872 27.2946V25.0529C61.1872 24.6572 60.9234 24.3935 60.5278 24.3935C60.1322 24.3935 59.8685 24.6572 59.8685 25.0529V27.2946C59.8685 27.4265 59.7366 27.5583 59.6048 27.5583C59.4729 27.5583 59.341 27.4265 59.341 27.2946V24.3935C59.341 23.9979 59.0773 23.7342 58.6817 23.7342C58.2861 23.7342 58.0223 23.9979 58.0223 24.3935V27.2946C58.0223 27.4265 57.8905 27.5583 57.7586 27.5583C57.6267 27.5583 57.4949 27.4265 57.4949 27.2946V21.2287C57.4949 20.8331 57.2311 20.5693 56.8355 20.5693C56.4399 20.5693 56.1762 20.8331 56.1762 21.2287V29.2726C56.1762 29.4045 56.1762 29.5364 56.0443 29.5364C55.9125 29.5364 55.7806 29.5364 55.7806 29.5364L53.5388 28.4814C53.407 28.3496 53.1432 28.3496 53.0114 28.3496C52.7476 28.3496 52.4839 28.6133 52.4839 28.877C52.4839 29.0089 52.4839 29.1408 52.6158 29.2726L56.7037 33.3605C57.4949 34.1517 58.5498 34.6792 59.7366 34.6792C61.7146 34.6792 63.2971 33.0968 63.2971 31.1188V25.7122C62.9015 25.3166 62.6377 25.0529 62.374 25.0529Z" fill="white"/>
<path d="M62.3742 24.3946C62.1105 24.3946 61.8467 24.5265 61.7148 24.6584C61.583 24.1309 61.0555 23.8671 60.528 23.8671C60.2643 23.8671 60.0006 23.999 59.8687 24.1309C59.7368 23.6034 59.2094 23.3397 58.6819 23.3397C58.4181 23.3397 58.2863 23.3397 58.0225 23.4715V21.3617C58.0225 20.7023 57.4951 20.043 56.7039 20.043C56.0445 20.043 55.3852 20.5704 55.3852 21.3617V28.8781L53.6709 27.9551C53.4072 27.8232 53.1434 27.6913 52.8797 27.6913C52.2203 27.6913 51.6929 28.2188 51.6929 28.8781C51.6929 29.1419 51.8247 29.5375 52.0885 29.8012L56.1764 33.8891C57.0995 34.8122 58.2863 35.3397 59.7368 35.3397C61.9786 35.3397 63.8247 33.4935 63.8247 31.2518V25.8452C63.561 25.054 63.0335 24.3946 62.3742 24.3946ZM62.9017 31.1199C62.9017 33.0979 61.3192 34.6803 59.3412 34.6803C58.1544 34.6803 57.0995 34.2847 56.3083 33.3616L52.2203 29.2737C52.0885 29.1419 52.0885 29.01 52.0885 28.8781C52.0885 28.6144 52.3522 28.3507 52.6159 28.3507C52.7478 28.3507 53.0116 28.3507 53.1434 28.4825L55.3852 29.5375C55.517 29.5375 55.6489 29.5375 55.6489 29.5375C55.7808 29.5375 55.7808 29.4056 55.7808 29.2737V21.2298C55.7808 20.8342 56.0445 20.5704 56.4401 20.5704C56.8357 20.5704 57.0995 20.8342 57.0995 21.2298V27.2957C57.0995 27.4276 57.2313 27.5595 57.3632 27.5595C57.4951 27.5595 57.6269 27.4276 57.6269 27.2957V24.3946C57.6269 23.999 57.8907 23.7353 58.2863 23.7353C58.6819 23.7353 58.9456 23.999 58.9456 24.3946V27.2957C58.9456 27.4276 59.0775 27.5595 59.2094 27.5595C59.3412 27.5595 59.4731 27.4276 59.4731 27.2957V25.054C59.4731 24.6584 59.7368 24.3946 60.1324 24.3946C60.528 24.3946 60.7918 24.6584 60.7918 25.054V27.2957C60.7918 27.4276 60.9236 27.5595 61.0555 27.5595C61.1874 27.5595 61.3192 27.4276 61.3192 27.2957V25.7133C61.3192 25.3177 61.583 25.054 61.9786 25.054C62.3742 25.054 62.6379 25.3177 62.6379 25.7133L62.9017 31.1199Z" fill="#808080"/>
</g>
<defs>
<clipPath id="clip0">
<rect width="79.7802" height="60" fill="white"/>
</clipPath>
</defs>
</svg>
