<svg width="80" height="60" viewBox="0 0 80 60" fill="none" xmlns="http://www.w3.org/2000/svg">
<g clip-path="url(#clip0)">
<path d="M75.5608 59.7381H4.35204C2.11028 59.7381 0.395996 58.0238 0.395996 55.7821V4.35351C0.395996 2.11175 2.11028 0.397461 4.35204 0.397461H75.5608C77.8026 0.397461 79.5169 2.11175 79.5169 4.35351V55.7821C79.5169 57.892 77.6707 59.7381 75.5608 59.7381Z" fill="white" stroke="#37A000" stroke-miterlimit="10"/>
<path d="M79.5169 7.65021H0.395996V4.35351C0.395996 2.11175 2.11028 0.397461 4.35204 0.397461H75.5608C77.8026 0.397461 79.5169 2.11175 79.5169 4.35351V7.65021Z" fill="#9CCE7C" stroke="#37A000" stroke-miterlimit="10"/>
<path d="M30.7256 22.1553H58.8135" stroke="#37A000" stroke-width="0.5" stroke-miterlimit="10"/>
<path d="M30.7261 26.1113H67.2535" stroke="#37A000" stroke-width="0.5" stroke-miterlimit="10"/>
<path opacity="0.5" d="M31.2534 40.6162H59.3413" stroke="#37A000" stroke-width="0.5" stroke-miterlimit="10"/>
<path opacity="0.5" d="M31.2534 45.8906H63.0336" stroke="#37A000" stroke-width="0.5" stroke-miterlimit="10"/>
<path opacity="0.5" d="M31.2534 43.2539H67.9128" stroke="#37A000" stroke-width="0.5" stroke-miterlimit="10"/>
<path d="M24.1329 30.726H12.9241C12.1329 30.726 11.6055 30.1986 11.6055 29.4073V18.1986C11.6055 17.4074 12.1329 16.8799 12.9241 16.8799H24.1329C24.9241 16.8799 25.4516 17.4074 25.4516 18.1986V29.4073C25.4516 30.0667 24.7923 30.726 24.1329 30.726Z" fill="#9CCE7C" stroke="#37A000" stroke-width="0.5" stroke-miterlimit="10"/>
<path opacity="0.5" d="M24.1315 50.5073H12.9227C12.1315 50.5073 11.604 49.9798 11.604 49.1886V37.9798C11.604 37.1886 12.1315 36.6611 12.9227 36.6611H24.1315C24.9227 36.6611 25.4502 37.1886 25.4502 37.9798V49.1886C25.4502 49.8479 24.7908 50.5073 24.1315 50.5073Z" stroke="#37A000" stroke-width="0.5" stroke-miterlimit="10"/>
<path d="M15.0332 23.3441L17.8024 26.1133L21.8903 21.8936" stroke="white" stroke-width="0.75" stroke-miterlimit="10"/>
<path d="M15.8249 40.2207L18.4622 42.8581L20.9677 40.3526L21.6271 41.0119L19.1216 43.5174L21.7589 46.1548L21.0996 46.8141L18.4622 44.1767L15.9567 46.6822L15.2974 46.0229L17.8029 43.5174L15.1655 40.88L15.8249 40.2207Z" fill="#9CCE7C"/>
</g>
<defs>
<clipPath id="clip0">
<rect width="79.7802" height="60" fill="white"/>
</clipPath>
</defs>
</svg>
