<svg width="18" height="18" viewBox="0 0 18 18" fill="none" xmlns="http://www.w3.org/2000/svg">
<path fill-rule="evenodd" clip-rule="evenodd" d="M9.00033 0.666992C4.40033 0.666992 0.666992 4.40033 0.666992 9.00033C0.666992 13.6003 4.40033 17.3337 9.00033 17.3337C13.6003 17.3337 17.3337 13.6003 17.3337 9.00033C17.3337 4.40033 13.6003 0.666992 9.00033 0.666992ZM9.83366 8.16699V4.83366H8.16699V8.16699H4.83366V9.83366H8.16699V13.167H9.83366V9.83366H13.167V8.16699H9.83366ZM2.33366 9.00033C2.33366 12.6753 5.32533 15.667 9.00033 15.667C12.6753 15.667 15.667 12.6753 15.667 9.00033C15.667 5.32533 12.6753 2.33366 9.00033 2.33366C5.32533 2.33366 2.33366 5.32533 2.33366 9.00033Z" fill="#2D9CDB"/>
</svg>
