<svg width="24" height="24" viewBox="0 0 24 24" fill="none" xmlns="http://www.w3.org/2000/svg">
<path fill-rule="evenodd" clip-rule="evenodd" d="M13.92 9.5H11.92V6.5H8.92V4.5H11.92V1.5H13.92V4.5H16.92V6.5H13.92V9.5ZM5.93 20.5C5.93 19.4 6.82 18.5 7.92 18.5C9.02 18.5 9.92 19.4 9.92 20.5C9.92 21.6 9.02 22.5 7.92 22.5C6.82 22.5 5.93 21.6 5.93 20.5ZM17.92 18.5C16.82 18.5 15.93 19.4 15.93 20.5C15.93 21.6 16.82 22.5 17.92 22.5C19.02 22.5 19.92 21.6 19.92 20.5C19.92 19.4 19.02 18.5 17.92 18.5ZM16.47 13.5H9.02L7.92 15.5H19.92V17.5H7.92C6.4 17.5 5.44 15.87 6.17 14.53L7.52 12.09L3.92 4.5H1.92V2.5H5.19L9.45 11.5H16.47L20.34 4.5L22.08 5.46L18.22 12.47C17.88 13.09 17.22 13.5 16.47 13.5Z" fill="black" fill-opacity="0.54"/>
</svg>
