<svg width="24" height="24" viewBox="0 0 24 24" fill="none" xmlns="http://www.w3.org/2000/svg">
<path fill-rule="evenodd" clip-rule="evenodd" d="M4.70073 5.05C5.12073 4.85 5.56073 4.75 6.00073 4.75C7.12073 4.75 8.19073 5.38 8.71073 6.45C9.42073 7.94 8.79073 9.73 7.30073 10.45C6.88073 10.65 6.44073 10.75 6.00073 10.75C4.88073 10.75 3.81073 10.12 3.30073 9.05C2.58073 7.55 3.21073 5.76 4.70073 5.05ZM6.90073 7.31C6.70073 6.9 6.31073 6.75 6.00073 6.75C5.85073 6.75 5.71073 6.79 5.57073 6.85C5.24073 7.01 5.11073 7.27 5.06073 7.41C5.01073 7.56 4.94073 7.85 5.11073 8.19C5.30073 8.6 5.70073 8.75 6.00073 8.75C6.15073 8.75 6.29073 8.71 6.43073 8.65C6.92073 8.41 7.14073 7.81 6.90073 7.31ZM19.1607 11.27L12.4707 8.86L11.7707 10.76L20.3607 13.87L20.3707 13.85C20.5607 13.35 20.5307 12.8 20.3107 12.32C20.0907 11.83 19.6807 11.46 19.1607 11.27ZM10.0007 15.44L14.0007 16.88V17.25H10.0007V15.44ZM11.2807 6.3L9.20073 11.96L21.5607 16.43L22.2507 14.54C23.0207 12.45 21.9407 10.15 19.8407 9.39L11.2807 6.3ZM1.50073 12.39L2.19073 10.5L21.2107 17.36L20.5207 19.25L16.0007 17.62V19.25H8.00073V14.73L1.50073 12.39Z" fill="black" fill-opacity="0.54"/>
</svg>
