<svg width="24" height="24" viewBox="0 0 24 24" fill="none" xmlns="http://www.w3.org/2000/svg">
<path fill-rule="evenodd" clip-rule="evenodd" d="M5.35 6.13968C4.45 5.49968 4.23 4.25968 4.86 3.34968C5.49 2.44968 6.74 2.22968 7.65 2.85968C8.55 3.49968 8.77 4.73968 8.14 5.64968C7.5 6.54968 6.26 6.76968 5.35 6.13968ZM16 19.4997H8.93C7.45 19.4997 6.19 18.4197 5.97 16.9597L4 7.49968H2L3.99 17.2597C4.37 19.6997 6.47 21.4997 8.94 21.4997H16V19.4997ZM11.35 15.4997H16.23L22 19.9997L20.5 21.4997L16.68 18.4997H9.83C8.39 18.4997 7.16 17.4797 6.88 16.0597L5.53 10.1397C5.32 8.91968 6.14 7.74968 7.37 7.52968H7.39C7.72 7.46968 8.06 7.49968 8.38 7.58968C8.65 7.66968 8.91 7.78968 9.14 7.96968L10.78 9.23968C12.03 10.2197 13.84 10.7997 15.47 10.4897V12.6197C13.6 12.9397 11.9 12.2897 10.32 11.3997L11.35 15.4997Z" fill="black" fill-opacity="0.54"/>
</svg>
