<svg width="24" height="24" viewBox="0 0 24 24" fill="none" xmlns="http://www.w3.org/2000/svg">
<path fill-rule="evenodd" clip-rule="evenodd" d="M8.16304 3.44503L7.70304 3.82503L6.28304 2.40503L6.88304 1.90503L8.16304 3.44503ZM17.5595 1.90603L22.1669 5.74963L20.8857 7.28543L16.2783 3.44183L17.5595 1.90603ZM10.263 6.38503C10.883 6.20503 11.543 6.09503 12.223 6.09503C16.083 6.09503 19.223 9.23503 19.223 13.095C19.223 13.775 19.113 14.435 18.933 15.055L20.493 16.615C20.963 15.535 21.223 14.345 21.223 13.095C21.223 8.12503 17.193 4.09503 12.223 4.09503C10.973 4.09503 9.78304 4.35503 8.69304 4.81503L10.263 6.38503ZM1.83304 3.60503L3.24304 2.19503L21.623 20.585L20.213 21.995L18.113 19.895C16.533 21.265 14.473 22.095 12.223 22.095C7.25304 22.095 3.22304 18.065 3.22304 13.095C3.22304 10.845 4.05304 8.78503 5.42304 7.20503L4.62304 6.40503L3.56304 7.28503L2.28304 5.74503L3.20304 4.97503L1.83304 3.60503ZM12.223 20.095C8.36304 20.095 5.22304 16.955 5.22304 13.095C5.22304 11.395 5.83304 9.83503 6.84304 8.62503L16.693 18.475C15.483 19.485 13.923 20.095 12.223 20.095Z" fill="black" fill-opacity="0.54"/>
</svg>
