<svg width="24" height="24" viewBox="0 0 24 24" fill="none" xmlns="http://www.w3.org/2000/svg">
<path fill-rule="evenodd" clip-rule="evenodd" d="M7.94456 3.44101L6.66336 1.90521L2.05606 5.74881L3.33716 7.28461L7.94456 3.44101ZM17.3366 1.90581L21.944 5.74941L20.6628 7.28521L16.0554 3.44161L17.3366 1.90581ZM12.5001 8.09481H11.0001V14.0948L15.7501 16.9448L16.5001 15.7148L12.5001 13.3448V8.09481ZM12.0001 4.09481C7.03006 4.09481 3.00006 8.12481 3.00006 13.0948C3.00006 18.0648 7.03006 22.0948 12.0001 22.0948C16.9701 22.0948 21.0001 18.0648 21.0001 13.0948C21.0001 8.12481 16.9701 4.09481 12.0001 4.09481ZM5.00006 13.0948C5.00006 16.9548 8.14006 20.0948 12.0001 20.0948C15.8601 20.0948 19.0001 16.9548 19.0001 13.0948C19.0001 9.23481 15.8601 6.09481 12.0001 6.09481C8.14006 6.09481 5.00006 9.23481 5.00006 13.0948Z" fill="black" fill-opacity="0.54"/>
</svg>
