<svg width="24" height="24" viewBox="0 0 24 24" fill="none" xmlns="http://www.w3.org/2000/svg">
<path fill-rule="evenodd" clip-rule="evenodd" d="M6.66336 1.90521L7.94456 3.44101L3.33716 7.28461L2.05606 5.74881L6.66336 1.90521ZM17.3366 1.90581L21.944 5.74941L20.6628 7.28521L16.0554 3.44161L17.3366 1.90581ZM3.00006 13.0948C3.00006 8.12481 7.03006 4.09481 12.0001 4.09481C16.9701 4.09481 21.0001 8.12481 21.0001 13.0948C21.0001 18.0648 16.9701 22.0948 12.0001 22.0948C7.03006 22.0948 3.00006 18.0648 3.00006 13.0948ZM12.0001 20.0948C8.14006 20.0948 5.00006 16.9548 5.00006 13.0948C5.00006 9.23481 8.14006 6.09481 12.0001 6.09481C15.8601 6.09481 19.0001 9.23481 19.0001 13.0948C19.0001 16.9548 15.8601 20.0948 12.0001 20.0948ZM11.0001 12.0948V9.09481H13.0001V12.0948H16.0001V14.0948H13.0001V17.0948H11.0001V14.0948H8.00006V12.0948H11.0001Z" fill="black" fill-opacity="0.54"/>
</svg>
