<svg width="24" height="24" viewBox="0 0 24 24" fill="none" xmlns="http://www.w3.org/2000/svg">
<path fill-rule="evenodd" clip-rule="evenodd" d="M7.94455 3.44101L6.66335 1.90521L2.05605 5.74881L3.33715 7.28461L7.94455 3.44101ZM17.3365 1.90581L21.9439 5.74941L20.6627 7.28521L16.0553 3.44161L17.3365 1.90581ZM10.54 14.6248L8.41005 12.4948L7.35005 13.5548L10.53 16.7348L16.53 10.7348L15.47 9.67481L10.54 14.6248ZM12 4.09481C7.03005 4.09481 3.00005 8.12481 3.00005 13.0948C3.00005 18.0648 7.03005 22.0948 12 22.0948C16.97 22.0948 21 18.0648 21 13.0948C21 8.12481 16.97 4.09481 12 4.09481ZM5.00005 13.0948C5.00005 16.9548 8.14005 20.0948 12 20.0948C15.86 20.0948 19 16.9548 19 13.0948C19 9.23481 15.86 6.09481 12 6.09481C8.14005 6.09481 5.00005 9.23481 5.00005 13.0948Z" fill="black" fill-opacity="0.54"/>
</svg>
