<svg width="100" height="20" viewBox="0 0 100 20" fill="none" xmlns="http://www.w3.org/2000/svg">
<path d="M18.5 9.13397C19.1667 9.51887 19.1667 10.4811 18.5 10.866L6.5 17.7942C5.83333 18.1791 5 17.698 5 16.9282L5 3.0718C5 2.302 5.83333 1.82087 6.5 2.20577L18.5 9.13397Z" fill="#C4C4C4" fill-opacity="0.5"/>
<path d="M38.5 9.13397C39.1667 9.51887 39.1667 10.4811 38.5 10.866L26.5 17.7942C25.8333 18.1791 25 17.698 25 16.9282L25 3.0718C25 2.302 25.8333 1.82087 26.5 2.20577L38.5 9.13397Z" fill="#C4C4C4" fill-opacity="0.5"/>
<path d="M58.5 9.13397C59.1667 9.51887 59.1667 10.4811 58.5 10.866L46.5 17.7942C45.8333 18.1791 45 17.698 45 16.9282L45 3.0718C45 2.302 45.8333 1.82087 46.5 2.20577L58.5 9.13397Z" fill="#C4C4C4" fill-opacity="0.5"/>
<path d="M78.5 9.13397C79.1667 9.51887 79.1667 10.4811 78.5 10.866L66.5 17.7942C65.8333 18.1791 65 17.698 65 16.9282L65 3.0718C65 2.302 65.8333 1.82087 66.5 2.20577L78.5 9.13397Z" fill="#C4C4C4" fill-opacity="0.5"/>
<path d="M98.5 9.13397C99.1667 9.51887 99.1667 10.4811 98.5 10.866L86.5 17.7942C85.8333 18.1791 85 17.698 85 16.9282L85 3.0718C85 2.302 85.8333 1.82087 86.5 2.20577L98.5 9.13397Z" fill="#C4C4C4" fill-opacity="0.5"/>
</svg>
