<svg width="24" height="24" viewBox="0 0 24 24" fill="none" xmlns="http://www.w3.org/2000/svg">
<path fill-rule="evenodd" clip-rule="evenodd" d="M13.1157 3.0012C10.5357 3.0012 7.95567 3.9812 5.97567 5.9512L5.96567 5.9612C2.01567 9.9112 2.01567 16.3212 5.96567 20.2712L20.2657 5.9612C18.2957 3.9912 15.7057 3.0012 13.1157 3.0012ZM20.9969 19.5704L19.5686 20.9988L13.1269 14.5571L14.5552 13.1288L20.9969 19.5704ZM4.99567 13.1212C4.99567 14.6112 5.39567 16.0312 6.13567 17.2712L7.52567 15.8912C6.34567 14.2412 5.64567 12.3612 5.45567 10.4512C5.15567 11.3012 4.99567 12.1912 4.99567 13.1212ZM8.97567 14.4312C7.62567 12.3812 7.11567 9.9312 7.59567 7.6012C8.17567 7.4812 8.75567 7.4212 9.34567 7.4212C11.1457 7.4212 12.8957 7.9712 14.4257 8.9812L8.97567 14.4312ZM13.1157 5.0012C12.1857 5.0012 11.2957 5.1612 10.4457 5.4612C12.3557 5.6512 14.2257 6.3512 15.8757 7.5312L17.2657 6.1412C16.0257 5.4012 14.6057 5.0012 13.1157 5.0012Z" fill="black" fill-opacity="0.54"/>
</svg>
