<svg width="24" height="24" viewBox="0 0 24 24" fill="none" xmlns="http://www.w3.org/2000/svg">
<path fill-rule="evenodd" clip-rule="evenodd" d="M13.5758 9.90961L22.6558 18.9896C23.0558 19.3896 23.0558 20.0196 22.6558 20.3996L20.3558 22.6996C19.9658 23.0896 19.3358 23.0896 18.9458 22.6996L9.83583 13.5896C7.51583 14.4596 4.80583 13.9696 2.94583 12.1096C0.645829 9.8196 0.435829 6.2296 2.29583 3.6896L6.12583 7.51961L7.54583 6.1096L3.70583 2.25961C6.25583 0.399605 9.83583 0.609605 12.1358 2.90961C14.0258 4.80961 14.5058 7.5696 13.5758 9.90961ZM10.1958 11.1296L19.6558 20.5896L20.5358 19.6996L11.0858 10.2496C11.5458 9.65961 11.8458 8.99961 11.9658 8.28961C12.2158 6.89961 11.8058 5.40961 10.7258 4.32961C9.77583 3.38961 8.52583 2.9496 7.28583 3.0196L10.3758 6.1096L6.13583 10.3496L3.04583 7.2596C2.97583 8.49961 3.41583 9.75961 4.36583 10.6996C5.40583 11.7396 6.83583 12.1496 8.19583 11.9496C8.90583 11.8496 9.58583 11.5796 10.1958 11.1296Z" fill="black" fill-opacity="0.54"/>
</svg>
