<svg width="16" height="16" viewBox="0 0 16 16" fill="#fff" xmlns="http://www.w3.org/2000/svg">
<g clip-path="url(#clip0)">
<path d="M5.66663 12.6672H1.83337C0.822021 12.6672 0 11.8453 0 10.834V3.16724C0 2.15588 0.822021 1.33398 1.83337 1.33398H11.5C12.5114 1.33398 13.3334 2.15588 13.3334 3.16724V5.83398C13.3334 6.10999 13.1094 6.33398 12.8334 6.33398C12.5574 6.33398 12.3334 6.1106 12.3334 5.83398V3.16724C12.3334 2.70789 11.9594 2.33398 11.5 2.33398H1.83337C1.37402 2.33398 1 2.70789 1 3.16724V10.834C1 11.2933 1.37402 11.6672 1.83337 11.6672H5.66663C5.94263 11.6672 6.16663 11.8912 6.16663 12.1672C6.16663 12.4432 5.94263 12.6672 5.66663 12.6672Z" fill="#656565"/>
<path d="M12.8334 5H0.5C0.223999 5 0 4.776 0 4.5C0 4.224 0.223999 4 0.5 4H12.8334C13.1094 4 13.3334 4.224 13.3334 4.5C13.3334 4.776 13.1094 5 12.8334 5Z" fill="#656565"/>
<path d="M3.16602 3.66663C2.89001 3.66663 2.66602 3.44263 2.66602 3.16663V0.5C2.66602 0.223999 2.89001 0 3.16602 0C3.44202 0 3.66602 0.223999 3.66602 0.5V3.16663C3.66602 3.44263 3.44202 3.66663 3.16602 3.66663Z" fill="#656565"/>
<path d="M10.166 3.66663C9.89001 3.66663 9.66602 3.44263 9.66602 3.16663V0.5C9.66602 0.223999 9.89001 0 10.166 0C10.442 0 10.666 0.223999 10.666 0.5V3.16663C10.666 3.44263 10.442 3.66663 10.166 3.66663Z" fill="#656565"/>
<path d="M11.6672 16.0006C9.27795 16.0006 7.33398 14.0566 7.33398 11.6672C7.33398 9.27795 9.27795 7.33398 11.6672 7.33398C14.0566 7.33398 16.0006 9.27795 16.0006 11.6672C16.0006 14.0566 14.0566 16.0006 11.6672 16.0006ZM11.6672 8.33398C9.82922 8.33398 8.33398 9.82922 8.33398 11.6672C8.33398 13.5052 9.82922 15.0006 11.6672 15.0006C13.5052 15.0006 15.0006 13.5052 15.0006 11.6672C15.0006 9.82922 13.5052 8.33398 11.6672 8.33398Z" fill="#656565"/>
<path d="M12.9636 13.4623C12.8357 13.4623 12.7076 13.4136 12.6103 13.3157L10.0177 10.723C9.82224 10.5276 9.82224 10.2109 10.0177 10.0156C10.213 9.82031 10.5296 9.82031 10.7249 10.0156L13.3176 12.6083C13.5129 12.8036 13.5129 13.1204 13.3176 13.3157C13.2196 13.4136 13.0923 13.4623 12.9636 13.4623Z" fill="#656565"/>
<path d="M10.371 13.4623C10.2429 13.4623 10.1149 13.4136 10.0176 13.3157C9.82227 13.1204 9.82227 12.8036 10.0176 12.6083L12.6102 10.0156C12.8055 9.82031 13.1222 9.82031 13.3176 10.0156C13.5129 10.2109 13.5129 10.5276 13.3176 10.723L10.7249 13.3157C10.6262 13.4136 10.4989 13.4623 10.371 13.4623Z" fill="#656565"/>
</g>
<defs>
<clipPath id="clip0">
<path d="M0 0H16V16H0V0Z" fill="white"/>
</clipPath>
</defs>
</svg>