<svg width="22" height="16" viewBox="0 0 22 16" fill="none" xmlns="http://www.w3.org/2000/svg">
<path d="M14 8C16.21 8 18 6.21 18 4C18 1.79 16.21 0 14 0C11.79 0 10 1.79 10 4C10 6.21 11.79 8 14 8Z" fill="#656565"/>
<path d="M14 2C15.1 2 16 2.9 16 4C16 5.1 15.1 6 14 6C12.9 6 12 5.1 12 4C12 2.9 12.9 2 14 2Z" fill="white"/>
<path d="M14 10C11.33 10 6 11.34 6 14V16H22V14C22 11.34 16.67 10 14 10Z" fill="#656565"/>
<path d="M8 14C8.22 13.28 11.31 12 14 12C16.7 12 19.8 13.29 20 14H8Z" fill="white"/>
<path d="M3.12523 9.12402L5 7.24925L6.87477 9.12402L8.12462 7.87417L6.24985 5.9994L8.12462 4.12462L6.87477 2.87477L5 4.74955L3.12523 2.87477L1.87538 4.12462L3.75015 5.9994L1.87538 7.87417L3.12523 9.12402Z" fill="#656565"/>
</svg>