<svg width="24" height="24" viewBox="0 0 24 24" fill="none" xmlns="http://www.w3.org/2000/svg">
<path fill-rule="evenodd" clip-rule="evenodd" d="M4.255 6.72125L2.965 5.43125C6.865 1.52125 13.205 1.52125 17.115 5.43125L15.825 6.72125C12.635 3.53125 7.445 3.53125 4.255 6.72125ZM5.035 21.5013L21.035 5.47125V21.5013H17.035V19.5013H19.035V10.2813L17.035 12.2813V9.48125L5.035 21.5013ZM17.035 12.2813L9.815 19.5013H17.035V12.2813ZM8.105 10.5713L10.035 12.5013L11.965 10.5713C10.895 9.51125 9.175 9.51125 8.105 10.5713ZM6.825 9.29125L5.535 8.00125C8.015 5.52125 12.055 5.52125 14.535 8.00125L13.255 9.29125C11.475 7.52125 8.595 7.52125 6.825 9.29125Z" fill="black" fill-opacity="0.54"/>
</svg>
