<svg width="20" height="20" viewBox="0 0 20 20" fill="none" xmlns="http://www.w3.org/2000/svg">
<path d="M11.6029 9.83339L9.3569 8.78539C9.1609 8.69439 8.9999 8.79639 8.9999 9.01339V10.9874C8.9999 11.2044 9.1609 11.3064 9.3569 11.2154L11.6019 10.1674C11.7989 10.0754 11.7989 9.92539 11.6029 9.83339ZM9.9999 0.400391C4.6979 0.400391 0.399902 4.69839 0.399902 10.0004C0.399902 15.3024 4.6979 19.6004 9.9999 19.6004C15.3019 19.6004 19.5999 15.3024 19.5999 10.0004C19.5999 4.69839 15.3019 0.400391 9.9999 0.400391ZM9.9999 13.9004C5.0859 13.9004 4.9999 13.4574 4.9999 10.0004C4.9999 6.54339 5.0859 6.10039 9.9999 6.10039C14.9139 6.10039 14.9999 6.54339 14.9999 10.0004C14.9999 13.4574 14.9139 13.9004 9.9999 13.9004Z" fill="white"/>
</svg>