<svg width="20" height="20" viewBox="0 0 20 20" fill="none" xmlns="http://www.w3.org/2000/svg">
<path d="M9.9999 0.400391C4.6979 0.400391 0.399902 4.69839 0.399902 10.0004C0.399902 15.3024 4.6979 19.6004 9.9999 19.6004C15.3019 19.6004 19.5999 15.3024 19.5999 10.0004C19.5999 4.69839 15.3019 0.400391 9.9999 0.400391ZM7.6499 13.9794H5.7059V7.72339H7.6499V13.9794ZM6.6659 6.95539C6.0519 6.95539 5.6549 6.52039 5.6549 5.98239C5.6549 5.43339 6.0639 5.01139 6.6909 5.01139C7.3179 5.01139 7.7019 5.43339 7.7139 5.98239C7.7139 6.52039 7.3179 6.95539 6.6659 6.95539ZM14.7499 13.9794H12.8059V10.5124C12.8059 9.70539 12.5239 9.15739 11.8209 9.15739C11.2839 9.15739 10.9649 9.52839 10.8239 9.88539C10.7719 10.0124 10.7589 10.1924 10.7589 10.3714V13.9784H8.8139V9.71839C8.8139 8.93739 8.7889 8.28439 8.7629 7.72239H10.4519L10.5409 8.59139H10.5799C10.8359 8.18339 11.4629 7.58139 12.5119 7.58139C13.7909 7.58139 14.7499 8.43839 14.7499 10.2804V13.9794Z" fill="white"/>
</svg>