<svg width="24" height="24" viewBox="0 0 24 24" fill="none" xmlns="http://www.w3.org/2000/svg">
<path fill-rule="evenodd" clip-rule="evenodd" d="M17.6693 3C17.4093 3 17.1593 3.1 16.9593 3.29L13.8393 6.41L11.9093 4.5L10.4993 5.91L11.9193 7.33L2.99927 16.25V21H7.74927L16.6693 12.08L18.0893 13.5L19.4993 12.09L17.5793 10.17L20.6993 7.05C21.0993 6.65 21.0993 6.02 20.7093 5.63L18.3693 3.29C18.1693 3.1 17.9193 3 17.6693 3ZM17.6593 5.41L18.5793 6.33L15.8893 9.02L14.9693 8.1L17.6593 5.41ZM4.99927 17.08L6.91927 19L14.9793 10.94L13.0593 9.02L4.99927 17.08Z" fill="black" fill-opacity="0.54"/>
</svg>
