<svg width="40" height="40" viewBox="0 0 40 40" fill="none" xmlns="http://www.w3.org/2000/svg">
<rect x="7.5" y="13.335" width="27.5" height="14.1667" fill="#F2F2F2"/>
<path d="M11.3337 17.3338H14.0004C14.3686 17.3338 14.6671 17.6323 14.6671 18.0005C14.6671 18.3687 14.9656 18.6672 15.3337 18.6672C15.7019 18.6672 16.0004 18.3687 16.0004 18.0005C16.0004 16.896 15.1049 16.0005 14.0004 16.0005H11.3337C10.2292 16.0005 9.33374 16.896 9.33374 18.0005V23.3338C9.33374 24.4383 10.2292 25.3338 11.3337 25.3338H14.0004C15.1049 25.3338 16.0004 24.4383 16.0004 23.3338C16.0004 22.9657 15.7019 22.6672 15.3337 22.6672C14.9656 22.6672 14.6671 22.9657 14.6671 23.3338C14.6671 23.702 14.3686 24.0005 14.0004 24.0005H11.3337C10.9656 24.0005 10.6671 23.702 10.6671 23.3338V18.0005C10.6671 17.6323 10.9656 17.3338 11.3337 17.3338Z" fill="#999999"/>
<path d="M21.9998 20.0005H19.3331C18.9649 20.0005 18.6664 19.702 18.6664 19.3338V18.0005C18.6664 17.6323 18.9649 17.3338 19.3331 17.3338H22.0336C22.2042 17.3335 22.3676 17.4022 22.4864 17.5246C22.6095 17.6515 22.6746 17.8237 22.6664 18.0005C22.6628 18.3687 22.9581 18.6701 23.3266 18.6737C23.6947 18.6776 23.9962 18.382 23.9998 18.0138C24.0121 17.4842 23.8106 16.9722 23.4405 16.5933C23.0704 16.2144 22.5632 16.0008 22.0336 16.0005H19.3331C18.2286 16.0005 17.3331 16.896 17.3331 18.0005V19.3338C17.3331 20.4383 18.2286 21.3338 19.3331 21.3338H21.9998C22.3679 21.3338 22.6664 21.6323 22.6664 22.0005V23.3338C22.6664 23.702 22.3679 24.0005 21.9998 24.0005H19.3331C18.9613 23.9969 18.6632 23.6929 18.6664 23.3211C18.6593 22.9595 18.3614 22.6714 17.9997 22.6759H17.9884C17.6199 22.6864 17.3279 22.991 17.3331 23.3599C17.3513 24.4526 18.2403 25.3299 19.3331 25.3338H21.9998C23.1042 25.3338 23.9998 24.4383 23.9998 23.3338V22.0005C23.9998 20.896 23.1042 20.0005 21.9998 20.0005Z" fill="#999999"/>
<path d="M32.9226 16.0529C32.5827 15.911 32.1924 16.0714 32.0508 16.4116L29.3327 22.9347L26.6146 16.4116C26.473 16.0718 26.0827 15.911 25.7429 16.0529C25.403 16.1945 25.2422 16.5848 25.3841 16.9246L28.7175 24.9246C28.821 25.173 29.0635 25.3348 29.3327 25.3348C29.6019 25.3348 29.8444 25.173 29.9479 24.9246L33.2813 16.9246C33.4232 16.5848 33.2627 16.1945 32.9226 16.0529Z" fill="#999999"/>
<path d="M34 12.6667H32V2C32 0.895508 31.1045 0 30 0H9.33333C9.31933 0 9.30729 0.00651042 9.29329 0.00748698C9.23958 0.0110677 9.1862 0.0211588 9.13476 0.0374349C9.11328 0.0429688 9.09245 0.0494792 9.07194 0.0572917C9.00195 0.0859375 8.9375 0.126628 8.88118 0.177409L0.214518 8.17741C0.154948 8.23438 0.106771 8.30208 0.0725912 8.37728C0.0628255 8.39909 0.054362 8.42122 0.0472005 8.44401C0.0253907 8.50391 0.0123698 8.56706 0.00878908 8.63053C0.00878908 8.64453 0 8.65723 0 8.67122V38C0 39.1045 0.895508 40 2 40H30C31.1045 40 32 39.1045 32 38V28.6667H34C35.1045 28.6667 36 27.7712 36 26.6667V14.6667C36 13.5622 35.1045 12.6667 34 12.6667ZM8.66667 2.18945V7.33333C8.66667 7.7015 8.36816 8 8 8H2.37207L8.66667 2.18945ZM30.6667 38C30.6667 38.3682 30.3682 38.6667 30 38.6667H2C1.63184 38.6667 1.33333 38.3682 1.33333 38V9.33333H8C9.10449 9.33333 10 8.43783 10 7.33333V1.33333H30C30.3682 1.33333 30.6667 1.63184 30.6667 2V12.6667H8.66667C7.56217 12.6667 6.66667 13.5622 6.66667 14.6667V26.6667C6.66667 27.7712 7.56217 28.6667 8.66667 28.6667H30.6667V38ZM34.6667 26.6667C34.6667 27.0348 34.3682 27.3333 34 27.3333H8.66667C8.2985 27.3333 8 27.0348 8 26.6667V14.6667C8 14.2985 8.2985 14 8.66667 14H34C34.3682 14 34.6667 14.2985 34.6667 14.6667V26.6667Z" fill="#999999"/>
</svg>
