<svg width="24" height="24" viewBox="0 0 24 24" fill="none" xmlns="http://www.w3.org/2000/svg">
<path fill-rule="evenodd" clip-rule="evenodd" d="M1.915 0.844999L0.505005 2.255L1.505 3.245V15.155C1.505 16.255 2.395 17.155 3.495 17.155H10.505V19.155H8.505V21.155H16.505V19.155H14.505V17.155H15.405L21.405 23.155L22.815 21.745L1.915 0.844999ZM3.495 15.155V5.245L13.405 15.155H3.495ZM7.05501 3.155L5.05501 1.155H21.495C22.595 1.155 23.495 2.055 23.495 3.155V15.155C23.495 16.255 22.595 17.155 21.495 17.155H21.055L19.055 15.155H21.505V3.155H7.05501Z" fill="black" fill-opacity="0.54"/>
</svg>
