<svg width="24" height="24" viewBox="0 0 24 24" fill="none" xmlns="http://www.w3.org/2000/svg">
<path fill-rule="evenodd" clip-rule="evenodd" d="M9.00111 1H15.0011V4H18.0011C19.1011 4 20.0011 4.9 20.0011 6V10.62L21.2811 11.04C21.5411 11.12 21.7611 11.3 21.8811 11.54C22.0011 11.78 22.0211 12.06 21.9411 12.32L20.0511 19H20.0011C18.4011 19 16.9811 18.12 16.0011 17C15.0211 18.12 13.6011 19 12.0011 19C10.4011 19 8.98111 18.12 8.00111 17C7.02111 18.12 5.60111 19 4.00111 19H3.95111L2.05111 12.32C1.96111 12.06 1.99111 11.78 2.11111 11.54C2.23111 11.3 2.45111 11.12 2.71111 11.04L4.00111 10.62V6C4.00111 4.9 4.90111 4 6.00111 4H9.00111V1ZM13.0011 3V4H11.0011V3H13.0011ZM12.0011 10.11L17.3811 11.88L19.7711 12.66L18.6511 16.63C18.1111 16.33 17.7111 15.92 17.5111 15.69L16.0011 13.96L14.4911 15.68C14.1511 16.08 13.2111 17 12.0011 17C10.7911 17 9.85111 16.08 9.51111 15.68L8.00111 13.96L6.49111 15.68C6.29111 15.91 5.89111 16.31 5.35111 16.61L4.22111 12.65L6.62111 11.86L12.0011 10.11ZM6.00111 9.97V6H18.0011V9.97L12.0011 8L6.00111 9.97ZM12.0011 20.96C13.3911 20.96 14.7811 20.53 16.0011 19.68C17.2211 20.53 18.6111 21 20.0011 21H22.0011V23H20.0011C18.6211 23 17.2611 22.66 16.0011 22.01C14.7411 22.66 13.3711 22.98 12.0011 22.98C10.6311 22.98 9.26111 22.65 8.00111 22.01C6.74111 22.65 5.38111 23 4.00111 23H2.00111V21H4.00111C5.39111 21 6.78111 20.53 8.00111 19.68C9.22111 20.53 10.6111 20.96 12.0011 20.96Z" fill="black" fill-opacity="0.54"/>
</svg>
