<svg width="24" height="24" viewBox="0 0 24 24" fill="none" xmlns="http://www.w3.org/2000/svg">
<path fill-rule="evenodd" clip-rule="evenodd" d="M2.255 0.844999L0.845001 2.255L2.845 4.255V20.155H18.745L21.745 23.155L23.155 21.745L2.255 0.844999ZM6.845 18.155H4.845V16.155H6.845V18.155ZM4.845 14.155H6.845V12.155H4.845V14.155ZM4.845 10.155V8.155H6.845V10.155H4.845ZM8.845 18.155H10.845V16.155H8.845V18.155ZM8.845 14.155V12.155H10.845V14.155H8.845ZM12.845 16.155V18.155H16.745L14.745 16.155H12.845ZM8.845 4.155H10.845V6.155H10.395L12.845 8.605V8.155H20.845V16.605L22.845 18.605V6.155H12.845V2.155H6.395L8.845 4.605V4.155ZM18.845 10.155H16.845V12.155H18.845V10.155Z" fill="black" fill-opacity="0.54"/>
</svg>
