<svg width="24" height="24" viewBox="0 0 24 24" fill="none" xmlns="http://www.w3.org/2000/svg">
<path fill-rule="evenodd" clip-rule="evenodd" d="M2.02499 12C2.02499 17.19 5.97499 21.45 11.025 21.95V14.82C9.86499 14.4 9.02499 13.3 9.02499 12C9.02499 10.7 9.86499 9.59999 11.025 9.17999V2.04999C5.97499 2.54999 2.02499 6.80999 2.02499 12ZM21.975 11H14.845C14.535 10.15 13.875 9.48999 13.025 9.17999V2.04999C17.745 2.51999 21.505 6.27999 21.975 11ZM19.445 8.99999C18.625 6.99999 17.025 5.39999 15.025 4.57999V8.00999C15.395 8.28999 15.735 8.62999 16.015 8.99999H19.445ZM9.02499 8.01999V4.57999C6.06499 5.75999 4.02499 8.64999 4.02499 12C4.02499 15.35 6.06499 18.24 9.02499 19.43V15.99C7.79499 15.06 7.02499 13.59 7.02499 12C7.02499 10.41 7.79499 8.93999 9.02499 8.01999ZM13.025 14.82V21.95C17.745 21.48 21.505 17.72 21.975 13H14.845C14.535 13.85 13.875 14.51 13.025 14.82ZM16.015 15C15.735 15.38 15.395 15.71 15.025 15.99V19.42C17.025 18.6 18.625 17 19.445 15H16.015Z" fill="black" fill-opacity="0.54"/>
</svg>
