<svg width="16" height="16" viewBox="0 0 16 16" fill="none" xmlns="http://www.w3.org/2000/svg">
<rect width="16" height="16" fill="#E5E5E5"/>
<g clip-path="url(#clip0)">
<rect x="-696" y="-397" width="1440" height="2927" fill="#F2F2F2"/>
<g filter="url(#filter0_d)">
<rect x="-221" y="-92" width="815" height="319" fill="white"/>
</g>
<g filter="url(#filter1_d)">
<rect x="-200" y="-21" width="773" height="227" rx="2" fill="white"/>
<rect x="-199.5" y="-20.5" width="772" height="226" rx="1.5" stroke="#E0E0E0"/>
</g>
<rect x="-199.5" y="-20.5" width="772" height="56" rx="1.5" fill="white" stroke="#E0E0E0"/>
<path fill-rule="evenodd" clip-rule="evenodd" d="M13.8067 2.69471C14.0667 2.43474 14.0667 2.01478 13.8067 1.75481L12.2467 0.19497C12.1221 0.070148 11.953 0 11.7767 0C11.6003 0 11.4312 0.070148 11.3067 0.19497L10 1.5015L12.5 4.00124L13.8067 2.69471ZM2.66667 8.83408L9.33333 2.1681L11.8333 4.66784L5.16667 11.3338H2.66667V8.83408ZM4 10.0006H4.61333L9.94667 4.66784L9.33333 4.05457L4 9.38735V10.0006ZM16 13.3336H0V16H16V13.3336Z" fill="#37A000"/>
</g>
<defs>
<filter id="filter0_d" x="-226" y="-97" width="825" height="329" filterUnits="userSpaceOnUse" color-interpolation-filters="sRGB">
<feFlood flood-opacity="0" result="BackgroundImageFix"/>
<feColorMatrix in="SourceAlpha" type="matrix" values="0 0 0 0 0 0 0 0 0 0 0 0 0 0 0 0 0 0 127 0"/>
<feOffset/>
<feGaussianBlur stdDeviation="2.5"/>
<feColorMatrix type="matrix" values="0 0 0 0 0 0 0 0 0 0 0 0 0 0 0 0 0 0 0.05 0"/>
<feBlend mode="normal" in2="BackgroundImageFix" result="effect1_dropShadow"/>
<feBlend mode="normal" in="SourceGraphic" in2="effect1_dropShadow" result="shape"/>
</filter>
<filter id="filter1_d" x="-205" y="-26" width="783" height="237" filterUnits="userSpaceOnUse" color-interpolation-filters="sRGB">
<feFlood flood-opacity="0" result="BackgroundImageFix"/>
<feColorMatrix in="SourceAlpha" type="matrix" values="0 0 0 0 0 0 0 0 0 0 0 0 0 0 0 0 0 0 127 0"/>
<feOffset/>
<feGaussianBlur stdDeviation="2.5"/>
<feColorMatrix type="matrix" values="0 0 0 0 0 0 0 0 0 0 0 0 0 0 0 0 0 0 0.05 0"/>
<feBlend mode="normal" in2="BackgroundImageFix" result="effect1_dropShadow"/>
<feBlend mode="normal" in="SourceGraphic" in2="effect1_dropShadow" result="shape"/>
</filter>
<clipPath id="clip0">
<rect x="-696" y="-397" width="1440" height="2927" fill="white"/>
</clipPath>
</defs>
</svg>
