<svg width="20" height="20" viewBox="0 0 20 20" fill="none" xmlns="http://www.w3.org/2000/svg">
<path fill-rule="evenodd" clip-rule="evenodd" d="M9.99199 1.66699C5.39199 1.66699 1.66699 5.40033 1.66699 10.0003C1.66699 14.6003 5.39199 18.3337 9.99199 18.3337C14.6003 18.3337 18.3337 14.6003 18.3337 10.0003C18.3337 5.40033 14.6003 1.66699 9.99199 1.66699ZM10.8337 10.8337V5.83366H9.16699V10.8337H10.8337ZM10.8337 14.167V12.5003H9.16699V14.167H10.8337ZM3.33366 10.0003C3.33366 13.6837 6.31699 16.667 10.0003 16.667C13.6837 16.667 16.667 13.6837 16.667 10.0003C16.667 6.31699 13.6837 3.33366 10.0003 3.33366C6.31699 3.33366 3.33366 6.31699 3.33366 10.0003Z" fill="#E6A01E"/>
</svg>
