<svg width="20" height="20" viewBox="0 0 20 20" fill="none" xmlns="http://www.w3.org/2000/svg">
<path fill-rule="evenodd" clip-rule="evenodd" d="M17.5002 0.833008H5.8335C4.91683 0.833008 4.16683 1.58301 4.16683 2.49967V14.1663C4.16683 15.083 4.91683 15.833 5.8335 15.833H17.5002C18.4168 15.833 19.1668 15.083 19.1668 14.1663V2.49967C19.1668 1.58301 18.4168 0.833008 17.5002 0.833008ZM2.50016 4.16634H0.833496V17.4997C0.833496 18.4163 1.5835 19.1663 2.50016 19.1663H15.8335V17.4997H2.50016V4.16634ZM11.6668 9.99967V6.66634C11.6668 5.74134 10.9168 4.99967 10.0002 4.99967H9.16683C8.25016 4.99967 7.50016 5.74134 7.50016 6.66634V7.49967C7.50016 8.42467 8.25016 9.16634 9.16683 9.16634H10.0002V9.99967H7.50016V11.6663H10.0002C10.9168 11.6663 11.6668 10.9247 11.6668 9.99967ZM9.16683 6.66634V7.49967H10.0002V6.66634H9.16683ZM15.8335 7.49967H17.5002V2.49967H5.8335V14.1663H17.5002V9.16634H15.8335V10.833H14.1668V9.16634H12.5002V7.49967H14.1668V5.83301H15.8335V7.49967Z" fill="#E6A01E"/>
</svg>
