<svg width="24" height="24" viewBox="0 0 24 24" fill="none" xmlns="http://www.w3.org/2000/svg">
<path fill-rule="evenodd" clip-rule="evenodd" d="M11 4.06999V2.04999C8.99005 2.24999 7.16005 3.04999 5.68005 4.25999L7.10005 5.68999C8.21005 4.82999 9.54005 4.24999 11 4.06999ZM18.32 4.25999C16.84 3.04999 15.01 2.24999 13 2.04999V4.06999C14.46 4.24999 15.79 4.82999 16.9 5.68999L18.32 4.25999ZM21.95 11H19.93C19.75 9.53999 19.17 8.20999 18.31 7.09999L19.74 5.67999C20.95 7.15999 21.75 8.98999 21.95 11ZM5.69005 7.09999L4.26005 5.67999C3.05005 7.15999 2.25005 8.98999 2.05005 11H4.07005C4.25005 9.53999 4.83005 8.20999 5.69005 7.09999ZM2.05005 13H4.07005C4.25005 14.46 4.83005 15.79 5.69005 16.89L4.26005 18.32C3.05005 16.84 2.25005 15.01 2.05005 13ZM15 12C15 10.34 13.66 8.99999 12 8.99999C10.34 8.99999 9.00005 10.34 9.00005 12C9.00005 13.66 10.34 15 12 15C13.66 15 15 13.66 15 12ZM19.74 18.33L18.31 16.9C19.17 15.79 19.75 14.46 19.93 13.01H21.95C21.75 15.01 20.95 16.85 19.74 18.33ZM13 19.93V21.95C15.01 21.75 16.84 20.95 18.32 19.74L16.89 18.31C15.79 19.17 14.46 19.75 13 19.93ZM11 21.95C9.00005 21.75 7.16005 20.95 5.68005 19.74L7.10005 18.31C8.21005 19.17 9.54005 19.75 11 19.93V21.95Z" fill="black" fill-opacity="0.54"/>
</svg>
