<svg width="24" height="24" viewBox="0 0 24 24" fill="none" xmlns="http://www.w3.org/2000/svg">
<path fill-rule="evenodd" clip-rule="evenodd" d="M13.795 6.715C12.885 5.815 11.635 5.255 10.255 5.255C7.835 5.255 5.815 6.975 5.355 9.255H3.335C3.825 5.865 6.725 3.255 10.255 3.255C12.185 3.255 13.935 4.035 15.205 5.305L17.255 3.255V9.255H11.255L13.795 6.715ZM17.175 11.255C17.015 12.425 16.555 13.495 15.895 14.395L20.745 19.255L19.255 20.745L14.395 15.895C13.235 16.745 11.805 17.255 10.255 17.255C8.32501 17.255 6.575 16.475 5.305 15.205L3.255 17.255V11.255H9.255L6.715 13.795C7.625 14.695 8.875 15.255 10.255 15.255C12.675 15.255 14.695 13.535 15.155 11.255H17.175Z" fill="black" fill-opacity="0.54"/>
</svg>
