<svg width="24" height="24" viewBox="0 0 24 24" fill="none" xmlns="http://www.w3.org/2000/svg">
<path fill-rule="evenodd" clip-rule="evenodd" d="M6.37998 5.68001C6.06998 5.55001 5.36998 6.19001 4.66998 6.90001L2.91998 5.19001C3.13998 4.92001 3.43998 4.62001 3.79998 4.26001C4.04998 4.01001 5.19998 3.01001 6.51998 3.01001C7.38998 3.01001 9.02998 3.70001 9.02998 5.87001C9.02998 7.23001 8.50998 8.01001 7.72998 9.15001C7.27998 9.81001 6.22998 11.58 5.87998 12.67C5.51998 13.76 5.78998 14.59 6.23998 14.59C6.65219 14.59 7.0644 14.0938 7.31804 13.7884C7.32899 13.7752 7.33964 13.7624 7.34998 13.75C7.57998 13.51 9.05998 11.76 9.63998 11.03C10.4 10.1 12.33 8.19001 14.58 8.19001C17.52 8.19001 18.46 10.74 18.61 12.39H21.08V14.89H18.62C18.22 19.66 15.56 20.99 13.93 20.99C12.16 20.99 10.72 19.6 10.72 17.9C10.72 16.2 12.32 13.17 16.1 12.53C16.0929 12.4797 16.0862 12.4284 16.0794 12.3765C15.9807 11.6239 15.8648 10.74 14.34 10.74C13.09 10.74 11.47 12.69 10.26 14.18L10.2473 14.1956C9.14328 15.5583 8.26591 16.6412 7.19998 16.95C6.29998 17.22 5.30998 17.05 4.55998 16.49C3.69998 15.85 3.21998 14.79 3.21998 13.51C3.21998 11.4026 5.19927 8.49892 5.87569 7.50659C5.97602 7.3594 6.04769 7.25426 6.07998 7.20001C6.37998 6.71001 6.87998 5.88001 6.37998 5.68001ZM13.22 17.84C13.22 18.3 13.65 18.56 13.96 18.56C14.66 18.56 15.79 17.77 16.09 15.08C13.95 15.64 13.22 17.24 13.22 17.84Z" fill="black" fill-opacity="0.54"/>
</svg>
