<svg width="20" height="12" viewBox="0 0 20 12" fill="none" xmlns="http://www.w3.org/2000/svg">
<path fill-rule="evenodd" clip-rule="evenodd" d="M9.15801 2.66797C9.15801 4.0513 8.04967 5.16797 6.66634 5.16797C5.28301 5.16797 4.16634 4.0513 4.16634 2.66797C4.16634 1.28464 5.28301 0.167969 6.66634 0.167969C8.04967 0.167969 9.15801 1.28464 9.15801 2.66797ZM15.8247 2.66797C15.8247 4.0513 14.7163 5.16797 13.333 5.16797C11.9497 5.16797 10.833 4.0513 10.833 2.66797C10.833 1.28464 11.9497 0.167969 13.333 0.167969C14.7163 0.167969 15.8247 1.28464 15.8247 2.66797ZM6.66634 6.83464C4.72467 6.83464 0.833008 7.80964 0.833008 9.7513V11.8346H12.4997V9.7513C12.4997 7.80964 8.60801 6.83464 6.66634 6.83464ZM12.5248 6.8763C12.8165 6.8513 13.0915 6.83464 13.3331 6.83464C15.2748 6.83464 19.1665 7.80964 19.1665 9.7513V11.8346H14.1665V9.7513C14.1665 8.51797 13.4915 7.5763 12.5248 6.8763Z" fill="black" fill-opacity="0.54"/>
</svg>
