<svg width="24" height="24" viewBox="0 0 24 24" fill="none" xmlns="http://www.w3.org/2000/svg">
<path fill-rule="evenodd" clip-rule="evenodd" d="M1.94507 3.00501L3.00507 1.94501L22.0551 20.995L20.9951 22.055L13.3951 14.455H9.99507V11.055L8.49507 9.55501V14.455H6.99507V11.955H4.99507V14.455H3.49507V8.45501H4.99507V10.455H6.99507V8.45501H7.39507L1.94507 3.00501ZM13.4951 9.95501V10.315L14.9951 11.815V9.95501C14.9951 9.15501 14.2951 8.45501 13.4951 8.45501H11.6351L13.1351 9.95501H13.4951ZM17.9951 12.455V14.455H17.6351L16.4951 13.315V8.45501H19.9951C20.7951 8.45501 21.4951 9.15501 21.4951 9.95501V10.955C21.4951 11.555 21.0951 12.055 20.5951 12.355L21.4951 14.455H19.9951L19.0951 12.455H17.9951ZM19.9951 9.95501H17.9951V10.955H19.9951V9.95501Z" fill="black" fill-opacity="0.54"/>
</svg>
