<svg width="24" height="24" viewBox="0 0 24 24" fill="none" xmlns="http://www.w3.org/2000/svg">
<path fill-rule="evenodd" clip-rule="evenodd" d="M11.94 4.71V8.76L19.34 16.16C20.49 13.28 19.93 9.88 17.59 7.55L11.94 1.88L8.49999 5.32L9.90999 6.73L11.94 4.71ZM4.33999 3.98L2.92999 5.39L5.70999 8.17C3.16999 11.31 3.35999 15.92 6.27999 18.85C7.83999 20.41 9.88999 21.19 11.94 21.19C13.72 21.19 15.5 20.6 16.96 19.42L19.66 22.12L21.07 20.71L4.33999 3.98ZM7.69999 17.44C8.82999 18.58 10.34 19.2 11.94 19.2V14.4L7.14999 9.61C6.36999 10.64 5.93999 11.88 5.93999 13.2C5.93999 14.8 6.55999 16.3 7.69999 17.44Z" fill="black" fill-opacity="0.54"/>
</svg>
