<svg width="24" height="24" viewBox="0 0 24 24" fill="none" xmlns="http://www.w3.org/2000/svg">
<path fill-rule="evenodd" clip-rule="evenodd" d="M3.33993 1.895L1.92993 3.305L6.14993 7.525L2.92993 10.035L11.9299 17.035L14.0299 15.405L15.4499 16.825L11.9199 19.575L4.54993 13.845L2.92993 15.105L11.9299 22.105L16.8799 18.255L20.6599 22.035L22.0699 20.625L3.33993 1.895ZM17.6699 10.035L11.9299 5.565L10.7599 6.475L9.33993 5.055L11.9299 3.035L20.9299 10.035L17.2099 12.925L15.7799 11.505L17.6699 10.035ZM19.2999 13.835L20.9299 15.105L20.0599 15.785L18.6299 14.355L19.2999 13.835ZM6.18993 10.035L11.9299 14.505L12.5999 13.975L7.57993 8.955L6.18993 10.035Z" fill="black" fill-opacity="0.54"/>
</svg>
