<svg width="24" height="24" viewBox="0 0 24 24" fill="none" xmlns="http://www.w3.org/2000/svg">
<path fill-rule="evenodd" clip-rule="evenodd" d="M2.92993 4.33999L4.33993 2.92999L21.0699 19.66L19.6599 21.07L16.8199 18.23C16.2599 19.04 15.9299 20.01 15.9299 21.07H13.9299C13.9299 19.46 14.4799 17.98 15.3899 16.8L13.9599 15.37C12.6899 16.93 11.9299 18.91 11.9299 21.07H9.92993C9.92993 18.36 10.9199 15.88 12.5499 13.96L10.0399 11.45C8.12993 13.08 5.64993 14.07 2.92993 14.07V12.07C5.08993 12.07 7.06993 11.31 8.62993 10.04L7.19993 8.60999C6.01993 9.51999 4.53993 10.07 2.92993 10.07V8.06999C3.98993 8.06999 4.95993 7.73999 5.76993 7.17999L2.92993 4.33999ZM9.92993 3.06999H7.92993C7.92993 3.19521 7.91256 3.31609 7.89499 3.43834C7.88589 3.50159 7.87675 3.56521 7.86993 3.62999L9.54993 5.30999C9.79993 4.60999 9.92993 3.84999 9.92993 3.06999ZM13.9299 3.06999H11.9299C11.9299 4.41999 11.6199 5.69999 11.0899 6.83999L12.5799 8.32999C13.4399 6.76999 13.9299 4.97999 13.9299 3.06999ZM20.9299 12.07V10.07C19.0199 10.07 17.2299 10.56 15.6599 11.42L17.1499 12.91C18.2999 12.38 19.5799 12.07 20.9299 12.07ZM20.9299 14.07V16.07C20.8218 16.07 20.7169 16.0829 20.6116 16.0959C20.5319 16.1058 20.4518 16.1157 20.3699 16.12L18.6899 14.44C19.3899 14.2 20.1399 14.07 20.9299 14.07Z" fill="black" fill-opacity="0.54"/>
</svg>
