<svg width="24" height="24" viewBox="0 0 24 24" fill="none" xmlns="http://www.w3.org/2000/svg">
<path fill-rule="evenodd" clip-rule="evenodd" d="M17.93 9C17.93 6.24 15.69 4 12.93 4C11.65 4 10.49 4.5 9.60999 5.29L8.17999 3.86C9.42999 2.71 11.09 2 12.93 2C16.8 2 19.93 5.13 19.93 9C19.93 10.57 19.3 12.36 18.42 14.11L16.93 12.62C17.54 11.32 17.93 10.06 17.93 9ZM11.37 7.06C11.8 6.71 12.34 6.5 12.93 6.5C14.31 6.5 15.43 7.62 15.43 9C15.43 9.59 15.22 10.13 14.87 10.56L11.37 7.06ZM4.33999 2.86L2.92999 4.27L6.10999 7.45C5.99999 7.95 5.92999 8.47 5.92999 9C5.92999 14.25 12.93 22 12.93 22C12.93 22 14.6 20.15 16.31 17.65L19.66 21L21.07 19.59L4.33999 2.86ZM7.94999 9.29C8.12999 12.14 10.92 16.3 12.93 18.88C13.54 18.1 14.22 17.19 14.87 16.21L7.94999 9.29Z" fill="black" fill-opacity="0.54"/>
</svg>
