<svg width="24" height="24" viewBox="0 0 24 24" fill="none" xmlns="http://www.w3.org/2000/svg">
<path fill-rule="evenodd" clip-rule="evenodd" d="M7 5.09999C7.83 5.09999 8.5 4.42999 8.5 3.59999C8.5 2.59999 7 0.899994 7 0.899994C7 0.899994 5.5 2.59999 5.5 3.59999C5.5 4.42999 6.17 5.09999 7 5.09999ZM13.5 3.59999C13.5 4.42999 12.83 5.09999 12 5.09999C11.17 5.09999 10.5 4.42999 10.5 3.59999C10.5 2.59999 12 0.899994 12 0.899994C12 0.899994 13.5 2.59999 13.5 3.59999ZM18.5 3.59999C18.5 4.42999 17.83 5.09999 17 5.09999C16.17 5.09999 15.5 4.42999 15.5 3.59999C15.5 2.59999 17 0.899994 17 0.899994C17 0.899994 18.5 2.59999 18.5 3.59999ZM17.5 7.09999C18.16 7.09999 18.72 7.51999 18.92 8.10999L21 14.1V22.1C21 22.65 20.55 23.1 20 23.1H19C18.45 23.1 18 22.65 18 22.1V21.1H6V22.1C6 22.65 5.55 23.1 5 23.1H4C3.45 23.1 3 22.65 3 22.1V14.1L5.08 8.10999C5.29 7.51999 5.84 7.09999 6.5 7.09999H17.5ZM6.85 9.09999H17.14L18.18 12.1H5.81L6.85 9.09999ZM5 14.44V19.1H19V14.44L18.89 14.1H5.12L5 14.44ZM7.5 15.1C6.67157 15.1 6 15.7716 6 16.6C6 17.4284 6.67157 18.1 7.5 18.1C8.32843 18.1 9 17.4284 9 16.6C9 15.7716 8.32843 15.1 7.5 15.1ZM15 16.6C15 15.7716 15.6716 15.1 16.5 15.1C17.3284 15.1 18 15.7716 18 16.6C18 17.4284 17.3284 18.1 16.5 18.1C15.6716 18.1 15 17.4284 15 16.6Z" fill="black" fill-opacity="0.54"/>
</svg>
