<svg width="24" height="24" viewBox="0 0 24 24" fill="none" xmlns="http://www.w3.org/2000/svg">
<path fill-rule="evenodd" clip-rule="evenodd" d="M16 5.22501C16 7.43501 14.21 9.22501 12 9.22501C9.79 9.22501 8 7.43501 8 5.22501C8 3.01501 9.79 1.22501 12 1.22501C14.21 1.22501 16 3.01501 16 5.22501ZM14 5.22501C14 4.12501 13.1 3.22501 12 3.22501C10.9 3.22501 10 4.12501 10 5.22501C10 6.32501 10.9 7.22501 12 7.22501C13.1 7.22501 14 6.32501 14 5.22501ZM12 11.775C9.64 9.57501 6.48 8.22501 3 8.22501V19.225C6.48 19.225 9.64 20.575 12 22.775C14.36 20.585 17.52 19.225 21 19.225V8.22501C17.52 8.22501 14.36 9.57501 12 11.775ZM12 20.175C14.07 18.655 16.47 17.695 19 17.355V10.405C16.9 10.785 14.95 11.755 13.36 13.235L12 14.505L10.64 13.225C9.05 11.745 7.1 10.775 5 10.395V17.345C7.53 17.685 9.94 18.655 12 20.175Z" fill="black" fill-opacity="0.54"/>
</svg>
