<svg width="24" height="24" viewBox="0 0 24 24" fill="none" xmlns="http://www.w3.org/2000/svg">
<path fill-rule="evenodd" clip-rule="evenodd" d="M3.01001 6C5.23001 3.54 8.43001 2 12 2C15.57 2 18.78 3.55 20.99 6L12 22L3.01001 6ZM5.51001 6.36L12 17.92L18.49 6.36C16.68 4.85 14.38 4 12 4C9.62001 4 7.32001 4.85 5.51001 6.36ZM9.00001 5.5C8.17001 5.5 7.50001 6.17 7.50001 7C7.50001 7.83 8.17001 8.5 9.00001 8.5C9.83001 8.5 10.5 7.83 10.5 7C10.5 6.17 9.82001 5.5 9.00001 5.5ZM12 14.5C11.17 14.5 10.5 13.83 10.5 13C10.5 12.17 11.18 11.5 12 11.5C12.82 11.5 13.5 12.17 13.5 13C13.5 13.83 12.82 14.5 12 14.5Z" fill="black" fill-opacity="0.54"/>
</svg>
