<svg width="18" height="18" viewBox="0 0 18 18" fill="none" xmlns="http://www.w3.org/2000/svg">
<path d="M8.99935 0.667969C13.6943 0.667969 17.3327 4.10714 17.3327 8.7513C17.3327 13.3955 13.6943 16.8346 8.99935 16.8346C8.18446 16.8367 7.37301 16.7291 6.58685 16.5146C6.43919 16.474 6.28205 16.4855 6.14185 16.5471L4.48852 17.2771C4.38862 17.3213 4.27942 17.3402 4.17049 17.3323C4.06157 17.3243 3.95627 17.2897 3.86385 17.2315C3.77143 17.1734 3.69471 17.0933 3.64046 16.9986C3.5862 16.9038 3.55606 16.7971 3.55268 16.688L3.50685 15.2046C3.50385 15.1144 3.48249 15.0258 3.4441 14.9441C3.4057 14.8625 3.35106 14.7895 3.28352 14.7296C1.66185 13.2805 0.666016 11.1821 0.666016 8.7513C0.666016 4.10714 4.30518 0.667969 8.99935 0.667969ZM3.99518 11.1155C3.76018 11.488 4.21852 11.908 4.56935 11.6413L7.19852 9.6463C7.28529 9.5808 7.39104 9.54536 7.49976 9.54536C7.60849 9.54536 7.71424 9.5808 7.80102 9.6463L9.74852 11.1046C9.88666 11.2083 10.0448 11.2821 10.2129 11.3216C10.381 11.3611 10.5555 11.3653 10.7253 11.334C10.8951 11.3026 11.0566 11.2365 11.1996 11.1396C11.3426 11.0428 11.4639 10.9174 11.556 10.7713L14.0035 6.88797C14.2385 6.51464 13.7802 6.09464 13.4293 6.36047L10.8002 8.35714C10.7134 8.42264 10.6077 8.45808 10.4989 8.45808C10.3902 8.45808 10.2845 8.42264 10.1977 8.35714L8.25018 6.8988C8.11204 6.79518 7.95393 6.7213 7.78581 6.68183C7.6177 6.64236 7.44323 6.63815 7.2734 6.66947C7.10358 6.70079 6.94209 6.76695 6.79911 6.8638C6.65613 6.96064 6.53477 7.08605 6.44268 7.23214L3.99518 11.1155Z" fill="#656565"/>
</svg>
