<svg width="24" height="24" viewBox="0 0 24 24" fill="none" xmlns="http://www.w3.org/2000/svg">
<path d="M5.66979 4.25718C9.59779 1.03818 15.4028 1.26218 19.0698 4.92918C22.9748 8.83418 22.9748 15.1662 19.0698 19.0712C15.1648 22.9762 8.83279 22.9762 4.92779 19.0712C3.72942 17.8744 2.85487 16.3928 2.38625 14.7653C1.91764 13.1378 1.87034 11.4179 2.24879 9.76718L2.32579 9.45418L4.25979 9.96418C3.78034 11.7864 3.95949 13.7195 4.76567 15.4226C5.57186 17.1257 6.95333 18.4896 8.66663 19.2739C10.3799 20.0582 12.3151 20.2125 14.131 19.7098C15.947 19.207 17.5272 18.0794 18.5932 16.5256C19.6592 14.9718 20.1425 13.0917 19.958 11.2164C19.7735 9.34121 18.933 7.5913 17.5847 6.27508C16.2363 4.95887 14.4666 4.16084 12.5875 4.02165C10.7083 3.88245 8.84038 4.41101 7.31279 5.51418L7.09179 5.68018L8.10879 6.69718L3.51279 7.75718L4.57279 3.16118L5.66879 4.25718H5.66979ZM12.9988 6.00018V8.00018H15.4988V10.0002H9.99879C9.87385 9.99995 9.75334 10.0465 9.66101 10.1307C9.56868 10.2149 9.51121 10.3306 9.49992 10.455C9.48863 10.5794 9.52434 10.7036 9.60001 10.803C9.67569 10.9024 9.78585 10.9699 9.90879 10.9922L9.99879 11.0002H13.9988C14.6618 11.0002 15.2977 11.2636 15.7666 11.7324C16.2354 12.2013 16.4988 12.8371 16.4988 13.5002C16.4988 14.1632 16.2354 14.7991 15.7666 15.2679C15.2977 15.7368 14.6618 16.0002 13.9988 16.0002H12.9988V18.0002H10.9988V16.0002H8.49879V14.0002H13.9988C14.1237 14.0004 14.2442 13.9539 14.3366 13.8697C14.4289 13.7855 14.4864 13.6698 14.4977 13.5454C14.509 13.4209 14.4732 13.2968 14.3976 13.1973C14.3219 13.0979 14.2117 13.0304 14.0888 13.0082L13.9988 13.0002H9.99879C9.33575 13.0002 8.69987 12.7368 8.23103 12.2679C7.76219 11.7991 7.49879 11.1632 7.49879 10.5002C7.49879 9.83714 7.76219 9.20125 8.23103 8.73241C8.69987 8.26357 9.33575 8.00018 9.99879 8.00018H10.9988V6.00018H12.9988Z" fill="#656565"/>
</svg>
