<svg width="24" height="24" viewBox="0 0 24 24" fill="none" xmlns="http://www.w3.org/2000/svg">
<path fill-rule="evenodd" clip-rule="evenodd" d="M11.9301 10.5094L4.34005 2.92938L2.93005 4.33938L11.9301 13.3394V13.6194C10.9901 13.0794 9.83005 12.8694 8.60005 13.2994C7.26005 13.7794 6.23005 14.9694 5.99005 16.3694C5.53005 19.1094 7.85005 21.4494 10.5801 21.0194C12.5401 20.7094 13.9301 18.9094 13.9301 16.9194V15.3394L19.6601 21.0694L21.0701 19.6594L11.9301 10.5094ZM13.9301 7.06938H17.9301V3.06938H11.9301V7.67938L13.9301 9.67938V7.06938ZM7.93005 17.0694C7.93005 18.1694 8.83005 19.0694 9.93005 19.0694C11.0301 19.0694 11.9301 18.1694 11.9301 17.0694C11.9301 15.9694 11.0301 15.0694 9.93005 15.0694C8.83005 15.0694 7.93005 15.9694 7.93005 17.0694Z" fill="black" fill-opacity="0.54"/>
</svg>
