<svg width="24" height="24" viewBox="0 0 24 24" fill="none" xmlns="http://www.w3.org/2000/svg">
<path fill-rule="evenodd" clip-rule="evenodd" d="M22.085 9.08501C22.085 5.21501 18.955 2.08501 15.085 2.08501C11.215 2.08501 8.08504 5.21501 8.08504 9.08501C8.08504 12.555 10.605 15.425 13.915 15.975V19.915H5.91504V16.915H6.91504V12.915C6.91504 12.365 6.46504 11.915 5.91504 11.915H2.91504C2.36504 11.915 1.91504 12.365 1.91504 12.915V16.915H2.91504V21.915H18.915V19.915H15.915V16.035C19.385 15.625 22.085 12.675 22.085 9.08501ZM4.41504 7.91501C3.58661 7.91501 2.91504 8.58658 2.91504 9.41501C2.91504 10.2434 3.58661 10.915 4.41504 10.915C5.24347 10.915 5.91504 10.2434 5.91504 9.41501C5.91504 8.58658 5.24347 7.91501 4.41504 7.91501ZM10.085 9.08501C10.085 11.845 12.325 14.085 15.085 14.085C17.845 14.085 20.085 11.845 20.085 9.08501C20.085 6.32501 17.845 4.08501 15.085 4.08501C12.325 4.08501 10.085 6.32501 10.085 9.08501Z" fill="black" fill-opacity="0.54"/>
</svg>
