<svg width="24" height="24" viewBox="0 0 24 24" fill="none" xmlns="http://www.w3.org/2000/svg">
<path fill-rule="evenodd" clip-rule="evenodd" d="M15.3049 10.75C15.3049 8.27 13.7949 6.25 11.3049 6.25C11.161 6.25 11.0228 6.26722 10.886 6.28426L10.886 6.28426C10.8422 6.28972 10.7986 6.29515 10.7549 6.3L9.11493 4.66L9.21993 4.6215L9.21995 4.62149L9.21996 4.62149C9.40786 4.55231 9.60285 4.48052 9.80493 4.43V3.75C9.80493 2.92 10.4749 2.25 11.3049 2.25C12.1349 2.25 12.8049 2.92 12.8049 3.75V4.43C15.6749 5.11 17.3049 7.68 17.3049 10.75V12.85L15.3049 10.85V10.75ZM13.3049 19.75C13.3049 20.85 12.4049 21.75 11.3049 21.75C10.2049 21.75 9.30493 20.85 9.30493 19.75H13.3049ZM4.71493 3.1L3.30493 4.51L6.11493 7.32C5.59493 8.32 5.30493 9.49 5.30493 10.75V15.75L3.30493 17.75V18.75H17.5449L19.2849 20.49L20.6949 19.08L4.71493 3.1ZM7.30493 16.75H15.3049V16.51L7.64493 8.85C7.42493 9.43 7.30493 10.07 7.30493 10.75V16.75Z" fill="black" fill-opacity="0.54"/>
</svg>
