<svg width="24" height="24" viewBox="0 0 24 24" fill="none" xmlns="http://www.w3.org/2000/svg">
<path fill-rule="evenodd" clip-rule="evenodd" d="M1.91 0.855003L0.5 2.265L4.5 6.265V9.145H1.5V11.145H4.5V14.145H6.5V11.145H9.38L11.89 13.655C9.69 14.255 7.5 15.445 7.5 17.145V19.145H17.38L21.38 23.145L22.79 21.735L1.91 0.855003ZM11.5 7.145C11.5 4.935 13.29 3.145 15.5 3.145C17.71 3.145 19.5 4.935 19.5 7.145C19.5 9.355 17.71 11.145 15.5 11.145C15.3636 11.145 15.2329 11.1278 15.1036 11.1107L15.1036 11.1107L15.1034 11.1107C15.0622 11.1053 15.0211 11.0998 14.98 11.095L11.55 7.665C11.5452 7.62398 11.5398 7.58295 11.5343 7.54179L11.5343 7.54167L11.5343 7.54155L11.5343 7.54144L11.5343 7.54142C11.5172 7.41213 11.5 7.28144 11.5 7.145ZM17.5 7.145C17.5 6.045 16.6 5.145 15.5 5.145C14.51 5.145 13.69 5.865 13.52 6.805L15.83 9.115C16.77 8.965 17.5 8.135 17.5 7.145ZM17.19 13.305L23.03 19.145H23.5V17.145C23.5 15.005 19.94 13.645 17.19 13.305ZM15.38 17.145L13.51 15.275L12.41 15.575C10.38 16.135 9.58 16.905 9.5 17.145H15.38ZM6.5 8.265V9.145H7.38L6.5 8.265Z" fill="black" fill-opacity="0.54"/>
</svg>
