<svg width="14" height="11" viewBox="0 0 14 11" fill="none" xmlns="http://www.w3.org/2000/svg">
<path d="M8.90697 5.90769C10.3134 5.90769 11.4526 4.76851 11.4526 3.36205C11.4526 1.95558 10.3134 0.816406 8.90697 0.816406C7.5005 0.816406 6.36133 1.95558 6.36133 3.36205C6.36133 4.76851 7.5005 5.90769 8.90697 5.90769Z" fill="#999999"/>
<path d="M8.90954 2.08984C9.60959 2.08984 10.1824 2.66261 10.1824 3.36266C10.1824 4.06272 9.60959 4.63548 8.90954 4.63548C8.20949 4.63548 7.63672 4.06272 7.63672 3.36266C7.63672 2.66261 8.20949 2.08984 8.90954 2.08984Z" fill="white"/>
<path d="M8.90769 7.17969C7.20847 7.17969 3.81641 8.03248 3.81641 9.72533V10.9981H13.999V9.72533C13.999 8.03248 10.6069 7.17969 8.90769 7.17969Z" fill="#999999"/>
<path d="M5.08984 9.72595C5.22985 9.26773 7.19636 8.45312 8.9083 8.45312C10.6266 8.45312 12.5995 9.27409 12.7268 9.72595H5.08984Z" fill="white"/>
<path d="M1.98852 6.62333L3.18164 5.43021L4.37477 6.62333L5.17018 5.82792L3.97706 4.63479L5.17018 3.44167L4.37477 2.64625L3.18164 3.83937L1.98852 2.64625L1.1931 3.44167L2.38622 4.63479L1.1931 5.82792L1.98852 6.62333Z" fill="#999999"/>
</svg>
