<svg width="24" height="24" viewBox="0 0 24 24" fill="none" xmlns="http://www.w3.org/2000/svg">
<path fill-rule="evenodd" clip-rule="evenodd" d="M2.06 1.58L0.65 2.99L2.47 4.81C2.18 5.15 2 5.59 2 6.07V17.07H0V20.07H17.73L20.08 22.42L21.49 21.01L2.06 1.58ZM22 4.07V6.07H9.39L7.39 4.07H22ZM24 9.07V19.07C24 19.51 23.71 19.87 23.32 20L20.39 17.07H22V10.07H18V14.68L16 12.68V9.07C16 8.52 16.45 8.07 17 8.07H23C23.55 8.07 24 8.52 24 9.07ZM4 6.34V17.07H14.73L4 6.34Z" fill="black" fill-opacity="0.54"/>
</svg>
