<svg width="24" height="24" viewBox="0 0 24 24" fill="none" xmlns="http://www.w3.org/2000/svg">
<path fill-rule="evenodd" clip-rule="evenodd" d="M14.0125 1H4.01251C2.91251 1 2.01251 1.9 2.01251 3V21C2.01251 22.1 2.91251 23 4.01251 23H14.0125C15.1125 23 16.0125 22.1 16.0125 21V3C16.0125 1.9 15.1125 1 14.0125 1ZM19.1125 8.7L20.1125 7.7C22.6125 10.1 22.6125 13.9 20.1125 16.2L19.1125 15.2C20.9125 13.3 20.9125 10.5 19.1125 8.7ZM17.0125 10.8L18.0125 9.8C19.2125 11.1 19.2125 12.9 18.0125 14.1L17.0125 13.1C17.5125 12.4 17.5125 11.5 17.0125 10.8ZM4.01251 20H14.0125V4H4.01251V20Z" fill="black" fill-opacity="0.54"/>
</svg>
