<svg width="20" height="24" viewBox="0 0 20 24" fill="none" xmlns="http://www.w3.org/2000/svg">
<path d="M19.0054 4.82276L14.3179 0.135258C14.1673 -0.015345 13.963 -0.1 13.75 -0.1H3.4375C1.96069 -0.1 0.759375 1.10132 0.759375 2.57812V21.4219C0.759375 22.8987 1.96069 24.1 3.4375 24.1H16.5625C18.0393 24.1 19.2406 22.8987 19.2406 21.4219V5.39062C19.2406 5.17762 19.156 4.97336 19.0054 4.82276ZM14.5531 4.5875V2.64203L16.4986 4.5875H14.5531ZM16.5625 22.4937H3.4375C2.84656 22.4937 2.36563 22.0128 2.36563 21.4219V2.57812C2.36563 1.98718 2.84656 1.50625 3.4375 1.50625H12.9469V5.39062C12.9469 5.83417 13.3065 6.19375 13.75 6.19375H17.6344V21.4219C17.6344 22.0128 17.1534 22.4937 16.5625 22.4937Z" fill="#37A000" stroke="#37A000" stroke-width="0.2"/>
<path d="M7.30768 8.13563L7.30768 8.13562L7.40664 7.93772C7.54268 7.66562 7.82078 7.49375 8.125 7.49375H11.875C12.1792 7.49375 12.4573 7.66562 12.5934 7.93777L12.5039 7.98248L12.5934 7.93777L12.6923 8.13572C13.0727 8.89646 13.8369 9.36875 14.6875 9.36875C15.131 9.36875 15.4906 9.72833 15.4906 10.1719V14.1842C15.4906 15.7833 14.9859 17.3071 14.0314 18.59C13.0769 19.8729 11.7624 20.7942 10.2308 21.2536M7.30768 8.13563L10.202 21.1578M7.30768 8.13563C6.92731 8.89646 6.16314 9.36875 5.3125 9.36875C4.86896 9.36875 4.50937 9.72833 4.50937 10.1719V14.1842C4.50937 15.7833 5.01407 17.3071 5.96858 18.59C6.92309 19.8729 8.23762 20.7942 9.76924 21.2536M7.30768 8.13563L9.79797 21.1578M10.2308 21.2536L10.202 21.1578M10.2308 21.2536C10.2308 21.2536 10.2308 21.2536 10.2308 21.2536L10.202 21.1578M10.2308 21.2536C10.1555 21.2762 10.0777 21.2875 10 21.2875C9.92225 21.2875 9.84451 21.2762 9.76924 21.2536M10.202 21.1578C10.1361 21.1776 10.0681 21.1875 10 21.1875C9.93194 21.1875 9.86387 21.1776 9.79797 21.1578M9.76924 21.2536L9.79797 21.1578M9.76924 21.2536C9.76923 21.2536 9.76923 21.2536 9.76922 21.2536L9.79797 21.1578M13.8844 14.1842C13.8844 16.6732 12.3336 18.8359 10 19.6407C7.66643 18.8359 6.11563 16.6732 6.11563 14.1842V10.8914C7.15545 10.6718 8.05874 10.0302 8.61019 9.09995H11.3898C11.9413 10.0301 12.8445 10.6718 13.8844 10.8914V14.1842Z" fill="#37A000" stroke="#37A000" stroke-width="0.2"/>
<path d="M11.4213 12.4985L9.33755 14.5822L8.57961 13.8243C8.57961 13.8243 8.57961 13.8243 8.57961 13.8243C8.266 13.5107 7.75747 13.5107 7.44383 13.8243C7.13018 14.138 7.13018 14.6465 7.44383 14.9601L8.76964 16.2859C8.92644 16.4427 9.13215 16.5212 9.33751 16.5212C9.54284 16.5212 9.74862 16.4428 9.9054 16.2859L12.557 13.6343C12.8706 13.3207 12.8706 12.8122 12.557 12.4985C12.2435 12.1849 11.7349 12.1849 11.4213 12.4985C11.4213 12.4985 11.4213 12.4985 11.4213 12.4985Z" fill="#37A000" stroke="#37A000" stroke-width="0.2"/>
</svg>
