<svg width="24" height="24" viewBox="0 0 24 24" fill="none" xmlns="http://www.w3.org/2000/svg">
<path fill-rule="evenodd" clip-rule="evenodd" d="M8.21505 2.505H10.215V6.385L8.21505 4.385V2.505ZM16.215 12.385V8.505H12.335L10.335 6.505H14.215V2.505H16.215V6.505C17.315 6.505 18.215 7.405 18.215 8.505V13.985L18.015 14.185L16.215 12.385ZM4.33505 3.345L2.92505 4.755L6.21505 8.045V14.005L9.71505 17.505V20.505H14.715V17.505L15.195 17.025L19.665 21.495L21.075 20.085L4.33505 3.345ZM12.715 18.505V16.675L13.785 15.615L8.21505 10.045V13.155L11.715 16.675V18.505H12.715Z" fill="black" fill-opacity="0.54"/>
</svg>
