<svg width="24" height="24" viewBox="0 0 24 24" fill="none" xmlns="http://www.w3.org/2000/svg">
<path fill-rule="evenodd" clip-rule="evenodd" d="M2.23001 0.82L0.820007 2.23L5.82001 7.22C4.16001 7.22 2.82001 8.56 2.82001 10.22V16.22H6.82001V20.22H18.82L21.77 23.18L23.18 21.77L2.23001 0.82ZM4.82001 14.22V10.22C4.82001 9.67 5.27001 9.22 5.82001 9.22H7.82001L10.82 12.22H6.82001V14.22H4.82001ZM16.82 18.22L12.82 14.22H8.82001V18.22H16.82ZM8.82001 4.22H16.82V7.22H11.48L13.48 9.22H19.82C20.37 9.22 20.82 9.67 20.82 10.22V14.22L18.82 14.23V12.22H16.48L20.48 16.22H22.82V10.22C22.82 8.56 21.48 7.22 19.82 7.22H18.82V2.22H6.82001V2.58L8.82001 4.58V4.22ZM17.82 10.73C17.82 10.1777 18.2677 9.73 18.82 9.73C19.3723 9.73 19.82 10.1777 19.82 10.73C19.82 11.2823 19.3723 11.73 18.82 11.73C18.2677 11.73 17.82 11.2823 17.82 10.73Z" fill="black" fill-opacity="0.54"/>
</svg>
