<svg width="16" height="16" viewBox="0 0 16 16" fill="none" xmlns="http://www.w3.org/2000/svg">
<g clip-path="url(#clip0)">
<path d="M15.82 11.6153L12.82 9.11527C12.671 8.99027 12.463 8.96527 12.288 9.04627C12.112 9.12927 12 9.30527 12 9.49927V10.9993H11.163C10.469 10.9993 9.835 10.6473 9.467 10.0593L6.229 4.87927C5.494 3.70227 4.226 2.99927 2.837 2.99927H0V4.99927H2.837C3.531 4.99927 4.165 5.35127 4.533 5.93927L7.771 11.1193C8.507 12.2963 9.775 12.9993 11.163 12.9993H12V14.4993C12 14.6933 12.112 14.8693 12.288 14.9523C12.355 14.9833 12.428 14.9993 12.5 14.9993C12.615 14.9993 12.729 14.9603 12.82 14.8833L15.82 12.3833C15.935 12.2883 16 12.1473 16 11.9993C16 11.8513 15.935 11.7103 15.82 11.6153Z" fill="#999999"/>
<path d="M15.82 3.61599L12.82 1.11599C12.671 0.991989 12.463 0.965989 12.288 1.04799C12.112 1.12899 12 1.30599 12 1.49999V2.99999H11.163C9.77403 2.99999 8.50603 3.70299 7.77103 4.87999L7.59003 5.16999L8.76903 7.05699L9.46703 5.93999C9.83503 5.35199 10.469 4.99999 11.163 4.99999H12V6.49999C12 6.69399 12.112 6.87099 12.288 6.95299C12.355 6.98399 12.428 6.99999 12.5 6.99999C12.615 6.99999 12.729 6.95999 12.82 6.88399L15.82 4.38399C15.935 4.28899 16 4.14799 16 3.99999C16 3.85199 15.935 3.71099 15.82 3.61599Z" fill="#999999"/>
<path d="M5.231 8.94238L4.534 10.0594C4.166 10.6474 3.531 10.9994 2.837 10.9994H0V12.9994H2.837C4.225 12.9994 5.493 12.2964 6.229 11.1194L6.41 10.8294L5.231 8.94238Z" fill="#999999"/>
</g>
<defs>
<clipPath id="clip0">
<rect width="16" height="16" rx="6" fill="white"/>
</clipPath>
</defs>
</svg>
