<svg width="16" height="18" viewBox="0 0 16 18" fill="none" xmlns="http://www.w3.org/2000/svg">
<path opacity="0.54" d="M6.33333 14.0013C6.55435 14.0013 6.76631 13.9135 6.92259 13.7572C7.07887 13.6009 7.16667 13.389 7.16667 13.168V8.16797C7.16667 7.94696 7.07887 7.73499 6.92259 7.57871C6.76631 7.42243 6.55435 7.33464 6.33333 7.33464C6.11232 7.33464 5.90036 7.42243 5.74408 7.57871C5.5878 7.73499 5.5 7.94696 5.5 8.16797V13.168C5.5 13.389 5.5878 13.6009 5.74408 13.7572C5.90036 13.9135 6.11232 14.0013 6.33333 14.0013ZM14.6667 4.0013H11.3333V3.16797C11.3333 2.50493 11.0699 1.86904 10.6011 1.4002C10.1323 0.931361 9.49637 0.667969 8.83333 0.667969H7.16667C6.50363 0.667969 5.86774 0.931361 5.3989 1.4002C4.93006 1.86904 4.66667 2.50493 4.66667 3.16797V4.0013H1.33333C1.11232 4.0013 0.900358 4.0891 0.744078 4.24538C0.587797 4.40166 0.5 4.61362 0.5 4.83464C0.5 5.05565 0.587797 5.26761 0.744078 5.42389C0.900358 5.58017 1.11232 5.66797 1.33333 5.66797H2.16667V14.8346C2.16667 15.4977 2.43006 16.1336 2.8989 16.6024C3.36774 17.0712 4.00363 17.3346 4.66667 17.3346H11.3333C11.9964 17.3346 12.6323 17.0712 13.1011 16.6024C13.5699 16.1336 13.8333 15.4977 13.8333 14.8346V5.66797H14.6667C14.8877 5.66797 15.0996 5.58017 15.2559 5.42389C15.4122 5.26761 15.5 5.05565 15.5 4.83464C15.5 4.61362 15.4122 4.40166 15.2559 4.24538C15.0996 4.0891 14.8877 4.0013 14.6667 4.0013ZM6.33333 3.16797C6.33333 2.94696 6.42113 2.73499 6.57741 2.57871C6.73369 2.42243 6.94565 2.33464 7.16667 2.33464H8.83333C9.05435 2.33464 9.26631 2.42243 9.42259 2.57871C9.57887 2.73499 9.66667 2.94696 9.66667 3.16797V4.0013H6.33333V3.16797ZM12.1667 14.8346C12.1667 15.0556 12.0789 15.2676 11.9226 15.4239C11.7663 15.5802 11.5543 15.668 11.3333 15.668H4.66667C4.44565 15.668 4.23369 15.5802 4.07741 15.4239C3.92113 15.2676 3.83333 15.0556 3.83333 14.8346V5.66797H12.1667V14.8346ZM9.66667 14.0013C9.88768 14.0013 10.0996 13.9135 10.2559 13.7572C10.4122 13.6009 10.5 13.389 10.5 13.168V8.16797C10.5 7.94696 10.4122 7.73499 10.2559 7.57871C10.0996 7.42243 9.88768 7.33464 9.66667 7.33464C9.44565 7.33464 9.23369 7.42243 9.07741 7.57871C8.92113 7.73499 8.83333 7.94696 8.83333 8.16797V13.168C8.83333 13.389 8.92113 13.6009 9.07741 13.7572C9.23369 13.9135 9.44565 14.0013 9.66667 14.0013Z" fill="#D50000"/>
</svg>
