<svg width="24" height="24" viewBox="0 0 24 24" fill="none" xmlns="http://www.w3.org/2000/svg">
<path fill-rule="evenodd" clip-rule="evenodd" d="M0.564999 1.975L1.975 0.565001L23.435 22.025L22.025 23.435L19.185 20.595C18.825 21.105 18.235 21.435 17.565 21.435C16.465 21.435 15.575 20.535 15.575 19.435C15.575 18.765 15.905 18.175 16.405 17.815L15.025 16.435H7.565C6.465 16.435 5.565 15.535 5.565 14.435C5.565 14.085 5.655 13.755 5.815 13.475L7.165 11.025L4.955 6.365L0.564999 1.975ZM8.665 12.435L7.565 14.435H13.025L11.025 12.435H8.665ZM20.565 3.435H7.685L9.685 5.435H18.875L16.115 10.435H14.675L16.615 12.375C17.155 12.235 17.605 11.885 17.865 11.405L21.445 4.915C21.815 4.255 21.325 3.435 20.565 3.435ZM5.575 19.435C5.575 18.335 6.465 17.435 7.565 17.435C8.665 17.435 9.565 18.335 9.565 19.435C9.565 20.535 8.665 21.435 7.565 21.435C6.465 21.435 5.575 20.535 5.575 19.435Z" fill="black" fill-opacity="0.54"/>
</svg>
