<svg width="24" height="24" viewBox="0 0 24 24" fill="none" xmlns="http://www.w3.org/2000/svg">
<path fill-rule="evenodd" clip-rule="evenodd" d="M13.5699 4.62C15.8699 4.62 18.1799 5.5 19.9299 7.26C23.4499 10.77 23.4499 16.47 19.9299 19.98C18.1799 21.74 15.8699 22.62 13.5699 22.62C12.0799 22.62 10.5899 22.24 9.23993 21.5L10.7299 20.01C11.6299 20.41 12.5999 20.62 13.5699 20.62C15.3599 20.62 17.1499 19.94 18.5199 18.57C21.2499 15.84 21.2499 11.4 18.5199 8.67C17.1499 7.3 15.3599 6.62 13.5699 6.62V9.86L9.32993 5.62L13.5699 1.38V4.62ZM7.90993 7.03L1.42993 13.52L7.91993 20L14.4099 13.52L7.90993 7.03ZM4.25993 13.52L7.91993 9.86L11.5699 13.52L7.90993 17.18L4.25993 13.52Z" fill="black" fill-opacity="0.54"/>
</svg>
