<svg width="24" height="24" viewBox="0 0 24 24" fill="none" xmlns="http://www.w3.org/2000/svg">
<path fill-rule="evenodd" clip-rule="evenodd" d="M4.22 4.22V7.05C11.25 7.05 16.95 12.75 16.95 19.78H19.78C19.78 11.19 12.81 4.22 4.22 4.22ZM6.4 15.42C5.19602 15.42 4.22 16.396 4.22 17.6C4.22 18.804 5.19602 19.78 6.4 19.78C7.60398 19.78 8.58 18.804 8.58 17.6C8.58 16.396 7.60398 15.42 6.4 15.42ZM4.22 12.71V9.88C9.69 9.88 14.12 14.31 14.12 19.78H11.29C11.29 15.88 8.12 12.71 4.22 12.71Z" fill="black" fill-opacity="0.54"/>
</svg>
