<svg width="24" height="24" viewBox="0 0 24 24" fill="none" xmlns="http://www.w3.org/2000/svg">
<path fill-rule="evenodd" clip-rule="evenodd" d="M11.2 10.2C8.98995 10.2 7.19995 8.41001 7.19995 6.20001C7.19995 3.99001 8.98995 2.20001 11.2 2.20001C13.41 2.20001 15.2 3.99001 15.2 6.20001C15.2 8.41001 13.41 10.2 11.2 10.2ZM3.19995 14.2C3.19995 16.41 4.98995 18.2 7.19995 18.2C9.40995 18.2 11.2 16.41 11.2 14.2C11.2 11.99 9.40995 10.2 7.19995 10.2C4.98995 10.2 3.19995 11.99 3.19995 14.2ZM5.19995 14.2C5.19995 13.1 6.09995 12.2 7.19995 12.2C8.29995 12.2 9.19995 13.1 9.19995 14.2C9.19995 15.3 8.29995 16.2 7.19995 16.2C6.09995 16.2 5.19995 15.3 5.19995 14.2ZM9.19995 6.20001C9.19995 5.10001 10.1 4.20001 11.2 4.20001C12.3 4.20001 13.2 5.10001 13.2 6.20001C13.2 7.30001 12.3 8.20001 11.2 8.20001C10.1 8.20001 9.19995 7.30001 9.19995 6.20001ZM16.8 21.8C14.59 21.8 12.8 20.01 12.8 17.8C12.8 15.59 14.59 13.8 16.8 13.8C19.01 13.8 20.8 15.59 20.8 17.8C20.8 20.01 19.01 21.8 16.8 21.8ZM14.8 17.8C14.8 16.7 15.7 15.8 16.8 15.8C17.9 15.8 18.8 16.7 18.8 17.8C18.8 18.9 17.9 19.8 16.8 19.8C15.7 19.8 14.8 18.9 14.8 17.8Z" fill="black" fill-opacity="0.54"/>
</svg>
