<svg width="24" height="24" viewBox="0 0 24 24" fill="none" xmlns="http://www.w3.org/2000/svg">
<path fill-rule="evenodd" clip-rule="evenodd" d="M22.45 11C22.09 7.24 19.75 4.07 16.48 2.52L15.15 3.84L11.34 0.03L12 0C18.29 0 23.44 4.84 23.95 11H22.45ZM8.11005 1.75C8.69005 1.16 9.64005 1.16 10.23 1.75L22.25 13.77C22.84 14.35 22.84 15.3 22.25 15.89L15.89 22.25C15.31 22.84 14.36 22.84 13.77 22.25L1.75005 10.23C1.16005 9.65 1.16005 8.7 1.75005 8.11L8.11005 1.75ZM14.83 21.19L2.81005 9.17L9.17005 2.81L21.19 14.83L14.83 21.19ZM1.55005 13C1.91005 16.76 4.25005 19.94 7.52005 21.48L8.85005 20.16L12.66 23.97L12 24C5.71005 24 0.560049 19.16 0.0500488 13H1.55005Z" fill="black" fill-opacity="0.54"/>
</svg>
