<svg width="24" height="24" viewBox="0 0 24 24" fill="none" xmlns="http://www.w3.org/2000/svg">
<path fill-rule="evenodd" clip-rule="evenodd" d="M4.22501 3.72C6.21501 1.73 8.96501 0.5 12.005 0.5C15.045 0.5 17.795 1.73 19.775 3.73L18.365 5.14C16.745 3.51 14.495 2.5 12.005 2.5C9.51501 2.5 7.26501 3.51 5.63501 5.13L4.22501 3.72ZM7.05501 6.55L8.46501 7.96C9.37501 7.06 10.625 6.5 12.005 6.5C13.385 6.5 14.635 7.06 15.545 7.96L16.955 6.55C15.685 5.28 13.935 4.5 12.005 4.5C10.075 4.5 8.32501 5.28 7.05501 6.55ZM9.00501 9.5C8.45501 9.5 8.00501 9.95 8.00501 10.5V22.5C8.00501 23.05 8.45501 23.5 9.00501 23.5H15.005C15.555 23.5 16.005 23.05 16.005 22.5V10.5C16.005 9.95 15.555 9.5 15.005 9.5H9.00501ZM14.005 11.5V21.5H10.005V11.5H14.005ZM11.005 13.5C11.005 12.9477 11.4527 12.5 12.005 12.5C12.5573 12.5 13.005 12.9477 13.005 13.5C13.005 14.0523 12.5573 14.5 12.005 14.5C11.4527 14.5 11.005 14.0523 11.005 13.5Z" fill="black" fill-opacity="0.54"/>
</svg>
