<svg width="24" height="24" viewBox="0 0 24 24" fill="none" xmlns="http://www.w3.org/2000/svg">
<path fill-rule="evenodd" clip-rule="evenodd" d="M12.645 0L18.355 5.71L14.055 10L18.355 14.29L12.645 20H11.645V12.41L7.05499 17L5.64499 15.59L11.235 10L5.64499 4.41L7.05499 3L11.645 7.59V0H12.645ZM9.64499 24H7.64499V22H9.64499V24ZM13.645 22V24H11.645V22H13.645ZM15.645 24H17.645V22H15.645V24ZM13.645 3.83L15.525 5.71L13.645 7.59V3.83ZM13.645 16.17L15.525 14.29L13.645 12.41V16.17Z" fill="black" fill-opacity="0.54"/>
</svg>
