<svg width="16" height="16" viewBox="0 0 16 16" fill="none" xmlns="http://www.w3.org/2000/svg">
<path d="M8.03978 6.03223C7.5067 6.03223 6.99545 6.24399 6.6185 6.62094C6.24155 6.99789 6.02979 7.50914 6.02979 8.04223C6.02979 8.57531 6.24155 9.08656 6.6185 9.46351C6.99545 9.84046 7.5067 10.0522 8.03978 10.0522C8.57287 10.0522 9.08412 9.84046 9.46107 9.46351C9.83802 9.08656 10.0498 8.57531 10.0498 8.04223C10.0498 7.50914 9.83802 6.99789 9.46107 6.62094C9.08412 6.24399 8.57287 6.03223 8.03978 6.03223V6.03223Z" stroke="#656565" stroke-linecap="round" stroke-linejoin="round"/>
<path d="M12.9999 10.0519C12.9111 10.254 12.8845 10.4781 12.9237 10.6954C12.9629 10.9128 13.0661 11.1135 13.2199 11.2719L13.2599 11.3119C13.3851 11.4364 13.4844 11.5844 13.5522 11.7475C13.62 11.9105 13.6549 12.0853 13.6549 12.2619C13.6549 12.4384 13.62 12.6133 13.5522 12.7763C13.4844 12.9393 13.3851 13.0874 13.2599 13.2119C13.1354 13.337 12.9874 13.4364 12.8243 13.5042C12.6613 13.5719 12.4865 13.6068 12.3099 13.6068C12.1334 13.6068 11.9585 13.5719 11.7955 13.5042C11.6325 13.4364 11.4844 13.337 11.3599 13.2119L11.3199 13.1719C11.1626 13.0163 10.9625 12.9113 10.7451 12.8704C10.5277 12.8294 10.303 12.8543 10.0999 12.9419C9.90081 13.0278 9.73124 13.1703 9.61217 13.3515C9.4931 13.5328 9.42974 13.745 9.42992 13.9619V14.0719C9.42992 14.4273 9.28874 14.7681 9.03745 15.0194C8.78615 15.2707 8.44531 15.4119 8.08992 15.4119C7.73453 15.4119 7.3937 15.2707 7.1424 15.0194C6.8911 14.7681 6.74992 14.4273 6.74992 14.0719V14.0119C6.74407 13.791 6.67243 13.5769 6.54416 13.3969C6.41589 13.217 6.23684 13.0794 6.02992 13.0019C5.82775 12.913 5.60367 12.8865 5.38635 12.9257C5.16902 12.9649 4.96832 13.068 4.80992 13.2219L4.76992 13.2619C4.6454 13.387 4.49737 13.4864 4.33434 13.5542C4.1713 13.6219 3.99648 13.6568 3.81992 13.6568C3.64336 13.6568 3.46854 13.6219 3.30551 13.5542C3.14247 13.4864 2.99444 13.387 2.86992 13.2619C2.74475 13.1374 2.64542 12.9893 2.57764 12.8263C2.50985 12.6633 2.47496 12.4884 2.47496 12.3119C2.47496 12.1353 2.50985 11.9605 2.57764 11.7975C2.64542 11.6344 2.74475 11.4864 2.86992 11.3619L2.90992 11.3219C3.06546 11.1646 3.17045 10.9644 3.21143 10.747C3.25241 10.5297 3.22751 10.305 3.13992 10.1019C3.05395 9.90276 2.91153 9.73319 2.73026 9.61412C2.54899 9.49505 2.3368 9.43169 2.11992 9.43188H2.00992C1.65453 9.43188 1.3137 9.2907 1.0624 9.0394C0.8111 8.7881 0.669922 8.44727 0.669922 8.09188C0.669922 7.73648 0.8111 7.39565 1.0624 7.14435C1.3137 6.89305 1.65453 6.75187 2.00992 6.75187H2.06992C2.29082 6.74603 2.50494 6.67438 2.68487 6.54611C2.86481 6.41784 3.00236 6.23879 3.07992 6.03188C3.16877 5.8297 3.19529 5.60563 3.1561 5.3883C3.11691 5.17097 3.01379 4.97028 2.85992 4.81187L2.81992 4.77187C2.69475 4.64735 2.59542 4.49932 2.52764 4.33629C2.45985 4.17326 2.42496 3.99844 2.42496 3.82187C2.42496 3.64531 2.45985 3.47049 2.52764 3.30746C2.59542 3.14443 2.69475 2.9964 2.81992 2.87187C2.94444 2.7467 3.09247 2.64737 3.25551 2.57959C3.41854 2.51181 3.59336 2.47691 3.76992 2.47691C3.94648 2.47691 4.1213 2.51181 4.28434 2.57959C4.44737 2.64737 4.5954 2.7467 4.71992 2.87187L4.75992 2.91188C4.91721 3.06741 5.11738 3.1724 5.33476 3.21339C5.55214 3.25437 5.7768 3.22946 5.97992 3.14188H6.02992C6.22904 3.0559 6.3986 2.91348 6.51767 2.73221C6.63675 2.55094 6.7001 2.33876 6.69992 2.12187V2.01187C6.69992 1.65648 6.8411 1.31565 7.0924 1.06435C7.3437 0.813053 7.68453 0.671875 8.03992 0.671875C8.39531 0.671875 8.73615 0.813053 8.98744 1.06435C9.23874 1.31565 9.37992 1.65648 9.37992 2.01187V2.07187C9.38168 2.28705 9.44595 2.49708 9.5649 2.67639C9.68385 2.85571 9.85236 2.99658 10.0499 3.08187C10.2521 3.17072 10.4762 3.19725 10.6935 3.15806C10.9108 3.11887 11.1115 3.01574 11.2699 2.86187L11.3099 2.82187C11.4344 2.6967 11.5825 2.59737 11.7455 2.52959C11.9085 2.46181 12.0834 2.42691 12.2599 2.42691C12.4365 2.42691 12.6113 2.46181 12.7743 2.52959C12.9374 2.59737 13.0854 2.6967 13.2099 2.82187C13.3351 2.9464 13.4344 3.09443 13.5022 3.25746C13.57 3.42049 13.6049 3.59531 13.6049 3.77187C13.6049 3.94844 13.57 4.12326 13.5022 4.28629C13.4344 4.44932 13.3351 4.59735 13.2099 4.72187L13.1699 4.76188C13.0144 4.91916 12.9094 5.11934 12.8684 5.33671C12.8274 5.55409 12.8523 5.77875 12.9399 5.98187V6.03188C13.0259 6.23099 13.1683 6.40056 13.3496 6.51963C13.5309 6.6387 13.743 6.70206 13.9599 6.70187H14.0699C14.4253 6.70187 14.7661 6.84305 15.0174 7.09435C15.2687 7.34565 15.4099 7.68648 15.4099 8.04187C15.4099 8.39726 15.2687 8.7381 15.0174 8.9894C14.7661 9.2407 14.4253 9.38188 14.0699 9.38188H14.0099C13.7947 9.38364 13.5847 9.4479 13.4054 9.56686C13.2261 9.68581 13.0852 9.85432 12.9999 10.0519V10.0519Z" stroke="#656565" stroke-linecap="round" stroke-linejoin="round"/>
</svg>
