<svg width="24" height="24" viewBox="0 0 24 24" fill="none" xmlns="http://www.w3.org/2000/svg">
<path fill-rule="evenodd" clip-rule="evenodd" d="M17.21 9.49H22C22.55 9.49 23 9.94 23 10.49L22.97 10.76L20.43 20.03C20.19 20.87 19.42 21.49 18.5 21.49H5.5C4.58 21.49 3.81 20.87 3.58 20.03L1.04 10.76C1.01 10.67 1 10.58 1 10.49C1 9.94 1.45 9.49 2 9.49H6.79L11.17 2.94C11.36 2.65 11.68 2.51 12 2.51C12.32 2.51 12.64 2.65 12.83 2.93L17.21 9.49ZM14.8 9.49L12 5.29L9.2 9.49H14.8ZM18.5 19.49L5.51 19.5L3.31 11.49H20.7L18.5 19.49ZM10 15.49C10 14.39 10.9 13.49 12 13.49C13.1 13.49 14 14.39 14 15.49C14 16.59 13.1 17.49 12 17.49C10.9 17.49 10 16.59 10 15.49Z" fill="black" fill-opacity="0.54"/>
</svg>
