<svg width="24" height="24" viewBox="0 0 24 24" fill="none" xmlns="http://www.w3.org/2000/svg">
<path fill-rule="evenodd" clip-rule="evenodd" d="M10.975 2.04999V4.06999C9.51499 4.24999 8.18499 4.82999 7.07499 5.68999L5.65499 4.25999C7.13499 3.04999 8.96499 2.24999 10.975 2.04999ZM13.025 9.78999L9.97499 7.49999V16.5L13.025 14.21L15.975 12L13.025 9.78999ZM5.66499 7.09999L4.23499 5.67999C3.02499 7.15999 2.22499 8.98999 2.02499 11H4.04499C4.22499 9.53999 4.80499 8.20999 5.66499 7.09999ZM2.02499 13H4.04499C4.22499 14.46 4.80499 15.79 5.66499 16.89L4.23499 18.32C3.02499 16.84 2.22499 15.01 2.02499 13ZM5.65499 19.74C7.13499 20.95 8.97499 21.75 10.975 21.95V19.93C9.51499 19.75 8.18499 19.17 7.07499 18.31L5.65499 19.74ZM13.025 21.95C18.055 21.42 21.975 17.16 21.975 12C21.975 6.83999 18.055 2.57999 13.025 2.04999V4.06999C16.945 4.58999 19.975 7.94999 19.975 12C19.975 16.05 16.945 19.41 13.025 19.93V21.95Z" fill="black" fill-opacity="0.54"/>
</svg>
