<svg width="24" height="24" viewBox="0 0 24 24" fill="none" xmlns="http://www.w3.org/2000/svg">
<path fill-rule="evenodd" clip-rule="evenodd" d="M16.03 8.175H14.5C12.65 8.175 11.15 6.675 11.15 4.825C11.15 2.975 12.65 1.475 14.5 1.475V2.975C13.48 2.975 12.65 3.705 12.65 4.725C12.65 5.745 13.48 6.725 14.5 6.725H16.03C17.9 6.725 19.5 8.075 19.5 9.885V11.525H18V10.225C18 8.915 17.08 8.175 16.03 8.175ZM17 12.525H14.66L17 14.865V12.525ZM19.5 12.525H18V15.525H19.5V12.525ZM22 12.525H20.5V15.525H22V12.525ZM18.85 4.255C19.47 3.645 19.85 2.805 19.85 1.875H18.35C18.35 2.895 17.52 3.725 16.5 3.725V5.225C18.74 5.225 20.5 7.055 20.5 9.295V11.525H22V9.285C22 7.065 20.72 5.145 18.85 4.255ZM2 5.525L3.41 4.115L20.41 21.115L19 22.525L12 15.525H2V12.525H9L2 5.525Z" fill="black" fill-opacity="0.54"/>
</svg>
