<svg width="24" height="24" viewBox="0 0 24 24" fill="none" xmlns="http://www.w3.org/2000/svg">
<path fill-rule="evenodd" clip-rule="evenodd" d="M2.33999 0.929993L0.929993 2.33999L2.93999 4.34999L2.92999 21.34L6.92999 17.34H15.93L21.66 23.07L23.07 21.66L2.33999 0.929993ZM20.93 15.34V3.33999H7.58999L5.58999 1.33999H20.93C22.03 1.33999 22.93 2.23999 22.93 3.33999V15.34C22.93 16.24 22.32 17 21.5 17.25L19.59 15.34H20.93ZM8.92999 11.34H6.92999V13.34H8.92999V11.34ZM18.93 8.33999H12.59L14.59 10.34H18.93V8.33999ZM10.93 5.33999H18.93V7.33999H11.59L10.93 6.67999V5.33999ZM4.92999 16.51L6.09999 15.34H13.93L8.92999 10.34H6.92999V8.33999L4.92999 6.33999V16.51Z" fill="black" fill-opacity="0.54"/>
</svg>
