<svg width="24" height="24" viewBox="0 0 24 24" fill="none" xmlns="http://www.w3.org/2000/svg">
<path fill-rule="evenodd" clip-rule="evenodd" d="M22.2923 15.7L17.3323 3.73C17.0223 2.98 16.2923 2.52 15.5223 2.5C15.2623 2.5 14.9923 2.54 14.7323 2.65L7.36231 5.7C6.61231 6.01 6.15231 6.73 6.13231 7.5C6.12231 7.77 6.17231 8.04 6.28231 8.3L11.2423 20.27C11.5523 21.03 12.2923 21.49 13.0723 21.5C13.3323 21.5 13.5923 21.45 13.8423 21.35L21.2023 18.3C22.2223 17.88 22.7123 16.71 22.2923 15.7ZM2.79231 19.4L4.13231 19.96V10.93L1.70231 16.79C1.29231 17.81 1.78231 18.98 2.79231 19.4ZM8.13231 7.54L13.0923 19.5L20.4423 16.45L15.4923 4.5H15.4823L8.13231 7.54ZM11.2623 7.75C10.71 7.75 10.2623 8.19772 10.2623 8.75C10.2623 9.30228 10.71 9.75 11.2623 9.75C11.8146 9.75 12.2623 9.30228 12.2623 8.75C12.2623 8.19772 11.8146 7.75 11.2623 7.75ZM8.14231 21.5C7.04231 21.5 6.14231 20.6 6.14231 19.5V13.16L9.59231 21.5H8.14231Z" fill="black" fill-opacity="0.54"/>
</svg>
