<svg width="16" height="16" viewBox="0 0 16 16" fill="none" xmlns="http://www.w3.org/2000/svg">
<path fill-rule="evenodd" clip-rule="evenodd" d="M8.00065 1.33203C4.32065 1.33203 1.33398 4.3187 1.33398 7.9987C1.33398 11.6787 4.32065 14.6654 8.00065 14.6654C11.6807 14.6654 14.6673 11.6787 14.6673 7.9987C14.6673 4.3187 11.6807 1.33203 8.00065 1.33203ZM10.4075 5.55825C11.1209 5.55825 11.6942 6.13158 11.6942 6.84492C11.6942 7.55825 11.1209 8.13158 10.4075 8.13158C9.69419 8.13158 9.12086 7.55825 9.12086 6.84492C9.11419 6.13158 9.69419 5.55825 10.4075 5.55825ZM7.98065 6.07724C7.98065 5.21057 7.27398 4.50391 6.40732 4.50391C5.53398 4.50391 4.83398 5.20391 4.83398 6.07724C4.83398 6.94391 5.54065 7.65057 6.40732 7.65057C7.27398 7.65057 7.98065 6.94391 7.98065 6.07724ZM6.40714 10.5935V13.0935C4.80714 12.5935 3.54047 11.3602 2.98047 9.78682C3.68047 9.04016 5.42714 8.66016 6.40714 8.66016C6.76047 8.66016 7.20714 8.71349 7.6738 8.80682C6.58047 9.38682 6.40714 10.1535 6.40714 10.5935ZM7.47367 13.3048C7.64701 13.3248 7.82034 13.3315 8.00034 13.3315C10.2603 13.3315 12.187 11.9181 12.967 9.93815C12.3537 9.43148 11.1203 9.17148 10.407 9.17148C9.43367 9.17148 7.47367 9.64481 7.47367 10.5915V13.3048Z" fill="black" fill-opacity="0.54"/>
</svg>
