<svg width="24" height="24" viewBox="0 0 24 24" fill="none" xmlns="http://www.w3.org/2000/svg">
<path fill-rule="evenodd" clip-rule="evenodd" d="M3.32007 4.73001L4.73007 3.32001L20.6801 19.27L19.2701 20.68L16.6901 18.1C16.0101 18.52 15.2601 18.85 14.4601 19.06V16.97C14.7201 16.87 14.9701 16.76 15.2201 16.63L7.14007 8.55001C6.71007 9.38001 6.46007 10.32 6.46007 11.32C6.46007 12.98 7.14007 14.47 8.22007 15.56L10.4601 13.32V19.32H4.46007L6.82007 16.96C5.37007 15.52 4.46007 13.53 4.46007 11.32C4.46007 9.76001 4.91007 8.31001 5.68007 7.09001L3.32007 4.73001ZM20.4601 11.32C20.4601 9.11001 19.5501 7.12001 18.1001 5.68001L20.4601 3.32001H14.4601V9.32001L16.7001 7.08001C17.7801 8.17001 18.4601 9.66001 18.4601 11.32C18.4601 12.17 18.2701 12.97 17.9501 13.7L19.4501 15.2C20.0901 14.06 20.4601 12.73 20.4601 11.32ZM10.4601 5.67001V3.58001C9.80007 3.75001 9.17007 4.01001 8.58007 4.33001L10.0801 5.83001C10.1451 5.80501 10.2076 5.77751 10.2701 5.75001C10.3326 5.72251 10.3951 5.69501 10.4601 5.67001Z" fill="black" fill-opacity="0.54"/>
</svg>
