<svg width="24" height="24" viewBox="0 0 24 24" fill="none" xmlns="http://www.w3.org/2000/svg">
<path fill-rule="evenodd" clip-rule="evenodd" d="M20.4884 5.49818V14.5382C21.2684 15.3282 21.6784 16.4782 21.4284 17.7182C21.1584 19.0582 20.0684 20.1582 18.7284 20.4282C16.6484 20.8482 14.8284 19.4182 14.5484 17.4982H4.49844C3.39844 17.4982 2.49844 16.5982 2.49844 15.4982V5.49818C2.49844 4.39818 3.39844 3.49818 4.49844 3.49818H18.4884C19.5884 3.49818 20.4884 4.39818 20.4884 5.49818ZM11.4984 8.99818L18.4884 5.49818H4.49844L11.4984 8.99818ZM14.8484 15.4982H4.49844V7.49818L11.4984 10.9982L18.4984 7.49818V13.5482C18.4627 13.5437 18.4265 13.5387 18.3898 13.5337C18.2625 13.5163 18.1305 13.4982 17.9984 13.4982C16.6084 13.4982 15.4084 14.3182 14.8484 15.4982ZM15.9984 16.4982V17.4982H19.9984V16.4982H15.9984Z" fill="black" fill-opacity="0.54"/>
</svg>
