<svg width="24" height="24" viewBox="0 0 24 24" fill="none" xmlns="http://www.w3.org/2000/svg">
<path d="M15.1 7.4V11.4H16.1V13.4H13.1V5.4H15.1L12.1 1.4L9.10002 5.4H11.1V13.4H8.10002V11.33C8.80002 10.96 9.30002 10.25 9.30002 9.4C9.30002 8.19 8.31002 7.2 7.10002 7.2C5.89002 7.2 4.90002 8.19 4.90002 9.4C4.90002 10.25 5.40002 10.96 6.10002 11.33V13.4C6.10002 14.51 6.99002 15.4 8.10002 15.4H11.1V18.45C10.39 18.82 9.90002 19.55 9.90002 20.4C9.90002 21.62 10.89 22.6 12.1 22.6C13.31 22.6 14.3 21.62 14.3 20.4C14.3 19.55 13.81 18.82 13.1 18.45V15.4H16.1C17.21 15.4 18.1 14.51 18.1 13.4V11.4H19.1V7.4H15.1Z" fill="black" fill-opacity="0.54"/>
</svg>
