<svg width="24" height="24" viewBox="0 0 24 24" fill="none" xmlns="http://www.w3.org/2000/svg">
<path fill-rule="evenodd" clip-rule="evenodd" d="M18.4423 4.13L20.0723 2.5C23.9323 6.49 23.9623 12.44 20.2223 16.33L18.5823 14.69C21.2023 11.52 21.1623 7.1 18.4423 4.13ZM15.0823 7.55L16.7623 5.86C18.7423 8.01 18.7723 10.97 16.8723 12.99L15.1723 11.29C15.9123 10.13 15.8823 8.68 15.0823 7.55ZM9.4323 5.54L12.9623 9.07C12.7623 7.21 11.2923 5.74 9.4323 5.54ZM3.0023 4.77L4.4123 3.36L21.1423 20.09L19.7323 21.5L16.7123 18.48C16.8923 18.8 17.0023 19.13 17.0023 19.5V21.5H1.0023V19.5C1.0023 16.84 6.3323 15.5 9.0023 15.5C10.7823 15.5 13.7423 16.1 15.5123 17.28L11.1123 12.88C10.5023 13.27 9.7823 13.5 9.0023 13.5C6.7923 13.5 5.0023 11.71 5.0023 9.5C5.0023 8.72 5.2323 8 5.6223 7.39L3.0023 4.77ZM3.0023 19.5C3.2223 18.78 6.3123 17.5 9.0023 17.5C11.7023 17.5 14.8023 18.79 15.0023 19.5H3.0023ZM7.0023 9.5C7.0023 10.6 7.9023 11.5 9.0023 11.5C9.2223 11.5 9.4223 11.46 9.6223 11.39L7.1123 8.88C7.0423 9.08 7.0023 9.28 7.0023 9.5Z" fill="black" fill-opacity="0.54"/>
</svg>
