<svg width="24" height="24" viewBox="0 0 24 24" fill="none" xmlns="http://www.w3.org/2000/svg">
<path fill-rule="evenodd" clip-rule="evenodd" d="M9 1.525H15V6.335C16.79 7.375 18 9.305 18 11.525C18 14.835 15.31 17.525 12 17.525C8.69 17.525 6 14.835 6 11.525C6 9.305 7.21 7.375 9 6.335V1.525ZM13 3.525V7.485L14 8.065C15.24 8.785 16 10.105 16 11.525C16 13.735 14.21 15.525 12 15.525C9.79 15.525 8 13.735 8 11.525C8 10.105 8.77 8.785 10 8.065L11 7.485V3.525H13ZM4 10.475H1V12.475H4V10.475ZM3.55 18.565L4.96 19.975L6.75 18.175L5.34 16.765L3.55 18.565ZM13 19.475V22.475H11V19.475H13ZM20 10.475H23V12.475H20V10.475ZM19.03 19.985L17.24 18.185L18.64 16.785L20.44 18.575L19.03 19.985Z" fill="black" fill-opacity="0.54"/>
</svg>
