<svg width="24" height="24" viewBox="0 0 24 24" fill="none" xmlns="http://www.w3.org/2000/svg">
<path fill-rule="evenodd" clip-rule="evenodd" d="M2.83 1.42001L1.42 2.83001L4.17 5.58001H3.43C2.32 5.58001 1.44 6.47001 1.44 7.58001L1.43 18.58C1.43 19.69 2.32 20.58 3.43 20.58H19.17L21.17 22.58L22.58 21.17L2.83 1.42001ZM9.43 3.58001H13.43V5.58001H9.83L11.83 7.58001H19.43V15.18L21.43 17.18V7.58001C21.43 6.47001 20.54 5.58001 19.43 5.58001H15.43V3.58001C15.43 2.47001 14.54 1.58001 13.43 1.58001H9.43C8.44 1.58001 7.63 2.28001 7.47 3.22001L9.43 5.18001V3.58001ZM3.43 7.58001V18.58H17.17L6.17 7.58001H3.43Z" fill="black" fill-opacity="0.54"/>
</svg>
