<svg width="40" height="40" viewBox="0 0 40 40" fill="none" xmlns="http://www.w3.org/2000/svg">
<rect x="7.5" y="13.335" width="27.5" height="14.1667" fill="#F2F2F2"/>
<path d="M34 12.6667H32V2C32 0.895508 31.1045 0 30 0H9.33333C9.31933 0 9.30729 0.00651042 9.29329 0.00748698C9.23958 0.0110677 9.1862 0.0211588 9.13476 0.0374349C9.11328 0.0429688 9.09245 0.0494792 9.07194 0.0572917C9.00195 0.0859375 8.9375 0.126628 8.88118 0.177409L0.214518 8.17741C0.154948 8.23438 0.106771 8.30208 0.0725912 8.37728C0.0628255 8.39909 0.054362 8.42122 0.0472005 8.44401C0.0253907 8.50391 0.0123698 8.56706 0.00878908 8.63053C0.00878908 8.64453 0 8.65723 0 8.67122V38C0 39.1045 0.895508 40 2 40H30C31.1045 40 32 39.1045 32 38V28.6667H34C35.1045 28.6667 36 27.7712 36 26.6667V14.6667C36 13.5622 35.1045 12.6667 34 12.6667ZM8.66667 2.18945V7.33333C8.66667 7.7015 8.36816 8 8 8H2.37207L8.66667 2.18945ZM30.6667 38C30.6667 38.3682 30.3682 38.6667 30 38.6667H2C1.63184 38.6667 1.33333 38.3682 1.33333 38V9.33333H8C9.10449 9.33333 10 8.43783 10 7.33333V1.33333H30C30.3682 1.33333 30.6667 1.63184 30.6667 2V12.6667H8.66667C7.56217 12.6667 6.66667 13.5622 6.66667 14.6667V26.6667C6.66667 27.7712 7.56217 28.6667 8.66667 28.6667H30.6667V38ZM34.6667 26.6667C34.6667 27.0348 34.3682 27.3333 34 27.3333H8.66667C8.2985 27.3333 8 27.0348 8 26.6667V14.6667C8 14.2985 8.2985 14 8.66667 14H34C34.3682 14 34.6667 14.2985 34.6667 14.6667V26.6667Z" fill="#999999"/>
<path d="M20.2681 16.25C19.9772 16.25 19.7415 16.4857 19.7415 16.7766V24.7735C19.7415 25.03 19.9263 25.2492 20.1791 25.2926C20.217 25.2991 20.2642 25.3072 21.1224 25.3072C21.5447 25.3072 22.1633 25.3052 23.0737 25.3001C23.3645 25.2985 23.5989 25.0615 23.5973 24.7706C23.5957 24.4807 23.3603 24.2469 23.0708 24.2469C23.0698 24.2469 23.0688 24.2469 23.0678 24.2469C22.3819 24.2508 21.3858 24.2549 20.7946 24.2535V16.7766C20.7946 16.4857 20.5589 16.25 20.2681 16.25Z" fill="#999999"/>
<path d="M28.3157 24.2544C27.3886 24.2544 26.4919 23.8756 25.9168 23.241C25.7216 23.0255 25.3886 23.0091 25.173 23.2044C24.9575 23.3997 24.9411 23.7327 25.1364 23.9482C25.9078 24.7994 27.0963 25.3076 28.3157 25.3076C29.7491 25.3076 30.9964 24.3753 31.2172 23.1389C31.3827 22.2118 30.9379 20.9918 29.193 20.3482C28.1309 19.9564 27.1481 19.5279 26.9379 19.4354C26.6136 19.2076 26.455 18.8366 26.5127 18.4349C26.5818 17.9534 26.9441 17.5692 27.4817 17.4072C28.865 16.9902 30.0965 17.9834 30.1219 18.0042C30.3446 18.1901 30.6759 18.161 30.8627 17.9389C31.0498 17.7162 31.021 17.3841 30.7984 17.197C30.7308 17.1401 29.1218 15.8135 27.1779 16.3988C26.2515 16.6779 25.5972 17.4008 25.4702 18.2852C25.3527 19.1038 25.7069 19.8908 26.3946 20.3392C26.418 20.3544 26.4423 20.3677 26.4677 20.379C26.5134 20.3993 27.6017 20.8837 28.8285 21.3363C29.8068 21.6972 30.2994 22.2867 30.1804 22.9538C30.0677 23.5843 29.376 24.2544 28.3157 24.2544Z" fill="#999999"/>
<path d="M11.4734 25.2108C11.7084 25.3772 12.0387 25.323 12.2072 25.0836L14.7958 21.409L17.3806 25.0833C17.549 25.3228 17.8792 25.3772 18.1144 25.211C18.3522 25.0437 18.4094 24.7151 18.2421 24.4773L15.4402 20.4944L17.8457 17.0799C18.0132 16.8422 17.9562 16.5137 17.7184 16.3462C17.4806 16.1785 17.1522 16.2357 16.9846 16.4734L14.7965 19.5795L12.6116 16.4737C12.4443 16.2359 12.1158 16.1786 11.8779 16.3461C11.64 16.5134 11.5828 16.8419 11.7502 17.0797L14.1521 20.4941L11.3462 24.4771C11.1786 24.7149 11.2356 25.0434 11.4734 25.2108Z" fill="#999999"/>
</svg>
