<svg width="56" height="56" viewBox="0 0 56 56" fill="none" xmlns="http://www.w3.org/2000/svg">
<path d="M45.0636 30.625C45.0636 32.0095 44.6531 33.3628 43.8839 34.514C43.1147 35.6651 42.0215 36.5623 40.7424 37.0922C39.4633 37.622 38.0559 37.7606 36.698 37.4905C35.3401 37.2204 34.0929 36.5537 33.1139 35.5747C32.1349 34.5958 31.4682 33.3485 31.1981 31.9906C30.928 30.6328 31.0667 29.2253 31.5965 27.9462C32.1263 26.6671 33.0235 25.5739 34.1746 24.8047C35.3258 24.0355 36.6792 23.625 38.0636 23.625C39.9195 23.6271 41.6988 24.3653 43.0111 25.6776C44.3234 26.9899 45.0615 28.7691 45.0636 30.625ZM52.0636 30.625C52.0636 33.3939 51.2425 36.1007 49.7042 38.403C48.1659 40.7053 45.9794 42.4997 43.4212 43.5593C40.863 44.6189 38.0481 44.8962 35.3324 44.356C32.6166 43.8158 30.1221 42.4824 28.1641 40.5245C26.2062 38.5666 24.8728 36.072 24.3326 33.3563C23.7925 30.6405 24.0697 27.8256 25.1293 25.2674C26.189 22.7093 27.9834 20.5228 30.2857 18.9844C32.5879 17.4461 35.2947 16.625 38.0636 16.625C41.7753 16.6294 45.3337 18.1058 47.9583 20.7304C50.5828 23.3549 52.0592 26.9133 52.0636 30.625ZM46.8136 30.625C46.8136 28.8944 46.3005 27.2027 45.339 25.7638C44.3775 24.3248 43.011 23.2033 41.4121 22.5411C39.8133 21.8788 38.0539 21.7055 36.3566 22.0431C34.6593 22.3807 33.1002 23.2141 31.8765 24.4378C30.6527 25.6615 29.8194 27.2206 29.4818 28.918C29.1441 30.6153 29.3174 32.3746 29.9797 33.9735C30.642 35.5723 31.7635 36.9389 33.2024 37.9004C34.6413 38.8618 36.333 39.375 38.0636 39.375C40.3835 39.3725 42.6076 38.4498 44.248 36.8094C45.8884 35.169 46.8111 32.9449 46.8136 30.625ZM25.3184 39.8414L21.4824 51.3485C21.4352 51.4901 21.425 51.6413 21.4528 51.7879C21.4805 51.9345 21.5453 52.0716 21.641 52.1861C21.7366 52.3006 21.86 52.3888 21.9993 52.4422C22.1387 52.4956 22.2893 52.5125 22.437 52.4913L28.1866 51.6696L32.2659 54.9334C32.3678 55.0149 32.4866 55.0725 32.6137 55.1021C32.7407 55.1317 32.8728 55.1326 33.0002 55.1046C33.1276 55.0765 33.2472 55.0204 33.3501 54.9402C33.453 54.86 33.5367 54.7578 33.595 54.6411L37.7373 46.3584C35.304 46.3078 32.9157 45.6928 30.7606 44.5618C28.6055 43.4309 26.7425 41.815 25.3184 39.8414ZM54.6423 51.3485L50.8071 39.8423C49.3828 41.8156 47.5197 43.4312 45.3646 44.562C43.2096 45.6927 40.8214 46.3077 38.3883 46.3584L42.5261 54.6411C42.5844 54.758 42.6681 54.8603 42.7711 54.9406C42.8741 55.0208 42.9938 55.0771 43.1213 55.1051C43.2488 55.1331 43.381 55.1322 43.5082 55.1025C43.6353 55.0728 43.7542 55.015 43.8561 54.9334L47.9354 51.6696L53.685 52.4913C53.8329 52.513 53.9839 52.4965 54.1236 52.4433C54.2633 52.3901 54.387 52.302 54.483 52.1874C54.579 52.0728 54.6441 51.9356 54.6719 51.7887C54.6998 51.6418 54.6896 51.4903 54.6423 51.3485Z" fill="#6FDA44"/>
<path d="M38.9375 0.875H15.3125C13.6886 0.876853 12.1318 1.52276 10.9835 2.67102C9.83526 3.81928 9.18935 5.37612 9.1875 7V35H3.9375C3.24131 35 2.57363 35.2766 2.08134 35.7688C1.58906 36.2611 1.3125 36.9288 1.3125 37.625V38.5C1.31435 40.1239 1.96026 41.6807 3.10852 42.829C4.25678 43.9772 5.81362 44.6231 7.4375 44.625H28.4375C30.0613 44.6229 31.618 43.9769 32.7662 42.8287C33.9144 41.6805 34.5604 40.1238 34.5625 38.5V10.5H42.4375C43.1337 10.5 43.8014 10.2234 44.2937 9.73116C44.7859 9.23887 45.0625 8.57119 45.0625 7.875V7C45.0606 5.37612 44.4147 3.81928 43.2665 2.67102C42.1182 1.52276 40.5614 0.876853 38.9375 0.875ZM7.4375 42.875C6.2776 42.8736 5.16561 42.4122 4.34544 41.5921C3.52527 40.7719 3.06389 39.6599 3.0625 38.5V37.625C3.0625 37.3929 3.15469 37.1704 3.31878 37.0063C3.48288 36.8422 3.70544 36.75 3.9375 36.75H21.4375C21.6696 36.75 21.8921 36.8422 22.0562 37.0063C22.2203 37.1704 22.3125 37.3929 22.3125 37.625V38.5C22.312 39.3153 22.4747 40.1224 22.791 40.8738C23.1073 41.6251 23.5709 42.3056 24.1544 42.875H7.4375ZM32.8125 38.5C32.8125 39.6603 32.3516 40.7731 31.5311 41.5936C30.7106 42.4141 29.5978 42.875 28.4375 42.875C27.2772 42.875 26.1644 42.4141 25.3439 41.5936C24.5234 40.7731 24.0625 39.6603 24.0625 38.5V37.625C24.0625 36.9288 23.7859 36.2611 23.2937 35.7688C22.8014 35.2766 22.1337 35 21.4375 35H10.9375V7C10.9389 5.8401 11.4003 4.72811 12.2204 3.90794C13.0406 3.08777 14.1526 2.62639 15.3125 2.625H34.65C34.0675 3.19488 33.6048 3.87552 33.2893 4.62687C32.9737 5.37821 32.8116 6.18508 32.8125 7V38.5ZM43.3125 7.875C43.3125 8.10706 43.2203 8.32962 43.0562 8.49372C42.8921 8.65781 42.6696 8.75 42.4375 8.75H34.5625V7C34.5625 5.83968 35.0234 4.72688 35.8439 3.90641C36.6644 3.08594 37.7772 2.625 38.9375 2.625C40.0978 2.625 41.2106 3.08594 42.0311 3.90641C42.8516 4.72688 43.3125 5.83968 43.3125 7V7.875ZM29.3125 7C29.3125 7.23206 29.2203 7.45462 29.0562 7.61872C28.8921 7.78281 28.6696 7.875 28.4375 7.875H17.9375C17.7054 7.875 17.4829 7.78281 17.3188 7.61872C17.1547 7.45462 17.0625 7.23206 17.0625 7C17.0625 6.76794 17.1547 6.54538 17.3188 6.38128C17.4829 6.21719 17.7054 6.125 17.9375 6.125H28.4375C28.6696 6.125 28.8921 6.21719 29.0562 6.38128C29.2203 6.54538 29.3125 6.76794 29.3125 7ZM29.3125 14.875C29.3125 15.1071 29.2203 15.3296 29.0562 15.4937C28.8921 15.6578 28.6696 15.75 28.4375 15.75H15.3125C15.0804 15.75 14.8579 15.6578 14.6938 15.4937C14.5297 15.3296 14.4375 15.1071 14.4375 14.875C14.4375 14.6429 14.5297 14.4204 14.6938 14.2563C14.8579 14.0922 15.0804 14 15.3125 14H28.4375C28.6696 14 28.8921 14.0922 29.0562 14.2563C29.2203 14.4204 29.3125 14.6429 29.3125 14.875ZM29.3125 20.125C29.3125 20.3571 29.2203 20.5796 29.0562 20.7437C28.8921 20.9078 28.6696 21 28.4375 21H15.3125C15.0804 21 14.8579 20.9078 14.6938 20.7437C14.5297 20.5796 14.4375 20.3571 14.4375 20.125C14.4375 19.8929 14.5297 19.6704 14.6938 19.5063C14.8579 19.3422 15.0804 19.25 15.3125 19.25H28.4375C28.6696 19.25 28.8921 19.3422 29.0562 19.5063C29.2203 19.6704 29.3125 19.8929 29.3125 20.125ZM29.3125 25.375C29.3125 25.6071 29.2203 25.8296 29.0562 25.9937C28.8921 26.1578 28.6696 26.25 28.4375 26.25H15.3125C15.0804 26.25 14.8579 26.1578 14.6938 25.9937C14.5297 25.8296 14.4375 25.6071 14.4375 25.375C14.4375 25.1429 14.5297 24.9204 14.6938 24.7563C14.8579 24.5922 15.0804 24.5 15.3125 24.5H28.4375C28.6696 24.5 28.8921 24.5922 29.0562 24.7563C29.2203 24.9204 29.3125 25.1429 29.3125 25.375ZM29.3125 30.625C29.3125 30.8571 29.2203 31.0796 29.0562 31.2437C28.8921 31.4078 28.6696 31.5 28.4375 31.5H15.3125C15.0804 31.5 14.8579 31.4078 14.6938 31.2437C14.5297 31.0796 14.4375 30.8571 14.4375 30.625C14.4375 30.3929 14.5297 30.1704 14.6938 30.0063C14.8579 29.8422 15.0804 29.75 15.3125 29.75H28.4375C28.6696 29.75 28.8921 29.8422 29.0562 30.0063C29.2203 30.1704 29.3125 30.3929 29.3125 30.625Z" fill="#1D4354"/>
</svg>