<svg width="40" height="40" viewBox="0 0 40 40" fill="none" xmlns="http://www.w3.org/2000/svg">
<path d="M10.668 36H29.3346V38.6667C29.3346 39.0349 29.0362 39.3333 28.668 39.3333H11.3346C10.9664 39.3333 10.668 39.0349 10.668 38.6667V36Z" fill="#6FDA44"/>
<path d="M27.3346 36V38.6667C27.3346 39.0349 27.0362 39.3333 26.668 39.3333H28.668C29.0362 39.3333 29.3346 39.0349 29.3346 38.6667V36H27.3346Z" fill="#37A000"/>
<path d="M10.668 38.6667H1.33464C0.966446 38.6667 0.667969 38.3682 0.667969 38V36.6667C0.667969 36.2985 0.966446 36 1.33464 36H10.668V38.6667Z" fill="#6FDA44"/>
<path d="M29.332 38.6667H38.6654C39.0336 38.6667 39.332 38.3682 39.332 38V36.6667C39.332 36.2985 39.0336 36 38.6654 36H29.332V38.6667Z" fill="#6FDA44"/>
<path d="M38.668 36H36.668C37.0362 36 37.3346 36.2985 37.3346 36.6667V38C37.3346 38.3682 37.0362 38.6667 36.668 38.6667H38.668C39.0362 38.6667 39.3346 38.3682 39.3346 38V36.6667C39.3346 36.2985 39.0362 36 38.668 36Z" fill="#37A000"/>
<path d="M12 20H28V36H12V20Z" fill="#E7FFDD"/>
<path d="M26 20H28V36H26V20Z" fill="#EBF7EC"/>
<path d="M30.6654 14.668V16.668C30.6654 17.0362 30.3669 17.3346 29.9987 17.3346H9.9987C9.63051 17.3346 9.33203 17.0362 9.33203 16.668V14.668H30.6654Z" fill="#E7FFDD"/>
<path d="M28.6667 14.668V16.668C28.6667 17.0362 28.3682 17.3346 28 17.3346H30C30.3682 17.3346 30.6667 17.0362 30.6667 16.668V14.668H28.6667Z" fill="#EBF7EC"/>
<path d="M30.6654 14.668H9.33203L12.2654 11.148C12.5183 10.8421 12.8951 10.6659 13.292 10.668H26.112C26.4673 10.6681 26.8079 10.8097 27.0587 11.0613L30.6654 14.668Z" fill="#E7FFDD"/>
<path d="M27.0599 11.0613C26.8092 10.8097 26.4686 10.6681 26.1133 10.668H24.1133C24.4686 10.6681 24.8092 10.8097 25.0599 11.0613L28.6666 14.668H30.6666L27.0599 11.0613Z" fill="#EBF7EC"/>
<path d="M10.668 17.332H29.3346V19.9987H10.668V17.332Z" fill="#EBF7EC"/>
<path d="M27.332 17.332H29.332V19.9987H27.332V17.332Z" fill="#6FDA44"/>
<path d="M28 20H38.6667V36H28V20Z" fill="#E7FFDD"/>
<path d="M36.668 20H38.668V36H36.668V20Z" fill="#EBF7EC"/>
<path d="M38.6654 20H29.332V17.3333H29.9987C30.3669 17.3333 30.6654 17.0349 30.6654 16.6667V16H35.8387C36.3447 16.0003 36.8069 16.2869 37.032 16.74L38.6654 20Z" fill="#E7FFDD"/>
<path d="M37.0332 16.74C36.808 16.2869 36.3458 16.0003 35.8398 16H33.8398C34.3458 16.0003 34.808 16.2869 35.0332 16.74L36.6665 20H38.6665L37.0332 16.74Z" fill="#EBF7EC"/>
<path d="M1.33203 20H11.9987V36H1.33203V20Z" fill="#E7FFDD"/>
<path d="M10.6654 17.3333V20H1.33203L2.96536 16.74C3.19052 16.2869 3.65274 16.0003 4.1587 16H9.33203V16.6667C9.33203 17.0349 9.63051 17.3333 9.9987 17.3333H10.6654Z" fill="#E7FFDD"/>
<path d="M17.332 27.332H22.6654V35.9987H17.332V27.332Z" fill="#37A000"/>
<path d="M28.8408 4.31463L26.0008 5.0813L20.1675 6.64796C20.058 6.67462 19.9437 6.67462 19.8342 6.64796L14.0008 5.0813L11.1608 4.31463C10.8643 4.2403 10.6562 3.97373 10.6562 3.66796C10.6562 3.3622 10.8643 3.09563 11.1608 3.0213L19.8342 0.687962C19.9437 0.661304 20.058 0.661304 20.1675 0.687962L28.8408 3.0213C29.1374 3.09563 29.3454 3.3622 29.3454 3.66796C29.3454 3.97373 29.1374 4.2403 28.8408 4.31463Z" fill="#6FDA44"/>
<path d="M28.84 3.0213L20.1667 0.687962C20.0572 0.661304 19.9428 0.661304 19.8333 0.687962L19 0.911962L26.84 3.0213C27.1366 3.09563 27.3446 3.3622 27.3446 3.66796C27.3446 3.97373 27.1366 4.2403 26.84 4.31463L24 5.0813L19 6.42396L19.8333 6.64796C19.9428 6.67462 20.0572 6.67462 20.1667 6.64796L26 5.0813L28.84 4.31463C29.1366 4.2403 29.3446 3.97373 29.3446 3.66796C29.3446 3.3622 29.1366 3.09563 28.84 3.0213Z" fill="#37A000"/>
<path d="M26 5.08203V10.6687H14V5.08203L19.8333 6.6487C19.9428 6.67536 20.0572 6.67536 20.1667 6.6487L26 5.08203Z" fill="#37A000"/>
<path d="M1.33464 38.6667H3.33464C2.96645 38.6667 2.66797 38.3682 2.66797 38V36.6667C2.66797 36.2985 2.96645 36 3.33464 36V20L4.96797 16.74C5.19312 16.2869 5.65534 16.0003 6.1613 16H4.1613C3.65534 16.0003 3.19312 16.2869 2.96797 16.74L1.33464 20V36C0.966446 36 0.667969 36.2985 0.667969 36.6667V38C0.667969 38.3682 0.966446 38.6667 1.33464 38.6667Z" fill="white"/>
<path d="M0.667969 30.668H2.0013V36.0013H0.667969V30.668Z" fill="white"/>
<path d="M1.34579 34.0013C0.9776 34.0031 0.677631 33.7062 0.67579 33.338C0.673949 32.9698 0.970933 32.6698 1.33912 32.668H1.34579C1.71398 32.668 2.01246 32.9664 2.01246 33.3346C2.01246 33.7028 1.71398 34.0013 1.34579 34.0013Z" fill="#2B5468"/>
<path d="M39.3333 35.5183V19.9997C39.3315 19.8965 39.3052 19.7953 39.2567 19.7043H39.2633L37.6313 16.441C37.2953 15.7607 36.6014 15.3308 35.8427 15.333H31.3333V14.6663C31.3333 14.4895 31.263 14.32 31.138 14.195L27.5287 10.5857C27.2888 10.3482 26.992 10.1763 26.6667 10.0863V5.58966L28 5.23166V6.84633V6.85099C27.9993 7.53559 28.3414 8.17507 28.9113 8.55433C29.1095 8.68652 29.3631 8.70294 29.5767 8.59742C29.7902 8.4919 29.9313 8.28047 29.9467 8.04276C29.9621 7.80505 29.8495 7.57718 29.6513 7.44499C29.4524 7.31285 29.333 7.08979 29.3333 6.85099V6.84633V4.81499C29.8 4.54546 30.0585 4.02151 29.9885 3.48718C29.9185 2.95284 29.5337 2.51319 29.0133 2.37299L20.3427 0.0449943C20.1182 -0.0149981 19.8818 -0.0149981 19.6573 0.0449943L10.9867 2.37299C10.4036 2.53219 9.99909 3.06188 9.99909 3.66633C9.99909 4.27077 10.4036 4.80047 10.9867 4.95966L13.3333 5.58966V9.99966H13.2913C12.6986 9.99993 12.1368 10.2638 11.758 10.7197L8.82467 14.2397C8.7236 14.359 8.66767 14.51 8.66667 14.6663V15.333H4.15733C3.39915 15.3303 2.70544 15.759 2.36867 16.4383L0.736667 19.7017H0.743333C0.694368 19.7935 0.668081 19.8956 0.666667 19.9997V30.6663C0.666667 31.0345 0.965144 31.333 1.33333 31.333C1.70152 31.333 2 31.0345 2 30.6663V20.6663H11.3333V35.333H1.33333C0.596954 35.333 0 35.9299 0 36.6663V37.9997C0 38.736 0.596954 39.333 1.33333 39.333H10.1853C10.4216 39.7442 10.8591 39.9982 11.3333 39.9997H28.6667C29.1409 39.9982 29.5784 39.7442 29.8147 39.333H38.6667C39.403 39.333 40 38.736 40 37.9997V36.6663C39.9986 36.1921 39.7445 35.7546 39.3333 35.5183ZM10 37.9997H1.33333V36.6663H10V37.9997ZM31.3333 16.6663H35.8427C36.0954 16.6655 36.3265 16.8085 36.4387 17.035L37.588 19.333H30V17.9997C30.7364 17.9997 31.3333 17.4027 31.3333 16.6663ZM11.3333 3.66099L20 1.33299L28.676 3.66633H28.6673L20.0033 5.99966L11.3333 3.66099ZM25.3333 5.94766V9.99966H14.6667V5.94766L19.6573 7.28766C19.8818 7.34809 20.1182 7.34809 20.3427 7.28766L25.3333 5.94766ZM12.7793 11.573C12.9059 11.421 13.0935 11.3331 13.2913 11.333H26.114C26.291 11.3329 26.4608 11.4031 26.586 11.5283L29.0573 13.9997H10.7567L12.7793 11.573ZM10 19.333H2.412L3.56133 17.035C3.67345 16.8085 3.90462 16.6655 4.15733 16.6663H8.66667C8.66667 17.4027 9.26362 17.9997 10 17.9997V19.333ZM10 16.6663V15.333H30V16.6663H10ZM22.6667 26.6663H17.3333C16.9651 26.6663 16.6667 26.9648 16.6667 27.333V35.333H12.6667V20.6663H27.3333V35.333H23.3333V27.333C23.3333 26.9648 23.0349 26.6663 22.6667 26.6663ZM22 27.9997V35.333H18V27.9997H22ZM11.3333 19.333V17.9997H28.6667V19.333H11.3333ZM11.3333 38.6663V36.6663H28.6667V38.6663H11.3333ZM29.3333 35.333H28.6667V20.6663H38V35.333H29.3333ZM38.6667 37.9997H30V36.6663H38.6667V37.9997Z" fill="#2B5468"/>
<path d="M17.9987 22C17.6305 22 17.332 22.2985 17.332 22.6667V24C17.332 24.3682 17.6305 24.6667 17.9987 24.6667C18.3669 24.6667 18.6654 24.3682 18.6654 24V22.6667C18.6654 22.2985 18.3669 22 17.9987 22Z" fill="#2B5468"/>
<path d="M8.66667 25.3346C9.03486 25.3346 9.33333 25.0362 9.33333 24.668V23.3346C9.33333 22.9664 9.03486 22.668 8.66667 22.668C8.29848 22.668 8 22.9664 8 23.3346V24.668C8 25.0362 8.29848 25.3346 8.66667 25.3346Z" fill="#2B5468"/>
<path d="M4.66667 25.3346C5.03486 25.3346 5.33333 25.0362 5.33333 24.668V23.3346C5.33333 22.9664 5.03486 22.668 4.66667 22.668C4.29848 22.668 4 22.9664 4 23.3346V24.668C4 25.0362 4.29848 25.3346 4.66667 25.3346Z" fill="#2B5468"/>
<path d="M8 28.6641C8 29.0323 8.29848 29.3307 8.66667 29.3307C9.03486 29.3307 9.33333 29.0323 9.33333 28.6641V27.3307C9.33333 26.9625 9.03486 26.6641 8.66667 26.6641C8.29848 26.6641 8 26.9625 8 27.3307V28.6641Z" fill="#2B5468"/>
<path d="M4 28.6641C4 29.0323 4.29848 29.3307 4.66667 29.3307C5.03486 29.3307 5.33333 29.0323 5.33333 28.6641V27.3307C5.33333 26.9625 5.03486 26.6641 4.66667 26.6641C4.29848 26.6641 4 26.9625 4 27.3307V28.6641Z" fill="#2B5468"/>
<path d="M8 32.668C8 33.0362 8.29848 33.3346 8.66667 33.3346C9.03486 33.3346 9.33333 33.0362 9.33333 32.668V31.3346C9.33333 30.9664 9.03486 30.668 8.66667 30.668C8.29848 30.668 8 30.9664 8 31.3346V32.668Z" fill="#2B5468"/>
<path d="M4 32.668C4 33.0362 4.29848 33.3346 4.66667 33.3346C5.03486 33.3346 5.33333 33.0362 5.33333 32.668V31.3346C5.33333 30.9664 5.03486 30.668 4.66667 30.668C4.29848 30.668 4 30.9664 4 31.3346V32.668Z" fill="#2B5468"/>
<path d="M35.3346 22.668C34.9664 22.668 34.668 22.9664 34.668 23.3346V24.668C34.668 25.0362 34.9664 25.3346 35.3346 25.3346C35.7028 25.3346 36.0013 25.0362 36.0013 24.668V23.3346C36.0013 22.9664 35.7028 22.668 35.3346 22.668Z" fill="#2B5468"/>
<path d="M31.3346 22.668C30.9664 22.668 30.668 22.9664 30.668 23.3346V24.668C30.668 25.0362 30.9664 25.3346 31.3346 25.3346C31.7028 25.3346 32.0013 25.0362 32.0013 24.668V23.3346C32.0013 22.9664 31.7028 22.668 31.3346 22.668Z" fill="#2B5468"/>
<path d="M35.3346 26.6641C34.9664 26.6641 34.668 26.9625 34.668 27.3307V28.6641C34.668 29.0323 34.9664 29.3307 35.3346 29.3307C35.7028 29.3307 36.0013 29.0323 36.0013 28.6641V27.3307C36.0013 26.9625 35.7028 26.6641 35.3346 26.6641Z" fill="#2B5468"/>
<path d="M31.3346 26.6641C30.9664 26.6641 30.668 26.9625 30.668 27.3307V28.6641C30.668 29.0323 30.9664 29.3307 31.3346 29.3307C31.7028 29.3307 32.0013 29.0323 32.0013 28.6641V27.3307C32.0013 26.9625 31.7028 26.6641 31.3346 26.6641Z" fill="#2B5468"/>
<path d="M35.3346 30.668C34.9664 30.668 34.668 30.9664 34.668 31.3346V32.668C34.668 33.0362 34.9664 33.3346 35.3346 33.3346C35.7028 33.3346 36.0013 33.0362 36.0013 32.668V31.3346C36.0013 30.9664 35.7028 30.668 35.3346 30.668Z" fill="#2B5468"/>
<path d="M31.3346 30.668C30.9664 30.668 30.668 30.9664 30.668 31.3346V32.668C30.668 33.0362 30.9664 33.3346 31.3346 33.3346C31.7028 33.3346 32.0013 33.0362 32.0013 32.668V31.3346C32.0013 30.9664 31.7028 30.668 31.3346 30.668Z" fill="#2B5468"/>
<path d="M21.9987 22C21.6305 22 21.332 22.2985 21.332 22.6667V24C21.332 24.3682 21.6305 24.6667 21.9987 24.6667C22.3669 24.6667 22.6654 24.3682 22.6654 24V22.6667C22.6654 22.2985 22.3669 22 21.9987 22Z" fill="#2B5468"/>
</svg>
