<svg width="40" height="40" viewBox="0 0 40 40" fill="none" xmlns="http://www.w3.org/2000/svg">
<path d="M16.6427 37.9263L15.4561 38.993C15.2105 39.2128 14.8923 39.334 14.5627 39.333H5.55606C5.00265 39.3346 4.50577 38.9942 4.3074 38.4776C4.10904 37.961 4.25043 37.3755 4.66273 37.0063L10.1694 32.0463C10.4228 31.8231 10.8027 31.8231 11.0561 32.0463L11.5361 32.4663L16.1561 36.513L16.6361 36.933C16.7799 37.0575 16.8631 37.2379 16.8644 37.4282C16.8657 37.6184 16.7849 37.7999 16.6427 37.9263Z" fill="#EBF7EC"/>
<path d="M16.6325 36.933L16.1525 36.513L11.5325 32.4663L11.0525 32.0463C10.7991 31.8231 10.4193 31.8231 10.1659 32.0463L9.61719 32.5403L14.1505 36.513L14.6305 36.933C14.7744 37.0575 14.8576 37.2379 14.8589 37.4282C14.8601 37.6184 14.7794 37.7999 14.6372 37.9263L13.4505 38.993C13.205 39.2128 12.8868 39.334 12.5572 39.333H14.5572C14.8868 39.334 15.205 39.2128 15.4505 38.993L16.6372 37.9263C16.7796 37.8002 16.8608 37.6188 16.8599 37.4286C16.859 37.2384 16.7761 37.0578 16.6325 36.933Z" fill="#37A000"/>
<path d="M28.0011 22.9987V27.592C28.0011 28.7547 27.3204 28.808 25.0211 32.1187C23.9028 33.7182 22.0727 34.6693 20.1211 34.6654H18.8678C18.3422 34.6664 17.8376 34.872 17.4611 35.2387L16.1544 36.512L11.5344 32.4654L12.5544 31.4454C12.8071 31.1965 12.9494 30.8567 12.9494 30.502C12.9494 30.1474 12.8071 29.8076 12.5544 29.5587L10.5678 27.4054C9.59767 26.1991 9.735 24.4459 10.8811 23.4054C11.1473 23.2174 11.5114 23.2543 11.7344 23.492L16.4144 28.412C16.9021 28.9067 17.5443 29.2196 18.2344 29.2987C18.5011 29.3454 18.2904 29.332 21.3011 29.332C22.1193 29.315 22.8987 28.9803 23.4744 28.3987L24.6678 27.1454V22.9987C24.6678 22.0782 25.4139 21.332 26.3344 21.332C27.2549 21.332 28.0011 22.0782 28.0011 22.9987Z" fill="#EBF7EC"/>
<path d="M26.3349 21.332C25.9735 21.3326 25.6222 21.4515 25.3349 21.6707C25.7544 21.9832 26.0016 22.4756 26.0016 22.9987V27.592C26.0016 28.754 25.3209 28.808 23.0216 32.1187C21.9033 33.7182 20.0732 34.6693 18.1216 34.6654H16.8682C16.3426 34.6664 15.8381 34.872 15.4616 35.2387L15.1016 35.5894L16.1549 36.512L17.4616 35.2387C17.8381 34.872 18.3426 34.6664 18.8682 34.6654H20.1216C22.0732 34.6693 23.9033 33.7182 25.0216 32.1187C27.3209 28.808 28.0016 28.754 28.0016 27.592V22.9987C28.0028 22.5563 27.8276 22.1316 27.5148 21.8188C27.202 21.506 26.7773 21.3308 26.3349 21.332Z" fill="#EBF7EC"/>
<path d="M32.0282 23.9979L27.7148 28.6046C27.902 28.2997 28.0012 27.949 28.0015 27.5913V23.6313L30.1148 21.4113C30.5974 20.8761 31.4206 20.8286 31.9615 21.3046L31.9748 21.3179C32.7196 22.0476 32.7433 23.2392 32.0282 23.9979Z" fill="#EBF7EC"/>
<path d="M31.9748 21.3179L31.9615 21.3046C31.4206 20.8286 30.5974 20.8761 30.1148 21.4113L30.0822 21.4453C30.7194 22.1848 30.6961 23.286 30.0282 23.9979L28.0015 26.1626V27.5913C28.0012 27.949 27.902 28.2997 27.7148 28.6046L32.0282 23.9979C32.7433 23.2392 32.7196 22.0476 31.9748 21.3179Z" fill="#EBF7EC"/>
<path d="M31.3359 8.37891V13.2869C31.3359 15.4556 26.8586 17.9989 21.3359 17.9989C15.8133 17.9989 11.3359 15.4556 11.3359 13.2869V8.37891H31.3359Z" fill="#37A000"/>
<path d="M29.3359 8.37891V13.2869C29.3359 15.3229 25.3893 17.6869 20.3359 17.9702C20.6646 17.9889 20.9986 17.9989 21.3359 17.9989C26.8586 17.9989 31.3359 15.4556 31.3359 13.2869V8.37891H29.3359Z" fill="#008329"/>
<path d="M7.33594 13.4883C8.44051 13.4883 9.33594 14.3837 9.33594 15.4883V18.0016C9.33594 18.3698 9.03746 18.6683 8.66927 18.6683H6.0026C5.63441 18.6683 5.33594 18.3698 5.33594 18.0016V15.4883C5.33594 14.3837 6.23137 13.4883 7.33594 13.4883Z" fill="#EBF7EC"/>
<path d="M7.33594 13.4883C6.98387 13.4901 6.63866 13.5858 6.33594 13.7656C6.95315 14.1199 7.33437 14.7766 7.33594 15.4883V18.0016C7.33594 18.3698 7.03746 18.6683 6.66927 18.6683H8.66927C9.03746 18.6683 9.33594 18.3698 9.33594 18.0016V15.4883C9.33594 14.9578 9.12522 14.4491 8.75015 14.0741C8.37508 13.699 7.86637 13.4883 7.33594 13.4883Z" fill="#EBF7EC"/>
<path d="M21.3359 12.668L7.33594 6.66797L21.3359 0.667969L35.3359 6.66797L21.3359 12.668Z" fill="#EBF7EC"/>
<path d="M21.3359 0.667969L20.3359 1.09664L33.3359 6.66797L20.3359 12.2393L21.3359 12.668L35.3359 6.66797L21.3359 0.667969Z" fill="#EBF7EC"/>
<path d="M6.0026 18.6644H8.0026C7.63441 18.6644 7.33594 18.366 7.33594 17.9978V15.4844C7.3375 14.7728 7.71873 14.1161 8.33594 13.7618C7.93233 13.5222 7.4559 13.436 6.99394 13.5191C6.76247 13.5649 6.53971 13.647 6.33394 13.7624C5.71771 14.1171 5.33733 14.7734 5.33594 15.4844V17.9978C5.33594 18.366 5.63441 18.6644 6.0026 18.6644Z" fill="white"/>
<path d="M11.5361 32.4663L11.0561 32.0463C10.8027 31.8231 10.4228 31.8231 10.1694 32.0463L9.62073 32.5403L4.66273 37.0063C4.25043 37.3755 4.10904 37.961 4.3074 38.4776C4.50577 38.9942 5.00265 39.3346 5.55606 39.333H7.55606C7.00265 39.3346 6.50577 38.9942 6.3074 38.4776C6.10904 37.961 6.25043 37.3755 6.66273 37.0063L11.6207 32.5397L12.1694 32.0457" fill="white"/>
<path d="M4.20312 36.5117L8.16579 32.9437L9.05779 33.9344L5.09513 37.5024L4.20312 36.5117Z" fill="white"/>
<path d="M6.65405 35.888C6.28586 35.8897 5.98604 35.5925 5.98438 35.2244C5.98273 34.8562 6.27986 34.5563 6.64805 34.5547H6.65405C7.02224 34.5547 7.32072 34.8532 7.32072 35.2214C7.32072 35.5895 7.02224 35.888 6.65405 35.888Z" fill="#2B5468"/>
<path d="M13.3358 37.9986C13.6054 37.9985 13.8484 37.8361 13.9516 37.587C14.0548 37.3379 13.9977 37.0512 13.8071 36.8606L12.6298 35.6832C12.3682 35.4306 11.9524 35.4342 11.6953 35.6914C11.4381 35.9485 11.4345 36.3643 11.6871 36.6259L12.8645 37.8032C12.9895 37.9283 13.159 37.9985 13.3358 37.9986Z" fill="#2B5468"/>
<path d="M18.8685 35.3334H20.1218C22.292 35.3372 24.3267 34.279 25.5698 32.5001C26.3298 31.4025 27.1467 30.3455 28.0172 29.3334C28.0995 29.2357 28.1746 29.1321 28.2418 29.0234L32.5158 24.4588C33.4752 23.4242 33.4343 21.8134 32.4238 20.8288C32.0626 20.4832 31.5775 20.2975 31.0778 20.3134C30.5297 20.3279 30.0096 20.5593 29.6318 20.9568L28.5032 22.1401C28.3869 21.8439 28.2113 21.5746 27.9872 21.3488C27.0566 20.4821 25.6144 20.4821 24.6838 21.3488C24.2451 21.7861 23.9995 22.3807 24.0018 23.0001V26.8801L22.9972 27.9334C22.6035 28.3324 22.0839 28.5828 21.5265 28.6421C21.4525 28.657 21.3773 28.6652 21.3018 28.6668H18.5752C18.4872 28.6646 18.3996 28.655 18.3132 28.6381C17.7774 28.5782 17.2782 28.3369 16.8985 27.9541L12.2192 23.0354C11.7615 22.5725 11.0396 22.4995 10.4985 22.8614C10.4781 22.8757 10.4585 22.891 10.4398 22.9074C9.72387 23.5606 9.29816 24.4725 9.25718 25.4408C9.19314 26.3249 9.4891 27.1974 10.0778 27.8601L12.0865 30.0354C12.2134 30.1577 12.2855 30.326 12.2865 30.5021C12.2867 30.6814 12.2146 30.8533 12.0865 30.9788L11.5078 31.5574L11.5025 31.5534C10.9986 31.1074 10.2421 31.1043 9.73451 31.5461C9.73118 31.5494 9.72985 31.5534 9.72651 31.5568L8.18251 32.9474C7.90902 33.1938 7.88693 33.6152 8.13318 33.8888C8.38027 34.157 8.79699 34.1769 9.06851 33.9334L10.5918 32.5608C10.5985 32.5554 10.6065 32.5548 10.6132 32.5488L11.0918 32.9681L15.7118 37.0141C15.7165 37.0181 15.7212 37.0188 15.7258 37.0228L16.1925 37.4301L15.0078 38.4968C14.8855 38.6069 14.7265 38.6675 14.5618 38.6668H5.55518C5.27731 38.6686 5.02748 38.4978 4.92821 38.2383C4.82893 37.9788 4.90105 37.6849 5.10918 37.5008C5.38219 37.2537 5.40323 36.8321 5.15618 36.5591C4.90912 36.2861 4.48752 36.2651 4.21451 36.5121C3.59753 37.0662 3.38649 37.9436 3.68402 38.7177C3.98154 39.4917 4.7259 40.0019 5.55518 40.0001H14.5618C15.0559 40.0005 15.5328 39.8187 15.9012 39.4894L17.0845 38.4228C17.3603 38.1802 17.5222 37.8335 17.531 37.4663C17.5399 37.0992 17.3949 36.745 17.1312 36.4894L17.9245 35.7161C18.1774 35.4706 18.516 35.3333 18.8685 35.3334ZM30.6018 21.8728C30.7347 21.7321 30.9178 21.6497 31.1112 21.6434C31.2593 21.6423 31.4024 21.6976 31.5112 21.7981C31.9929 22.2752 32.0071 23.0491 31.5432 23.5434L28.6685 26.6134V23.9001L30.6018 21.8728ZM11.0598 26.9568C10.7144 26.5574 10.5445 26.0357 10.5885 25.5094C10.6143 24.9286 10.8542 24.378 11.2618 23.9634L15.9352 28.8781C16.5189 29.4754 17.2888 29.8559 18.1178 29.9568C18.2687 29.9846 18.4218 29.9991 18.5752 30.0001H21.3018C21.442 29.9998 21.5819 29.9871 21.7198 29.9621C22.5701 29.8616 23.3603 29.4726 23.9585 28.8601L25.1518 27.6061C25.2696 27.4822 25.3352 27.3177 25.3352 27.1468V23.0001C25.3353 22.7346 25.4402 22.4799 25.6272 22.2914C26.0268 21.9211 26.6442 21.9211 27.0438 22.2914C27.2304 22.4802 27.3351 22.7348 27.3352 23.0001V27.5934C27.3351 27.8288 27.2698 28.0596 27.1465 28.2601C27.1346 28.2772 27.1237 28.2951 27.1138 28.3134C27.0826 28.3676 27.0457 28.4183 27.0038 28.4648C26.1042 29.5117 25.2599 30.605 24.4745 31.7401C23.4806 33.16 21.855 34.004 20.1218 34.0001H18.8685C18.1688 34.0008 17.497 34.2745 16.9958 34.7628L16.1292 35.6061L12.5085 32.4348L13.0245 31.9181C13.4041 31.542 13.6169 31.0292 13.6152 30.4948C13.6164 29.9749 13.4106 29.4759 13.0432 29.1081L11.0598 26.9568Z" fill="#2B5468"/>
<path d="M4.66797 15.4866V17.9999C4.66797 18.7363 5.26492 19.3333 6.0013 19.3333H8.66797C9.40435 19.3333 10.0013 18.7363 10.0013 17.9999V15.4866C9.99676 14.2743 9.17509 13.2177 8.0013 12.9146V7.67726L10.668 8.81993V13.2866C10.668 16.1033 15.752 18.6666 21.3346 18.6666C26.9173 18.6666 32.0013 16.1033 32.0013 13.2866V8.81993L35.5973 7.27926C35.8423 7.17415 36.0011 6.93319 36.0011 6.66659C36.0011 6.4 35.8423 6.15903 35.5973 6.05393L21.5973 0.0539264C21.4296 -0.0179755 21.2397 -0.0179755 21.072 0.0539264L7.0773 6.05393H7.0733C6.8337 6.16564 6.67707 6.40238 6.66797 6.66659V12.9146C5.49418 13.2177 4.67251 14.2743 4.66797 15.4866ZM30.668 13.2866C30.668 14.8793 26.66 17.3333 21.3346 17.3333C16.0093 17.3333 12.0013 14.8793 12.0013 13.2866V9.39193L21.072 13.2793C21.2397 13.3512 21.4296 13.3512 21.5973 13.2793L30.668 9.39193V13.2866ZM21.3346 1.39193L33.642 6.66659L31.08 7.76459L31.07 7.76859L21.3346 11.9413L11.6013 7.76859L11.5913 7.76459L10.5826 7.33326H21.3346C21.7028 7.33326 22.0013 7.03478 22.0013 6.66659C22.0013 6.2984 21.7028 5.99993 21.3346 5.99993H10.5826L21.3346 1.39193ZM6.0013 15.4866C6.0013 14.7502 6.59826 14.1533 7.33464 14.1533C8.07102 14.1533 8.66797 14.7502 8.66797 15.4866V17.9999H6.0013V15.4866Z" fill="#2B5468"/>
<path d="M0.537496 8.87952L1.8455 9.13952C1.88941 9.14816 1.93407 9.15241 1.97883 9.15218C2.32185 9.15218 2.60888 8.89188 2.64232 8.55049C2.67575 8.2091 2.44467 7.89807 2.10816 7.83152L0.800829 7.57152C0.439635 7.49972 0.0886263 7.73432 0.0168293 8.09552C-0.0549677 8.45671 0.179635 8.80772 0.540829 8.87952H0.537496Z" fill="#2B5468"/>
<path d="M37.8975 16.1647L39.2055 16.4247C39.2495 16.433 39.2941 16.4372 39.3389 16.4373C39.6819 16.4373 39.9689 16.177 40.0024 15.8356C40.0358 15.4943 39.8047 15.1832 39.4682 15.1167L38.1602 14.8567C37.799 14.7849 37.448 15.0195 37.3762 15.3807C37.3044 15.7419 37.539 16.0929 37.9002 16.1647H37.8975Z" fill="#2B5468"/>
<path d="M0.667963 16.4373C0.712701 16.4372 0.757331 16.433 0.801296 16.4247L2.1093 16.1647C2.47049 16.0929 2.70509 15.7419 2.6333 15.3807C2.5615 15.0195 2.21049 14.7849 1.8493 14.8567L0.541296 15.1167C0.205279 15.1831 -0.0257149 15.4934 0.00698674 15.8343C0.0396883 16.1753 0.325444 16.436 0.667963 16.4373Z" fill="#2B5468"/>
<path d="M38.0234 9.15207C38.0682 9.15229 38.1128 9.14805 38.1567 9.1394L39.4647 8.8794C39.6984 8.83296 39.8895 8.66539 39.9661 8.43982C40.0427 8.21425 39.9932 7.96495 39.8361 7.78582C39.6791 7.6067 39.4384 7.52496 39.2047 7.5714L37.8967 7.8314C37.5602 7.89795 37.3292 8.20899 37.3626 8.55038C37.396 8.89177 37.6831 9.15207 38.0261 9.15207H38.0234Z" fill="#2B5468"/>
<path d="M3.55783 23.4077C3.68952 23.4078 3.81826 23.3688 3.92783 23.2957L5.0365 22.5551C5.34044 22.3497 5.42137 21.9374 5.2176 21.6323C5.01382 21.3273 4.60191 21.2442 4.29583 21.4464L3.1865 22.1871C2.94248 22.3504 2.83408 22.6542 2.91954 22.9351C3.00499 23.216 3.26419 23.4079 3.55783 23.4077Z" fill="#2B5468"/>
<path d="M35.3401 2.66442C35.4718 2.66426 35.6006 2.62505 35.7101 2.55176L36.8187 1.81109C37.1249 1.60638 37.2071 1.19224 37.0024 0.88609C36.7977 0.57994 36.3836 0.49771 36.0774 0.702423L34.9687 1.44309C34.7241 1.60622 34.6152 1.91036 34.7008 2.19169C34.7863 2.47301 35.046 2.66508 35.3401 2.66442Z" fill="#2B5468"/>
<path d="M4.29223 2.55169C4.49027 2.6855 4.74479 2.70306 4.95933 2.5977C5.17387 2.49235 5.31559 2.28021 5.33079 2.04169C5.34599 1.80316 5.23233 1.57475 5.0329 1.44302L3.92423 0.702355C3.72619 0.569928 3.47254 0.553217 3.25883 0.658515C3.04513 0.763813 2.90383 0.975124 2.88817 1.21285C2.8725 1.45057 2.98486 1.6786 3.1829 1.81102L4.29223 2.55169Z" fill="#2B5468"/>
<path d="M35.7094 21.4445C35.5113 21.3121 35.2577 21.2954 35.044 21.4007C34.8303 21.506 34.689 21.7173 34.6733 21.955C34.6577 22.1928 34.77 22.4208 34.9681 22.5532L36.0767 23.2939C36.2748 23.4263 36.5284 23.443 36.7421 23.3377C36.9558 23.2324 37.0971 23.0211 37.1128 22.7834C37.1285 22.5457 37.0161 22.3176 36.8181 22.1852L35.7094 21.4445Z" fill="#2B5468"/>
</svg>
