<svg width="56" height="56" viewBox="0 0 56 56" fill="none" xmlns="http://www.w3.org/2000/svg">
<path d="M34.5625 24.6015C33.9942 24.016 33.3141 23.5504 32.5626 23.2324C31.8112 22.9144 31.0035 22.7503 30.1875 22.75H18.8125C18.1163 22.75 17.4486 23.0266 16.9563 23.5188C16.4641 24.0111 16.1875 24.6788 16.1875 25.375V48.125C16.1875 48.8212 16.4641 49.4889 16.9563 49.9812C17.4486 50.4734 18.1163 50.75 18.8125 50.75H30.1875C31.3474 50.7514 32.4594 51.2128 33.2796 52.0329C34.0997 52.8531 34.5611 53.9651 34.5625 55.125V24.6015ZM30.1875 45.5H22.3125C22.0804 45.5 21.8579 45.4078 21.6938 45.2437C21.5297 45.0796 21.4375 44.8571 21.4375 44.625C21.4375 44.3929 21.5297 44.1704 21.6938 44.0063C21.8579 43.8422 22.0804 43.75 22.3125 43.75H30.1875C30.4196 43.75 30.6421 43.8422 30.8062 44.0063C30.9703 44.1704 31.0625 44.3929 31.0625 44.625C31.0625 44.8571 30.9703 45.0796 30.8062 45.2437C30.6421 45.4078 30.4196 45.5 30.1875 45.5ZM30.1875 40.25H22.3125C22.0804 40.25 21.8579 40.1578 21.6938 39.9937C21.5297 39.8296 21.4375 39.6071 21.4375 39.375C21.4375 39.1429 21.5297 38.9204 21.6938 38.7563C21.8579 38.5922 22.0804 38.5 22.3125 38.5H30.1875C30.4196 38.5 30.6421 38.5922 30.8062 38.7563C30.9703 38.9204 31.0625 39.1429 31.0625 39.375C31.0625 39.6071 30.9703 39.8296 30.8062 39.9937C30.6421 40.1578 30.4196 40.25 30.1875 40.25ZM30.1875 35H22.3125C22.0804 35 21.8579 34.9078 21.6938 34.7437C21.5297 34.5796 21.4375 34.3571 21.4375 34.125C21.4375 33.8929 21.5297 33.6704 21.6938 33.5063C21.8579 33.3422 22.0804 33.25 22.3125 33.25H30.1875C30.4196 33.25 30.6421 33.3422 30.8062 33.5063C30.9703 33.6704 31.0625 33.8929 31.0625 34.125C31.0625 34.3571 30.9703 34.5796 30.8062 34.7437C30.6421 34.9078 30.4196 35 30.1875 35ZM30.1875 29.75H22.3125C22.0804 29.75 21.8579 29.6578 21.6938 29.4937C21.5297 29.3296 21.4375 29.1071 21.4375 28.875C21.4375 28.6429 21.5297 28.4204 21.6938 28.2563C21.8579 28.0922 22.0804 28 22.3125 28H30.1875C30.4196 28 30.6421 28.0922 30.8062 28.2563C30.9703 28.4204 31.0625 28.6429 31.0625 28.875C31.0625 29.1071 30.9703 29.3296 30.8062 29.4937C30.6421 29.6578 30.4196 29.75 30.1875 29.75ZM52.0625 22.75H40.6875C39.8715 22.7503 39.0638 22.9144 38.3124 23.2324C37.5609 23.5504 36.8808 24.016 36.3125 24.6015V55.125C36.3139 53.9651 36.7753 52.8531 37.5954 52.0329C38.4156 51.2128 39.5276 50.7514 40.6875 50.75H52.0625C52.7587 50.75 53.4264 50.4734 53.9187 49.9812C54.4109 49.4889 54.6875 48.8212 54.6875 48.125V25.375C54.6875 24.6788 54.4109 24.0111 53.9187 23.5188C53.4264 23.0266 52.7587 22.75 52.0625 22.75ZM48.5625 45.5H40.6875C40.4554 45.5 40.2329 45.4078 40.0688 45.2437C39.9047 45.0796 39.8125 44.8571 39.8125 44.625C39.8125 44.3929 39.9047 44.1704 40.0688 44.0063C40.2329 43.8422 40.4554 43.75 40.6875 43.75H48.5625C48.7946 43.75 49.0171 43.8422 49.1812 44.0063C49.3453 44.1704 49.4375 44.3929 49.4375 44.625C49.4375 44.8571 49.3453 45.0796 49.1812 45.2437C49.0171 45.4078 48.7946 45.5 48.5625 45.5ZM48.5625 40.25H40.6875C40.4554 40.25 40.2329 40.1578 40.0688 39.9937C39.9047 39.8296 39.8125 39.6071 39.8125 39.375C39.8125 39.1429 39.9047 38.9204 40.0688 38.7563C40.2329 38.5922 40.4554 38.5 40.6875 38.5H48.5625C48.7946 38.5 49.0171 38.5922 49.1812 38.7563C49.3453 38.9204 49.4375 39.1429 49.4375 39.375C49.4375 39.6071 49.3453 39.8296 49.1812 39.9937C49.0171 40.1578 48.7946 40.25 48.5625 40.25ZM48.5625 35H40.6875C40.4554 35 40.2329 34.9078 40.0688 34.7437C39.9047 34.5796 39.8125 34.3571 39.8125 34.125C39.8125 33.8929 39.9047 33.6704 40.0688 33.5063C40.2329 33.3422 40.4554 33.25 40.6875 33.25H48.5625C48.7946 33.25 49.0171 33.3422 49.1812 33.5063C49.3453 33.6704 49.4375 33.8929 49.4375 34.125C49.4375 34.3571 49.3453 34.5796 49.1812 34.7437C49.0171 34.9078 48.7946 35 48.5625 35ZM48.5625 29.75H40.6875C40.4554 29.75 40.2329 29.6578 40.0688 29.4937C39.9047 29.3296 39.8125 29.1071 39.8125 28.875C39.8125 28.6429 39.9047 28.4204 40.0688 28.2563C40.2329 28.0922 40.4554 28 40.6875 28H48.5625C48.7946 28 49.0171 28.0922 49.1812 28.2563C49.3453 28.4204 49.4375 28.6429 49.4375 28.875C49.4375 29.1071 49.3453 29.3296 49.1812 29.4937C49.0171 29.6578 48.7946 29.75 48.5625 29.75Z" fill="#6FDA44"/>
<path d="M23.1875 0.875C17.3879 0.881485 11.8277 3.18825 7.7267 7.2892C3.62575 11.3902 1.31898 16.9504 1.3125 22.75V42.875C1.3125 43.5712 1.58906 44.2389 2.08134 44.7312C2.57363 45.2234 3.24131 45.5 3.9375 45.5H10.9375C11.6337 45.5 12.3014 45.2234 12.7937 44.7312C13.2859 44.2389 13.5625 43.5712 13.5625 42.875V30.625C13.5625 29.9288 13.2859 29.2611 12.7937 28.7688C12.3014 28.2766 11.6337 28 10.9375 28H8.3125V22.75C8.3125 18.8049 9.87968 15.0214 12.6693 12.2318C15.4589 9.44218 19.2424 7.875 23.1875 7.875C27.1326 7.875 30.9161 9.44218 33.7057 12.2318C36.4953 15.0214 38.0625 18.8049 38.0625 22.75V28H35.4375C34.7413 28 34.0736 28.2766 33.5813 28.7688C33.0891 29.2611 32.8125 29.9288 32.8125 30.625V42.875C32.8125 43.5712 33.0891 44.2389 33.5813 44.7312C34.0736 45.2234 34.7413 45.5 35.4375 45.5H42.4375C43.1337 45.5 43.8014 45.2234 44.2937 44.7312C44.7859 44.2389 45.0625 43.5712 45.0625 42.875V22.75C45.056 16.9504 42.7493 11.3902 38.6483 7.2892C34.5473 3.18825 28.9871 0.881485 23.1875 0.875ZM3.0625 42.875V29.75H6.5625V43.75H3.9375C3.70544 43.75 3.48288 43.6578 3.31878 43.4937C3.15469 43.3296 3.0625 43.1071 3.0625 42.875ZM10.9375 29.75C11.1696 29.75 11.3921 29.8422 11.5562 30.0063C11.7203 30.1704 11.8125 30.3929 11.8125 30.625V42.875C11.8125 43.1071 11.7203 43.3296 11.5562 43.4937C11.3921 43.6578 11.1696 43.75 10.9375 43.75H8.3125V29.75H10.9375ZM34.5625 42.875V30.625C34.5625 30.3929 34.6547 30.1704 34.8188 30.0063C34.9829 29.8422 35.2054 29.75 35.4375 29.75H38.0625V43.75H35.4375C35.2054 43.75 34.9829 43.6578 34.8188 43.4937C34.6547 43.3296 34.5625 43.1071 34.5625 42.875ZM43.3125 42.875C43.3125 43.1071 43.2203 43.3296 43.0562 43.4937C42.8921 43.6578 42.6696 43.75 42.4375 43.75H39.8125V29.75H43.3125V42.875ZM43.3125 28H39.8125V22.75C39.8125 18.3408 38.0609 14.1121 34.9431 10.9943C31.8254 7.87656 27.5967 6.125 23.1875 6.125C18.7783 6.125 14.5496 7.87656 11.4318 10.9943C8.31406 14.1121 6.5625 18.3408 6.5625 22.75V28H3.0625V22.75C3.0625 17.4125 5.18281 12.2936 8.95698 8.51948C12.7311 4.74531 17.85 2.625 23.1875 2.625C28.525 2.625 33.6439 4.74531 37.418 8.51948C41.1922 12.2936 43.3125 17.4125 43.3125 22.75V28Z" fill="#1D4354"/>
</svg>