<svg width="40" height="40" viewBox="0 0 40 40" fill="none" xmlns="http://www.w3.org/2000/svg">
<path d="M5.34323 18.3963C5.34323 18.9363 5.3099 19.463 5.29657 19.9763C4.04801 19.3425 3.13068 18.2044 2.77657 16.8497C2.77657 16.8497 2.32323 13.7497 3.23657 13.4097C3.34973 13.3667 3.46899 13.342 3.5899 13.3363C4.00338 13.3282 4.40979 13.4443 4.75657 13.6697C4.94323 15.9897 5.34323 16.823 5.34323 18.3963Z" fill="#E7FFDD"/>
<path d="M23.887 16.8539C23.5329 18.2086 22.6155 19.3468 21.367 19.9806C21.3536 19.4673 21.3203 18.9406 21.3203 18.4006C21.3203 16.8273 21.7203 15.9939 21.907 13.6806V13.6739C22.1706 13.5134 22.4625 13.4048 22.767 13.3539C22.9885 13.3167 23.2158 13.3374 23.427 13.4139C24.3403 13.7539 23.887 16.8539 23.887 16.8539Z" fill="#E7FFDD"/>
<path d="M22.7687 13.3546C22.4643 13.4055 22.1723 13.5141 21.9087 13.6746C21.9087 13.6746 22.6687 7.33463 18.002 7.33463C16.8361 7.28325 15.676 7.52628 14.6287 8.0413C13.8226 8.48132 12.8481 8.48132 12.042 8.0413C10.9948 7.52628 9.83465 7.28325 8.66871 7.33463C4.00205 7.33463 4.76205 13.6746 4.76205 13.6746C4.41527 13.4493 4.00886 13.3332 3.59538 13.3413C0.888713 6.72797 4.46871 0.667969 9.95538 0.667969C15.322 0.667969 17.3354 2.66797 17.3354 2.66797C17.3354 2.66797 22.002 2.0013 23.3354 6.0013C24.0954 8.28797 23.302 11.0413 22.7687 13.3546Z" fill="#6FDA44"/>
<path d="M23.3329 6.0013C21.9995 2.0013 17.3329 2.66797 17.3329 2.66797C17.3329 2.66797 15.3195 0.667969 9.95287 0.667969C9.71953 0.667969 9.49553 0.693969 9.26953 0.715302C13.6455 1.0053 15.3329 2.66797 15.3329 2.66797C15.3329 2.66797 19.9995 2.0013 21.3329 6.0013C21.6886 7.25636 21.7471 8.57706 21.5035 9.85863C21.8951 11.0902 22.0312 12.3887 21.9035 13.6746C22.1672 13.5141 22.4591 13.4055 22.7635 13.3546C23.2995 11.0413 24.0929 8.28797 23.3329 6.0013Z" fill="#37A000"/>
<path d="M21.9074 13.6749V13.6815C21.7207 15.9949 21.3207 16.8282 21.3207 18.4015C21.3207 18.9415 21.3541 19.4682 21.3674 19.9815C21.4407 21.7349 21.3807 23.3749 19.4807 25.2215C19.4274 25.2749 19.3807 25.3215 19.3341 25.3749C17.0207 27.7149 16.9674 30.0015 14.5607 30.0015H12.1074C9.70072 30.0015 9.64739 27.7149 7.33405 25.3749C7.28739 25.3215 7.24072 25.2749 7.18739 25.2215C5.28739 23.3749 5.22739 21.7349 5.30072 19.9815C5.31405 19.4682 5.34739 18.9415 5.34739 18.4015C5.34739 16.8282 4.94739 15.9949 4.76072 13.6749C4.76072 13.6749 4.00072 7.33487 8.66739 7.33487C9.83333 7.28348 10.9934 7.52651 12.0407 8.04153C12.8468 8.48155 13.8213 8.48155 14.6274 8.04153C15.6747 7.52651 16.8348 7.28348 18.0007 7.33487C22.6674 7.33487 21.9074 13.6749 21.9074 13.6749Z" fill="#EBF7EC"/>
<path d="M10.0405 8.04153C10.7469 8.42564 11.5878 8.47453 12.3339 8.17487C12.2335 8.13629 12.1356 8.09177 12.0405 8.04153C10.9932 7.52651 9.83313 7.28348 8.66719 7.33487C8.39896 7.33405 8.1312 7.35748 7.86719 7.40487C8.62566 7.47625 9.36342 7.69238 10.0405 8.04153Z" fill="#E7FFDD"/>
<path d="M18.0025 7.33596C17.6015 7.33516 17.2007 7.35854 16.8025 7.40596C20.5812 8.08996 19.9125 13.676 19.9125 13.676V13.6826C19.7258 15.996 19.3258 16.8293 19.3258 18.4026C19.3258 18.9426 19.3592 19.4693 19.3725 19.9826C19.4458 21.736 19.3858 23.376 17.4858 25.2226C17.4325 25.276 17.3858 25.3226 17.3392 25.376C15.0225 27.716 14.9692 30.0026 12.5625 30.0026H14.5625C16.9692 30.0026 17.0225 27.716 19.3358 25.376C19.3825 25.3226 19.4292 25.276 19.4825 25.2226C21.3825 23.376 21.4425 21.736 21.3692 19.9826C21.3558 19.4693 21.3225 18.9426 21.3225 18.4026C21.3225 16.8293 21.7225 15.996 21.9092 13.6826V13.676C21.9092 13.676 22.6692 7.33596 18.0025 7.33596Z" fill="#E7FFDD"/>
<path d="M39.3333 22.0013V38.0013C39.3311 38.7368 38.7355 39.3324 38 39.3346H28V20.668H38C38.7355 20.6702 39.3311 21.2658 39.3333 22.0013Z" fill="#E7FFDD"/>
<path d="M38 20.668H36C36.7355 20.6702 37.3311 21.2658 37.3333 22.0013V38.0013C37.3311 38.7368 36.7355 39.3324 36 39.3346H38C38.7355 39.3324 39.3311 38.7368 39.3333 38.0013V22.0013C39.3311 21.2658 38.7355 20.6702 38 20.668Z" fill="#6FDA44"/>
<path d="M27.9974 20.668V39.3346H25.9974C25.2619 39.3324 24.6663 38.7368 24.6641 38.0013V22.0013C24.6663 21.2658 25.2619 20.6702 25.9974 20.668H27.9974Z" fill="#EBF7EC"/>
<path d="M36.0013 24H31.3346C30.9664 24 30.668 24.2985 30.668 24.6667V26.6667C30.668 27.0349 30.9664 27.3333 31.3346 27.3333H36.0013C36.3695 27.3333 36.668 27.0349 36.668 26.6667V24.6667C36.668 24.2985 36.3695 24 36.0013 24Z" fill="white"/>
<path d="M36 24H34C34.3682 24 34.6667 24.2985 34.6667 24.6667V26.6667C34.6667 27.0349 34.3682 27.3333 34 27.3333H36C36.3682 27.3333 36.6667 27.0349 36.6667 26.6667V24.6667C36.6667 24.2985 36.3682 24 36 24Z" fill="#EBF7EC"/>
<path d="M13.3318 34.0011L11.3318 36.6678C11.3318 36.6678 5.33851 36.6678 7.33185 30.0078C8.60679 32.1951 10.822 33.6694 13.3318 34.0011Z" fill="white"/>
<path d="M15.332 36.6667L13.332 34C15.8432 33.6669 18.0587 32.1899 19.332 30C21.332 36.6667 15.332 36.6667 15.332 36.6667Z" fill="white"/>
<path d="M26.0013 39.3333H2.0013C1.26584 39.3311 0.670166 38.7355 0.66797 38V32.1467C0.667103 31.4869 1.14896 30.9256 1.8013 30.8267L7.33464 30V30.0067C5.3413 36.6667 11.3346 36.6667 11.3346 36.6667L13.3346 34L15.3346 36.6667C15.3346 36.6667 21.3346 36.6667 19.3346 30L24.668 30.8V38C24.6702 38.7355 25.2658 39.3311 26.0013 39.3333Z" fill="#EBF7EC"/>
<path d="M24.6654 38V30.8L19.332 30C19.364 30.1073 19.3887 30.2087 19.4167 30.3127L22.6654 30.8V38C22.6676 38.7355 23.2632 39.3311 23.9987 39.3333H25.9987C25.2632 39.3311 24.6676 38.7355 24.6654 38Z" fill="#E7FFDD"/>
<path d="M19.3359 25.375V30.0017C18.0626 32.1916 15.8471 33.6686 13.3359 34.0017C10.8261 33.6699 8.61088 32.1956 7.33594 30.0083V25.375C9.64927 27.715 9.7026 30.0017 12.1093 30.0017H14.5626C16.9693 30.0017 17.0226 27.715 19.3359 25.375Z" fill="#E7FFDD"/>
<path d="M2.0013 39.3346H4.0013C3.26584 39.3324 2.67017 38.7368 2.66797 38.0013V32.148C2.6671 31.4882 3.14896 30.9269 3.8013 30.828L9.33464 30.0013V25.3746C9.28797 25.3213 9.2413 25.2746 9.18797 25.2213C7.28797 23.3746 7.22797 21.7346 7.3013 19.9813C6.05275 19.3475 5.13542 18.2093 4.7813 16.8546C4.7813 16.8546 4.32797 13.7546 5.2413 13.4146C5.35447 13.3717 5.47373 13.3469 5.59464 13.3413C3.0013 7.00864 6.18064 1.2013 11.2713 0.715302C10.854 0.687969 10.4213 0.667969 9.95464 0.667969C9.7213 0.667969 9.4973 0.693969 9.2713 0.715302C4.18064 1.2013 1.0013 7.00864 3.59464 13.3413C3.47372 13.3469 3.35447 13.3717 3.2413 13.4146C2.32797 13.7546 2.7813 16.8546 2.7813 16.8546C3.13542 18.2093 4.05275 19.3475 5.3013 19.9813C5.22797 21.7346 5.28797 23.3746 7.18797 25.2213C7.2413 25.2746 7.28797 25.3213 7.33464 25.3746V30.0013L1.8013 30.828C1.14896 30.9269 0.667103 31.4882 0.66797 32.148V38.0013C0.670166 38.7368 1.26584 39.3324 2.0013 39.3346Z" fill="white"/>
<path d="M2.04742 8.08203L3.38076 8.17736C3.27617 9.8568 3.56209 11.5376 4.21609 13.088L2.98276 13.5934C2.24932 11.8532 1.92917 9.96674 2.04742 8.08203Z" fill="white"/>
<path d="M5.33246 3.362C5.92945 2.73332 6.63963 2.22284 7.42579 1.85733C8.22814 1.5272 9.085 1.3495 9.95246 1.33333V0C8.90043 0.0160082 7.86105 0.232074 6.88979 0.636667C5.93395 1.07588 5.07125 1.69439 4.34846 2.45867C3.65814 3.23675 3.10433 4.12595 2.71046 5.08867C2.33486 6.04576 2.10997 7.05531 2.04379 8.08133C2.02154 8.26278 2.07851 8.44501 2.20016 8.58146C2.3218 8.71792 2.49633 8.79536 2.67913 8.794C3.03257 8.79112 3.32941 8.52732 3.37379 8.17667C3.43017 7.28815 3.62403 6.41376 3.94846 5.58467C4.28307 4.77202 4.75081 4.02083 5.33246 3.362Z" fill="#2B5468"/>
<path d="M2.86532 11.4544C2.62714 11.4556 2.40642 11.3297 2.2863 11.124C2.16618 10.9183 2.16491 10.6642 2.28297 10.4573C2.40103 10.2505 2.62048 10.1223 2.85865 10.1211H2.86532C3.23351 10.1211 3.53199 10.4196 3.53199 10.7878C3.53199 11.156 3.23351 11.4544 2.86532 11.4544Z" fill="#2B5468"/>
<path d="M38 20H26C24.8955 20 24 20.8954 24 22V30.026L20 29.426V25.642C21.4636 24.2915 22.2191 22.3393 22.046 20.3553C23.2985 19.597 24.198 18.3716 24.546 16.9493C24.746 15.5927 24.8934 13.248 23.662 12.79C23.64 12.7813 23.6134 12.7747 23.5894 12.7667C24.1187 10.5373 24.7087 8.01733 23.966 5.78933C22.8327 2.39733 19.4327 1.808 17.5414 1.972C16.8134 1.41267 14.5227 0 9.95336 0V1.33333C14.9207 1.33333 16.8487 3.12533 16.8667 3.13933C17.0146 3.28635 17.2228 3.35567 17.4294 3.32667C17.598 3.30333 21.566 2.79333 22.704 6.21067C23.2214 7.76267 22.9327 9.62467 22.5414 11.3893C22.4402 10.1548 21.9737 8.97838 21.2014 8.01C20.3875 7.1079 19.2139 6.61545 18 6.66667C16.7231 6.61824 15.4543 6.8886 14.308 7.45333C13.7022 7.79142 12.9645 7.79142 12.3587 7.45333C11.2123 6.88894 9.94356 6.6186 8.66669 6.66667C7.45325 6.61585 6.28025 7.10827 5.46669 8.01C4.25069 9.38267 4.04736 11.4667 4.04669 12.7047C3.69891 12.6403 3.34028 12.6693 3.00736 12.7887C1.77336 13.248 1.92202 15.5927 2.12469 16.976C2.47891 18.3875 3.37621 19.602 4.62136 20.3553C4.44819 22.3389 5.20347 24.2909 6.66669 25.6413V29.4253L1.69936 30.168C0.719538 30.3129 -0.00466952 31.1562 2.26698e-05 32.1467V38C2.26698e-05 39.1046 0.895453 40 2.00002 40H38C39.1046 40 40 39.1046 40 38V22C40 20.8954 39.1046 20 38 20ZM22.2194 16.322C22.3274 15.7153 22.446 15.0227 22.534 14.11C22.7255 14.0145 22.9431 13.9845 23.1534 14.0247C23.36 14.3167 23.3967 15.5913 23.2314 16.73C23.0266 17.5044 22.5964 18.2005 21.9954 18.73C21.9954 18.6193 21.9867 18.512 21.9867 18.4C21.9978 17.7015 22.0757 17.0057 22.2194 16.322ZM4.67136 18.722C4.08147 18.1983 3.65413 17.5165 3.44002 16.7573C3.27002 15.592 3.30669 14.316 3.51336 14.024C3.72364 13.9837 3.94135 14.0139 4.13269 14.11C4.22202 15.03 4.34002 15.7187 4.44736 16.3213C4.59108 17.0052 4.66899 17.7013 4.68002 18.4C4.68002 18.508 4.67402 18.6127 4.67136 18.7193V18.722ZM5.96669 20C5.97136 19.816 5.97869 19.6307 5.98602 19.4433C6.00002 19.102 6.01336 18.7547 6.01336 18.4027C6.00307 17.6259 5.91823 16.8519 5.76002 16.0913C5.60369 15.2663 5.49087 14.4336 5.42202 13.5967C5.31869 12.7333 5.30469 10.204 6.46669 8.89467C7.02816 8.28077 7.83613 7.9522 8.66669 8C9.72004 7.95333 10.7686 8.16745 11.7194 8.62333C12.7244 9.17505 13.9417 9.17505 14.9467 8.62333C15.8977 8.16752 16.9465 7.95342 18 8C18.8302 7.95179 19.6381 8.27959 20.2 8.89267C21.596 10.462 21.25 13.5633 21.2434 13.62C21.1756 14.4475 21.0643 15.2709 20.91 16.0867C20.7518 16.8472 20.667 17.6212 20.6567 18.398C20.6567 18.7473 20.67 19.0913 20.684 19.43C20.6914 19.62 20.6987 19.808 20.704 20.006C20.7767 21.748 20.6987 23.1073 19.0187 24.7393C18.2043 25.5584 17.4937 26.4743 16.9027 27.4667C16.0794 28.7613 15.6667 29.3333 14.56 29.3333H12.1067C10.9987 29.3333 10.588 28.7613 9.76469 27.4667C9.17433 26.4752 8.46458 25.56 7.65136 24.7413C5.97136 23.1093 5.89336 21.75 5.96669 20ZM8.00002 29.8253V27.2207C8.23269 27.554 8.44536 27.8773 8.63936 28.1827C9.45202 29.46 10.22 30.6667 12.1067 30.6667H14.56C16.4474 30.6667 17.2147 29.46 18.0267 28.1827C18.2214 27.8773 18.4334 27.5527 18.666 27.2213V29.8213C17.4938 31.7198 15.5408 33.0015 13.3327 33.3213C11.1216 33.0127 9.1649 31.7299 8.00002 29.8253ZM12.1587 34.4553L11.0154 35.9787C9.92957 35.9072 8.91793 35.4028 8.20736 34.5787C7.63516 33.7027 7.43555 32.6348 7.65269 31.6113C8.82332 33.0038 10.398 33.9977 12.1587 34.4553ZM19.014 31.6113C19.2301 32.632 19.0325 33.6967 18.4647 34.572C17.7511 35.3966 16.738 35.9025 15.65 35.9773L14.508 34.4553C16.2687 33.9977 17.8434 33.0038 19.014 31.6113ZM2.00002 38.6667C1.63183 38.6667 1.33336 38.3682 1.33336 38V32.1467C1.33249 31.8169 1.5728 31.5361 1.89869 31.486L6.44536 30.8067C6.05736 32.6927 6.28469 34.2287 7.13802 35.3747C8.57869 37.3113 11.222 37.3333 11.3334 37.3333C11.5432 37.3333 11.7408 37.2345 11.8667 37.0667L13.3334 35.1113L14.8 37.0667C14.9259 37.2345 15.1235 37.3333 15.3334 37.3333C15.4447 37.3333 18.088 37.3113 19.5287 35.3747C20.382 34.2287 20.6094 32.6933 20.2214 30.8073L24 31.374V38C24.0022 38.2276 24.0437 38.4532 24.1227 38.6667H2.00002ZM27.3334 38.6667H26C25.6318 38.6667 25.3334 38.3682 25.3334 38V22C25.3334 21.6318 25.6318 21.3333 26 21.3333H27.3334V38.6667ZM38.6667 38C38.6667 38.3682 38.3682 38.6667 38 38.6667H28.6667V21.3333H38C38.3682 21.3333 38.6667 21.6318 38.6667 22V38Z" fill="#2B5468"/>
<path d="M36 23.332H31.3333C30.597 23.332 30 23.929 30 24.6654V26.6654C30 27.4017 30.597 27.9987 31.3333 27.9987H36C36.7364 27.9987 37.3333 27.4017 37.3333 26.6654V24.6654C37.3333 23.929 36.7364 23.332 36 23.332ZM31.3333 26.6654V24.6654H36V26.6654H31.3333Z" fill="#2B5468"/>
<path d="M36.6667 32.6641H30.6667C30.2985 32.6641 30 32.9625 30 33.3307C30 33.6989 30.2985 33.9974 30.6667 33.9974H36.6667C37.0349 33.9974 37.3333 33.6989 37.3333 33.3307C37.3333 32.9625 37.0349 32.6641 36.6667 32.6641Z" fill="#2B5468"/>
<path d="M34 35.3359H30.6667C30.2985 35.3359 30 35.6344 30 36.0026C30 36.3708 30.2985 36.6693 30.6667 36.6693H34C34.3682 36.6693 34.6667 36.3708 34.6667 36.0026C34.6667 35.6344 34.3682 35.3359 34 35.3359Z" fill="#2B5468"/>
</svg>
