<svg width="56" height="56" viewBox="0 0 56 56" fill="none" xmlns="http://www.w3.org/2000/svg">
<path d="M35 23.4709L19.0645 16.6416C18.7983 16.5274 18.5079 16.4812 18.2193 16.5069C17.9308 16.5327 17.6532 16.6297 17.4114 16.7892C17.1696 16.9487 16.9712 17.1657 16.8339 17.4208C16.6967 17.6759 16.6249 17.961 16.625 18.2507V42.0192C16.6251 42.5328 16.7758 43.0352 17.0586 43.464C17.3413 43.8928 17.7437 44.2292 18.2158 44.4316L35 51.6249V23.4709ZM21.9424 24.4404C22.0379 24.2293 22.2132 24.0647 22.4299 23.9827C22.6465 23.9007 22.8869 23.908 23.0983 24.0029L30.9829 27.5371C31.1947 27.632 31.3602 27.8072 31.4429 28.0241C31.5256 28.241 31.5188 28.4819 31.4239 28.6938C31.329 28.9057 31.1538 29.0712 30.9368 29.1539C30.7199 29.2366 30.479 29.2297 30.2671 29.1348L22.3825 25.5972C22.2776 25.5501 22.1831 25.4829 22.1042 25.3993C22.0253 25.3157 21.9637 25.2174 21.9228 25.11C21.8819 25.0026 21.8626 24.8881 21.866 24.7733C21.8693 24.6584 21.8953 24.5453 21.9424 24.4404ZM31.423 43.5653C31.3275 43.7764 31.1522 43.941 30.9355 44.023C30.7188 44.105 30.4785 44.0978 30.2671 44.0028L22.3825 40.4722C22.2776 40.4252 22.183 40.358 22.104 40.2744C22.0251 40.1909 21.9634 40.0926 21.9224 39.9851C21.8397 39.7682 21.8466 39.5273 21.9415 39.3154C22.0364 39.1036 22.2116 38.9381 22.4285 38.8554C22.6455 38.7727 22.8864 38.7795 23.0983 38.8744L30.9829 42.4086C31.0877 42.4556 31.1823 42.5228 31.2612 42.6064C31.3401 42.69 31.4017 42.7883 31.4426 42.8958C31.4834 43.0032 31.5027 43.1176 31.4994 43.2325C31.496 43.3474 31.4701 43.4605 31.423 43.5653ZM31.423 38.3153C31.3275 38.5264 31.1522 38.691 30.9355 38.773C30.7188 38.855 30.4785 38.8478 30.2671 38.7528L22.3825 35.2222C22.2776 35.1752 22.183 35.108 22.104 35.0244C22.0251 34.9409 21.9634 34.8426 21.9224 34.7351C21.8397 34.5182 21.8466 34.2773 21.9415 34.0654C22.0364 33.8536 22.2116 33.6881 22.4285 33.6054C22.6455 33.5227 22.8864 33.5295 23.0983 33.6244L30.9829 37.1586C31.0877 37.2056 31.1823 37.2728 31.2612 37.3564C31.3401 37.44 31.4017 37.5383 31.4426 37.6458C31.4834 37.7532 31.5027 37.8676 31.4994 37.9825C31.496 38.0974 31.4701 38.2105 31.423 38.3153ZM31.423 33.9403C31.3275 34.1514 31.1522 34.316 30.9355 34.398C30.7188 34.48 30.4785 34.4728 30.2671 34.3778L22.3825 30.8472C22.2776 30.8002 22.183 30.733 22.104 30.6494C22.0251 30.5659 21.9634 30.4676 21.9224 30.3601C21.8397 30.1432 21.8466 29.9023 21.9415 29.6904C22.0364 29.4786 22.2116 29.3131 22.4285 29.2304C22.6455 29.1477 22.8864 29.1545 23.0983 29.2494L30.9829 32.7836C31.0877 32.8306 31.1823 32.8978 31.2612 32.9814C31.3401 33.065 31.4017 33.1633 31.4426 33.2708C31.4834 33.3782 31.5027 33.4926 31.4994 33.6075C31.496 33.7224 31.4701 33.8355 31.423 33.9403ZM52.6855 16.6416L36.75 23.4709V51.6249L53.5351 44.4316C54.007 44.229 54.4092 43.8926 54.6918 43.4638C54.9744 43.035 55.125 42.5327 55.125 42.0192V18.2507C55.125 17.9611 55.0533 17.6761 54.916 17.4211C54.7788 17.1661 54.5805 16.9492 54.3388 16.7897C54.0971 16.6302 53.8197 16.5332 53.5313 16.5074C53.2429 16.4815 52.9526 16.5276 52.6864 16.6416H52.6855ZM49.3675 40.4722L41.4829 44.0063C41.271 44.1012 41.0301 44.1081 40.8132 44.0254C40.5962 43.9427 40.421 43.7772 40.3261 43.5653C40.2312 43.3534 40.2243 43.1125 40.3071 42.8956C40.3898 42.6787 40.5553 42.5035 40.7671 42.4086L48.65 38.8744C48.8619 38.7795 49.1028 38.7727 49.3197 38.8554C49.5366 38.9381 49.7118 39.1036 49.8068 39.3154C49.9017 39.5273 49.9085 39.7682 49.8258 39.9851C49.7431 40.2021 49.5776 40.3773 49.3657 40.4722H49.3675ZM49.3675 35.2222L41.4829 38.7563C41.271 38.8512 41.0301 38.8581 40.8132 38.7754C40.5962 38.6927 40.421 38.5272 40.3261 38.3153C40.2312 38.1034 40.2243 37.8625 40.3071 37.6456C40.3898 37.4287 40.5553 37.2535 40.7671 37.1586L48.65 33.6244C48.8619 33.5295 49.1028 33.5227 49.3197 33.6054C49.5366 33.6881 49.7118 33.8536 49.8068 34.0654C49.9017 34.2773 49.9085 34.5182 49.8258 34.7351C49.7431 34.9521 49.5776 35.1273 49.3657 35.2222H49.3675ZM49.3675 30.8472L41.4829 34.3813C41.378 34.4283 41.2648 34.4542 41.1499 34.4574C41.035 34.4607 40.9206 34.4413 40.8132 34.4004C40.7058 34.3594 40.6075 34.2977 40.5239 34.2188C40.4403 34.1398 40.3731 34.0452 40.3261 33.9403C40.2791 33.8354 40.2533 33.7223 40.25 33.6073C40.2467 33.4924 40.2661 33.378 40.3071 33.2706C40.348 33.1632 40.4097 33.0649 40.4887 32.9813C40.5676 32.8978 40.6622 32.8306 40.7671 32.7836L48.65 29.2494C48.8619 29.1545 49.1028 29.1477 49.3197 29.2304C49.5366 29.3131 49.7118 29.4786 49.8068 29.6904C49.9017 29.9023 49.9085 30.1432 49.8258 30.3601C49.7431 30.5771 49.5776 30.7523 49.3657 30.8472H49.3675ZM49.3675 25.5972L41.4829 29.1313C41.271 29.2262 41.0301 29.2331 40.8132 29.1504C40.5962 29.0677 40.421 28.9022 40.3261 28.6903C40.2312 28.4784 40.2243 28.2375 40.3071 28.0206C40.3898 27.8037 40.5553 27.6285 40.7671 27.5336L48.65 23.9994C48.8619 23.9045 49.1028 23.8977 49.3197 23.9804C49.5366 24.0631 49.7118 24.2286 49.8068 24.4404C49.9017 24.6523 49.9085 24.8932 49.8258 25.1101C49.7431 25.3271 49.5776 25.5023 49.3657 25.5972H49.3675Z" fill="#6FDA44"/>
<path d="M42 4.375H3.5C2.80381 4.375 2.13613 4.65156 1.64384 5.14384C1.15156 5.63613 0.875 6.30381 0.875 7V35C0.875 35.6962 1.15156 36.3639 1.64384 36.8562C2.13613 37.3484 2.80381 37.625 3.5 37.625H16.38L14.1925 46.375H12.25C12.0179 46.375 11.7954 46.4672 11.6313 46.6313C11.4672 46.7954 11.375 47.0179 11.375 47.25C11.375 47.4821 11.4672 47.7046 11.6313 47.8687C11.7954 48.0328 12.0179 48.125 12.25 48.125H33.25C33.4821 48.125 33.7046 48.0328 33.8687 47.8687C34.0328 47.7046 34.125 47.4821 34.125 47.25C34.125 47.0179 34.0328 46.7954 33.8687 46.6313C33.7046 46.4672 33.4821 46.375 33.25 46.375H31.3075L29.12 37.625H42C42.6962 37.625 43.3639 37.3484 43.8562 36.8562C44.3484 36.3639 44.625 35.6962 44.625 35V7C44.625 6.30381 44.3484 5.63613 43.8562 5.14384C43.3639 4.65156 42.6962 4.375 42 4.375ZM3.5 6.125H42C42.2321 6.125 42.4546 6.21719 42.6187 6.38128C42.7828 6.54538 42.875 6.76794 42.875 7V28H2.625V7C2.625 6.76794 2.71719 6.54538 2.88128 6.38128C3.04538 6.21719 3.26794 6.125 3.5 6.125ZM29.505 46.375H15.995L18.1825 37.625H27.3175L29.505 46.375ZM42 35.875H3.5C3.26794 35.875 3.04538 35.7828 2.88128 35.6187C2.71719 35.4546 2.625 35.2321 2.625 35V29.75H42.875V35C42.875 35.2321 42.7828 35.4546 42.6187 35.6187C42.4546 35.7828 42.2321 35.875 42 35.875Z" fill="#1D4354"/>
</svg>