<svg width="24" height="24" viewBox="0 0 24 24" fill="none" xmlns="http://www.w3.org/2000/svg">
<path d="M12 6C11.2265 6 10.4846 6.30729 9.93761 6.85427C9.39062 7.40125 9.08333 8.14312 9.08333 8.91667C9.08333 9.69021 9.39062 10.4321 9.93761 10.9791C10.4846 11.526 11.2265 11.8333 12 11.8333C12.7735 11.8333 13.5154 11.526 14.0624 10.9791C14.6094 10.4321 14.9167 9.69021 14.9167 8.91667C14.9167 8.14312 14.6094 7.40125 14.0624 6.85427C13.5154 6.30729 12.7735 6 12 6ZM12 7.66667C12.3315 7.66667 12.6495 7.79836 12.8839 8.03278C13.1183 8.2672 13.25 8.58515 13.25 8.91667C13.25 9.24819 13.1183 9.56613 12.8839 9.80055C12.6495 10.035 12.3315 10.1667 12 10.1667C11.6685 10.1667 11.3505 10.035 11.1161 9.80055C10.8817 9.56613 10.75 9.24819 10.75 8.91667C10.75 8.58515 10.8817 8.2672 11.1161 8.03278C11.3505 7.79836 11.6685 7.66667 12 7.66667ZM6.58333 8.5C6.0308 8.5 5.5009 8.71949 5.11019 9.11019C4.71949 9.5009 4.5 10.0308 4.5 10.5833C4.5 11.3667 4.94167 12.0417 5.575 12.4C5.875 12.5667 6.21667 12.6667 6.58333 12.6667C6.95 12.6667 7.29167 12.5667 7.59167 12.4C7.9 12.225 8.15833 11.975 8.35 11.675C7.7429 10.8838 7.41473 9.91394 7.41667 8.91667V8.68333C7.16667 8.56667 6.88333 8.5 6.58333 8.5ZM17.4167 8.5C17.1167 8.5 16.8333 8.56667 16.5833 8.68333V8.91667C16.5833 9.91667 16.2583 10.8833 15.65 11.675C15.75 11.8333 15.8583 11.9583 15.9833 12.0833C16.3676 12.4559 16.8814 12.665 17.4167 12.6667C17.7833 12.6667 18.125 12.5667 18.425 12.4C19.0583 12.0417 19.5 11.3667 19.5 10.5833C19.5 10.0308 19.2805 9.5009 18.8898 9.11019C18.4991 8.71949 17.9692 8.5 17.4167 8.5ZM12 13.5C10.05 13.5 6.16667 14.475 6.16667 16.4167V17.6667H17.8333V16.4167C17.8333 14.475 13.95 13.5 12 13.5ZM5.925 13.9583C4.31667 14.15 2 14.9667 2 16.4167V17.6667H4.5V16.0583C4.5 15.2167 5.075 14.5167 5.925 13.9583ZM18.075 13.9583C18.925 14.5167 19.5 15.2167 19.5 16.0583V17.6667H22V16.4167C22 14.9667 19.6833 14.15 18.075 13.9583ZM12 15.1667C13.275 15.1667 14.7 15.5833 15.525 16H8.475C9.3 15.5833 10.725 15.1667 12 15.1667Z" fill="black"/>
</svg>
