<svg width="27" height="25" viewBox="0 0 27 25" fill="none" xmlns="http://www.w3.org/2000/svg">
<path d="M8.40267 15.7645C10.9304 15.7645 12.986 13.7089 12.986 11.1812V10.4173C12.986 7.88961 10.9304 5.83398 8.40267 5.83398C5.87496 5.83398 3.81934 7.88961 3.81934 10.4173V11.1812C3.81934 13.7089 5.87496 15.7645 8.40267 15.7645Z" fill="#32AF85"/>
<path d="M13.996 18.0414C10.4026 17.0461 6.40368 17.0461 2.80958 18.0414C1.15576 18.4998 0 20.0146 0 21.7264V24.1671H16.8056V21.7264C16.8056 20.0146 15.6498 18.4998 13.996 18.0414Z" fill="#32AF85"/>
<path d="M22.5591 8.89844H25.731V10.2656H22.5591V13.8594H21.106V10.2656H17.9341V8.89844H21.106V5.57812H22.5591V8.89844Z" fill="#32AF85"/>
</svg>
