<svg width="64" height="64" viewBox="0 0 64 64" fill="none" xmlns="http://www.w3.org/2000/svg">
<path d="M27.4381 10.2939L4.85144 48.0005C4.38575 48.807 4.13935 49.7213 4.13674 50.6526C4.13413 51.5838 4.37541 52.4996 4.83657 53.3086C5.29774 54.1177 5.9627 54.7919 6.76532 55.2641C7.56794 55.7364 8.48023 55.9903 9.41144 56.0005H54.5848C55.516 55.9903 56.4283 55.7364 57.2309 55.2641C58.0335 54.7919 58.6985 54.1177 59.1596 53.3086C59.6208 52.4996 59.8621 51.5838 59.8595 50.6526C59.8569 49.7213 59.6105 48.807 59.1448 48.0005L36.5581 10.2939C36.0827 9.51016 35.4134 8.8622 34.6146 8.4125C33.8159 7.96281 32.9147 7.72656 31.9981 7.72656C31.0815 7.72656 30.1803 7.96281 29.3816 8.4125C28.5828 8.8622 27.9135 9.51016 27.4381 10.2939V10.2939Z" stroke="#E6A01E" stroke-width="2" stroke-linecap="round" stroke-linejoin="round"/>
<path d="M32 24V34.6667" stroke="#E6A01E" stroke-width="2" stroke-linecap="round" stroke-linejoin="round"/>
<path d="M32 45.334H32.0267" stroke="#E6A01E" stroke-width="2" stroke-linecap="round" stroke-linejoin="round"/>
</svg>
