<svg width="22" height="22" viewBox="0 0 22 22" fill="none" xmlns="http://www.w3.org/2000/svg">
<path d="M20.1696 1.05914C19.4528 0.935678 18.7269 0.872125 17.9996 0.869145C15.518 0.86711 13.0881 1.57872 10.9996 2.91915C8.90574 1.59632 6.47625 0.902176 3.9996 0.919145C3.27224 0.922125 2.5464 0.985678 1.8296 1.10914C1.5948 1.14962 1.38218 1.2726 1.23001 1.45594C1.07784 1.63927 0.996133 1.87091 0.999596 2.10914V14.1091C0.997455 14.2561 1.02772 14.4017 1.08825 14.5356C1.14877 14.6695 1.23806 14.7884 1.34977 14.8839C1.46148 14.9794 1.59285 15.0491 1.73455 15.088C1.87625 15.1269 2.02479 15.1341 2.1696 15.1091C3.60262 14.861 5.0708 14.9022 6.48766 15.2302C7.90453 15.5582 9.24142 16.1665 10.4196 17.0191L10.5396 17.0891H10.6496C10.7605 17.1354 10.8795 17.1591 10.9996 17.1591C11.1197 17.1591 11.2387 17.1354 11.3496 17.0891H11.4596L11.5796 17.0191C12.7496 16.1474 14.0826 15.5195 15.4997 15.1725C16.9169 14.8255 18.3893 14.7666 19.8296 14.9991C19.9744 15.0241 20.1229 15.0169 20.2646 14.978C20.4063 14.9391 20.5377 14.8694 20.6494 14.7739C20.7611 14.6784 20.8504 14.5595 20.9109 14.4256C20.9715 14.2917 21.0017 14.1461 20.9996 13.9991V1.99914C20.9892 1.7713 20.9012 1.55386 20.7502 1.38288C20.5993 1.21191 20.3944 1.09768 20.1696 1.05914ZM9.9996 14.3491C8.14948 13.3758 6.09011 12.8679 3.9996 12.8691H2.9996V2.86914C3.33265 2.84995 3.66654 2.84995 3.9996 2.86914C6.13298 2.86679 8.21981 3.49284 9.9996 4.66915V14.3491ZM18.9996 12.9091H17.9996C15.9091 12.9079 13.8497 13.4158 11.9996 14.3891V4.66915C13.7794 3.49284 15.8662 2.86679 17.9996 2.86914C18.3327 2.84995 18.6665 2.84995 18.9996 2.86914V12.9091ZM20.1696 17.0591C19.4528 16.9357 18.7269 16.8721 17.9996 16.8691C15.518 16.8671 13.0881 17.5787 10.9996 18.9191C8.91111 17.5787 6.48123 16.8671 3.9996 16.8691C3.27224 16.8721 2.5464 16.9357 1.8296 17.0591C1.69942 17.0798 1.57462 17.126 1.46236 17.195C1.3501 17.2641 1.2526 17.3547 1.17546 17.4616C1.09833 17.5684 1.04308 17.6895 1.0129 17.8178C0.982718 17.9461 0.978197 18.0791 0.999596 18.2091C1.05042 18.4688 1.20209 18.6978 1.42139 18.8459C1.64069 18.9939 1.90974 19.0491 2.1696 18.9991C3.60262 18.751 5.0708 18.7922 6.48766 19.1202C7.90453 19.4482 9.24142 20.0565 10.4196 20.9091C10.589 21.0297 10.7917 21.0945 10.9996 21.0945C11.2075 21.0945 11.4102 21.0297 11.5796 20.9091C12.7578 20.0565 14.0947 19.4482 15.5115 19.1202C16.9284 18.7922 18.3966 18.751 19.8296 18.9991C20.0895 19.0491 20.3585 18.9939 20.5778 18.8459C20.7971 18.6978 20.9488 18.4688 20.9996 18.2091C21.021 18.0791 21.0165 17.9461 20.9863 17.8178C20.9561 17.6895 20.9009 17.5684 20.8237 17.4616C20.7466 17.3547 20.6491 17.2641 20.5368 17.195C20.4246 17.126 20.2998 17.0798 20.1696 17.0591Z" fill="#999999"/>
</svg>