<svg width="22" height="19" viewBox="0 0 22 19" fill="none" xmlns="http://www.w3.org/2000/svg">
    <path d="M20.97 16.1927L19.97 12.3327L16.82 0.742711C16.7519 0.487051 16.5853 0.268785 16.3567 0.13571C16.128 0.00263587 15.8559 -0.0344008 15.6 0.0327108L11.73 1.03271C11.6376 0.930356 11.5251 0.848204 11.3995 0.791414C11.2739 0.734625 11.1379 0.704424 11 0.702711H1C0.734784 0.702711 0.48043 0.808068 0.292893 0.995604C0.105357 1.18314 0 1.43749 0 1.70271V17.7027C0 17.9679 0.105357 18.2223 0.292893 18.4098C0.48043 18.5974 0.734784 18.7027 1 18.7027H11C11.2652 18.7027 11.5196 18.5974 11.7071 18.4098C11.8946 18.2223 12 17.9679 12 17.7027V9.70271L14.2 17.9227C14.2586 18.1409 14.3893 18.3328 14.5709 18.4671C14.7525 18.6015 14.9742 18.6704 15.2 18.6627C15.2864 18.6725 15.3736 18.6725 15.46 18.6627L20.29 17.3727C20.4177 17.3386 20.5374 17.2795 20.6421 17.1988C20.7468 17.1181 20.8344 17.0175 20.9 16.9027C21.0055 16.6815 21.0302 16.4303 20.97 16.1927ZM4.97 16.7427H1.97V14.7427H4.97V16.7427ZM4.97 12.7427H1.97V6.74271H4.97V12.7427ZM4.97 4.74271H1.97V2.74271H4.97V4.74271ZM9.97 16.7427H6.97V14.7427H9.97V16.7427ZM9.97 12.7427H6.97V6.74271H9.97V12.7427ZM9.97 4.74271H6.97V2.74271H9.97V4.74271ZM12.22 3.00271L15.12 2.22271L15.64 4.15271L12.74 4.93271L12.22 3.00271ZM14.81 12.6627L13.26 6.86271L16.16 6.08271L17.71 11.8827L14.81 12.6627ZM15.81 16.5227L15.29 14.5927L18.19 13.8127L18.71 15.7427L15.81 16.5227Z" fill="white"/>
</svg>