<svg width="16" height="16" viewBox="0 0 16 16" fill="none" xmlns="http://www.w3.org/2000/svg">
<path d="M5.52832 10.8621L6.47099 11.8047L7.99965 10.2761L9.52832 11.8047L10.471 10.8621L8.94232 9.33339L10.471 7.80473L9.52832 6.86206L7.99965 8.39073L6.47099 6.86206L5.52832 7.80473L7.05699 9.33339L5.52832 10.8621Z" fill="#D50000"/>
<path d="M12.6667 2.66659H11.3333V1.33325H10V2.66659H6V1.33325H4.66667V2.66659H3.33333C2.598 2.66659 2 3.26459 2 3.99992V13.3333C2 14.0686 2.598 14.6666 3.33333 14.6666H12.6667C13.402 14.6666 14 14.0686 14 13.3333V3.99992C14 3.26459 13.402 2.66659 12.6667 2.66659ZM12.668 13.3333H3.33333V5.33325H12.6667L12.668 13.3333Z" fill="#D50000"/>
</svg>
