<svg width="16" height="16" viewBox="0 0 16 16" fill="none" xmlns="http://www.w3.org/2000/svg">
<path d="M12.6667 2.66659H10.6667V1.33325H9.33333V2.66659H6.66667V1.33325H5.33333V2.66659H3.33333C2.598 2.66659 2 3.26459 2 3.99992V13.3333C2 14.0686 2.598 14.6666 3.33333 14.6666H12.6667C13.402 14.6666 14 14.0686 14 13.3333V3.99992C14 3.26459 13.402 2.66659 12.6667 2.66659ZM3.33333 13.3333V4.66659H12.6667V3.99992L12.668 13.3333H3.33333Z" fill="#14BFF4"/>
<path d="M10.4188 8.12212L9.21875 6.92279L10.1321 6.00879L11.3321 7.20812L10.4188 8.12212Z" fill="#14BFF4"/>
<path d="M5.33691 10.8006V12H6.53625L9.85358 8.68664L8.65425 7.4873L5.33691 10.8006Z" fill="#14BFF4"/>
</svg>
