<svg width="16" height="16" viewBox="0 0 16 16" fill="none" xmlns="http://www.w3.org/2000/svg">
<path d="M12.6667 2.66659H11.3333V1.33325H10V2.66659H6V1.33325H4.66667V2.66659H3.33333C2.598 2.66659 2 3.26459 2 3.99992V13.3333C2 14.0686 2.598 14.6666 3.33333 14.6666H12.6667C13.402 14.6666 14 14.0686 14 13.3333V3.99992C14 3.26459 13.402 2.66659 12.6667 2.66659ZM12.668 13.3333H3.33333V5.33325H12.6667L12.668 13.3333Z" fill="#1D4354"/>
<path d="M7.33364 11.6094L11.1383 7.80473L10.1956 6.86206L7.33364 9.72406L5.80497 8.19539L4.8623 9.13806L7.33364 11.6094Z" fill="#1D4354"/>
</svg>
