<svg width="14" height="16" viewBox="0 0 14 16" fill="none" xmlns="http://www.w3.org/2000/svg">
<path d="M7.03984 12.7299C7.17236 12.7299 7.3019 12.6906 7.41208 12.617C7.52226 12.5434 7.60813 12.4387 7.65884 12.3163C7.70955 12.1939 7.72282 12.0592 7.69697 11.9292C7.67112 11.7992 7.60731 11.6799 7.51361 11.5862C7.4199 11.4925 7.30052 11.4286 7.17055 11.4028C7.04059 11.3769 6.90587 11.3902 6.78345 11.4409C6.66102 11.4916 6.55638 11.5775 6.48276 11.6877C6.40914 11.7979 6.36984 11.9274 6.36984 12.0599C6.36984 12.2376 6.44043 12.408 6.56608 12.5337C6.69173 12.6593 6.86215 12.7299 7.03984 12.7299ZM10.3898 12.7299C10.5224 12.7299 10.6519 12.6906 10.7621 12.617C10.8723 12.5434 10.9581 12.4387 11.0088 12.3163C11.0596 12.1939 11.0728 12.0592 11.047 11.9292C11.0211 11.7992 10.9573 11.6799 10.8636 11.5862C10.7699 11.4925 10.6505 11.4286 10.5206 11.4028C10.3906 11.3769 10.2559 11.3902 10.1334 11.4409C10.011 11.4916 9.90638 11.5775 9.83276 11.6877C9.75914 11.7979 9.71984 11.9274 9.71984 12.0599C9.71984 12.2376 9.79043 12.408 9.91608 12.5337C10.0417 12.6593 10.2121 12.7299 10.3898 12.7299ZM10.3898 10.0499C10.5224 10.0499 10.6519 10.0106 10.7621 9.93701C10.8723 9.86339 10.9581 9.75875 11.0088 9.63632C11.0596 9.51389 11.0728 9.37918 11.047 9.24921C11.0211 9.11924 10.9573 8.99986 10.8636 8.90616C10.7699 8.81246 10.6505 8.74865 10.5206 8.7228C10.3906 8.69694 10.2559 8.71021 10.1334 8.76092C10.011 8.81163 9.90638 8.89751 9.83276 9.00769C9.75914 9.11787 9.71984 9.24741 9.71984 9.37992C9.71984 9.55762 9.79043 9.72803 9.91608 9.85368C10.0417 9.97933 10.2121 10.0499 10.3898 10.0499ZM7.03984 10.0499C7.17236 10.0499 7.3019 10.0106 7.41208 9.93701C7.52226 9.86339 7.60813 9.75875 7.65884 9.63632C7.70955 9.51389 7.72282 9.37918 7.69697 9.24921C7.67112 9.11924 7.60731 8.99986 7.51361 8.90616C7.4199 8.81246 7.30052 8.74865 7.17055 8.7228C7.04059 8.69694 6.90587 8.71021 6.78345 8.76092C6.66102 8.81163 6.55638 8.89751 6.48276 9.00769C6.40914 9.11787 6.36984 9.24741 6.36984 9.37992C6.36984 9.55762 6.44043 9.72803 6.56608 9.85368C6.69173 9.97933 6.86215 10.0499 7.03984 10.0499ZM11.7298 2.00992H11.0598V1.33992C11.0598 1.16223 10.9893 0.99181 10.8636 0.86616C10.738 0.740511 10.5675 0.669922 10.3898 0.669922C10.2121 0.669922 10.0417 0.740511 9.91608 0.86616C9.79043 0.99181 9.71984 1.16223 9.71984 1.33992V2.00992H4.35984V1.33992C4.35984 1.16223 4.28925 0.99181 4.16361 0.86616C4.03796 0.740511 3.86754 0.669922 3.68984 0.669922C3.51215 0.669922 3.34173 0.740511 3.21608 0.86616C3.09043 0.99181 3.01984 1.16223 3.01984 1.33992V2.00992H2.34984C1.81676 2.00992 1.30551 2.22169 0.928559 2.59864C0.551611 2.97559 0.339844 3.48684 0.339844 4.01992V13.3999C0.339844 13.933 0.551611 14.4443 0.928559 14.8212C1.30551 15.1982 1.81676 15.4099 2.34984 15.4099H11.7298C12.2629 15.4099 12.7742 15.1982 13.1511 14.8212C13.5281 14.4443 13.7398 13.933 13.7398 13.3999V4.01992C13.7398 3.48684 13.5281 2.97559 13.1511 2.59864C12.7742 2.22169 12.2629 2.00992 11.7298 2.00992ZM12.3998 13.3999C12.3998 13.5776 12.3293 13.748 12.2036 13.8737C12.078 13.9993 11.9075 14.0699 11.7298 14.0699H2.34984C2.17215 14.0699 2.00173 13.9993 1.87608 13.8737C1.75043 13.748 1.67984 13.5776 1.67984 13.3999V7.36992H12.3998V13.3999ZM12.3998 6.02992H1.67984V4.01992C1.67984 3.84223 1.75043 3.67181 1.87608 3.54616C2.00173 3.42051 2.17215 3.34992 2.34984 3.34992H3.01984V4.01992C3.01984 4.19762 3.09043 4.36803 3.21608 4.49368C3.34173 4.61933 3.51215 4.68992 3.68984 4.68992C3.86754 4.68992 4.03796 4.61933 4.16361 4.49368C4.28925 4.36803 4.35984 4.19762 4.35984 4.01992V3.34992H9.71984V4.01992C9.71984 4.19762 9.79043 4.36803 9.91608 4.49368C10.0417 4.61933 10.2121 4.68992 10.3898 4.68992C10.5675 4.68992 10.738 4.61933 10.8636 4.49368C10.9893 4.36803 11.0598 4.19762 11.0598 4.01992V3.34992H11.7298C11.9075 3.34992 12.078 3.42051 12.2036 3.54616C12.3293 3.67181 12.3998 3.84223 12.3998 4.01992V6.02992ZM3.68984 10.0499C3.82236 10.0499 3.95189 10.0106 4.06208 9.93701C4.17226 9.86339 4.25813 9.75875 4.30884 9.63632C4.35955 9.51389 4.37282 9.37918 4.34697 9.24921C4.32112 9.11924 4.25731 8.99986 4.16361 8.90616C4.0699 8.81246 3.95052 8.74865 3.82055 8.7228C3.69059 8.69694 3.55587 8.71021 3.43345 8.76092C3.31102 8.81163 3.20638 8.89751 3.13276 9.00769C3.05914 9.11787 3.01984 9.24741 3.01984 9.37992C3.01984 9.55762 3.09043 9.72803 3.21608 9.85368C3.34173 9.97933 3.51215 10.0499 3.68984 10.0499ZM3.68984 12.7299C3.82236 12.7299 3.95189 12.6906 4.06208 12.617C4.17226 12.5434 4.25813 12.4387 4.30884 12.3163C4.35955 12.1939 4.37282 12.0592 4.34697 11.9292C4.32112 11.7992 4.25731 11.6799 4.16361 11.5862C4.0699 11.4925 3.95052 11.4286 3.82055 11.4028C3.69059 11.3769 3.55587 11.3902 3.43345 11.4409C3.31102 11.4916 3.20638 11.5775 3.13276 11.6877C3.05914 11.7979 3.01984 11.9274 3.01984 12.0599C3.01984 12.2376 3.09043 12.408 3.21608 12.5337C3.34173 12.6593 3.51215 12.7299 3.68984 12.7299Z" fill="#CCCCCC"/>
</svg>
