<svg width="20" height="20" viewBox="0 0 20 20" fill="none" xmlns="http://www.w3.org/2000/svg">
<path d="M16.5855 2.16643H15.9829V1.50904C15.9829 0.676599 15.3261 0 14.5178 0C13.709 0 13.0527 0.676599 13.0527 1.50904V2.16588H11.5491V1.50904C11.5491 0.676599 10.8923 0 10.084 0C9.27567 0 8.61882 0.676599 8.61882 1.50904V2.16588H7.11527V1.50904C7.11527 0.676599 6.45842 0 5.65013 0C4.84183 0 4.18499 0.676599 4.18499 1.50904V2.16588H3.41565C2.12995 2.16588 1.0835 3.21234 1.0835 4.49804V17.6678C1.0835 18.9536 2.12995 20 3.41565 20H16.5855C17.8717 20 18.9176 18.9536 18.9176 17.6678V4.49804C18.9176 3.21288 17.8712 2.16643 16.5855 2.16643ZM13.8758 1.50904C13.8758 1.13096 14.1639 0.823113 14.5178 0.823113C14.8723 0.823113 15.1598 1.13096 15.1598 1.50904V4.19568C15.1598 4.57376 14.8723 4.88161 14.5178 4.88161C14.1639 4.88161 13.8758 4.57376 13.8758 4.19568V1.50904ZM9.44193 1.50904C9.44193 1.13096 9.73003 0.823113 10.084 0.823113C10.4379 0.823113 10.726 1.13096 10.726 1.50904V4.19568C10.726 4.57376 10.4379 4.88161 10.084 4.88161C9.73003 4.88161 9.44193 4.57376 9.44193 4.19568V1.50904ZM5.00755 1.50904C5.00755 1.13096 5.29564 0.823113 5.64958 0.823113C6.00352 0.823113 6.29161 1.13096 6.29161 1.50904V4.19568C6.29161 4.57376 6.00352 4.88161 5.64958 4.88161C5.29564 4.88161 5.00755 4.57376 5.00755 4.19568V1.50904ZM17.5458 17.6684C17.5458 18.1979 17.115 18.6287 16.5855 18.6287H3.41565C2.88611 18.6287 2.45535 18.1979 2.45535 17.6684V5.59607H17.5458V17.6684Z" fill="#656565"/>
<path d="M6.21141 8.02734H3.68994V10.2711H6.21141V8.02734Z" fill="#656565"/>
<path d="M9.57719 8.02734H7.05518V10.2711H9.57719V8.02734Z" fill="#656565"/>
<path d="M12.9448 8.02734H10.4233V10.2711H12.9448V8.02734Z" fill="#656565"/>
<path d="M16.3116 8.02734H13.7896V10.2711H16.3116V8.02734Z" fill="#656565"/>
<path d="M6.21141 11.0195H3.68994V13.2617H6.21141V11.0195Z" fill="#656565"/>
<path d="M9.57719 11.0195H7.05518V13.2617H9.57719V11.0195Z" fill="#656565"/>
<path d="M12.9448 11.0195H10.4233V13.2617H12.9448V11.0195Z" fill="#656565"/>
<path d="M16.3116 11.0195H13.7896V13.2617H16.3116V11.0195Z" fill="#656565"/>
<path d="M6.21141 14.0156H3.68994V16.2578H6.21141V14.0156Z" fill="#656565"/>
<path d="M9.57719 14.0156H7.05518V16.2578H9.57719V14.0156Z" fill="#656565"/>
<path d="M12.9448 14.0156H10.4233V16.2578H12.9448V14.0156Z" fill="#656565"/>
<path d="M16.3116 14.0156H13.7896V16.2578H16.3116V14.0156Z" fill="#656565"/>
</svg>
