<svg width="13" height="12" viewBox="0 0 13 12" fill="none" xmlns="http://www.w3.org/2000/svg">
<path d="M11.2292 1.60417H9.09028L8.02083 0H4.8125L3.74306 1.60417H1.60417C1.17872 1.60417 0.770689 1.77318 0.46985 2.07402C0.16901 2.37486 0 2.78288 0 3.20833L0 9.625C0 10.0505 0.16901 10.4585 0.46985 10.7593C0.770689 11.0602 1.17872 11.2292 1.60417 11.2292H11.2292C11.6546 11.2292 12.0626 11.0602 12.3635 10.7593C12.6643 10.4585 12.8333 10.0505 12.8333 9.625V3.20833C12.8333 2.78288 12.6643 2.37486 12.3635 2.07402C12.0626 1.77318 11.6546 1.60417 11.2292 1.60417ZM6.41667 9.09028C5.88788 9.09028 5.37096 8.93347 4.93129 8.63969C4.49161 8.34591 4.14893 7.92835 3.94657 7.43981C3.74421 6.95127 3.69127 6.4137 3.79443 5.89507C3.89759 5.37644 4.15223 4.90005 4.52614 4.52614C4.90005 4.15223 5.37644 3.89759 5.89507 3.79443C6.4137 3.69127 6.95127 3.74421 7.43981 3.94657C7.92835 4.14893 8.34591 4.49161 8.63969 4.93129C8.93347 5.37096 9.09028 5.88788 9.09028 6.41667C9.09028 7.12575 8.80859 7.8058 8.30719 8.30719C7.8058 8.80859 7.12575 9.09028 6.41667 9.09028Z" fill="white"/>
</svg>
