<svg width="24" height="24" viewBox="0 0 24 24" fill="none" xmlns="http://www.w3.org/2000/svg">
<path d="M21.1667 2H2.83333C2.3471 2 1.88079 2.19156 1.53697 2.53253C1.19315 2.87351 1 3.33597 1 3.81818V15.6364C1 16.1186 1.19315 16.581 1.53697 16.922C1.88079 17.263 2.3471 17.4545 2.83333 17.4545H7.43211C7.71416 17.4545 7.98309 17.5737 8.17264 17.7825L11.2595 21.184C11.6563 21.6213 12.3437 21.6213 12.7405 21.184L15.8274 17.7825C16.0169 17.5737 16.2858 17.4545 16.5679 17.4545H21.1667C21.6529 17.4545 22.1192 17.263 22.463 16.922C22.8068 16.581 23 16.1186 23 15.6364V3.81818C23 3.33597 22.8068 2.87351 22.463 2.53253C22.1192 2.19156 21.6529 2 21.1667 2ZM13.8333 12C13.8333 12.5021 13.4263 12.9091 12.9242 12.9091H7.40909C6.90701 12.9091 6.5 12.5021 6.5 12C6.5 11.4979 6.90701 11.0909 7.40909 11.0909H12.9242C13.4263 11.0909 13.8333 11.4979 13.8333 12ZM17.5 7.45455C17.5 7.95662 17.093 8.36364 16.5909 8.36364H7.40909C6.90701 8.36364 6.5 7.95662 6.5 7.45455C6.5 6.95247 6.90701 6.54545 7.40909 6.54545H16.5909C17.093 6.54545 17.5 6.95247 17.5 7.45455Z" fill="#32AF85"/>
</svg>
