<svg width="18" height="20" viewBox="0 0 18 20" fill="none" xmlns="http://www.w3.org/2000/svg">
<path d="M11.58 9.3C12.0345 8.73195 12.2846 8.02747 12.29 7.3C12.29 6.42744 11.9434 5.59061 11.3264 4.97362C10.7094 4.35662 9.87256 4.01 9 4.01C8.12744 4.01 7.29061 4.35662 6.67362 4.97362C6.05662 5.59061 5.71 6.42744 5.71 7.3C5.71542 8.02747 5.96551 8.73195 6.42 9.3C5.52863 9.84245 4.8293 10.6502 4.42 11.61C4.36271 11.7318 4.3306 11.8639 4.32558 11.9984C4.32056 12.1329 4.34274 12.267 4.39079 12.3927C4.43884 12.5184 4.51177 12.6331 4.60521 12.73C4.69865 12.8268 4.81068 12.9038 4.93459 12.9563C5.0585 13.0089 5.19174 13.0358 5.32632 13.0357C5.4609 13.0355 5.59406 13.0081 5.71782 12.9552C5.84157 12.9023 5.95338 12.825 6.04655 12.7279C6.13971 12.6308 6.21231 12.5159 6.26 12.39C6.48983 11.8527 6.87157 11.3943 7.35832 11.071C7.84508 10.7477 8.41566 10.5735 9 10.57C9.58605 10.5716 10.1588 10.7448 10.6475 11.0683C11.1362 11.3917 11.5195 11.8512 11.75 12.39C11.8266 12.5707 11.9546 12.725 12.1182 12.8334C12.2818 12.9419 12.4737 12.9998 12.67 13C12.8038 12.9975 12.936 12.9704 13.06 12.92C13.3039 12.8164 13.4966 12.6203 13.596 12.3747C13.6954 12.129 13.6932 11.854 13.59 11.61C13.1781 10.6487 12.4751 9.84085 11.58 9.3ZM9 8.57C8.74444 8.56999 8.49464 8.49408 8.28229 8.35188C8.06993 8.20969 7.9046 8.00762 7.80727 7.77132C7.70993 7.53502 7.68498 7.27514 7.73557 7.02463C7.78616 6.77413 7.91002 6.5443 8.09143 6.36429C8.27284 6.18429 8.50363 6.06222 8.75452 6.01358C9.00541 5.96494 9.26509 5.99192 9.50063 6.09109C9.73617 6.19026 9.93694 6.35716 10.0775 6.57061C10.218 6.78406 10.292 7.03445 10.29 7.29C10.2874 7.63039 10.1503 7.95595 9.90865 8.19571C9.66701 8.43547 9.3404 8.57001 9 8.57ZM15 0H3C2.20435 0 1.44129 0.316071 0.87868 0.87868C0.316071 1.44129 0 2.20435 0 3V14C0 14.7956 0.316071 15.5587 0.87868 16.1213C1.44129 16.6839 2.20435 17 3 17H5.59L8.29 19.71C8.38344 19.8027 8.49426 19.876 8.61609 19.9258C8.73793 19.9755 8.86839 20.0008 9 20C9.23834 20 9.46886 19.9149 9.65 19.76L12.87 17H15C15.7956 17 16.5587 16.6839 17.1213 16.1213C17.6839 15.5587 18 14.7956 18 14V3C18 2.20435 17.6839 1.44129 17.1213 0.87868C16.5587 0.316071 15.7956 0 15 0ZM16 14C16 14.2652 15.8946 14.5196 15.7071 14.7071C15.5196 14.8946 15.2652 15 15 15H12.5C12.2617 15 12.0311 15.0851 11.85 15.24L9.05 17.64L6.71 15.29C6.61656 15.1973 6.50574 15.124 6.38391 15.0742C6.26207 15.0245 6.13161 14.9992 6 15H3C2.73478 15 2.48043 14.8946 2.29289 14.7071C2.10536 14.5196 2 14.2652 2 14V3C2 2.73478 2.10536 2.48043 2.29289 2.29289C2.48043 2.10536 2.73478 2 3 2H15C15.2652 2 15.5196 2.10536 15.7071 2.29289C15.8946 2.48043 16 2.73478 16 3V14Z" fill="#666666"/>
</svg>