<svg width="15" height="16" viewBox="0 0 15 16" fill="none" xmlns="http://www.w3.org/2000/svg">
<path fill-rule="evenodd" clip-rule="evenodd" d="M0.9375 8C0.9375 4.13425 3.87504 1 7.5 1C11.1241 1 14.0625 4.13425 14.0625 8C14.0625 11.8658 11.1241 15 7.5 15C3.87504 15 0.9375 11.8658 0.9375 8ZM5.88013 10.6339C6.20005 10.976 6.71931 10.976 7.04005 10.6339L10.3795 7.07179C10.7003 6.72966 10.7003 6.17579 10.3795 5.83454C10.0588 5.49241 9.53954 5.49241 9.21962 5.83454L6.46009 8.77804L5.78005 8.05266C5.46013 7.71141 4.94087 7.71141 4.62013 8.05266C4.3002 8.39479 4.3002 8.94866 4.62013 9.29079L5.88013 10.6339Z" fill="#32AF85"/>
<mask id="mask0" mask-type="alpha" maskUnits="userSpaceOnUse" x="0" y="1" width="15" height="14">
<path fill-rule="evenodd" clip-rule="evenodd" d="M0.9375 8C0.9375 4.13425 3.87504 1 7.5 1C11.1241 1 14.0625 4.13425 14.0625 8C14.0625 11.8658 11.1241 15 7.5 15C3.87504 15 0.9375 11.8658 0.9375 8ZM5.88013 10.6339C6.20005 10.976 6.71931 10.976 7.04005 10.6339L10.3795 7.07179C10.7003 6.72966 10.7003 6.17579 10.3795 5.83454C10.0588 5.49241 9.53954 5.49241 9.21962 5.83454L6.46009 8.77804L5.78005 8.05266C5.46013 7.71141 4.94087 7.71141 4.62013 8.05266C4.3002 8.39479 4.3002 8.94866 4.62013 9.29079L5.88013 10.6339Z" fill="white"/>
</mask>
<g mask="url(#mask0)">
<rect width="16" height="16" fill="#32AF85"/>
</g>
</svg>
