<svg width="16" height="16" viewBox="0 0 16 16" fill="none" xmlns="http://www.w3.org/2000/svg">
<path d="M8 1C6.61553 1 5.26215 1.41054 4.11101 2.17971C2.95987 2.94888 2.06266 4.04213 1.53285 5.32122C1.00303 6.6003 0.86441 8.00776 1.13451 9.36563C1.4046 10.7235 2.07129 11.9708 3.05026 12.9497C4.02922 13.9287 5.2765 14.5954 6.63437 14.8655C7.99224 15.1356 9.3997 14.997 10.6788 14.4672C11.9579 13.9373 13.0511 13.0401 13.8203 11.889C14.5895 10.7378 15 9.38447 15 8C15 7.08075 14.8189 6.17049 14.4672 5.32122C14.1154 4.47194 13.5998 3.70026 12.9497 3.05025C12.2997 2.40024 11.5281 1.88463 10.6788 1.53284C9.82951 1.18106 8.91925 1 8 1ZM8 13.6C6.89243 13.6 5.80972 13.2716 4.88881 12.6562C3.96789 12.0409 3.25013 11.1663 2.82628 10.143C2.40243 9.11976 2.29153 7.99379 2.50761 6.90749C2.72368 5.8212 3.25703 4.82338 4.0402 4.0402C4.82338 3.25703 5.8212 2.72368 6.9075 2.5076C7.99379 2.29153 9.11976 2.40242 10.143 2.82627C11.1663 3.25013 12.0409 3.96789 12.6562 4.88881C13.2716 5.80972 13.6 6.89242 13.6 8C13.6 9.48521 13.01 10.9096 11.9598 11.9598C10.9096 13.01 9.48521 13.6 8 13.6ZM10.163 6.208L9.792 5.837C9.76058 5.80352 9.72263 5.77683 9.68049 5.75859C9.63835 5.74035 9.59292 5.73094 9.547 5.73094C9.50108 5.73094 9.45565 5.74035 9.41352 5.75859C9.37138 5.77683 9.33342 5.80352 9.302 5.837L8 7.132L6.698 5.837C6.66658 5.80352 6.62863 5.77683 6.58649 5.75859C6.54435 5.74035 6.49892 5.73094 6.453 5.73094C6.40708 5.73094 6.36165 5.74035 6.31952 5.75859C6.27738 5.77683 6.23942 5.80352 6.208 5.837L5.837 6.208C5.80352 6.23942 5.77684 6.27737 5.75859 6.31951C5.74035 6.36165 5.73094 6.40708 5.73094 6.453C5.73094 6.49892 5.74035 6.54435 5.75859 6.58649C5.77684 6.62862 5.80352 6.66658 5.837 6.698L7.132 8L5.837 9.302C5.80352 9.33342 5.77684 9.37138 5.75859 9.41351C5.74035 9.45565 5.73094 9.50108 5.73094 9.547C5.73094 9.59292 5.74035 9.63835 5.75859 9.68049C5.77684 9.72262 5.80352 9.76058 5.837 9.792L6.208 10.163C6.23942 10.1965 6.27738 10.2232 6.31952 10.2414C6.36165 10.2597 6.40708 10.2691 6.453 10.2691C6.49892 10.2691 6.54435 10.2597 6.58649 10.2414C6.62863 10.2232 6.66658 10.1965 6.698 10.163L8 8.868L9.302 10.163C9.33342 10.1965 9.37138 10.2232 9.41352 10.2414C9.45565 10.2597 9.50108 10.2691 9.547 10.2691C9.59292 10.2691 9.63835 10.2597 9.68049 10.2414C9.72263 10.2232 9.76058 10.1965 9.792 10.163L10.163 9.792C10.1965 9.76058 10.2232 9.72262 10.2414 9.68049C10.2597 9.63835 10.2691 9.59292 10.2691 9.547C10.2691 9.50108 10.2597 9.45565 10.2414 9.41351C10.2232 9.37138 10.1965 9.33342 10.163 9.302L8.868 8L10.163 6.698C10.1965 6.66658 10.2232 6.62862 10.2414 6.58649C10.2597 6.54435 10.2691 6.49892 10.2691 6.453C10.2691 6.40708 10.2597 6.36165 10.2414 6.31951C10.2232 6.27737 10.1965 6.23942 10.163 6.208Z" fill="#333333"/>
</svg>
