<svg width="14" height="14" viewBox="0 0 14 14" fill="none" xmlns="http://www.w3.org/2000/svg">
<path d="M13.0698 1.67984H11.0598V1.00984C11.0598 0.832149 10.9893 0.661732 10.8636 0.536082C10.738 0.410433 10.5675 0.339844 10.3898 0.339844H3.68984C3.51215 0.339844 3.34173 0.410433 3.21608 0.536082C3.09043 0.661732 3.01984 0.832149 3.01984 1.00984V1.67984H1.00984C0.832149 1.67984 0.661732 1.75043 0.536082 1.87608C0.410433 2.00173 0.339844 2.17215 0.339844 2.34984V4.35984C0.339844 5.07062 0.6222 5.75229 1.1248 6.25489C1.62739 6.75749 2.30906 7.03984 3.01984 7.03984H4.04984C4.6563 7.71643 5.47408 8.16762 6.36984 8.31984V9.71984H5.69984C5.16676 9.71984 4.65551 9.93161 4.27856 10.3086C3.90161 10.6855 3.68984 11.1968 3.68984 11.7298V13.0698C3.68984 13.2475 3.76043 13.418 3.88608 13.5436C4.01173 13.6693 4.18215 13.7398 4.35984 13.7398H9.71984C9.89754 13.7398 10.068 13.6693 10.1936 13.5436C10.3193 13.418 10.3898 13.2475 10.3898 13.0698V11.7298C10.3898 11.1968 10.1781 10.6855 9.80113 10.3086C9.42418 9.93161 8.91293 9.71984 8.37984 9.71984H7.70984V8.31984C8.60561 8.16762 9.42339 7.71643 10.0298 7.03984H11.0598C11.7706 7.03984 12.4523 6.75749 12.9549 6.25489C13.4575 5.75229 13.7398 5.07062 13.7398 4.35984V2.34984C13.7398 2.17215 13.6693 2.00173 13.5436 1.87608C13.418 1.75043 13.2475 1.67984 13.0698 1.67984ZM3.01984 5.69984C2.66445 5.69984 2.32362 5.55867 2.07232 5.30737C1.82102 5.05607 1.67984 4.71523 1.67984 4.35984V3.01984H3.01984V4.35984C3.01987 4.81633 3.09765 5.26947 3.24984 5.69984H3.01984ZM8.37984 11.0598C8.55754 11.0598 8.72796 11.1304 8.85361 11.2561C8.97925 11.3817 9.04984 11.5521 9.04984 11.7298V12.3998H5.02984V11.7298C5.02984 11.5521 5.10043 11.3817 5.22608 11.2561C5.35173 11.1304 5.52215 11.0598 5.69984 11.0598H8.37984ZM9.71984 4.35984C9.71984 5.07062 9.43749 5.75229 8.93489 6.25489C8.43229 6.75749 7.75062 7.03984 7.03984 7.03984C6.32906 7.03984 5.64739 6.75749 5.1448 6.25489C4.6422 5.75229 4.35984 5.07062 4.35984 4.35984V1.67984H9.71984V4.35984ZM12.3998 4.35984C12.3998 4.71523 12.2587 5.05607 12.0074 5.30737C11.7561 5.55867 11.4152 5.69984 11.0598 5.69984H10.8298C10.982 5.26947 11.0598 4.81633 11.0598 4.35984V3.01984H12.3998V4.35984Z" fill="#E0E0E0"/>
</svg>