<svg width="16" height="16" viewBox="0 0 16 16" fill="none" xmlns="http://www.w3.org/2000/svg">
    <path fill-rule="evenodd" clip-rule="evenodd" d="M3.70455 1.93182V1.5C3.70455 1.08579 4.04033 0.75 4.45455 0.75C4.86876 0.75 5.20455 1.08579 5.20455 1.5V1.93182H10.7955V1.5C10.7955 1.08579 11.1312 0.75 11.5455 0.75C11.9597 0.75 12.2955 1.08579 12.2955 1.5V1.93182H12.5C14.0188 1.93182 15.25 3.16303 15.25 4.68182V5.63636V11.9091C15.25 13.4279 14.0188 14.6591 12.5 14.6591H3.5C1.98122 14.6591 0.75 13.4279 0.75 11.9091V5.63636V4.68182C0.75 3.16303 1.98122 1.93182 3.5 1.93182H3.70455ZM2.25 6.38636V11.9091C2.25 12.5994 2.80964 13.1591 3.5 13.1591H12.5C13.1904 13.1591 13.75 12.5994 13.75 11.9091V6.38636H2.25ZM13.75 4.88636H2.25V4.68182C2.25 3.99146 2.80964 3.43182 3.5 3.43182H3.72145C3.79441 3.76961 4.09492 4.02273 4.45455 4.02273C4.81417 4.02273 5.11468 3.76961 5.18764 3.43182H10.8124C10.8853 3.76961 11.1858 4.02273 11.5455 4.02273C11.9051 4.02273 12.2056 3.76961 12.2785 3.43182H12.5C13.1904 3.43182 13.75 3.99146 13.75 4.68182V4.88636ZM8.75 10.5227V11.5455C8.75 11.9597 8.41421 12.2955 8 12.2955C7.58579 12.2955 7.25 11.9597 7.25 11.5455V10.5227H6.22727C5.81306 10.5227 5.47727 10.1869 5.47727 9.77273C5.47727 9.35851 5.81306 9.02273 6.22727 9.02273H7.25V8C7.25 7.58579 7.58579 7.25 8 7.25C8.41421 7.25 8.75 7.58579 8.75 8V9.02273H9.77273C10.1869 9.02273 10.5227 9.35851 10.5227 9.77273C10.5227 10.1869 10.1869 10.5227 9.77273 10.5227H8.75Z" fill="#999999"/>
</svg>