<svg width="48" height="48" viewBox="0 0 48 48" fill="none" xmlns="http://www.w3.org/2000/svg">
<path d="M24 0H13.6C13.1582 0 12.8 0.358203 12.8 0.8V6.4H0.8C0.358203 6.4 0 6.7582 0 7.2V47.2C0 47.6418 0.358203 48 0.8 48H24C24.4418 48 24.8 47.6418 24.8 47.2V0.8C24.8 0.358203 24.4418 0 24 0ZM23.2 41.6H14.4V40H23.2V41.6ZM1.6 12H12.8V36H1.6V12ZM23.2 8.8H14.4V6.4H23.2V8.8ZM1.6 37.6H12.8V40H1.6V37.6ZM14.4 38.4V10.4H23.2V38.4H14.4ZM23.2 1.6V4.8H14.4V1.6H23.2ZM12.8 8V10.4H1.6V8H12.8ZM1.6 41.6H12.8V46.4H1.6V41.6ZM14.4 46.4V43.2H23.2V46.4H14.4Z" fill="#37A000"/>
<path d="M47.9743 43.7987L38.3743 6.99869C38.3208 6.79244 38.1872 6.61626 38.0028 6.50884C37.8188 6.40181 37.5997 6.37251 37.3938 6.42759L25.3938 9.62759C24.9688 9.74087 24.7149 10.176 24.8258 10.6018L34.4258 47.4018C34.4793 47.6081 34.6133 47.7842 34.7977 47.8913C34.9817 47.9979 35.2008 48.0268 35.4063 47.9713L47.4063 44.7713C47.8305 44.6581 48.084 44.2237 47.9743 43.7987ZM27.8497 15.8545L38.304 13.0674L38.6801 14.5073L28.2266 17.2987L27.8497 15.8545ZM39.084 16.0596L43.7239 33.8577L33.2735 36.6459L28.6336 18.8467L39.084 16.0596ZM44.1313 35.4065L44.9504 38.5459L34.4961 41.3331L33.6801 38.1948L44.1313 35.4065ZM37.029 8.18033L37.9001 11.5202L27.4458 14.3065L26.5754 10.9682L37.029 8.18033ZM35.7711 46.2202L34.9001 42.8803L45.3544 40.0924L46.2247 43.4307L35.7711 46.2202Z" fill="#37A000"/>
<path d="M10.4002 14.3999H4.0002C3.5584 14.3999 3.2002 14.7581 3.2002 15.1999V21.5999C3.2002 22.0417 3.5584 22.3999 4.0002 22.3999H10.4002C10.842 22.3999 11.2002 22.0417 11.2002 21.5999V15.1999C11.2002 14.7581 10.842 14.3999 10.4002 14.3999ZM9.6002 20.7999H4.8002V15.9999H9.6002V20.7999Z" fill="#37A000"/>
</svg>
