<svg width="20" height="19" viewBox="0 0 20 19" fill="none" xmlns="http://www.w3.org/2000/svg">
<path d="M11.29 11.29L11 11.59V9.00002C11 8.73481 10.8946 8.48045 10.7071 8.29292C10.5196 8.10538 10.2652 8.00002 10 8.00002C9.73478 8.00002 9.48043 8.10538 9.29289 8.29292C9.10536 8.48045 9 8.73481 9 9.00002V11.59L8.71 11.29C8.5217 11.1017 8.2663 10.9959 8 10.9959C7.7337 10.9959 7.4783 11.1017 7.29 11.29C7.1017 11.4783 6.99591 11.7337 6.99591 12C6.99591 12.2663 7.1017 12.5217 7.29 12.71L9.29 14.71C9.3851 14.8011 9.49725 14.8724 9.62 14.92C9.7397 14.9729 9.86913 15.0003 10 15.0003C10.1309 15.0003 10.2603 14.9729 10.38 14.92C10.5028 14.8724 10.6149 14.8011 10.71 14.71L12.71 12.71C12.8983 12.5217 13.0041 12.2663 13.0041 12C13.0041 11.7337 12.8983 11.4783 12.71 11.29C12.5217 11.1017 12.2663 10.9959 12 10.9959C11.7337 10.9959 11.4783 11.1017 11.29 11.29ZM17 3.00002H10.72L10.4 2.00002C10.1926 1.41325 9.80775 0.905526 9.2989 0.547183C8.79005 0.188841 8.18236 -0.0023769 7.56 2.23036e-05H3C2.20435 2.23036e-05 1.44129 0.316093 0.87868 0.878702C0.316071 1.44131 0 2.20437 0 3.00002V16C0 16.7957 0.316071 17.5587 0.87868 18.1213C1.44129 18.684 2.20435 19 3 19H17C17.7956 19 18.5587 18.684 19.1213 18.1213C19.6839 17.5587 20 16.7957 20 16V6.00002C20 5.20437 19.6839 4.44131 19.1213 3.8787C18.5587 3.31609 17.7956 3.00002 17 3.00002ZM18 16C18 16.2652 17.8946 16.5196 17.7071 16.7071C17.5196 16.8947 17.2652 17 17 17H3C2.73478 17 2.48043 16.8947 2.29289 16.7071C2.10536 16.5196 2 16.2652 2 16V3.00002C2 2.73481 2.10536 2.48045 2.29289 2.29292C2.48043 2.10538 2.73478 2.00002 3 2.00002H7.56C7.76964 1.99948 7.97416 2.06484 8.14463 2.18686C8.3151 2.30889 8.44291 2.4814 8.51 2.68002L9.05 4.32002C9.11709 4.51864 9.2449 4.69116 9.41537 4.81318C9.58584 4.9352 9.79036 5.00056 10 5.00002H17C17.2652 5.00002 17.5196 5.10538 17.7071 5.29292C17.8946 5.48045 18 5.73481 18 6.00002V16Z" fill="#32AF85"/>
</svg>