<svg width="20" height="20" viewBox="0 0 20 20" fill="none" xmlns="http://www.w3.org/2000/svg">
<circle cx="10" cy="10" r="9.25" fill="white" stroke="#32AF85" stroke-width="1.5"/>
<path d="M13.4706 8.03495C13.3405 7.90561 13.1645 7.83301 12.981 7.83301C12.7976 7.83301 12.6216 7.90561 12.4914 8.03495L9.99838 10.4933L7.54005 8.03495C7.40994 7.90561 7.23393 7.83301 7.05047 7.83301C6.86701 7.83301 6.691 7.90561 6.56088 8.03495C6.4958 8.0995 6.44413 8.17631 6.40888 8.26094C6.37362 8.34556 6.35547 8.43633 6.35547 8.528C6.35547 8.61968 6.37362 8.71045 6.40888 8.79507C6.44413 8.87969 6.4958 8.9565 6.56088 9.02106L9.50533 11.9655C9.56989 12.0306 9.64669 12.0823 9.73132 12.1175C9.81594 12.1528 9.90671 12.1709 9.99838 12.1709C10.0901 12.1709 10.1808 12.1528 10.2655 12.1175C10.3501 12.0823 10.4269 12.0306 10.4914 11.9655L13.4706 9.02106C13.5357 8.9565 13.5874 8.87969 13.6226 8.79507C13.6579 8.71045 13.676 8.61968 13.676 8.528C13.676 8.43633 13.6579 8.34556 13.6226 8.26094C13.5874 8.17631 13.5357 8.0995 13.4706 8.03495Z" fill="#32AF85"/>
</svg>