<svg width="108" height="121" viewBox="0 0 108 121" fill="none" xmlns="http://www.w3.org/2000/svg">
<g opacity="0.1">
<path d="M76.4606 51.6162C76.4606 49.0246 74.3598 46.9238 71.7682 46.9238H23.4365C20.8449 46.9238 18.7441 49.0246 18.7441 51.6162C18.7441 54.2078 20.8449 56.3086 23.4365 56.3086H71.7682C74.3598 56.3086 76.4606 54.2078 76.4606 51.6162Z" fill="#222222"/>
<path d="M23.4365 65.6934C20.8449 65.6934 18.7441 67.7941 18.7441 70.3858C18.7441 72.9774 20.8449 75.0781 23.4365 75.0781H52.79C55.3816 75.0781 57.4824 72.9774 57.4824 70.3858C57.4824 67.7941 55.3816 65.6934 52.79 65.6934H23.4365Z" fill="#222222"/>
<path d="M34.463 110.74H18.7696C13.5948 110.74 9.38479 106.53 9.38479 101.356V18.7696C9.38479 13.5948 13.5948 9.38479 18.7696 9.38479H76.46C81.6347 9.38479 85.8447 13.5948 85.8447 18.7696V47.6278C85.8447 50.2194 87.9455 52.3202 90.5371 52.3202C93.1288 52.3202 95.2295 50.2194 95.2295 47.6278V18.7696C95.2295 8.42003 86.8095 0 76.46 0H18.7696C8.42003 0 0 8.42003 0 18.7696V101.356C0 111.705 8.42003 120.125 18.7696 120.125H34.463C37.0547 120.125 39.1554 118.024 39.1554 115.433C39.1554 112.841 37.0547 110.74 34.463 110.74Z" fill="#222222"/>
<path d="M103.542 67.9393C98.053 62.4506 89.1224 62.4504 83.6373 67.9356L57.8753 93.6405C57.3282 94.1865 56.9247 94.8589 56.6999 95.5984L51.0894 114.069C50.592 115.706 51.0254 117.485 52.2205 118.71C53.1158 119.627 54.3321 120.125 55.5796 120.125C55.997 120.125 56.4183 120.069 56.832 119.955L75.7716 114.708C76.551 114.493 77.2615 114.079 77.834 113.507L103.542 87.8478C109.031 82.3591 109.031 73.4285 103.542 67.9393ZM72.0773 105.994L62.549 108.633L65.3374 99.4527L82.7201 82.1085L89.3575 88.7459L72.0773 105.994ZM96.9092 81.209L96.0001 82.1162L89.3639 75.48L90.27 74.5758C92.0995 72.7462 95.0764 72.7462 96.9059 74.5758C98.7355 76.4054 98.7355 79.3822 96.9092 81.209Z" fill="#222222"/>
<path d="M71.7682 28.1543H23.4365C20.8449 28.1543 18.7441 30.2551 18.7441 32.8467C18.7441 35.4383 20.8449 37.5391 23.4365 37.5391H71.7682C74.3598 37.5391 76.4606 35.4383 76.4606 32.8467C76.4606 30.2551 74.3598 28.1543 71.7682 28.1543Z" fill="#222222"/>
</g>
</svg>