<svg width="20" height="20" viewBox="0 0 20 20" fill="none" xmlns="http://www.w3.org/2000/svg">
<path d="M9.21328 3.34766H3.35078C2.90654 3.34766 2.4805 3.52413 2.16638 3.83825C1.85225 4.15238 1.67578 4.57842 1.67578 5.02266V16.7477C1.67578 17.1919 1.85225 17.6179 2.16638 17.9321C2.4805 18.2462 2.90654 18.4227 3.35078 18.4227H15.0758C15.52 18.4227 15.9461 18.2462 16.2602 17.9321C16.5743 17.6179 16.7508 17.1919 16.7508 16.7477V10.8852" stroke="#656565" stroke-linecap="round" stroke-linejoin="round"/>
<path d="M15.5012 2.09848C15.8343 1.7653 16.2862 1.57813 16.7574 1.57812C17.2286 1.57812 17.6805 1.7653 18.0137 2.09848C18.3468 2.43166 18.534 2.88355 18.534 3.35473C18.534 3.82592 18.3468 4.2778 18.0137 4.61098L10.0512 12.561L6.70117 13.3985L7.53867 10.0485L15.5012 2.09848V2.09848Z" stroke="#656565" stroke-linecap="round" stroke-linejoin="round"/>
</svg>
