<svg width="32" height="31" viewBox="0 0 32 31" fill="none" xmlns="http://www.w3.org/2000/svg">
<path d="M30 1L1 29V3C1 1.89543 1.89543 1 3 1H30Z" fill="#37A000" stroke="#37A000"/>
<g clip-path="url(#clip0)">
<path d="M14.9031 7.56015L11.8967 7.1314L10.5537 4.45973C10.5147 4.39467 10.459 4.34074 10.3922 4.30327C10.3254 4.2658 10.2498 4.24609 10.1729 4.24609C10.0959 4.24609 10.0203 4.2658 9.95353 4.30327C9.88673 4.34074 9.83106 4.39467 9.79202 4.45973L8.44653 7.1314L5.44009 7.56015C5.36169 7.57125 5.28802 7.60366 5.2274 7.65371C5.16679 7.70376 5.12165 7.76945 5.09709 7.84336C5.07253 7.91727 5.06953 7.99645 5.08843 8.07194C5.10733 8.14743 5.14737 8.21623 5.20403 8.27056L7.37999 10.3514L6.86668 13.2901C6.8533 13.3668 6.86203 13.4455 6.89189 13.5176C6.92175 13.5896 6.97154 13.6519 7.03563 13.6976C7.09972 13.7433 7.17556 13.7705 7.25458 13.7761C7.33359 13.7817 7.41262 13.7655 7.48274 13.7293L10.1716 12.3422L12.8604 13.7293C12.9306 13.7655 13.0096 13.7817 13.0886 13.7761C13.1676 13.7705 13.2435 13.7433 13.3076 13.6976C13.3717 13.6519 13.4214 13.5896 13.4513 13.5176C13.4812 13.4455 13.4899 13.3668 13.4765 13.2901L12.9632 10.3514L15.1392 8.27056C15.1958 8.21629 15.2359 8.14756 15.2548 8.07212C15.2737 7.99669 15.2708 7.91756 15.2463 7.84367C15.2219 7.76979 15.1769 7.70408 15.1163 7.65398C15.0558 7.60388 14.9823 7.57138 14.9039 7.56015H14.9031Z" fill="white"/>
</g>
<defs>
<clipPath id="clip0">
<rect width="10.1899" height="10" fill="white" transform="translate(5.07617 4)"/>
</clipPath>
</defs>
</svg>
