<svg width="14" height="14" viewBox="0 0 14 14" fill="none" xmlns="http://www.w3.org/2000/svg">
<path d="M12.9335 0.333008H1.06683C0.872337 0.333008 0.685811 0.41027 0.548285 0.547796C0.410758 0.685323 0.333496 0.871849 0.333496 1.06634V12.933C0.333496 13.1275 0.410758 13.314 0.548285 13.4516C0.685811 13.5891 0.872337 13.6663 1.06683 13.6663H7.4535V8.49968H5.72016V6.49968H7.4535V4.99967C7.41759 4.64751 7.45917 4.29176 7.57531 3.95737C7.69145 3.62297 7.87934 3.31804 8.12581 3.06395C8.37227 2.80986 8.67135 2.61277 9.00205 2.4865C9.33275 2.36023 9.68707 2.30784 10.0402 2.33301C10.559 2.32981 11.0777 2.35653 11.5935 2.41301V4.21301H10.5335C9.6935 4.21301 9.5335 4.61301 9.5335 5.19301V6.47968H11.5335L11.2735 8.47968H9.5335V13.6663H12.9335C13.0298 13.6663 13.1252 13.6474 13.2141 13.6105C13.3031 13.5737 13.3839 13.5197 13.452 13.4516C13.5201 13.3835 13.5742 13.3026 13.611 13.2136C13.6479 13.1247 13.6668 13.0293 13.6668 12.933V1.06634C13.6668 0.970038 13.6479 0.874679 13.611 0.785707C13.5742 0.696735 13.5201 0.615893 13.452 0.547796C13.3839 0.4797 13.3031 0.425683 13.2141 0.38883C13.1252 0.351976 13.0298 0.333008 12.9335 0.333008Z" fill="white"/>
</svg>