<svg width="17" height="19" viewBox="0 0 17 19" fill="none" xmlns="http://www.w3.org/2000/svg">
<path d="M6.33333 15.6666H3C2.77899 15.6666 2.56702 15.5788 2.41074 15.4225C2.25446 15.2663 2.16667 15.0543 2.16667 14.8333V3.16663C2.16667 2.94561 2.25446 2.73365 2.41074 2.57737C2.56702 2.42109 2.77899 2.33329 3 2.33329H7.16667V4.83329C7.16667 5.49633 7.43006 6.13222 7.8989 6.60106C8.36774 7.0699 9.00362 7.33329 9.66667 7.33329H12.1667V8.16663C12.1667 8.38764 12.2545 8.5996 12.4107 8.75588C12.567 8.91216 12.779 8.99996 13 8.99996C13.221 8.99996 13.433 8.91216 13.5893 8.75588C13.7455 8.5996 13.8333 8.38764 13.8333 8.16663V6.44996C13.8247 6.3734 13.8079 6.29799 13.7833 6.22496V6.14996C13.7433 6.06428 13.6898 5.98551 13.625 5.91663L8.625 0.916626C8.55611 0.851806 8.47735 0.79836 8.39167 0.758293C8.36679 0.754759 8.34154 0.754759 8.31667 0.758293L8.05 0.666626H3C2.33696 0.666626 1.70107 0.930018 1.23223 1.39886C0.763392 1.8677 0.5 2.50358 0.5 3.16663V14.8333C0.5 15.4963 0.763392 16.1322 1.23223 16.6011C1.70107 17.0699 2.33696 17.3333 3 17.3333H6.33333C6.55435 17.3333 6.76631 17.2455 6.92259 17.0892C7.07887 16.9329 7.16667 16.721 7.16667 16.5C7.16667 16.2789 7.07887 16.067 6.92259 15.9107C6.76631 15.7544 6.55435 15.6666 6.33333 15.6666ZM8.83333 3.50829L10.9917 5.66663H9.66667C9.44565 5.66663 9.23369 5.57883 9.07741 5.42255C8.92113 5.26627 8.83333 5.05431 8.83333 4.83329V3.50829ZM4.66667 10.6666H9.66667C9.88768 10.6666 10.0996 10.5788 10.2559 10.4225C10.4122 10.2663 10.5 10.0543 10.5 9.83329C10.5 9.61228 10.4122 9.40032 10.2559 9.24404C10.0996 9.08776 9.88768 8.99996 9.66667 8.99996H4.66667C4.44565 8.99996 4.23369 9.08776 4.07741 9.24404C3.92113 9.40032 3.83333 9.61228 3.83333 9.83329C3.83333 10.0543 3.92113 10.2663 4.07741 10.4225C4.23369 10.5788 4.44565 10.6666 4.66667 10.6666ZM4.66667 7.33329H5.5C5.72101 7.33329 5.93297 7.2455 6.08926 7.08922C6.24554 6.93293 6.33333 6.72097 6.33333 6.49996C6.33333 6.27895 6.24554 6.06698 6.08926 5.9107C5.93297 5.75442 5.72101 5.66663 5.5 5.66663H4.66667C4.44565 5.66663 4.23369 5.75442 4.07741 5.9107C3.92113 6.06698 3.83333 6.27895 3.83333 6.49996C3.83333 6.72097 3.92113 6.93293 4.07741 7.08922C4.23369 7.2455 4.44565 7.33329 4.66667 7.33329ZM6.33333 12.3333H4.66667C4.44565 12.3333 4.23369 12.4211 4.07741 12.5774C3.92113 12.7337 3.83333 12.9456 3.83333 13.1666C3.83333 13.3876 3.92113 13.5996 4.07741 13.7559C4.23369 13.9122 4.44565 14 4.66667 14H6.33333C6.55435 14 6.76631 13.9122 6.92259 13.7559C7.07887 13.5996 7.16667 13.3876 7.16667 13.1666C7.16667 12.9456 7.07887 12.7337 6.92259 12.5774C6.76631 12.4211 6.55435 12.3333 6.33333 12.3333Z" fill="#FFCA56"/>
<path d="M12.5 10.9987C11.8078 10.9987 11.1311 11.2039 10.5555 11.5885C9.97993 11.9731 9.53133 12.5197 9.26642 13.1593C9.00152 13.7988 8.9322 14.5025 9.06725 15.1815C9.2023 15.8604 9.53564 16.484 10.0251 16.9735C10.5146 17.463 11.1383 17.7964 11.8172 17.9314C12.4961 18.0665 13.1999 17.9971 13.8394 17.7322C14.4789 17.4673 15.0256 17.0187 15.4101 16.4432C15.7947 15.8676 16 15.1909 16 14.4987C16 14.039 15.9095 13.5839 15.7336 13.1593C15.5577 12.7346 15.2999 12.3488 14.9749 12.0238C14.6499 11.6988 14.264 11.441 13.8394 11.2651C13.4148 11.0892 12.9596 10.9987 12.5 10.9987V10.9987ZM12.5 17.2987C11.9462 17.2987 11.4049 17.1344 10.9444 16.8268C10.4839 16.5191 10.1251 16.0818 9.91314 15.5702C9.70121 15.0585 9.64576 14.4956 9.7538 13.9524C9.86184 13.4093 10.1285 12.9103 10.5201 12.5188C10.9117 12.1272 11.4106 11.8605 11.9537 11.7525C12.4969 11.6444 13.0599 11.6999 13.5715 11.9118C14.0831 12.1237 14.5204 12.4826 14.8281 12.9431C15.1358 13.4035 15.3 13.9449 15.3 14.4987C15.3 15.2413 15.005 15.9535 14.4799 16.4786C13.9548 17.0037 13.2426 17.2987 12.5 17.2987V17.2987ZM12.5 12.3987C12.4072 12.3987 12.3182 12.4355 12.2525 12.5012C12.1869 12.5668 12.15 12.6558 12.15 12.7487V14.2957L11.415 14.7192C11.3476 14.7574 11.2947 14.8169 11.2648 14.8883C11.2348 14.9598 11.2294 15.0392 11.2494 15.1141C11.2695 15.1889 11.3138 15.255 11.3754 15.302C11.437 15.349 11.5125 15.3742 11.59 15.3737C11.6513 15.3741 11.7117 15.3584 11.765 15.3282L12.675 14.8032L12.7065 14.7717L12.7625 14.7262C12.7762 14.7088 12.7879 14.69 12.7975 14.6702C12.8089 14.6514 12.8183 14.6314 12.8255 14.6107C12.835 14.5884 12.8409 14.5648 12.843 14.5407L12.85 14.4987V12.7487C12.85 12.6558 12.8131 12.5668 12.7475 12.5012C12.6819 12.4355 12.5928 12.3987 12.5 12.3987Z" stroke="#FFCA56" stroke-width="0.7"/>
</svg>