<svg width="18" height="13" viewBox="0 0 18 18" fill="none" xmlns="http://www.w3.org/2000/svg">
    <path d="M14.8332 0.666016H3.1665C2.50346 0.666016 1.86758 0.929408 1.39874 1.39825C0.929896 1.86709 0.666504 2.50297 0.666504 3.16602V4.14102C0.666385 4.48514 0.737309 4.82557 0.874837 5.14102V5.19102C0.99257 5.45849 1.15933 5.70157 1.3665 5.90768L6.49984 11.0077V16.4993C6.49955 16.641 6.53537 16.7803 6.6039 16.9043C6.67243 17.0282 6.77141 17.1326 6.8915 17.2077C7.02412 17.2899 7.17715 17.3332 7.33317 17.3327C7.46362 17.3319 7.59207 17.3005 7.70817 17.241L11.0415 15.5743C11.1789 15.5051 11.2945 15.3991 11.3754 15.2682C11.4563 15.1373 11.4994 14.9866 11.4998 14.8327V11.0077L16.5998 5.90768C16.807 5.70157 16.9738 5.45849 17.0915 5.19102V5.14102C17.2405 4.82804 17.3228 4.4875 17.3332 4.14102V3.16602C17.3332 2.50297 17.0698 1.86709 16.6009 1.39825C16.1321 0.929408 15.4962 0.666016 14.8332 0.666016ZM10.0748 10.0743C9.9976 10.1522 9.9365 10.2446 9.89503 10.3461C9.85356 10.4476 9.83254 10.5563 9.83317 10.666V14.316L8.1665 15.1493V10.666C8.16714 10.5563 8.14612 10.4476 8.10465 10.3461C8.06318 10.2446 8.00207 10.1522 7.92484 10.0743L3.50817 5.66602H14.4915L10.0748 10.0743ZM15.6665 3.99935H2.33317V3.16602C2.33317 2.945 2.42097 2.73304 2.57725 2.57676C2.73353 2.42048 2.94549 2.33268 3.1665 2.33268H14.8332C15.0542 2.33268 15.2661 2.42048 15.4224 2.57676C15.5787 2.73304 15.6665 2.945 15.6665 3.16602V3.99935Z" fill="white"/>
</svg>