<svg width="28" height="25" viewBox="0 0 28 25" fill="none" xmlns="http://www.w3.org/2000/svg">
    <path d="M4.12763 0H7.025C7.29588 0.000173399 7.56382 0.0561031 7.81214 0.164307C8.06047 0.272511 8.28386 0.430673 8.46842 0.628947L12.5921 5.05263C12.6537 5.1187 12.7283 5.17137 12.8111 5.20736C12.894 5.24336 12.9833 5.2619 13.0737 5.26184H26.9737C27.1482 5.26184 27.3155 5.33116 27.4389 5.45454C27.5623 5.57791 27.6316 5.74525 27.6316 5.91974V20.3934C27.6316 21.6148 27.1464 22.7862 26.2827 23.6498C25.4191 24.5135 24.2477 24.9987 23.0263 24.9987H4.60526C3.3841 24.9987 2.21293 24.5137 1.34932 23.6503C0.485699 22.7869 0.000348904 21.6159 0 20.3947V4.12763C0 3.03292 0.434874 1.98304 1.20896 1.20896C1.98304 0.434874 3.03292 0 4.12763 0Z" fill="#999999"/>
</svg>