<svg width="34" height="29" viewBox="0 0 34 29" fill="none" 
  xmlns="http://www.w3.org/2000/svg">
  <path d="M9.91667 8.5C4.44845 8.5 0 12.9485 0 18.4167C0 23.8849 4.44845 28.3333 9.91667 28.3333C15.3849 28.3333 19.8333 23.8849 19.8333 18.4167C19.8333 12.9485 15.3849 8.5 9.91667 8.5ZM9.91667 26.6806C7.85069 26.6806 5.96405 25.9128 4.51374 24.6551C4.52035 24.6443 4.52944 24.6352 4.53522 24.6245C5.90042 22.3371 5.0418 20.9396 4.40796 20.3099C4.24103 20.1438 4.05013 19.9926 3.85345 19.8405C3.33944 19.4414 2.99897 19.1778 2.99897 18.4167C2.99897 18.058 3.19895 17.9175 4.18649 17.5804C4.86578 17.3481 5.63515 17.0854 6.13181 16.4433C7.28462 14.9524 6.01694 12.6534 5.75084 12.2072C5.61449 11.9783 5.46656 11.7634 5.31285 11.5576C6.55492 10.7213 8.03746 10.2222 9.63074 10.1668C9.88857 10.604 10.3142 10.9726 10.7323 11.332C11.0893 11.6395 11.6562 11.7684 11.9479 12.132C12.1149 12.3402 12.0339 12.7419 12.0397 13.0046C12.0512 13.5261 12.3669 14.2822 13.4313 14.2822C13.4784 14.2822 13.5272 14.2806 13.5776 14.2773C13.9891 14.2484 15.2733 13.9542 16.5641 13.5278C17.5756 14.8996 18.1806 16.587 18.1806 18.4167C18.1806 22.9734 14.4734 26.6806 9.91667 26.6806Z" fill="#1F2D3D"/>
  <path d="M12.8207 15.8574C11.5183 15.8574 10.1886 16.4764 9.51264 17.397C9.05895 18.0151 8.92673 18.7299 9.13994 19.4101C9.56553 20.767 9.60685 21.5669 9.34075 22.4636C9.10441 23.2602 9.08127 24.4155 10.4308 24.9659C10.6853 25.07 10.9646 25.1229 11.2588 25.1229C12.262 25.1229 13.4496 24.5023 14.5181 23.4189C15.8023 22.1173 16.5576 20.5224 16.5394 19.1506C16.5146 17.3044 14.8809 15.8574 12.8207 15.8574Z" fill="#1F2D3D"/>
  <rect x="11.3335" width="22.6667" height="16.2917" rx="8.14583" fill="#E9446A"/>
</svg>
