<svg width="16" height="16" viewBox="0 0 16 16" fill="none" 
  xmlns="http://www.w3.org/2000/svg">
  <path d="M8 0C3.58867 0 0 3.58867 0 8C0 12.4113 3.58867 16 8 16C12.4113 16 16 12.4113 16 8C16 3.58867 12.4113 0 8 0ZM8 14.6667C6.33333 14.6667 4.81133 14.0473 3.64133 13.0327C3.64667 13.024 3.654 13.0167 3.65867 13.008C4.76 11.1627 4.06733 10.0353 3.556 9.52733C3.42133 9.39333 3.26733 9.27133 3.10867 9.14867C2.694 8.82667 2.41933 8.614 2.41933 8C2.41933 7.71067 2.58067 7.59733 3.37733 7.32533C3.92533 7.138 4.546 6.926 4.94667 6.408C5.87667 5.20533 4.854 3.35067 4.63933 2.99067C4.52933 2.806 4.41 2.63267 4.286 2.46667C5.288 1.792 6.484 1.38933 7.76933 1.34467C7.97733 1.69733 8.32067 1.99467 8.658 2.28467C8.946 2.53267 9.40333 2.63667 9.63867 2.93C9.77333 3.098 9.708 3.422 9.71267 3.634C9.722 4.05467 9.97667 4.66467 10.8353 4.66467C10.8733 4.66467 10.9127 4.66333 10.9533 4.66067C11.2853 4.63733 12.3213 4.4 13.3627 4.056C14.1787 5.16267 14.6667 6.524 14.6667 8C14.6667 11.676 11.676 14.6667 8 14.6667Z" fill="#999999"/>
  <path d="M10.3425 5.93555C9.29183 5.93555 8.21917 6.43488 7.67383 7.17755C7.30783 7.67621 7.20117 8.25288 7.37317 8.80155C7.7165 9.89621 7.74984 10.5415 7.53517 11.2649C7.3445 11.9075 7.32583 12.8395 8.4145 13.2835C8.61983 13.3675 8.84517 13.4102 9.0825 13.4102C9.89183 13.4102 10.8498 12.9095 11.7118 12.0355C12.7478 10.9855 13.3572 9.69888 13.3425 8.59221C13.3225 7.10288 12.0045 5.93555 10.3425 5.93555Z" fill="#999999"/>
</svg>
