<svg width="16" height="16" viewBox="0 0 16 16" fill="none" xmlns="http://www.w3.org/2000/svg">
<path d="M13.2267 0H2.76543C1.24049 0 0 1.24049 0 2.76543V13.2346C0 14.7595 1.24049 16 2.76543 16H13.2346C14.7595 16 16 14.7595 16 13.2346V2.76543C15.9921 1.24049 14.7516 0 13.2267 0ZM13.6928 7.99605C13.6928 11.1407 11.1407 13.6928 7.99605 13.6928C4.85136 13.6928 2.29926 11.1407 2.29926 7.99605C2.29926 4.85136 4.85136 2.29926 7.99605 2.29926C9.89235 2.29926 11.6543 3.23951 12.721 4.81185L10.7536 6.13926C10.1294 5.22272 9.10222 4.66963 7.99605 4.66963C6.16296 4.66963 4.66963 6.16296 4.66963 7.99605C4.66963 9.82914 6.16296 11.3225 7.99605 11.3225C9.41037 11.3225 10.6272 10.4296 11.1012 9.18123H7.99605V6.81086H13.6928V7.99605Z" fill="white"/>
</svg>