<svg width="32" height="32" viewBox="0 0 32 32" fill="none" xmlns="http://www.w3.org/2000/svg">
<g clip-path="url(#clip0)">
<path d="M28.5379 6.52462L22.2879 0.274625C22.1121 0.0988125 21.8736 0 21.625 0H4.125C3.60725 0 3.1875 0.41975 3.1875 0.9375V31.0625C3.1875 31.5803 3.60725 32 4.125 32H27.875C28.3928 32 28.8125 31.5803 28.8125 31.0625V7.1875C28.8125 6.93888 28.7137 6.70044 28.5379 6.52462ZM22.5625 3.20081L25.6117 6.25H22.5625V3.20081ZM5.0625 30.125V1.875H20.6875V7.1875C20.6875 7.70525 21.1072 8.125 21.625 8.125H26.9375V30.125H5.0625Z" fill="#37A000"/>
<path d="M24.125 26.25H16.625C16.1072 26.25 15.6875 26.6697 15.6875 27.1875C15.6875 27.7053 16.1072 28.125 16.625 28.125H24.125C24.6428 28.125 25.0625 27.7053 25.0625 27.1875C25.0625 26.6697 24.6428 26.25 24.125 26.25Z" fill="#37A000"/>
<path d="M24.125 22.5H16.625C16.1072 22.5 15.6875 22.9197 15.6875 23.4375C15.6875 23.9553 16.1072 24.375 16.625 24.375H24.125C24.6428 24.375 25.0625 23.9553 25.0625 23.4375C25.0625 22.9197 24.6428 22.5 24.125 22.5Z" fill="#37A000"/>
<path d="M17.25 12.5H17.875V13.125C17.875 13.6428 18.2947 14.0625 18.8125 14.0625C19.3303 14.0625 19.75 13.6428 19.75 13.125V12.5H20.375C20.8928 12.5 21.3125 12.0803 21.3125 11.5625C21.3125 11.0447 20.8928 10.625 20.375 10.625H19.75V10C19.75 9.48225 19.3303 9.0625 18.8125 9.0625C18.2947 9.0625 17.875 9.48225 17.875 10V10.625H17.25C16.7322 10.625 16.3125 11.0447 16.3125 11.5625C16.3125 12.0803 16.7322 12.5 17.25 12.5Z" fill="#37A000"/>
<path d="M16.4042 18.1065L12.9159 8.86312C12.9126 8.8545 12.9093 8.846 12.9058 8.83744C12.7276 8.4045 12.3103 8.125 11.8423 8.125H11.841C11.3725 8.1255 10.9552 8.406 10.7778 8.83969C10.775 8.84675 10.7722 8.85381 10.7695 8.86088L7.24916 18.1038C7.06484 18.5877 7.30772 19.1293 7.79159 19.3136C7.90141 19.3554 8.01416 19.3752 8.12509 19.3752C8.50284 19.3752 8.8589 19.1451 9.0014 18.7711L9.64815 17.073H14.0101L14.65 18.7685C14.8328 19.2529 15.3736 19.4975 15.8581 19.3146C16.3425 19.1318 16.587 18.5909 16.4042 18.1065V18.1065ZM10.3623 15.198L11.8392 11.3204L13.3026 15.198H10.3623Z" fill="#37A000"/>
</g>
<defs>
<clipPath id="clip0">
<rect width="32" height="32" fill="white"/>
</clipPath>
</defs>
</svg>
