<svg width="14" height="14" viewBox="0 0 14 14" fill="none" xmlns="http://www.w3.org/2000/svg">
<path d="M3.27821 11.2421V12.4542H0.222656V11.2421H3.27821ZM6.33377 10.03C6.48423 10.03 6.61444 10.09 6.72439 10.2099C6.83434 10.3299 6.88932 10.4719 6.88932 10.636V13.0603C6.88932 13.2244 6.83434 13.3665 6.72439 13.4864C6.61444 13.6064 6.48423 13.6663 6.33377 13.6663H4.11154C3.96108 13.6663 3.83087 13.6064 3.72092 13.4864C3.61097 13.3665 3.55599 13.2244 3.55599 13.0603V10.636C3.55599 10.4719 3.61097 10.3299 3.72092 10.2099C3.83087 10.09 3.96108 10.03 4.11154 10.03H6.33377ZM7.72265 6.39361V7.60573H0.222656V6.39361H7.72265ZM2.1671 1.54513V2.75725H0.222656V1.54513H2.1671ZM13.556 11.2421V12.4542H7.1671V11.2421H13.556ZM5.22266 0.333008C5.37312 0.333008 5.50333 0.392983 5.61328 0.512932C5.72323 0.632882 5.77821 0.774927 5.77821 0.939068V3.36331C5.77821 3.52745 5.72323 3.6695 5.61328 3.78945C5.50333 3.9094 5.37312 3.96937 5.22266 3.96937H3.00043C2.84997 3.96937 2.71976 3.9094 2.60981 3.78945C2.49986 3.6695 2.44488 3.52745 2.44488 3.36331V0.939068C2.44488 0.774927 2.49986 0.632882 2.60981 0.512932C2.71976 0.392983 2.84997 0.333008 3.00043 0.333008H5.22266ZM10.7782 5.18149C10.9287 5.18149 11.0589 5.24147 11.1688 5.36142C11.2788 5.48137 11.3338 5.62341 11.3338 5.78755V8.2118C11.3338 8.37594 11.2788 8.51798 11.1688 8.63793C11.0589 8.75788 10.9287 8.81786 10.7782 8.81786H8.55599C8.40553 8.81786 8.27532 8.75788 8.16536 8.63793C8.05541 8.51798 8.00043 8.37594 8.00043 8.2118V5.78755C8.00043 5.62341 8.05541 5.48137 8.16536 5.36142C8.27532 5.24147 8.40553 5.18149 8.55599 5.18149H10.7782ZM13.556 6.39361V7.60573H11.6115V6.39361H13.556ZM13.556 1.54513V2.75725H6.05599V1.54513H13.556Z" fill="white"/>
</svg>
