<svg width="20" height="15" viewBox="0 0 20 15" fill="none" xmlns="http://www.w3.org/2000/svg">
<path d="M18.125 0C18.6458 0 19.0885 0.182292 19.4531 0.546875C19.8177 0.911458 20 1.35417 20 1.875V13.125C20 13.6458 19.8177 14.0885 19.4531 14.4531C19.0885 14.8177 18.6458 15 18.125 15H1.875C1.35417 15 0.911458 14.8177 0.546875 14.4531C0.182292 14.0885 0 13.6458 0 13.125V1.875C0 1.35417 0.182292 0.911458 0.546875 0.546875C0.911458 0.182292 1.35417 0 1.875 0H18.125ZM17.8906 13.125C18.0469 13.125 18.125 13.0469 18.125 12.8906V2.10938C18.125 1.95312 18.0469 1.875 17.8906 1.875H2.10938C1.95312 1.875 1.875 1.95312 1.875 2.10938V12.8906C1.875 13.0469 1.95312 13.125 2.10938 13.125H17.8906ZM3.86719 3.90625C4.17969 3.59375 4.55729 3.4375 5 3.4375C5.44271 3.4375 5.80729 3.59375 6.09375 3.90625C6.40625 4.19271 6.5625 4.55729 6.5625 5C6.5625 5.44271 6.40625 5.82031 6.09375 6.13281C5.80729 6.41927 5.44271 6.5625 5 6.5625C4.55729 6.5625 4.17969 6.41927 3.86719 6.13281C3.58073 5.82031 3.4375 5.44271 3.4375 5C3.4375 4.55729 3.58073 4.19271 3.86719 3.90625ZM3.75 11.25V9.375L5.3125 7.8125C5.52083 7.60417 5.72917 7.60417 5.9375 7.8125L7.5 9.375L12.1875 4.6875C12.3958 4.47917 12.6042 4.47917 12.8125 4.6875L16.25 8.125V11.25H3.75Z" fill="#999999"/>
</svg>
