<svg width="32" height="32" viewBox="0 0 32 32" fill="none" xmlns="http://www.w3.org/2000/svg">
<path d="M7.5 7.5H16.5C16.7765 7.5 17 7.276 17 7V4C17 3.724 16.7765 3.5 16.5 3.5H7.5C7.2235 3.5 7 3.724 7 4V7C7 7.276 7.2235 7.5 7.5 7.5ZM8 4.5H16V6.5H8V4.5Z" fill="#EB5757"/>
<path d="M5 13.5C6.3785 13.5 7.5 12.3785 7.5 11C7.5 9.6215 6.3785 8.5 5 8.5C3.6215 8.5 2.5 9.6215 2.5 11C2.5 12.3785 3.6215 13.5 5 13.5ZM5 9.5C5.827 9.5 6.5 10.173 6.5 11C6.5 11.827 5.827 12.5 5 12.5C4.173 12.5 3.5 11.827 3.5 11C3.5 10.173 4.173 9.5 5 9.5Z" fill="#EB5757"/>
<path d="M8.5 12.5H20.5V13.5H8.5V12.5Z" fill="#EB5757"/>
<path d="M8.5 10.5H20.5V11.5H8.5V10.5Z" fill="#EB5757"/>
<path d="M5 19.5019C6.3785 19.5019 7.5 18.3804 7.5 17.0019C7.5 16.6249 7.41 16.2704 7.2595 15.9494L8.3535 14.8554L7.6465 14.1484L6.6535 15.1414C6.2115 14.7484 5.6365 14.5019 5 14.5019C3.6215 14.5019 2.5 15.6234 2.5 17.0019C2.5 18.3804 3.6215 19.5019 5 19.5019ZM5 15.5019C5.361 15.5019 5.688 15.6354 5.947 15.8484L5.1375 16.6579L4.9475 16.2784L4.053 16.7259L4.553 17.7259C4.625 17.8699 4.7615 17.9699 4.92 17.9959C4.947 17.9999 4.9735 18.0019 5 18.0019C5.1315 18.0019 5.2595 17.9499 5.3535 17.8554L6.473 16.7359C6.4885 16.8224 6.5 16.9109 6.5 17.0019C6.5 17.8289 5.827 18.5019 5 18.5019C4.173 18.5019 3.5 17.8289 3.5 17.0019C3.5 16.1749 4.173 15.5019 5 15.5019V15.5019Z" fill="#EB5757"/>
<path d="M8.5 16.5H19.5V17.5H8.5V16.5Z" fill="#EB5757"/>
<path d="M8.5 18.5H17.5V19.5H8.5V18.5Z" fill="#EB5757"/>
<path d="M31.5 11.9145C31.5 10.8585 30.641 10 29.586 10C29.0745 10 28.594 10.199 28.2325 10.561L26.6465 12.1465L23.5 15.293V1C23.5 0.724 23.2765 0.5 23 0.5H6C5.867 0.5 5.74 0.5525 5.6465 0.6465L0.6465 5.6465C0.5525 5.74 0.5 5.8675 0.5 6V31C0.5 31.276 0.7235 31.5 1 31.5H23C23.2765 31.5 23.5 31.276 23.5 31V20.707L29.3535 14.8535L29.867 14.34C29.608 15.63 28.977 16.816 28.0255 17.7675L25.6465 20.146L26.3535 20.853L28.7325 18.4745C30.146 17.061 30.938 15.196 30.99 13.2055C31.316 12.852 31.5 12.3985 31.5 11.9145V11.9145ZM28.9395 11.2675C29.11 11.0975 29.345 11 29.586 11C30.09 11 30.5 11.41 30.5 11.9145C30.5 12.1585 30.405 12.3885 30.2325 12.561L29 13.793L27.707 12.5L28.9395 11.2675ZM27 13.207L27.293 13.5L21 19.793L20.707 19.5L27 13.207ZM15.1295 25.9225L16.0995 24.306L17.194 25.4005L15.578 26.37L15.1295 25.9225ZM16.707 23.5L20 20.207L21.293 21.5L18 24.793L16.707 23.5ZM5.5 2.207V5.5H2.207L5.5 2.207ZM22.5 30.5H1.5V6.5H6C6.2765 6.5 6.5 6.276 6.5 6V1.5H22.5V16.293L19.6465 19.1465L15.6465 23.1465C15.6165 23.1765 15.6 23.213 15.5795 23.2475L15.5715 23.2425L14.0715 25.7425C13.9535 25.9395 13.9845 26.191 14.1465 26.3535L14.293 26.5L13.1465 27.6465L13.8535 28.3535L15 27.207L15.1465 27.3535C15.2425 27.45 15.371 27.5 15.5 27.5C15.5885 27.5 15.677 27.4765 15.7575 27.4285L18.2575 25.9285L18.2525 25.9205C18.287 25.9 18.3235 25.883 18.3535 25.8535L22.3535 21.8535L22.5 21.707V30.5ZM22 20.793L21.707 20.5L28 14.207L28.293 14.5L22 20.793Z" fill="#EB5757"/>
<path d="M2.5 27.5H12.5V28.5H2.5V27.5Z" fill="#EB5757"/>
<path d="M2.5 25.5H12.5V26.5H2.5V25.5Z" fill="#EB5757"/>
<path d="M2.5 23.5H12.5V24.5H2.5V23.5Z" fill="#EB5757"/>
<path d="M2.5 21.5H7.5V22.5H2.5V21.5Z" fill="#EB5757"/>
</svg>
