<svg width="16" height="18" viewBox="0 0 16 18" fill="none" xmlns="http://www.w3.org/2000/svg">
<path d="M13.0003 2.73318C11.6742 1.40709 9.87563 0.662109 8.00027 0.662109C6.1249 0.662109 4.32635 1.40709 3.00027 2.73318C1.67418 4.05926 0.929199 5.85781 0.929199 7.73318C0.929199 9.60854 1.67418 11.4071 3.00027 12.7332L7.39193 17.1332C7.4694 17.2113 7.56157 17.2733 7.66312 17.3156C7.76467 17.3579 7.87359 17.3797 7.9836 17.3797C8.09361 17.3797 8.20253 17.3579 8.30408 17.3156C8.40563 17.2733 8.4978 17.2113 8.57527 17.1332L13.0003 12.6915C14.3208 11.3709 15.0627 9.57989 15.0627 7.71234C15.0627 5.8448 14.3208 4.05374 13.0003 2.73318ZM11.8086 11.4998L8.00027 15.3248L4.19193 11.4998C3.43955 10.7468 2.92733 9.78755 2.72001 8.74342C2.5127 7.69929 2.61959 6.61713 3.02719 5.63374C3.43478 4.65036 4.12478 3.80989 5.00996 3.21857C5.89514 2.62726 6.93575 2.31166 8.00027 2.31166C9.06478 2.31166 10.1054 2.62726 10.9906 3.21857C11.8758 3.80989 12.5658 4.65036 12.9733 5.63374C13.3809 6.61713 13.4878 7.69929 13.2805 8.74342C13.0732 9.78755 12.561 10.7468 11.8086 11.4998ZM5.50027 5.17484C4.82753 5.84965 4.44976 6.76365 4.44976 7.71651C4.44976 8.66937 4.82753 9.58337 5.50027 10.2582C6.00007 10.7588 6.63659 11.1007 7.32998 11.241C8.02336 11.3813 8.74273 11.3137 9.39783 11.0466C10.0529 10.7796 10.6146 10.3251 11.0123 9.74005C11.4101 9.15503 11.6262 8.46557 11.6336 7.75818C11.6374 7.28585 11.5464 6.81756 11.366 6.381C11.1857 5.94444 10.9196 5.54847 10.5836 5.21651C10.2533 4.87866 9.8595 4.60946 9.42479 4.4244C8.99007 4.23934 8.52305 4.14207 8.0506 4.1382C7.57815 4.13433 7.1096 4.22392 6.67191 4.40183C6.23422 4.57974 5.83604 4.84245 5.50027 5.17484ZM9.4086 9.07484C9.0928 9.39546 8.67544 9.59643 8.22787 9.64339C7.7803 9.69035 7.33032 9.58038 6.95486 9.33228C6.57939 9.08419 6.30177 8.71338 6.16944 8.28325C6.03711 7.85311 6.05831 7.39037 6.2294 6.97414C6.40049 6.5579 6.71085 6.21402 7.10742 6.00129C7.50399 5.78856 7.96214 5.72018 8.40355 5.80786C8.84495 5.89553 9.24219 6.13381 9.52736 6.48195C9.81253 6.8301 9.96791 7.26649 9.96694 7.71651C9.95481 8.2309 9.73901 8.71945 9.36694 9.07484H9.4086Z" fill="#32AF85"/>
</svg>
