<svg width="13" height="16" viewBox="0 1 13 16" fill="none" xmlns="http://www.w3.org/2000/svg">
    <path d="M3.57143 7.42857V5.28571C3.57143 3.71205 4.85491 2.42857 6.42857 2.42857C8.00223 2.42857 9.28571 3.71205 9.28571 5.28571V7.42857H3.57143ZM12.8571 8.5C12.8571 7.90848 12.3772 7.42857 11.7857 7.42857H11.4286V5.28571C11.4286 2.54018 9.17411 0.285713 6.42857 0.285713C3.68304 0.285713 1.42857 2.54018 1.42857 5.28571V7.42857H1.07143C0.479911 7.42857 0 7.90848 0 8.5V14.9286C0 15.5201 0.479911 16 1.07143 16H11.7857C12.3772 16 12.8571 15.5201 12.8571 14.9286V8.5Z" fill="#333333"/>
</svg>