<svg width="247" height="245" viewBox="0 0 247 245" fill="none" xmlns="http://www.w3.org/2000/svg">
<path d="M0.988403 191.413V52.8764C0.988403 23.6622 24.7568 0 54.1022 0H193.26C222.606 0 246.374 23.6622 246.374 52.8764V191.413C246.374 220.627 222.606 244.289 193.26 244.289H54.1022C24.7568 244.289 0.988403 220.627 0.988403 191.413Z" fill="url(#paint0_linear)"/>
<path d="M80.6591 94.12C80.9247 94.12 81.1902 94.12 81.4558 94.12H140.014L156.877 77.3317C165.907 67.9462 166.305 53.6695 157.807 45.2093C149.309 36.7491 134.968 37.1457 125.54 46.1346L76.6756 94.7809C77.8706 94.3843 79.1985 94.2522 80.6591 94.12Z" fill="white"/>
<path d="M81.4557 144.353H105.357L146.786 103.109C146.918 102.977 147.184 102.712 147.45 102.58C148.512 101.655 149.574 100.73 150.636 100.069H81.5885C68.5756 100.333 58.2184 110.115 58.2184 122.144C57.9529 134.306 68.4428 144.088 81.4557 144.353Z" fill="white"/>
<path d="M183.302 106.546C174.803 98.0857 160.463 98.4823 151.035 107.471L91.1491 167.089C82.1197 176.475 81.7214 190.752 90.2196 199.212C98.7178 207.672 113.059 207.275 122.486 198.286L182.372 138.668C191.401 129.283 191.8 115.006 183.302 106.546Z" fill="white"/>
<defs>
<linearGradient id="paint0_linear" x1="123.7" y1="-0.40424" x2="123.7" y2="251.106" gradientUnits="userSpaceOnUse">
<stop stop-color="#6FDA44"/>
<stop offset="0.9944" stop-color="#37A000"/>
</linearGradient>
</defs>
</svg>
