<svg width="18" height="18" viewBox="0 0 18 18" fill="none" xmlns="http://www.w3.org/2000/svg">
<path d="M9.01934 0.28125C4.09641 0.28125 0.28125 3.87914 0.28125 8.73879C0.28125 11.2806 1.32574 13.4771 3.0259 14.9945C3.31945 15.2585 3.25898 15.4114 3.30891 17.0416C3.31284 17.1558 3.34465 17.2673 3.40156 17.3664C3.45847 17.4655 3.53876 17.5491 3.63543 17.61C3.73209 17.6709 3.84219 17.7073 3.95612 17.7159C4.07005 17.7245 4.18436 17.7051 4.28906 17.6593C6.14918 16.8402 6.17309 16.7755 6.48844 16.8613C11.8775 18.3445 17.7188 14.8957 17.7188 8.73879C17.7188 3.87914 13.9426 0.28125 9.01934 0.28125ZM14.2661 6.78973L11.6996 10.8527C11.6027 11.0055 11.4753 11.1366 11.3254 11.2379C11.1754 11.3391 11.0062 11.4083 10.8282 11.4411C10.6503 11.4738 10.4675 11.4695 10.2913 11.4283C10.1151 11.3872 9.94936 11.3101 9.80437 11.2018L7.7625 9.67359C7.67122 9.60513 7.5602 9.56812 7.44609 9.56812C7.33199 9.56812 7.22097 9.60513 7.12969 9.67359L4.37449 11.7633C4.00676 12.0421 3.52512 11.6016 3.77297 11.2124L6.33938 7.14937C6.43625 6.99655 6.56366 6.8654 6.71361 6.76413C6.86356 6.66286 7.03282 6.59367 7.21077 6.56089C7.38872 6.52812 7.57152 6.53246 7.74771 6.57365C7.9239 6.61485 8.08968 6.692 8.23465 6.80027L10.2758 8.32816C10.3671 8.39662 10.4781 8.43363 10.5922 8.43363C10.7063 8.43363 10.8174 8.39662 10.9086 8.32816L13.6652 6.24059C14.0323 5.96004 14.5139 6.4002 14.2661 6.78973Z" fill="#666666"/>
</svg>