<svg width="23" height="23" viewBox="0 0 23 23" fill="none" xmlns="http://www.w3.org/2000/svg">
<path d="M11.9911 0.999224C10.5578 0.947011 9.12886 1.18581 7.79045 1.70121C6.45205 2.2166 5.23198 2.9979 4.20392 3.99792C3.17586 4.99795 2.36113 6.19595 1.80893 7.5196C1.25673 8.84324 0.978521 10.2651 0.991092 11.6992C0.972165 13.1771 1.26663 14.6423 1.85509 15.9981C2.44355 17.3539 3.31264 18.5697 4.40509 19.5652L4.45709 21.2552C4.47164 21.7227 4.66755 22.1661 5.00334 22.4916C5.33912 22.8171 5.78842 22.9992 6.25609 22.9992C6.50596 22.9989 6.75309 22.9472 6.98209 22.8472L8.90309 21.9992C9.91045 22.2673 10.9487 22.4018 11.9911 22.3992C13.4244 22.4514 14.8534 22.2126 16.1919 21.6973C17.5303 21.1819 18.7505 20.4006 19.7786 19.4006C20.8067 18.4006 21.6216 17.2026 22.1739 15.8789C22.7262 14.5553 23.0045 13.1334 22.9921 11.6992C23.0045 10.2651 22.7262 8.84335 22.174 7.51977C21.6217 6.19619 20.807 4.99824 19.779 3.99825C18.7509 2.99825 17.5309 2.21695 16.1926 1.7015C14.8542 1.18605 13.4253 0.947154 11.9921 0.999224H11.9911ZM11.9911 20.3992C11.101 20.402 10.2146 20.2843 9.35609 20.0492C8.95864 19.9422 8.53649 19.9746 8.16009 20.1412L6.44609 20.8972L6.40109 19.4042C6.39128 19.1623 6.33304 18.9248 6.2298 18.7058C6.12657 18.4868 5.98045 18.2907 5.80009 18.1292C4.90037 17.3197 4.18416 16.3272 3.69951 15.2182C3.21486 14.1092 2.97298 12.9094 2.99009 11.6992C2.98379 10.5294 3.21455 9.37049 3.66845 8.29233C4.12236 7.21417 4.78999 6.23915 5.63107 5.4261C6.47216 4.61306 7.46924 3.97885 8.56216 3.56174C9.65508 3.14463 10.8212 2.95328 11.9901 2.99922C13.1574 2.95964 14.3208 3.15538 15.4108 3.57478C16.5009 3.99417 17.4955 4.62865 18.3353 5.44043C19.175 6.25221 19.8428 7.22468 20.2989 8.29994C20.755 9.37519 20.9901 10.5312 20.9901 11.6992C20.9901 12.8672 20.755 14.0233 20.2989 15.0985C19.8428 16.1738 19.175 17.1462 18.3353 17.958C17.4955 18.7698 16.5009 19.4043 15.4108 19.8237C14.3208 20.2431 13.1574 20.4388 11.9901 20.3992H11.9911ZM15.7261 8.58422L13.4131 11.3392L10.0661 9.28322C9.86186 9.15751 9.61918 9.10954 9.38247 9.14811C9.14577 9.18667 8.93086 9.30918 8.77709 9.49322L5.72609 13.1292C5.63473 13.2287 5.56446 13.3456 5.51953 13.473C5.47459 13.6004 5.45592 13.7355 5.46464 13.8703C5.47336 14.0051 5.5093 14.1367 5.57027 14.2572C5.63125 14.3777 5.716 14.4846 5.81942 14.5715C5.92284 14.6583 6.04279 14.7233 6.17202 14.7626C6.30125 14.8018 6.43709 14.8145 6.57135 14.7998C6.7056 14.7851 6.83549 14.7433 6.95318 14.6771C7.07086 14.6108 7.17391 14.5214 7.25609 14.4142L9.75509 11.4392L13.1021 13.4952C13.3063 13.6209 13.549 13.6689 13.7857 13.6303C14.0224 13.5918 14.2373 13.4693 14.3911 13.2852L17.2571 9.87022C17.3452 9.7702 17.4125 9.65357 17.4549 9.52717C17.4973 9.40078 17.514 9.26719 17.504 9.13425C17.494 9.00131 17.4576 8.8717 17.3968 8.75306C17.336 8.63441 17.2521 8.52912 17.15 8.44338C17.0479 8.35763 16.9297 8.29316 16.8024 8.25376C16.675 8.21436 16.5411 8.20083 16.4084 8.21395C16.2757 8.22707 16.147 8.26659 16.0298 8.33018C15.9127 8.39377 15.8094 8.48014 15.7261 8.58422Z" fill="#666666"/>
</svg>
