<svg width="11" height="18" viewBox="0 0 11 18" fill="none" xmlns="http://www.w3.org/2000/svg">
    <path d="M6.21429 16.2857C6.21429 16.875 5.73214 17.3571 5.14286 17.3571C4.55357 17.3571 4.07143 16.875 4.07143 16.2857C4.07143 15.6964 4.55357 15.2143 5.14286 15.2143C5.73214 15.2143 6.21429 15.6964 6.21429 16.2857ZM9 14.1429C9 14.3705 8.79911 14.5714 8.57143 14.5714H1.71429C1.48661 14.5714 1.28571 14.3705 1.28571 14.1429V4.71428C1.28571 4.48661 1.48661 4.28571 1.71429 4.28571H8.57143C8.79911 4.28571 9 4.48661 9 4.71428V14.1429ZM6.42857 2.78571C6.42857 2.90625 6.33482 3 6.21429 3H4.07143C3.95089 3 3.85714 2.90625 3.85714 2.78571C3.85714 2.66518 3.95089 2.57143 4.07143 2.57143H6.21429C6.33482 2.57143 6.42857 2.66518 6.42857 2.78571ZM10.2857 2.57143C10.2857 1.63393 9.50893 0.857142 8.57143 0.857142H1.71429C0.776786 0.857142 0 1.63393 0 2.57143V16.2857C0 17.2232 0.776786 18 1.71429 18H8.57143C9.50893 18 10.2857 17.2232 10.2857 16.2857V2.57143Z" fill="#333333"/>
</svg>
