<svg width="28" height="25" viewBox="0 0 28 25" fill="none" xmlns="http://www.w3.org/2000/svg">
<path d="M24.3125 3.78125H19.7292L17.4375 0.34375H10.5625L8.27083 3.78125H3.6875C2.77582 3.78125 1.90148 4.14341 1.25682 4.78807C0.612164 5.43273 0.25 6.30707 0.25 7.21875L0.25 20.9688C0.25 21.8804 0.612164 22.7548 1.25682 23.3994C1.90148 24.0441 2.77582 24.4062 3.6875 24.4062H24.3125C25.2242 24.4062 26.0985 24.0441 26.7432 23.3994C27.3878 22.7548 27.75 21.8804 27.75 20.9688V7.21875C27.75 6.30707 27.3878 5.43273 26.7432 4.78807C26.0985 4.14341 25.2242 3.78125 24.3125 3.78125ZM14 19.8229C12.8669 19.8229 11.7592 19.4869 10.817 18.8574C9.87489 18.2278 9.14057 17.3331 8.70694 16.2862C8.27331 15.2393 8.15986 14.0874 8.38092 12.976C8.60198 11.8647 9.14763 10.8439 9.94887 10.0426C10.7501 9.24138 11.7709 8.69573 12.8823 8.47467C13.9936 8.25361 15.1456 8.36706 16.1925 8.80069C17.2393 9.23432 18.1341 9.96864 18.7636 10.9108C19.3932 11.853 19.7292 12.9606 19.7292 14.0938C19.7292 15.6132 19.1256 17.0705 18.0511 18.1449C16.9767 19.2193 15.5195 19.8229 14 19.8229Z" fill="white"/>
</svg>