<svg width="14" height="15" viewBox="0 0 14 15" fill="none" xmlns="http://www.w3.org/2000/svg">
<path fill-rule="evenodd" clip-rule="evenodd" d="M6.36856 0.958496V2.31476C5.38829 2.43561 4.49531 2.82504 3.75003 3.40245L2.79662 2.44233C3.81488 1.60629 5.05764 1.09003 6.36856 0.958496ZM7.74497 6.15527L5.69714 4.61772V10.6605L7.74497 9.12293L9.72565 7.6391L7.74497 6.15527ZM2.80333 4.34915L1.84321 3.39574C1.00717 4.414 0.49091 5.65676 0.359375 6.96768H1.71564C1.83649 5.98741 2.22591 5.09443 2.80333 4.34915ZM0.359375 8.31051H1.71564C1.83649 9.29078 2.22591 10.1838 2.80333 10.9223L1.84321 11.8825C1.00717 10.8642 0.49091 9.62144 0.359375 8.31051ZM2.79662 12.8359C3.81555 13.6708 5.05795 14.1869 6.36856 14.3197V12.9634C5.41354 12.8439 4.5087 12.468 3.75003 11.8757L2.79662 12.8359ZM7.74497 14.3197C11.1222 13.9638 13.7542 11.1036 13.7542 7.6391C13.7542 4.17458 11.1222 1.31435 7.74497 0.958496V2.31476C10.3769 2.6639 12.4113 4.91986 12.4113 7.6391C12.4113 10.3583 10.3769 12.6143 7.74497 12.9634V14.3197Z" fill="#37A000"/>
</svg>