<svg width="12" height="12" viewBox="0 0 12 12" fill="none" xmlns="http://www.w3.org/2000/svg">
<path d="M10.667 5.33268H6.66699V1.33268C6.66699 1.15587 6.59675 0.986302 6.47173 0.861278C6.34671 0.736254 6.17714 0.666016 6.00033 0.666016C5.82351 0.666016 5.65394 0.736254 5.52892 0.861278C5.4039 0.986302 5.33366 1.15587 5.33366 1.33268V5.33268H1.33366C1.15685 5.33268 0.987279 5.40292 0.862254 5.52794C0.73723 5.65297 0.666992 5.82254 0.666992 5.99935C0.666992 6.17616 0.73723 6.34573 0.862254 6.47075C0.987279 6.59578 1.15685 6.66602 1.33366 6.66602H5.33366V10.666C5.33366 10.8428 5.4039 11.0124 5.52892 11.1374C5.65394 11.2624 5.82351 11.3327 6.00033 11.3327C6.17714 11.3327 6.34671 11.2624 6.47173 11.1374C6.59675 11.0124 6.66699 10.8428 6.66699 10.666V6.66602H10.667C10.8438 6.66602 11.0134 6.59578 11.1384 6.47075C11.2634 6.34573 11.3337 6.17616 11.3337 5.99935C11.3337 5.82254 11.2634 5.65297 11.1384 5.52794C11.0134 5.40292 10.8438 5.33268 10.667 5.33268Z" fill="white"/>
</svg>
