<svg width="20" height="16" viewBox="0 0 20 16" fill="none" xmlns="http://www.w3.org/2000/svg">
<path d="M19.9829 14.9632C19.9154 9.40351 15.1228 4.87566 9.15922 4.67344V1.74996C9.15922 1.0607 8.59898 0.5 7.91023 0.5C7.60043 0.5 7.30121 0.618828 7.06945 0.834453C7.06945 0.834453 1.80273 5.71059 0.287852 7.23113C0.102461 7.41832 0 7.69094 0 7.99976C0 8.30859 0.102461 8.58121 0.287852 8.76879C1.80273 10.2889 7.06945 15.1651 7.06945 15.1651C7.30121 15.3807 7.60043 15.4995 7.91023 15.4995C8.59895 15.4995 9.15922 14.9388 9.15922 14.2496V11.3359C15.1545 11.4201 19.1511 13.3125 19.1511 15.0829C19.1511 15.3132 19.3373 15.4995 19.5674 15.4995C19.5739 15.5003 19.5804 15.4999 19.5837 15.4995C19.8138 15.4995 20 15.3132 20 15.0829C20 15.0414 19.9943 15.0011 19.9829 14.9632Z" fill="#999999"/>
</svg>