<svg width="16" height="16" viewBox="0 0 16 16" fill="none" xmlns="http://www.w3.org/2000/svg">
<rect width="16" height="16" rx="4" fill="#37A000"/>
<path d="M7.92983 12.144C10.3298 12.144 11.4938 10.944 11.4938 9.54C11.4938 6.456 6.60983 7.524 6.60983 5.976C6.60983 5.448 7.05383 5.016 8.20583 5.016C8.94983 5.016 9.75383 5.232 10.5338 5.676L11.1338 4.2C10.3538 3.708 9.27383 3.456 8.21783 3.456C5.82983 3.456 4.67783 4.644 4.67783 6.072C4.67783 9.192 9.56183 8.112 9.56183 9.684C9.56183 10.2 9.09383 10.584 7.94183 10.584C6.93383 10.584 5.87783 10.224 5.16983 9.708L4.50983 11.172C5.25383 11.748 6.59783 12.144 7.92983 12.144Z" fill="white"/>
</svg>