<svg viewBox="0 0 15 15" fill="none" 
  xmlns="http://www.w3.org/2000/svg">
  <path fill-rule="evenodd" clip-rule="evenodd" d="M6 12C2.68629 12 0 9.31371 0 6C0 2.68629 2.68629 0 6 0C9.31371 0 12 2.68629 12 6C12 9.31371 9.31371 12 6 12ZM5.99992 10.6667C8.57725 10.6667 10.6666 8.57734 10.6666 6.00001C10.6666 3.42268 8.57725 1.33334 5.99992 1.33334C3.42259 1.33334 1.33325 3.42268 1.33325 6.00001C1.33325 8.57734 3.42259 10.6667 5.99992 10.6667ZM14.4715 14.4714C14.7318 14.211 14.7318 13.7889 14.4715 13.5286L11.8048 10.8619C11.5445 10.6016 11.1224 10.6016 10.862 10.8619C10.6017 11.1223 10.6017 11.5444 10.862 11.8047L13.5287 14.4714C13.789 14.7317 14.2111 14.7317 14.4715 14.4714Z" fill="#CCCCCC"/>
</svg>
