<svg width="16" height="16" viewBox="0 0 16 16" fill="none" xmlns="http://www.w3.org/2000/svg">
    <path fill-rule="evenodd" clip-rule="evenodd" d="M6.66699 12.666C3.35328 12.666 0.666992 9.97972 0.666992 6.66602C0.666992 3.35231 3.35328 0.666016 6.66699 0.666016C9.9807 0.666016 12.667 3.35231 12.667 6.66602C12.667 9.97972 9.9807 12.666 6.66699 12.666ZM6.66698 11.3327C9.2443 11.3327 11.3336 9.24334 11.3336 6.66602C11.3336 4.08869 9.2443 1.99935 6.66698 1.99935C4.08965 1.99935 2.00031 4.08869 2.00031 6.66602C2.00031 9.24334 4.08965 11.3327 6.66698 11.3327ZM15.1384 15.1374C15.3988 14.8771 15.3988 14.455 15.1384 14.1946L12.4717 11.5279C12.2114 11.2676 11.7893 11.2676 11.5289 11.5279C11.2686 11.7883 11.2686 12.2104 11.5289 12.4708L14.1956 15.1374C14.456 15.3978 14.8781 15.3978 15.1384 15.1374Z" fill="#CCCCCC"/>
</svg>