<svg width="16" height="14" viewBox="0 0 16 14" fill="none" xmlns="http://www.w3.org/2000/svg">
<path d="M14.9199 0.629999C14.7298 0.471035 14.5001 0.366621 14.2554 0.327879C14.0106 0.289137 13.7599 0.317518 13.5299 0.409999L1.51995 5.26C1.26312 5.36582 1.04453 5.54722 0.893157 5.78013C0.741788 6.01304 0.664794 6.28646 0.672387 6.56413C0.67998 6.8418 0.7718 7.11061 0.93567 7.3349C1.09954 7.55919 1.32772 7.72837 1.58995 7.82L4.01995 8.66L5.36995 13.14C5.3885 13.2001 5.41543 13.2574 5.44995 13.31C5.45995 13.32 5.45995 13.32 5.46995 13.33C5.50931 13.3834 5.55651 13.4306 5.60995 13.47C5.62595 13.4841 5.64263 13.4975 5.65995 13.51C5.72113 13.5509 5.78873 13.5814 5.85995 13.6H5.86995H5.87995C5.92286 13.6075 5.96639 13.6108 6.00995 13.61H6.01995C6.0911 13.6112 6.16199 13.6011 6.22995 13.58C6.24995 13.57 6.25995 13.57 6.26995 13.56C6.31967 13.5391 6.36667 13.5122 6.40995 13.48C6.44327 13.45 6.4766 13.42 6.50995 13.39L8.31995 11.39L11.0199 13.49C11.2582 13.6723 11.55 13.7708 11.8499 13.77C12.1657 13.7702 12.472 13.6621 12.7177 13.4637C12.9634 13.2653 13.1336 12.9887 13.1999 12.68L15.3799 1.95C15.4299 1.70894 15.4135 1.45885 15.3325 1.22638C15.2515 0.993907 15.1089 0.787786 14.9199 0.629999ZM6.27995 8.87C6.188 8.9633 6.12542 9.08151 6.09995 9.21L5.88995 10.22L5.35995 8.48L8.08995 7.06L6.27995 8.87ZM11.8399 12.43L8.64995 9.95C8.51628 9.84574 8.34807 9.79602 8.1792 9.81087C8.01033 9.82571 7.85337 9.90402 7.73995 10.03L7.15995 10.67L7.36995 9.68L12.1099 4.93C12.2158 4.81568 12.2785 4.66804 12.2873 4.51247C12.2961 4.3569 12.2504 4.20314 12.158 4.07764C12.0657 3.95214 11.9325 3.86275 11.7813 3.82485C11.6302 3.78695 11.4706 3.80292 11.3299 3.87L4.51995 7.41L2.01995 6.5L14.0699 1.68L11.8399 12.43Z" fill="white"/>
</svg>
