<svg width="21" height="21" viewBox="0 1 21 21" fill="none" xmlns="http://www.w3.org/2000/svg">
    <path d="M17.0002 12.9991C16.4093 13.003 15.8267 13.1378 15.2942 13.3937C14.7616 13.6496 14.2924 14.0203 13.9202 14.4791L8.82015 12.1291C9.05994 11.3949 9.05994 10.6034 8.82015 9.86914L13.9202 7.51914C14.5218 8.2451 15.3605 8.73522 16.2883 8.90298C17.2161 9.07074 18.1734 8.90536 18.9911 8.43604C19.8088 7.96672 20.4345 7.22361 20.7577 6.33788C21.0809 5.45215 21.0808 4.48072 20.7575 3.59504C20.4341 2.70937 19.8083 1.96638 18.9905 1.49721C18.1726 1.02803 17.2154 0.862831 16.2876 1.03076C15.3598 1.19869 14.5212 1.68896 13.9197 2.41503C13.3182 3.14111 12.9925 4.05632 13.0002 4.99914C13.0032 5.23737 13.0266 5.47491 13.0702 5.70914L7.79015 8.13914C7.22723 7.58872 6.5144 7.21665 5.74096 7.06957C4.96752 6.92248 4.16787 7.00691 3.4422 7.31227C2.71653 7.61764 2.09711 8.13036 1.66155 8.7862C1.22599 9.44204 0.993652 10.2118 0.993652 10.9991C0.993652 11.7864 1.22599 12.5562 1.66155 13.2121C2.09711 13.8679 2.71653 14.3806 3.4422 14.686C4.16787 14.9914 4.96752 15.0758 5.74096 14.9287C6.5144 14.7816 7.22723 14.4096 7.79015 13.8591L13.0702 16.2891C13.0266 16.5234 13.0032 16.7609 13.0002 16.9991C13.0002 17.7903 13.2347 18.5636 13.6743 19.2214C14.1138 19.8792 14.7385 20.3919 15.4694 20.6947C16.2003 20.9974 17.0046 21.0766 17.7805 20.9223C18.5564 20.7679 19.2692 20.387 19.8286 19.8276C20.388 19.2682 20.769 18.5554 20.9233 17.7795C21.0776 17.0036 20.9984 16.1993 20.6957 15.4684C20.3929 14.7375 19.8802 14.1128 19.2224 13.6733C18.5646 13.2337 17.7913 12.9991 17.0002 12.9991ZM17.0002 2.99914C17.3957 2.99914 17.7824 3.11644 18.1113 3.3362C18.4402 3.55596 18.6965 3.86832 18.8479 4.23377C18.9993 4.59922 19.0389 5.00136 18.9617 5.38932C18.8846 5.77728 18.6941 6.13365 18.4144 6.41335C18.1347 6.69306 17.7783 6.88354 17.3903 6.96071C17.0024 7.03788 16.6002 6.99827 16.2348 6.8469C15.8693 6.69552 15.557 6.43918 15.3372 6.11028C15.1174 5.78138 15.0002 5.3947 15.0002 4.99914C15.0002 4.4687 15.2109 3.96 15.5859 3.58492C15.961 3.20985 16.4697 2.99914 17.0002 2.99914ZM5.00015 12.9991C4.60459 12.9991 4.21791 12.8818 3.88901 12.6621C3.56011 12.4423 3.30377 12.13 3.15239 11.7645C3.00102 11.3991 2.96141 10.9969 3.03858 10.609C3.11575 10.221 3.30623 9.86463 3.58594 9.58492C3.86564 9.30522 4.22201 9.11474 4.60997 9.03757C4.99793 8.9604 5.40006 9 5.76552 9.15138C6.13097 9.30275 6.44333 9.5591 6.66309 9.888C6.88285 10.2169 7.00015 10.6036 7.00015 10.9991C7.00015 11.5296 6.78944 12.0383 6.41436 12.4134C6.03929 12.7884 5.53058 12.9991 5.00015 12.9991ZM17.0002 18.9991C16.6046 18.9991 16.2179 18.8818 15.889 18.6621C15.5601 18.4423 15.3038 18.13 15.1524 17.7645C15.001 17.3991 14.9614 16.9969 15.0386 16.609C15.1158 16.221 15.3062 15.8646 15.5859 15.5849C15.8656 15.3052 16.222 15.1147 16.61 15.0376C16.9979 14.9604 17.4001 15 17.7655 15.1514C18.131 15.3028 18.4433 15.5591 18.6631 15.888C18.8829 16.2169 19.0002 16.6036 19.0002 16.9991C19.0002 17.5296 18.7894 18.0383 18.4144 18.4134C18.0393 18.7884 17.5306 18.9991 17.0002 18.9991Z" fill="#666666"/>
</svg>