<svg width="20" height="21" viewBox="0 0 20 21" fill="none" xmlns="http://www.w3.org/2000/svg">
<path d="M2.8125 3.66406C4.71354 1.76302 7.00521 0.8125 9.6875 0.8125C12.3698 0.8125 14.6484 1.76302 16.5234 3.66406C18.4245 5.53906 19.375 7.81771 19.375 10.5C19.375 13.1823 18.4245 15.474 16.5234 17.375C14.6484 19.25 12.3698 20.1875 9.6875 20.1875C7.00521 20.1875 4.71354 19.25 2.8125 17.375C0.9375 15.474 0 13.1823 0 10.5C0 7.81771 0.9375 5.53906 2.8125 3.66406ZM4.14062 16.0469C5.67708 17.5573 7.52604 18.3125 9.6875 18.3125C11.849 18.3125 13.6849 17.5573 15.1953 16.0469C16.7318 14.5104 17.5 12.6615 17.5 10.5C17.5 8.33854 16.7318 6.5026 15.1953 4.99219C13.6849 3.45573 11.849 2.6875 9.6875 2.6875C7.52604 2.6875 5.67708 3.45573 4.14062 4.99219C2.63021 6.5026 1.875 8.33854 1.875 10.5C1.875 12.6615 2.63021 14.5104 4.14062 16.0469ZM7.42188 9.52344C7.1875 9.75781 6.90104 9.875 6.5625 9.875C6.22396 9.875 5.92448 9.75781 5.66406 9.52344C5.42969 9.26302 5.3125 8.96354 5.3125 8.625C5.3125 8.28646 5.42969 8 5.66406 7.76562C5.92448 7.50521 6.22396 7.375 6.5625 7.375C6.90104 7.375 7.1875 7.50521 7.42188 7.76562C7.68229 8 7.8125 8.28646 7.8125 8.625C7.8125 8.96354 7.68229 9.26302 7.42188 9.52344ZM13.6719 9.52344C13.4375 9.75781 13.151 9.875 12.8125 9.875C12.474 9.875 12.1745 9.75781 11.9141 9.52344C11.6797 9.26302 11.5625 8.96354 11.5625 8.625C11.5625 8.28646 11.6797 8 11.9141 7.76562C12.1745 7.50521 12.474 7.375 12.8125 7.375C13.151 7.375 13.4375 7.50521 13.6719 7.76562C13.9323 8 14.0625 8.28646 14.0625 8.625C14.0625 8.96354 13.9323 9.26302 13.6719 9.52344ZM12.9688 12.7266C13.125 12.5182 13.3333 12.401 13.5938 12.375C13.8542 12.349 14.0755 12.4271 14.2578 12.6094C14.4661 12.7656 14.5833 12.974 14.6094 13.2344C14.6354 13.4948 14.5703 13.7161 14.4141 13.8984C13.1901 15.3828 11.6146 16.125 9.6875 16.125C7.76042 16.125 6.1849 15.3828 4.96094 13.8984C4.80469 13.7161 4.73958 13.4948 4.76562 13.2344C4.79167 12.974 4.89583 12.7656 5.07812 12.6094C5.28646 12.4271 5.52083 12.349 5.78125 12.375C6.04167 12.401 6.25 12.5182 6.40625 12.7266C7.26562 13.7422 8.35938 14.25 9.6875 14.25C11.0156 14.25 12.1094 13.7422 12.9688 12.7266Z" fill="#999999"/>
</svg>
