<svg width="25" height="22" viewBox="0 0 25 22" fill="none" xmlns="http://www.w3.org/2000/svg">
<path d="M19 11.6396C19.0034 12.8817 18.6951 14.1069 18.1 15.2156C17.3944 16.5441 16.3098 17.6615 14.9675 18.4427C13.6251 19.2239 12.0782 19.638 10.5 19.6385C9.18013 19.6418 7.87812 19.3516 6.7 18.7916L1 20.5796L2.9 15.2156C2.30493 14.1069 1.99656 12.8817 2 11.6396C2.00061 10.1544 2.44061 8.69867 3.27072 7.43549C4.10083 6.17232 5.28826 5.15157 6.7 4.4876C7.87812 3.92761 9.18013 3.63741 10.5 3.64065H11C13.0843 3.74887 15.053 4.57677 16.5291 5.96586C18.0052 7.35494 18.885 9.20759 19 11.1691V11.6396Z" stroke="#222222" stroke-width="2" stroke-linecap="round" stroke-linejoin="round"/>
</svg>
