<svg width="22" height="22" viewBox="0 0 22 22" fill="none" xmlns="http://www.w3.org/2000/svg">
<path d="M16.5 7.95494V4.86119L17.6296 5.47732C17.963 5.65913 18.3806 5.53631 18.5624 5.203C18.7443 4.86959 18.6214 4.45185 18.288 4.27005L11.4788 0.557888C11.1803 0.395188 10.8197 0.395224 10.5213 0.557984L3.71163 4.27218C3.37837 4.45395 3.25558 4.87148 3.43738 5.20472C3.61928 5.53814 4.03712 5.66081 4.37039 5.47864L5.5 4.86119V7.95494H1C0.447715 7.95494 0 8.40265 0 8.95494V20.7049C0 21.2572 0.447715 21.7049 1 21.7049H21C21.5523 21.7049 22 21.2572 22 20.7049V8.95494C22 8.40265 21.5523 7.95494 21 7.95494H16.5ZM5.5 20.3299H1.375V9.32994H5.5V20.3299ZM12.375 20.3299H9.625V17.5799H12.375V20.3299ZM15.125 20.3299H13.75V16.2049H8.25V20.3299H6.875V4.11319L11 1.863L15.125 4.11319V20.3299ZM20.625 20.3299H16.5V9.32994H20.625V20.3299Z" fill="#222222"/>
<path d="M8.25 9.32813H13.75V5.20312H8.25V9.32813ZM9.625 6.57813H12.375V7.95313H9.625V6.57813Z" fill="#222222"/>
<path d="M8.25 14.8281H13.75V10.7031H8.25V14.8281ZM9.625 12.0781H12.375V13.4531H9.625V12.0781Z" fill="#222222"/>
<path d="M4.125 11.3906H2.75V12.7656H4.125V11.3906Z" fill="#222222"/>
<path d="M4.125 14.1406H2.75V15.5156H4.125V14.1406Z" fill="#222222"/>
<path d="M4.125 16.8906H2.75V18.2656H4.125V16.8906Z" fill="#222222"/>
<path d="M19.25 11.3906H17.875V12.7656H19.25V11.3906Z" fill="#222222"/>
<path d="M19.25 14.1406H17.875V15.5156H19.25V14.1406Z" fill="#222222"/>
<path d="M19.25 16.8906H17.875V18.2656H19.25V16.8906Z" fill="#222222"/>
</svg>
