<svg width="27" height="24" viewBox="0 0 27 24" fill="none" xmlns="http://www.w3.org/2000/svg">
<path d="M11.7295 21.6445C11.5537 21.9297 11.3014 22.1665 10.9978 22.3311C10.6941 22.4956 10.3499 22.5822 9.99953 22.5822C9.64915 22.5822 9.30492 22.4956 9.00131 22.3311C8.69769 22.1665 8.44534 21.9297 8.26953 21.6445" stroke="#222222" stroke-width="2" stroke-linecap="round" stroke-linejoin="round"/>
<path d="M16 9.41195C16 7.91445 15.3679 6.47829 14.2426 5.4194C13.1174 4.3605 11.5913 3.76563 10 3.76562C8.4087 3.76563 6.88258 4.3605 5.75736 5.4194C4.63214 6.47829 4 7.91445 4 9.41195C4 15.9993 1 17.8814 1 17.8814H19C19 17.8814 16 15.9993 16 9.41195Z" stroke="#222222" stroke-width="2" stroke-linecap="round" stroke-linejoin="round"/>
</svg>
