<svg width="40" height="40" viewBox="0 0 40 40" fill="none" xmlns="http://www.w3.org/2000/svg">
<path d="M20.278 16.6169C15.1127 11.4522 9.44891 8.74194 7.62696 10.5632C7.42703 10.7727 7.27993 11.0266 7.19779 11.3043L7.16847 11.275L5.42848 18.4055L3.69582 25.5147L1.64196 33.9328L0.341797 39.2641L8.03946 36.3512L17.8303 32.6466L25.6413 29.6911L25.6319 29.6818C25.8934 29.5984 26.1327 29.457 26.3317 29.2679C28.1536 27.446 25.4433 21.7822 20.278 16.6169Z" fill="#DD1C4B"/>
<path d="M20.2779 16.6171C15.1128 11.452 9.44886 8.74159 7.62714 10.5633C5.80542 12.385 8.51579 18.049 13.6809 23.2141C18.846 28.3792 24.51 31.0896 26.3317 29.2679C28.1534 27.4462 25.4431 21.7822 20.2779 16.6171Z" fill="#D1E3EE"/>
<path d="M24.9322 29.9213C23.9996 29.9376 23.0743 29.754 22.2186 29.3828L15.8344 31.7985L6.04024 35.4998L0.78829 37.487L0.341797 39.3176L8.03946 36.4047L17.8303 32.7002L24.9989 29.9879L24.9322 29.9213Z" fill="#B21D48"/>
<path d="M32.9944 24.6592C32.9146 24.6589 32.8355 24.6447 32.7605 24.6172C29.3774 23.3498 25.7204 22.9944 22.1567 23.5869L19.7763 23.9834C19.4119 24.0354 19.0744 23.7822 19.0224 23.4178C18.9722 23.0658 19.2071 22.7363 19.5563 22.6693L21.9374 22.2694C25.7321 21.6389 29.6258 22.017 33.2283 23.3657C33.5747 23.4901 33.7546 23.8718 33.6301 24.2182C33.534 24.4857 33.2787 24.6628 32.9944 24.6592Z" fill="#FFBF41"/>
<path d="M21.0004 20.6631C20.6324 20.661 20.3357 20.3608 20.3379 19.9928C20.3394 19.7387 20.4852 19.5077 20.7138 19.3969L34.7084 12.7329C35.0408 12.5746 35.4384 12.7157 35.5967 13.0481C35.755 13.3805 35.6139 13.7781 35.2815 13.9364L21.2869 20.6005C21.1973 20.6424 21.0994 20.6638 21.0004 20.6631Z" fill="#FFBF41"/>
<path d="M13.207 19.3277C13.1191 19.3279 13.032 19.3105 12.9511 19.2764C12.6114 19.1347 12.4509 18.7445 12.5926 18.4048V18.4047L13.5615 16.0796C15.0523 12.5173 15.4 8.5798 14.5565 4.81135C14.47 4.45357 14.69 4.09355 15.0477 4.00708C15.4055 3.92062 15.7655 4.14061 15.852 4.49831C15.8539 4.50622 15.8556 4.51413 15.8573 4.52213C16.7609 8.55897 16.3883 12.7768 14.791 16.5928L13.8214 18.9179C13.7179 19.1658 13.4757 19.3274 13.207 19.3277Z" fill="#FFBF41"/>
<path d="M36.327 27.3219C37.063 27.3219 37.6598 26.7252 37.6598 25.9891C37.6598 25.253 37.063 24.6562 36.327 24.6562C35.5909 24.6562 34.9941 25.253 34.9941 25.9891C34.9941 26.7252 35.5909 27.3219 36.327 27.3219Z" fill="#D5557E"/>
<path d="M20.3328 8.66172C21.0689 8.66172 21.6656 8.065 21.6656 7.32891C21.6656 6.59281 21.0689 5.99609 20.3328 5.99609C19.5967 5.99609 19 6.59281 19 7.32891C19 8.065 19.5967 8.66172 20.3328 8.66172Z" fill="#DD95C1"/>
<path d="M14.3348 2.66563C13.5986 2.66563 13.002 2.06894 13.002 1.33281C13.002 0.596684 13.5986 0 14.3348 0C15.0709 0 15.6676 0.596684 15.6676 1.33281C15.6676 2.06894 15.0709 2.66563 14.3348 2.66563Z" fill="#7FCCCB"/>
<path d="M32.9965 5.33125C32.6285 5.33125 32.3301 5.03287 32.3301 4.66485V3.99844C32.3301 3.63042 32.6285 3.33203 32.9965 3.33203C33.3645 3.33203 33.6629 3.63042 33.6629 3.99844V4.66485C33.6629 5.03287 33.3646 5.33125 32.9965 5.33125Z" fill="#2276BB"/>
<path d="M32.9965 1.99922C32.6285 1.99922 32.3301 1.70084 32.3301 1.33281V0.666407C32.3301 0.298384 32.6285 0 32.9965 0C33.3645 0 33.6629 0.298384 33.6629 0.666407V1.33281C33.6629 1.70084 33.3646 1.99922 32.9965 1.99922Z" fill="#2276BB"/>
<path d="M34.9949 3.33281H34.3285C33.9605 3.33281 33.6621 3.03443 33.6621 2.66641C33.6621 2.29838 33.9605 2 34.3285 2H34.9949C35.363 2 35.6613 2.29838 35.6613 2.66641C35.6613 3.03443 35.363 3.33281 34.9949 3.33281Z" fill="#2276BB"/>
<path d="M31.6629 3.33281H30.9965C30.6285 3.33281 30.3301 3.03443 30.3301 2.66641C30.3301 2.29838 30.6285 2 30.9965 2H31.6629C32.0309 2 32.3293 2.29838 32.3293 2.66641C32.3293 3.03443 32.031 3.33281 31.6629 3.33281Z" fill="#2276BB"/>
<path d="M5.63123 19.3273C5.55659 19.042 5.48995 18.7542 5.42797 18.4609L3.69531 25.5702L3.82859 27.1955C4.11906 30.6608 5.60765 33.9165 8.03829 36.4033L17.8298 32.7021C17.7765 32.6854 17.7212 32.6734 17.6679 32.6554C11.7306 30.4292 7.24293 25.46 5.63123 19.3273Z" fill="white"/>
<path d="M17.8299 32.6992C17.7766 32.6826 17.7213 32.6706 17.668 32.6526C17.0265 32.4097 16.3983 32.1333 15.786 31.8242L6.9668 35.1609C7.30117 35.5946 7.65911 36.0095 8.03905 36.4038L17.8299 32.6992Z" fill="#F6F6E7"/>
<path d="M28.3304 7.98047V11.3265H24.9844V7.98047H28.3304Z" fill="#C9DA53"/>
<path d="M16.3342 19.9936C15.9662 19.9935 15.6679 19.695 15.668 19.327C15.6681 19.1382 15.7481 18.9584 15.8884 18.832L22.5525 12.8343C22.8308 12.5935 23.2516 12.6239 23.4924 12.9022C23.7266 13.1728 23.7053 13.58 23.4441 13.8246L16.78 19.8223C16.6578 19.9325 16.4989 19.9935 16.3342 19.9936Z" fill="#FFBF41"/>
<path d="M35.6605 17.3234C35.2925 17.3234 34.9941 17.0251 34.9941 16.657V15.9906C34.9941 15.6226 35.2925 15.3242 35.6605 15.3242C36.0286 15.3242 36.327 15.6226 36.327 15.9906V16.657C36.327 17.0251 36.0287 17.3234 35.6605 17.3234Z" fill="#FFDB43"/>
<path d="M38.018 16.3465C37.8412 16.347 37.6715 16.2767 37.5469 16.1513L37.0758 15.6801C36.8201 15.4154 36.8273 14.9935 37.0921 14.7378C37.3503 14.4884 37.7597 14.4884 38.018 14.7378L38.4892 15.209C38.7494 15.4693 38.7493 15.8912 38.489 16.1514C38.3642 16.2763 38.1947 16.3465 38.018 16.3465Z" fill="#FFDB43"/>
<path d="M38.993 13.993H38.3266C37.9585 13.993 37.6602 13.6946 37.6602 13.3266C37.6602 12.9585 37.9585 12.6602 38.3266 12.6602H38.993C39.361 12.6602 39.6594 12.9585 39.6594 13.3266C39.6594 13.6946 39.3611 13.993 38.993 13.993Z" fill="#FFDB43"/>
<path d="M37.5471 12.1083C37.1791 12.1082 36.8808 11.8099 36.8809 11.4417C36.8809 11.2651 36.9511 11.0956 37.076 10.9708L37.5471 10.4996C37.8118 10.2439 38.2337 10.2512 38.4894 10.5159C38.7388 10.7742 38.7388 11.1836 38.4894 11.4419L38.0183 11.9131C37.8933 12.038 37.7239 12.1083 37.5471 12.1083Z" fill="#FFDB43"/>
<path d="M35.6605 11.3273C35.2925 11.3273 34.9941 11.029 34.9941 10.6609V9.99453C34.9941 9.62651 35.2925 9.32812 35.6605 9.32812C36.0286 9.32812 36.327 9.62651 36.327 9.99453V10.6609C36.327 11.029 36.0287 11.3273 35.6605 11.3273Z" fill="#FFDB43"/>
<path d="M33.7759 12.1083C33.5991 12.1083 33.4297 12.038 33.3047 11.913L32.8336 11.4419C32.5779 11.1771 32.5852 10.7552 32.8499 10.4996C33.1081 10.2501 33.5175 10.2501 33.7759 10.4996L34.247 10.9707C34.5072 11.231 34.5072 11.6529 34.2468 11.9132C34.122 12.038 33.9525 12.1083 33.7759 12.1083Z" fill="#FFDB43"/>
<path d="M3.67383 0.664062L4.70343 2.75058L7.00587 3.08512L5.33985 4.70915L5.73303 7.00226L3.67383 5.91935L1.61463 7.00226L2.00781 4.70915L0.341797 3.08512L2.64423 2.75058L3.67383 0.664062Z" fill="#FFDB43"/>
<path d="M39.4475 36.0948C39.1306 34.9715 38.4008 34.0096 37.4043 33.4018L37.1298 32.99C35.5903 30.6878 33.1695 29.1224 30.4384 28.663C30.074 28.611 29.7365 28.8643 29.6845 29.2286C29.6343 29.5807 29.8693 29.9101 30.2184 29.9772C32.1883 30.3115 33.9836 31.3123 35.3038 32.8121C34.1938 33.0117 33.223 33.6784 32.6382 34.6427C31.9205 35.9281 32.3807 37.5519 33.6661 38.2696C34.9515 38.9873 36.5753 38.5271 37.293 37.2417C37.5672 36.7125 37.7152 36.1269 37.7255 35.531C38.4346 36.5608 38.4913 37.9057 37.8715 38.9916C37.6837 39.3082 37.7881 39.717 38.1046 39.9048C38.4212 40.0926 38.83 39.9882 39.0178 39.6716C39.0238 39.6615 39.0295 39.6512 39.035 39.6407C39.6404 38.5612 39.789 37.2844 39.4475 36.0948ZM36.1308 36.5913C35.7751 37.2358 34.9643 37.4698 34.3199 37.1141C33.6754 36.7584 33.4414 35.9477 33.7971 35.3033C33.7991 35.2997 33.8011 35.296 33.8031 35.2924C34.1963 34.6485 34.8596 34.2168 35.6077 34.1182C35.7236 34.1151 35.8383 34.1417 35.9409 34.1955C36.5033 34.5094 36.5333 35.8702 36.1308 36.5913Z" fill="#2BB3CE"/>
</svg>
