<svg width="48" height="48" viewBox="0 0 48 48" fill="none" xmlns="http://www.w3.org/2000/svg">
<path d="M41.0323 44.9031C38.8979 44.9031 37.1614 43.1666 37.1614 41.0321C37.1614 38.8976 38.8979 37.1611 41.0323 37.1611C43.1668 37.1611 44.9033 38.8976 44.9033 41.0321C44.9033 43.1666 43.1668 44.9031 41.0323 44.9031Z" fill="#37A000"/>
<path d="M6.96765 44.9031C4.8332 44.9031 3.09668 43.1666 3.09668 41.0321C3.09668 38.8976 4.8332 37.1611 6.96765 37.1611C9.1021 37.1611 10.8386 38.8976 10.8386 41.0321C10.8386 43.1666 9.1021 44.9031 6.96765 44.9031Z" fill="#37A000"/>
<path d="M16.2582 44.9031C14.1237 44.9031 12.3872 43.1666 12.3872 41.0321C12.3872 38.8976 14.1237 37.1611 16.2582 37.1611C18.3926 37.1611 20.1291 38.8976 20.1291 41.0321C20.1291 43.1666 18.3926 44.9031 16.2582 44.9031Z" fill="#37A000"/>
<path d="M0 0V6.19355H14.6214C15.2307 7.248 16.0142 8.20645 16.9626 9.01703L17.9683 7.83948C16.0955 6.24 14.9543 3.97858 14.7515 1.54839H33.2477C33.0449 3.97858 31.9045 6.23923 30.0317 7.83948L31.0382 9.01703C31.9874 8.20645 32.7701 7.24723 33.3786 6.19355H48V0H0ZM1.54839 1.54839H3.09677V4.64516H1.54839V1.54839ZM13.8906 4.64516H4.64516V1.54839H13.2031C13.2797 2.6191 13.5135 3.65961 13.8906 4.64516ZM34.7969 1.54839H43.3548V4.64516H34.1094C34.4865 3.65961 34.7203 2.6191 34.7969 1.54839ZM46.4516 4.64516H44.9032V1.54839H46.4516V4.64516Z" fill="#333333"/>
<path d="M43.3549 13.1614C43.3549 11.8809 42.3129 10.8389 41.0323 10.8389C39.933 10.8389 39.014 11.6092 38.7748 12.6365L32.3606 13.9511L32.671 15.4678L38.9544 14.1795C39.2424 14.764 39.765 15.2053 40.4021 15.3857L41.6292 20.2933C40.389 20.6982 39.484 21.8518 39.484 23.226H41.0323C41.0323 22.372 41.7268 21.6776 42.5807 21.6776C43.4347 21.6776 44.1291 22.372 44.1291 23.226H45.6775C45.6775 21.731 44.6122 20.4799 43.2009 20.1919L41.973 15.2804C42.7851 14.9189 43.3549 14.1067 43.3549 13.1614ZM41.0323 12.3873C41.4589 12.3873 41.8065 12.7349 41.8065 13.1614C41.8065 13.588 41.4589 13.9356 41.0323 13.9356C40.6058 13.9356 40.2581 13.588 40.2581 13.1614C40.2581 12.7349 40.6058 12.3873 41.0323 12.3873Z" fill="#333333"/>
<path d="M2.32251 23.226H3.8709C3.8709 22.372 4.56535 21.6776 5.41928 21.6776C6.27322 21.6776 6.96767 22.372 6.96767 23.226H8.51606C8.51606 21.8518 7.61103 20.6982 6.36999 20.2941L7.59709 15.3865C8.23425 15.2061 8.75761 14.764 9.04561 14.1803L15.329 15.4685L15.6394 13.9519L9.22522 12.6373C8.98599 11.6092 8.06703 10.8389 6.96767 10.8389C5.68715 10.8389 4.64509 11.8809 4.64509 13.1614C4.64509 14.1067 5.2149 14.9189 6.02703 15.2804L4.79915 20.1919C3.3878 20.4799 2.32251 21.731 2.32251 23.226ZM6.96767 12.3873C7.39425 12.3873 7.74186 12.7349 7.74186 13.1614C7.74186 13.588 7.39425 13.9356 6.96767 13.9356C6.54109 13.9356 6.19348 13.588 6.19348 13.1614C6.19348 12.7349 6.54109 12.3873 6.96767 12.3873Z" fill="#333333"/>
<path d="M26.3226 23.2257H21.6775V21.3165C21.2447 21.1802 20.8258 21.0068 20.424 20.7955L19.0731 22.1464L15.7889 18.8623L17.1399 17.5113C16.9293 17.1088 16.7551 16.6899 16.6189 16.2579H14.7097V11.6128H16.6189C16.7551 11.18 16.9286 10.7611 17.1399 10.3593L15.7889 9.00837L19.0731 5.72425L20.424 7.07521C20.8258 6.86386 21.2447 6.69044 21.6775 6.55418V4.64502H26.3226V6.55418C26.7554 6.69044 27.1742 6.86386 27.576 7.07521L28.927 5.72425L32.2111 9.00837L30.8602 10.3593C31.0707 10.7619 31.2449 11.1808 31.3812 11.6128H33.2904V16.2579H31.3812C31.2449 16.6907 31.0715 17.1095 30.8602 17.5113L32.2111 18.8623L28.927 22.1464L27.576 20.7955C27.1735 21.0061 26.7546 21.1802 26.3226 21.3165V23.2257Z" fill="#37A000"/>
<path d="M28.6451 13.9352C28.6451 11.3734 26.5617 9.29004 23.9999 9.29004C21.4381 9.29004 19.3547 11.3734 19.3547 13.9352C19.3547 16.497 21.4381 18.5804 23.9999 18.5804C26.5617 18.5804 28.6451 16.497 28.6451 13.9352ZM20.9031 13.9352C20.9031 12.2273 22.292 10.8384 23.9999 10.8384C25.7078 10.8384 27.0967 12.2273 27.0967 13.9352C27.0967 15.6431 25.7078 17.032 23.9999 17.032C22.292 17.032 20.9031 15.6431 20.9031 13.9352Z" fill="#333333"/>
<path d="M41.0323 34.0642H39.4637C39.9554 33.4155 40.2581 32.6165 40.2581 31.7417C40.2581 29.6072 38.5215 27.8707 36.3871 27.8707C34.2526 27.8707 32.5161 29.6072 32.5161 31.7417C32.5161 32.6165 32.8188 33.4155 33.3105 34.0642H30.1935V26.3223H17.8065V24.7739H6.96774V34.0642C3.12619 34.0642 0 37.1904 0 41.032C0 44.8735 3.12619 47.9997 6.96774 47.9997H41.0323C44.8738 47.9997 48 44.8735 48 41.032C48 37.1904 44.8738 34.0642 41.0323 34.0642ZM34.0645 31.7417C34.0645 30.4612 35.1066 29.4191 36.3871 29.4191C37.6676 29.4191 38.7097 30.4612 38.7097 31.7417C38.7097 33.0222 37.6676 34.0642 36.3871 34.0642C35.1066 34.0642 34.0645 33.0222 34.0645 31.7417ZM28.6452 34.0642H27.0968V32.5159H25.5484V34.0642H24V27.8707H25.5484V30.9675H27.0968V27.8707H28.6452V34.0642ZM20.9032 34.0642V27.8707H22.4516V34.0642H20.9032ZM19.3548 27.8707V34.0642H17.8065V27.8707H19.3548ZM16.2581 34.0642H14.7097V26.3223H16.2581V34.0642ZM11.6129 34.0642V26.3223H13.1613V34.0642H11.6129ZM8.51613 26.3223H10.0645V34.0642H8.51613V26.3223ZM41.0323 46.4513H6.96774C3.97935 46.4513 1.54839 44.0204 1.54839 41.032C1.54839 38.0436 3.97935 35.6126 6.96774 35.6126H41.0323C44.0206 35.6126 46.4516 38.0436 46.4516 41.032C46.4516 44.0204 44.0206 46.4513 41.0323 46.4513Z" fill="#333333"/>
<path d="M36.3872 37.1611H20.9033V38.7095H36.3872V37.1611Z" fill="#333333"/>
<path d="M36.3872 43.3545H20.9033V44.9029H36.3872V43.3545Z" fill="#333333"/>
<path d="M41.0323 38.7095C39.7518 38.7095 38.7097 39.7515 38.7097 41.0321C38.7097 42.3126 39.7518 43.3546 41.0323 43.3546C42.3128 43.3546 43.3549 42.3126 43.3549 41.0321C43.3549 39.7515 42.3128 38.7095 41.0323 38.7095ZM41.0323 41.8062C40.6057 41.8062 40.2581 41.4586 40.2581 41.0321C40.2581 40.6055 40.6057 40.2579 41.0323 40.2579C41.4589 40.2579 41.8065 40.6055 41.8065 41.0321C41.8065 41.4586 41.4589 41.8062 41.0323 41.8062Z" fill="#333333"/>
<path d="M16.2581 38.7095C14.9776 38.7095 13.9355 39.7515 13.9355 41.0321C13.9355 42.3126 14.9776 43.3546 16.2581 43.3546C17.5386 43.3546 18.5807 42.3126 18.5807 41.0321C18.5807 39.7515 17.5386 38.7095 16.2581 38.7095ZM16.2581 41.8062C15.8315 41.8062 15.4839 41.4586 15.4839 41.0321C15.4839 40.6055 15.8315 40.2579 16.2581 40.2579C16.6847 40.2579 17.0323 40.6055 17.0323 41.0321C17.0323 41.4586 16.6847 41.8062 16.2581 41.8062Z" fill="#333333"/>
<path d="M6.96784 38.7095C5.68733 38.7095 4.64526 39.7515 4.64526 41.0321C4.64526 42.3126 5.68733 43.3546 6.96784 43.3546C8.24836 43.3546 9.29042 42.3126 9.29042 41.0321C9.29042 39.7515 8.24836 38.7095 6.96784 38.7095ZM6.96784 41.8062C6.54126 41.8062 6.19365 41.4586 6.19365 41.0321C6.19365 40.6055 6.54126 40.2579 6.96784 40.2579C7.39442 40.2579 7.74204 40.6055 7.74204 41.0321C7.74204 41.4586 7.39442 41.8062 6.96784 41.8062Z" fill="#333333"/>
</svg>
