<svg width="44" height="44" viewBox="0 0 44 44" fill="none" xmlns="http://www.w3.org/2000/svg">
<path d="M4.96777 4.96777V19.871C4.96777 21.0469 5.92087 22 7.09681 22C8.27274 22 9.22584 21.0469 9.22584 19.871V17.0323C9.22584 15.8564 10.1789 14.9033 11.3549 14.9033C12.5308 14.9033 13.4839 15.8564 13.4839 17.0323V25.5484C13.4839 26.7244 14.437 27.6775 15.6129 27.6775C16.7889 27.6775 17.742 26.7244 17.742 25.5484V11.3549C17.742 10.1619 18.7178 9.20455 19.91 9.22655H19.9107C21.0597 9.24784 22 10.2059 22 11.3549V17.0323C22 18.2082 22.9531 19.1613 24.1291 19.1613C25.305 19.1613 26.2581 18.2082 26.2581 17.0323V4.96777H4.96777Z" fill="#37A000"/>
<path d="M44 4.25806H37.6129V2.12903C37.6129 0.955226 36.6577 0 35.4839 0C34.3101 0 33.3548 0.955226 33.3548 2.12903V4.25806H0V31.2258H13.2085L8.95045 44H14.7045L16.1239 39.7419H27.8747L29.2941 44H35.0481L30.7901 31.2258H44V4.25806ZM34.9466 18.4516H36.0218C37.29 18.4516 38.3226 19.4842 38.3226 20.7531V21.2896C38.3226 21.6445 38.2388 22.0007 38.0799 22.3186L35.9253 26.6271C35.4044 25.0303 34.5123 23.5734 33.3194 22.3804C32.8843 21.9454 32.6452 21.3677 32.6452 20.7531C32.6452 19.4842 33.6777 18.4516 34.9466 18.4516ZM36.0211 17.0323H34.9459C34.887 17.0323 34.8317 17.0472 34.7735 17.05V15.6129H36.1928V17.05C36.1354 17.0472 36.08 17.0323 36.0211 17.0323ZM35.4839 1.41935C35.8749 1.41935 36.1935 1.738 36.1935 2.12903V14.1935H34.7742V2.12903C34.7742 1.738 35.0928 1.41935 35.4839 1.41935ZM13.6819 42.5806H10.9198L14.7052 31.2258H17.4673L13.6819 42.5806ZM25.0367 31.2258L26.4561 35.4839H17.5439L18.9633 31.2258H25.0367ZM16.5972 38.3226L17.0706 36.9032H26.9294L27.4028 38.3226H16.5972ZM33.0802 42.5806H30.3181L26.5334 31.2258H29.2955L33.0802 42.5806ZM42.5806 29.8064H1.41935V5.67742H33.3548V17.4041C32.1008 18.0031 31.2258 19.2734 31.2258 20.7531C31.2258 21.7466 31.6126 22.6813 32.3159 23.3839C33.5053 24.5733 34.3498 26.0643 34.7572 27.6959L34.9296 28.3871H36.6321L39.3495 22.9531C39.6064 22.4393 39.7419 21.8637 39.7419 21.2896V20.7531C39.7419 19.2734 38.8669 18.0031 37.6129 17.4041V5.67742H42.5806V29.8064Z" fill="black"/>
</svg>
