<svg width="48" height="48" viewBox="0 0 48 48" fill="none" xmlns="http://www.w3.org/2000/svg">
<g clip-path="url(#clip0)">
<path d="M12.3871 17.8064H6.96774C3.1255 17.8064 0 14.6801 0 10.8386V10.0645H5.41935C9.26159 10.0645 12.3871 13.1907 12.3871 17.0322V17.8064Z" fill="#37A000"/>
<path d="M3.09675 47.2262L0.874724 38.3384C0.808192 38.0712 0.77417 37.7963 0.77417 37.5208C0.77417 36.3372 1.39489 35.2409 2.40988 34.6315L6.88039 31.9498C7.89539 31.3404 8.51611 30.2442 8.51611 29.0606V28.6455H14.7097V29.0606C14.7097 30.2442 15.3304 31.3404 16.3454 31.9498L20.8159 34.6315C21.8309 35.2409 22.4516 36.3372 22.4516 37.5208C22.4516 37.7963 22.4176 38.0704 22.351 38.3384L20.129 47.2262H3.09675Z" fill="#37A000"/>
<path d="M38.7096 15.4841C36.5753 15.4841 34.8386 13.7475 34.8386 11.6132C34.8386 9.47883 36.5753 7.74219 38.7096 7.74219C40.8439 7.74219 42.5806 9.47883 42.5806 11.6132C42.5806 13.7475 40.8439 15.4841 38.7096 15.4841Z" fill="#37A000"/>
<path d="M31.742 8.51625C30.4616 8.51625 29.4194 7.47404 29.4194 6.19367C29.4194 4.91331 30.4616 3.87109 31.742 3.87109C33.0224 3.87109 34.0646 4.91331 34.0646 6.19367C34.0646 7.47404 33.0224 8.51625 31.742 8.51625Z" fill="#37A000"/>
<path d="M30.9678 17.0324C29.6875 17.0324 28.6453 15.9902 28.6453 14.7098C28.6453 13.4294 29.6875 12.3872 30.9678 12.3872C32.2482 12.3872 33.2904 13.4294 33.2904 14.7098C33.2904 15.9902 32.2482 17.0324 30.9678 17.0324Z" fill="#37A000"/>
<path d="M46.3609 40.2581H44.9032V27.871H46.4516V23.2258H35.6129V27.871H37.1613V40.2581H32.5161V27.871H34.0645V23.2258H23.2258V27.871H24.7742V40.2581H22.669L23.1026 38.5256C23.1838 38.1956 23.2258 37.858 23.2258 37.5204C23.2258 36.073 22.4546 34.7117 21.2136 33.967L16.7442 31.2853C15.967 30.8192 15.4839 29.9667 15.4839 29.0602V24.7742H18.5806V20.129H12.3871V7.74194H16.2581C20.1003 7.74194 23.2258 4.61568 23.2258 0.774194V0H17.8065C15.1092 0 12.7704 1.54309 11.6129 3.79045C10.4554 1.54309 8.11656 0 5.41935 0H0V0.774194C0 4.61568 3.1255 7.74194 6.96774 7.74194H10.8387V15.1811C8.94972 13.3828 6.48841 12.3871 3.87097 12.3871V13.9355C6.16028 13.9355 8.31237 14.8272 9.93145 16.4463L10.8387 17.3528V20.129H4.64516V24.7742H7.74194V29.0602C7.74194 29.9667 7.25882 30.8192 6.4816 31.286L2.01222 33.9677C0.771169 34.7117 0 36.0737 0 37.5204C0 37.858 0.0419607 38.1956 0.123992 38.5256L2.49231 48H47.3286L46.3609 40.2581ZM17.8065 1.54839H21.6226C21.2453 4.1715 18.984 6.19355 16.2581 6.19355H13.5011C15.0953 4.69846 17.1593 3.87097 19.3548 3.87097V2.32258C16.9797 2.32258 14.7305 3.13684 12.9228 4.63042C13.7975 2.81023 15.6559 1.54839 17.8065 1.54839ZM1.6032 1.54839H5.41935C7.56993 1.54839 9.4283 2.81023 10.303 4.63042C8.49534 3.13684 6.24609 2.32258 3.87097 2.32258V3.87097C6.06653 3.87097 8.13054 4.69846 9.72467 6.19355H6.96774C4.24181 6.19355 1.98047 4.1715 1.6032 1.54839ZM37.1613 24.7742H44.9032V26.3226H37.1613V24.7742ZM43.3548 27.871V30.1935H41.0323V31.7419H43.3548V33.2903H41.0323V34.8387H43.3548V36.3871H41.0323V37.9355H43.3548V41.0323C43.3548 42.3126 42.3126 43.3548 41.0323 43.3548C39.7519 43.3548 38.7097 42.3126 38.7097 41.0323V27.871H43.3548ZM24.7742 24.7742H32.5161V26.3226H24.7742V24.7742ZM30.9677 27.871V30.1935H28.6452V31.7419H30.9677V33.2903H28.6452V34.8387H30.9677V36.3871H28.6452V37.9355H30.9677V41.0323C30.9677 42.3126 29.9255 43.3548 28.6452 43.3548C27.3648 43.3548 26.3226 42.3126 26.3226 41.0323V27.871H30.9677ZM6.19355 23.2258V21.6774H17.0323V23.2258H6.19355ZM18.5806 46.4516H3.70123L1.62664 38.1506C1.57485 37.9442 1.54839 37.7317 1.54839 37.5204C1.54839 36.6139 2.0315 35.7615 2.80872 35.2946L7.2781 32.6129C8.51915 31.8689 9.29032 30.5069 9.29032 29.0595V24.7742H13.9355V29.0602C13.9355 30.5077 14.7067 31.8689 15.9477 32.6137L20.4171 35.2954C21.1943 35.7615 21.6774 36.6139 21.6774 37.5204C21.6774 37.7317 21.651 37.9442 21.5999 38.1498L19.5246 46.4516H18.5806ZM21.1206 46.4516L22.2819 41.8064H24.8524C25.2123 43.5707 26.7755 44.9032 28.6452 44.9032C30.5149 44.9032 32.078 43.5707 32.4379 41.8064H37.2395C37.5994 43.5707 39.1625 44.9032 41.0323 44.9032C42.902 44.9032 44.4651 43.5707 44.825 41.8064H44.9939L45.5746 46.4516H21.1206Z" fill="black"/>
<path d="M19.6201 36.6236L16.8311 34.9497L16.0342 36.2773L18.4985 37.7562L16.9577 43.9425L18.4607 44.3168L20.1066 37.7081L20.1289 37.5206C20.1289 37.1547 19.9331 36.81 19.6201 36.6236Z" fill="black"/>
<path d="M13.7522 32.7524L12.5713 33.7542C13.0699 34.3409 13.6528 34.8403 14.3064 35.2398L15.1139 33.9183C14.6005 33.6045 14.1431 33.2121 13.7522 32.7524Z" fill="black"/>
<path d="M34.8387 21.6774C40.8156 21.6774 45.6774 16.8156 45.6774 10.8387C45.6774 4.86177 40.8156 0 34.8387 0C28.8618 0 24 4.86177 24 10.8387C24 16.8156 28.8618 21.6774 34.8387 21.6774ZM34.8387 1.54839C39.9617 1.54839 44.129 5.71573 44.129 10.8387C44.129 15.9617 39.9617 20.129 34.8387 20.129C29.7157 20.129 25.5484 15.9617 25.5484 10.8387C25.5484 5.71573 29.7157 1.54839 34.8387 1.54839Z" fill="black"/>
<path d="M37.9355 10.8389H39.4839V12.3873H37.9355V10.8389Z" fill="black"/>
</g>
<defs>
<clipPath id="clip0">
<rect width="48" height="48" fill="white"/>
</clipPath>
</defs>
</svg>
