<svg width="40" height="40" viewBox="0 0 40 40" fill="none" xmlns="http://www.w3.org/2000/svg">
<path d="M12.3866 15.8064H8.51562V25.0967H12.3866V15.8064Z" fill="#37A000"/>
<path d="M25.5489 15.8064H15.4844V25.0967H25.5489V15.8064Z" fill="#37A000"/>
<path d="M15.4834 28.1934C15.4834 29.0488 14.7905 29.7417 13.935 29.7417C13.0795 29.7417 12.3866 29.0488 12.3866 28.1934H8.51562V36.7095C8.51562 38.4197 9.90221 39.8063 11.6124 39.8063H22.4511C24.1613 39.8063 25.5479 38.4197 25.5479 36.7095V28.1934H15.4834Z" fill="#37A000"/>
<path d="M39.4837 18.9031H30.1934V25.0966H39.4837V18.9031Z" fill="#37A000"/>
<path d="M30.1934 28.1934V35.1611C30.1934 37.7268 32.2728 39.8063 34.8385 39.8063C37.4042 39.8063 39.4837 37.7268 39.4837 35.1611V28.1934H30.1934Z" fill="#37A000"/>
<path d="M2.32258 14.258C1.04206 14.258 0 13.2159 0 11.9354C0 10.6549 1.04206 9.61279 2.32258 9.61279C3.6031 9.61279 4.64516 10.6549 4.64516 11.9354C4.64516 13.2159 3.6031 14.258 2.32258 14.258ZM2.32258 11.1612C1.89523 11.1612 1.54839 11.508 1.54839 11.9354C1.54839 12.3627 1.89523 12.7096 2.32258 12.7096C2.74994 12.7096 3.09677 12.3627 3.09677 11.9354C3.09677 11.508 2.74994 11.1612 2.32258 11.1612Z" fill="#F0BC5E"/>
<path d="M4.64485 4.96767C3.36433 4.96767 2.32227 3.92561 2.32227 2.64509C2.32227 1.36457 3.36433 0.32251 4.64485 0.32251C5.92536 0.32251 6.96743 1.36457 6.96743 2.64509C6.96743 3.92561 5.92536 4.96767 4.64485 4.96767ZM4.64485 1.8709C4.21749 1.8709 3.87065 2.21774 3.87065 2.64509C3.87065 3.07245 4.21749 3.41928 4.64485 3.41928C5.0722 3.41928 5.41904 3.07245 5.41904 2.64509C5.41904 2.21774 5.0722 1.8709 4.64485 1.8709Z" fill="#F0BC5E"/>
<path d="M29.4202 4.96767C28.1397 4.96767 27.0977 3.92561 27.0977 2.64509C27.0977 1.36457 28.1397 0.32251 29.4202 0.32251C30.7008 0.32251 31.7428 1.36457 31.7428 2.64509C31.7428 3.92561 30.7008 4.96767 29.4202 4.96767ZM29.4202 1.8709C28.9929 1.8709 28.646 2.21774 28.646 2.64509C28.646 3.07245 28.9929 3.41928 29.4202 3.41928C29.8476 3.41928 30.1944 3.07245 30.1944 2.64509C30.1944 2.21774 29.8476 1.8709 29.4202 1.8709Z" fill="#F0BC5E"/>
</svg>
