<svg width="45" height="45" viewBox="0 0 45 45" fill="none" xmlns="http://www.w3.org/2000/svg">
<path d="M21.0938 35.1562V37.2656C21.0938 38.4307 20.1495 39.375 18.9844 39.375C17.8193 39.375 16.875 38.4307 16.875 37.2656C16.875 36.1005 17.8193 35.1562 18.9844 35.1562H21.0938Z" fill="#37A000"/>
<path d="M36.5625 21.0938V23.2031C36.5625 24.3682 35.6182 25.3125 34.4531 25.3125C33.288 25.3125 32.3438 24.3682 32.3438 23.2031C32.3438 22.038 33.288 21.0938 34.4531 21.0938H36.5625Z" fill="#37A000"/>
<path d="M43.5938 22.5V24.6094C43.5938 25.7745 42.6495 26.7188 41.4844 26.7188C40.3193 26.7188 39.375 25.7745 39.375 24.6094C39.375 23.4443 40.3193 22.5 41.4844 22.5H43.5938Z" fill="#37A000"/>
<path d="M32.3438 5.625H30.2344C29.0693 5.625 28.125 4.6807 28.125 3.51562C28.125 2.35055 29.0693 1.40625 30.2344 1.40625C31.3995 1.40625 32.3438 2.35055 32.3438 3.51562V5.625Z" fill="#37A000"/>
<path d="M22.5 11.25V13.3594C22.5 14.5245 21.5557 15.4688 20.3906 15.4688C19.2255 15.4688 18.2812 14.5245 18.2812 13.3594C18.2812 12.1943 19.2255 11.25 20.3906 11.25H22.5Z" fill="#37A000"/>
<path d="M10.5469 20.3906C8.22023 20.3906 6.32812 22.2827 6.32812 24.6094C6.32812 26.1605 7.58953 27.4219 9.14062 27.4219C10.6917 27.4219 11.9531 26.1605 11.9531 24.6094H10.5469C10.5469 25.3849 9.91617 26.0156 9.14062 26.0156C8.36508 26.0156 7.73438 25.3849 7.73438 24.6094C7.73438 23.0583 8.99578 21.7969 10.5469 21.7969C12.8735 21.7969 14.7656 23.689 14.7656 26.0156C14.7656 29.1171 12.2421 31.6406 9.14062 31.6406C5.26359 31.6406 2.10938 28.4864 2.10938 24.6094C2.10938 21.7568 3.50437 19.0765 5.84156 17.441L13.5056 12.0762C15.1755 10.9076 16.1719 8.99297 16.1719 6.95461C16.1719 3.50789 13.3671 0.703125 9.92039 0.703125C8.71523 0.703125 7.73438 1.68398 7.73438 2.88914V14.4L5.03508 16.2893C2.32242 18.1877 0.703125 21.2984 0.703125 24.6094C0.703125 28.7817 3.75047 32.2474 7.73438 32.9196V40.7812C7.73438 41.9442 6.78797 42.8906 5.625 42.8906C4.46203 42.8906 3.51562 41.9442 3.51562 40.7812C3.51562 40.3938 3.83133 40.0781 4.21875 40.0781C4.60617 40.0781 4.92188 40.3938 4.92188 40.7812V41.4844H6.32812V40.7812C6.32812 39.6183 5.38172 38.6719 4.21875 38.6719C3.05578 38.6719 2.10938 39.6183 2.10938 40.7812C2.10938 42.7198 3.68648 44.2969 5.625 44.2969C7.56352 44.2969 9.14062 42.7198 9.14062 40.7812V33.0469C13.0177 33.0469 16.1719 29.8927 16.1719 26.0156C16.1719 22.9141 13.6484 20.3906 10.5469 20.3906ZM9.14062 2.88914C9.14062 2.45953 9.49078 2.10938 9.92039 2.10938C12.5923 2.10938 14.7656 4.28273 14.7656 6.95461C14.7656 8.53453 13.9929 10.0181 12.6991 10.9245L9.14062 13.4149V2.88914Z" fill="black"/>
<path d="M21.7969 31.7952L28.8281 33.2015V27.5483L20.3906 25.8608V34.453H18.9844C17.4333 34.453 16.1719 35.7144 16.1719 37.2655C16.1719 38.8166 17.4333 40.078 18.9844 40.078C20.5355 40.078 21.7969 38.8166 21.7969 37.2655V31.7952ZM21.7969 27.5765L27.4219 28.7015V31.4858L21.7969 30.3608V27.5765ZM20.3906 37.2655C20.3906 38.0411 19.7599 38.6718 18.9844 38.6718C18.2088 38.6718 17.5781 38.0411 17.5781 37.2655C17.5781 36.49 18.2088 35.8593 18.9844 35.8593H20.3906V37.2655Z" fill="black"/>
<path d="M35.8594 13.2856V20.3907H34.4531C32.902 20.3907 31.6406 21.6521 31.6406 23.2032C31.6406 24.7543 32.902 26.0157 34.4531 26.0157C36.0042 26.0157 37.2656 24.7543 37.2656 23.2032V19.0583L42.8906 19.6208V21.797H41.4844C39.9333 21.797 38.6719 23.0584 38.6719 24.6095C38.6719 26.1606 39.9333 27.422 41.4844 27.422C43.0355 27.422 44.2969 26.1606 44.2969 24.6095V14.1294L35.8594 13.2856ZM35.8594 23.2032C35.8594 23.9788 35.2287 24.6095 34.4531 24.6095C33.6776 24.6095 33.0469 23.9788 33.0469 23.2032C33.0469 22.4277 33.6776 21.797 34.4531 21.797H35.8594V23.2032ZM42.8906 24.6095C42.8906 25.385 42.2599 26.0157 41.4844 26.0157C40.7088 26.0157 40.0781 25.385 40.0781 24.6095C40.0781 23.8339 40.7088 23.2032 41.4844 23.2032H42.8906V24.6095ZM37.2656 17.645V14.8395L42.8906 15.4021V18.2075L37.2656 17.645Z" fill="black"/>
<path d="M30.2344 6.32812H31.6406V14.7656H33.0469V3.51562C33.0469 1.96453 31.7855 0.703125 30.2344 0.703125C28.6833 0.703125 27.4219 1.96453 27.4219 3.51562C27.4219 5.06672 28.6833 6.32812 30.2344 6.32812ZM30.2344 2.10938C31.0099 2.10938 31.6406 2.74008 31.6406 3.51562V4.92188H30.2344C29.4588 4.92188 28.8281 4.29117 28.8281 3.51562C28.8281 2.74008 29.4588 2.10938 30.2344 2.10938Z" fill="black"/>
<path d="M20.3906 16.1719C21.9417 16.1719 23.2031 14.9105 23.2031 13.3594V2.10938H21.7969V10.5469H20.3906C18.8395 10.5469 17.5781 11.8083 17.5781 13.3594C17.5781 14.9105 18.8395 16.1719 20.3906 16.1719ZM20.3906 11.9531H21.7969V13.3594C21.7969 14.1349 21.1662 14.7656 20.3906 14.7656C19.6151 14.7656 18.9844 14.1349 18.9844 13.3594C18.9844 12.5838 19.6151 11.9531 20.3906 11.9531Z" fill="black"/>
<path d="M25.8691 42.951L26.4408 44.2363C32.6895 41.4597 37.6162 36.1877 39.9577 29.7717L38.6365 29.2893C36.4245 35.3495 31.7712 40.3291 25.8691 42.951Z" fill="black"/>
<path d="M39.6793 11.6916C38.6211 9.04782 37.1312 6.61431 35.251 4.45923L34.1914 5.38314C35.9675 7.41939 37.3744 9.7179 38.3743 12.214L39.6793 11.6916Z" fill="black"/>
<path d="M37.639 27.6391L36.3016 27.2053C34.1592 33.8077 28.5342 39.0157 21.6211 40.7981L21.972 42.1601C29.3456 40.2581 35.3489 34.6943 37.639 27.6391Z" fill="black"/>
<path d="M36.4504 11.6394C35.9491 10.6325 35.3627 9.65446 34.7059 8.73267L33.5605 9.54829C34.1744 10.4103 34.7228 11.3244 35.1918 12.2666L36.4504 11.6394Z" fill="black"/>
<path d="M23.9631 24.3387L25.2611 24.8809C25.7617 23.6792 26.0155 22.4059 26.0155 21.0938C26.0155 19.2073 25.4805 17.3743 24.468 15.793L23.2832 16.5509C24.1509 17.9059 24.6093 19.4766 24.6093 21.0938C24.6093 22.2188 24.3913 23.3101 23.9631 24.3387Z" fill="black"/>
<path d="M28.8276 21.0938C28.8276 22.7047 28.5295 24.2733 27.9409 25.7562L29.248 26.2744C29.902 24.6256 30.2338 22.8826 30.2338 21.0938C30.2338 16.726 28.2545 12.6795 24.8036 9.99146L23.9395 11.101C27.0459 13.5204 28.8276 17.1626 28.8276 21.0938Z" fill="black"/>
</svg>
