<svg width="45" height="45" viewBox="0 0 45 45" fill="none" xmlns="http://www.w3.org/2000/svg">
<path d="M22.5013 31.4515C30.002 31.4515 36.0826 25.3709 36.0826 17.8702C36.0826 10.3694 30.002 4.28882 22.5013 4.28882C15.0005 4.28882 8.91992 10.3694 8.91992 17.8702C8.91992 25.3709 15.0005 31.4515 22.5013 31.4515Z" fill="#37A000"/>
<path d="M44.0414 41.9206C43.4968 40.5596 42.3995 39.5274 41.0392 39.0557C42.0271 38.2522 42.852 37.1972 43.0865 36.8841L43.5396 36.2793L42.9113 35.8605C41.7676 35.0985 41.085 33.8226 41.085 32.4487V31.4515V27.8775C41.085 26.1319 40.5067 24.5236 39.5403 23.2177C40.0814 21.4921 40.3702 19.6987 40.3702 17.8702C40.3702 8.01657 32.3536 0 22.5 0C12.6464 0 4.62981 8.01657 4.62981 17.8702C4.62981 19.6987 4.9143 21.495 5.45613 23.222C4.49257 24.5272 3.915 26.1341 3.915 27.8775V31.4515C3.915 32.8433 4.91502 34.002 6.23384 34.2564C6.61126 35.7775 7.59626 37.0585 8.91866 37.8262V38.0142L4.62338 38.8734C2.95859 39.2058 1.58902 40.3452 0.958557 41.9213L0 44.3181H21.4442H23.5558H45L44.0414 41.9206ZM41.5039 36.5753C40.6297 37.6082 39.5489 38.556 38.977 38.5925L36.0813 38.0135V37.8255C37.4037 37.0578 38.3887 35.7768 38.7662 34.2557C39.155 34.1807 39.5167 34.0291 39.8327 33.8133C40.1029 34.8762 40.6783 35.8397 41.5039 36.5753ZM27.4672 38.5932C26.8954 38.5567 25.8138 37.6089 24.9404 36.576C25.766 35.8405 26.3414 34.8762 26.6116 33.814C26.9275 34.0298 27.2892 34.1814 27.6781 34.2564C28.0555 35.7775 29.0405 37.0585 30.3629 37.8262V38.0142L27.4672 38.5932ZM6.58552 21.9882C6.29888 20.8788 6.13734 19.7394 6.08802 18.585H13.239C13.2597 19.1154 13.3033 19.6451 13.3698 20.1769C12.8558 20.0711 12.3233 20.0146 11.7779 20.0146C9.78715 20.0146 7.97225 20.7644 6.58552 21.9882ZM25.6023 25.9725C24.8324 25.8524 24.0297 25.7781 23.2148 25.7509V18.585H30.3314C30.3021 19.2726 30.2399 19.9631 30.127 20.6515C27.8954 21.6108 26.202 23.5765 25.6023 25.9725ZM33.2221 37.17C30.8568 37.17 28.9333 35.2464 28.9333 32.8811V29.9883C30.5251 29.8411 32.0141 29.2042 33.2221 28.1491C34.4301 29.2042 35.9191 29.8411 37.511 29.9883V32.8811C37.511 35.2464 35.5874 37.17 33.2221 37.17ZM27.5037 32.6824C27.0783 32.4344 26.7888 31.9783 26.7888 31.4515C26.7888 30.9247 27.0783 30.4687 27.5037 30.2206V32.6824ZM23.2148 17.1554V9.983C25.1512 9.91867 26.7817 9.60701 28.1363 9.16598C29.31 11.4712 30.2156 14.1804 30.3436 17.1547H23.2148V17.1554ZM23.2148 8.55482V2.37959C24.3085 3.49612 25.9833 5.40395 27.4393 7.89291C26.2678 8.24674 24.866 8.4962 23.2148 8.55482ZM24.4157 1.5447C27.4222 1.89567 30.1828 3.05866 32.4716 4.81066C32.0841 5.28672 30.9626 6.47401 28.8311 7.3904C27.3457 4.78564 25.6151 2.77703 24.4157 1.5447ZM21.7852 2.37959V8.55482C20.134 8.4962 18.7322 8.24745 17.5607 7.89291C19.0167 5.40323 20.6915 3.49612 21.7852 2.37959ZM16.1689 7.39111C14.0374 6.47401 12.9159 5.28672 12.5284 4.81137C14.818 3.05938 17.5786 1.89567 20.5843 1.54541C19.3849 2.77703 17.6543 4.78564 16.1689 7.39111ZM21.7852 9.983V17.1554H14.6564C14.7844 14.1811 15.6907 11.4712 16.8637 9.16669C18.2183 9.60701 19.8488 9.91867 21.7852 9.983ZM14.873 20.6515C14.7601 19.9631 14.6979 19.2726 14.6686 18.585H21.7852V25.7502C20.9703 25.7774 20.1676 25.8517 19.3977 25.9718C18.798 23.5765 17.1046 21.6108 14.873 20.6515ZM17.4963 32.6824V30.2206C17.9217 30.4687 18.2112 30.9247 18.2112 31.4515C18.2112 31.9783 17.9217 32.4344 17.4963 32.6824ZM19.6408 31.4515V27.8775C19.6408 27.716 19.6265 27.5587 19.6165 27.3993C20.3163 27.2892 21.0418 27.222 21.7852 27.1956V34.2857C20.6494 34.2357 19.5193 34.0692 18.4184 33.7897C19.1554 33.2714 19.6408 32.4187 19.6408 31.4515ZM23.2148 27.1956C23.9582 27.222 24.6837 27.2892 25.3835 27.3993C25.3735 27.5587 25.3592 27.716 25.3592 27.8775V31.4515V32.4487C25.3592 33.0334 25.2291 33.5974 24.999 34.1142C24.4085 34.2043 23.8131 34.2693 23.2148 34.2943V27.1956ZM31.7925 38.4116C32.2507 38.5303 32.7275 38.5996 33.2221 38.5996C33.7168 38.5996 34.1935 38.5303 34.6517 38.4116V38.5996C34.6517 39.388 34.0105 40.0292 33.2221 40.0292C32.4337 40.0292 31.7925 39.388 31.7925 38.5996V38.4116ZM38.9406 32.6824V30.2206C39.3659 30.4687 39.6554 30.9247 39.6554 31.4515C39.6554 31.9783 39.3659 32.4344 38.9406 32.6824ZM39.6554 28.9897C39.2329 28.7438 38.749 28.5923 38.2258 28.5923C36.5731 28.5923 35.0191 27.949 33.8497 26.7796L33.2221 26.152L32.5945 26.7796C31.4251 27.949 29.8711 28.5923 28.2185 28.5923C27.6952 28.5923 27.2113 28.7438 26.7888 28.9897V27.8775C26.7888 24.3306 29.6752 21.4442 33.2221 21.4442C36.769 21.4442 39.6554 24.3306 39.6554 27.8775V28.9897ZM38.9227 17.1554H37.511V18.585H38.9106C38.8612 19.7408 38.7054 20.8824 38.4188 21.9925C37.032 20.7659 35.215 20.0146 33.2221 20.0146C32.6767 20.0146 32.1442 20.0711 31.6302 20.1769C31.6967 19.6451 31.7403 19.1147 31.761 18.585H36.0813V17.1554H31.7739C31.651 13.9659 30.7217 11.0902 29.5051 8.6506C31.8075 7.63272 33.0741 6.32462 33.5681 5.72489C36.7025 8.58341 38.7283 12.6357 38.9227 17.1554ZM11.4319 5.72418C11.9259 6.3239 13.1925 7.63272 15.4949 8.64989C14.2783 11.0895 13.349 13.9659 13.2261 17.1547H6.07801C6.27172 12.6357 8.29749 8.58341 11.4319 5.72418ZM11.7779 21.4442C15.3248 21.4442 18.2112 24.3306 18.2112 27.8775V28.9897C17.7887 28.7438 17.3048 28.5923 16.7815 28.5923C15.1289 28.5923 13.5749 27.949 12.4055 26.7796L11.7779 26.152L11.1503 26.7796C9.98086 27.949 8.42687 28.5923 6.77423 28.5923C6.25099 28.5923 5.76707 28.7438 5.34462 28.9897V27.8775C5.34462 24.3306 8.23101 21.4442 11.7779 21.4442ZM5.34462 31.4515C5.34462 30.9247 5.63411 30.4687 6.05942 30.2206V32.6824C5.63411 32.4344 5.34462 31.9783 5.34462 31.4515ZM7.48904 32.8811V29.9883C9.08092 29.8411 10.5699 29.2042 11.7779 28.1491C12.9859 29.2042 14.4749 29.8411 16.0667 29.9883V32.8811C16.0667 35.2464 14.1432 37.17 11.7779 37.17C9.41259 37.17 7.48904 35.2464 7.48904 32.8811ZM10.3483 38.4116C10.8065 38.5303 11.2832 38.5996 11.7779 38.5996C12.2725 38.5996 12.7493 38.5303 13.2075 38.4116V38.5996C13.2075 39.388 12.5663 40.0292 11.7779 40.0292C10.9895 40.0292 10.3483 39.388 10.3483 38.5996V38.4116ZM2.11154 42.8885L2.28667 42.4517C2.73628 41.3259 3.71557 40.5124 4.90429 40.2744L9.0609 39.4431C9.42259 40.6061 10.4969 41.4588 11.7779 41.4588C13.0588 41.4588 14.1332 40.6061 14.4956 39.4431L18.6522 40.2744C19.8409 40.5124 20.8195 41.3259 21.2691 42.4517L21.4442 42.8885H2.11154ZM22.5 41.7162C21.8352 40.2494 20.5221 39.1908 18.9324 38.8734L14.6371 38.0135V37.8255C15.7687 37.1686 16.6529 36.1357 17.1218 34.8983C18.8566 35.4466 20.6594 35.7404 22.5 35.7404C22.9217 35.7404 23.3428 35.7154 23.7631 35.6861C23.6873 35.7447 23.6137 35.8069 23.5329 35.8605L22.9046 36.2793L23.3578 36.8841C23.5922 37.1972 24.4178 38.2529 25.405 39.0557C24.1155 39.5031 23.0697 40.4588 22.5 41.7162ZM23.5558 42.8885L23.7309 42.4517C24.1805 41.3259 25.1598 40.5124 26.3485 40.2744L30.5051 39.4431C30.8668 40.6061 31.9412 41.4588 33.2221 41.4588C34.5031 41.4588 35.5774 40.6061 35.9398 39.4431L40.0964 40.2744C41.2851 40.5124 42.2637 41.3259 42.7133 42.4517L42.8885 42.8885H23.5558Z" fill="black"/>
</svg>
