<svg width="42" height="42" viewBox="0 0 42 42" fill="none" xmlns="http://www.w3.org/2000/svg">
<g clip-path="url(#clip0)">
<path d="M10.1619 5.41919C7.54777 5.41919 5.41992 7.54704 5.41992 10.1611C5.41992 12.7752 7.54777 14.9031 10.1619 14.9031C12.7759 14.9031 14.9038 12.7752 14.9038 10.1611C14.9038 7.54704 12.7759 5.41919 10.1619 5.41919ZM10.1619 11.516C9.41332 11.516 8.80702 10.9097 8.80702 10.1611C8.80702 9.41259 9.41332 8.80629 10.1619 8.80629C10.9104 8.80629 11.5167 9.41259 11.5167 10.1611C11.5167 10.9097 10.9104 11.516 10.1619 11.516Z" fill="#37A000"/>
<path d="M29.8074 23.0322C26.072 23.0322 23.0332 26.071 23.0332 29.8064C23.0332 33.5418 26.072 36.5806 29.8074 36.5806C33.5428 36.5806 36.5816 33.5418 36.5816 29.8064C36.5816 26.071 33.5428 23.0322 29.8074 23.0322ZM29.8074 33.1935C27.9369 33.1935 26.4203 31.6769 26.4203 29.8064C26.4203 27.9359 27.9369 26.4193 29.8074 26.4193C31.6779 26.4193 33.1945 27.9359 33.1945 29.8064C33.1945 31.6769 31.6779 33.1935 29.8074 33.1935Z" fill="#37A000"/>
<path d="M16.2587 32.0305L8.38436 23.0322H6.96369L6.40965 24.696L4.84147 23.9114L2.23466 26.5182L3.01925 28.0864L1.35547 28.6405V32.3266L3.01925 32.8806L2.23466 34.4488L4.84147 37.0556L6.40965 36.271L6.96369 37.9354H10.6498L11.2038 36.2717L12.772 37.0563L15.3788 34.4495L14.5943 32.8813L16.2587 32.3272V32.0305ZM8.80708 33.1935C7.31067 33.1935 6.0974 31.9802 6.0974 30.4838C6.0974 28.9874 7.31067 27.7742 8.80708 27.7742C10.3035 27.7742 11.5168 28.9874 11.5168 30.4838C11.5168 31.9802 10.3035 33.1935 8.80708 33.1935Z" fill="#37A000"/>
<path d="M37.9364 6.96296L36.2726 6.40892L37.0572 4.84073L34.4504 2.23393L32.8822 3.01852L32.3282 1.35474H28.6421L28.088 3.01852L26.5199 2.23393L23.9131 4.84073L24.6976 6.40892L23.0332 6.96296V8.37965L32.0414 16.258H32.3275L32.8816 14.5942L34.4498 15.3788L37.0566 12.772L36.272 11.2038L37.9364 10.6497V6.96296ZM30.4848 11.516C28.9884 11.516 27.7751 10.3028 27.7751 8.80635C27.7751 7.30994 28.9884 6.09667 30.4848 6.09667C31.9812 6.09667 33.1945 7.30994 33.1945 8.80635C33.1945 10.3028 31.9812 11.516 30.4848 11.516Z" fill="#37A000"/>
<path d="M10.1606 17.613V16.2582C6.79864 16.2582 4.06382 13.5233 4.06382 10.1614H2.70898C2.70898 14.2699 6.05209 17.613 10.1606 17.613Z" fill="black"/>
<path d="M10.1612 12.1937C11.2815 12.1937 12.1934 11.2817 12.1934 10.1614C12.1934 9.04109 11.2815 8.12915 10.1612 8.12915C9.04084 8.12915 8.12891 9.04109 8.12891 10.1614C8.12891 11.2817 9.04084 12.1937 10.1612 12.1937ZM10.1612 9.48399C10.5349 9.48399 10.8386 9.78764 10.8386 10.1614C10.8386 10.5352 10.5349 10.8388 10.1612 10.8388C9.78739 10.8388 9.48375 10.5352 9.48375 10.1614C9.48375 9.78764 9.78739 9.48399 10.1612 9.48399Z" fill="black"/>
<path d="M42 32.3197V27.2933L40.1669 26.6539C39.9611 25.9778 39.6919 25.3262 39.3621 24.7083L40.2062 22.9618L39.552 22.3075C39.249 21.9096 38.7518 21.3847 38.3757 21.0046C37.9077 20.5313 37.3679 20.0176 37.0014 19.6968L17.4564 2.60416C15.5373 0.924836 13.0764 0 10.5258 0V0.0181924C10.4037 0.0142232 10.2847 0 10.1613 0C4.55836 0 0 4.55836 0 10.1613C0 10.2847 0.0142232 10.4037 0.0181924 10.5258H0C0 13.0764 0.924836 15.5367 2.60416 17.4558L19.6948 36.9858C20.0027 37.3375 20.4648 37.827 20.8998 38.2653C21.3116 38.6794 21.8785 39.2252 22.3039 39.5496L22.9605 40.2062L24.707 39.3621C25.3245 39.6912 25.9765 39.9611 26.6525 40.1669L27.2933 42H32.3197L32.959 40.1669C33.6351 39.9611 34.2867 39.6919 34.9046 39.3621L36.6511 40.2062L40.2062 36.6511L39.3621 34.9046C39.6912 34.2867 39.9611 33.6351 40.1669 32.959L42 32.3197ZM20.2508 24.7083C19.9217 25.3262 19.6518 25.9778 19.446 26.6539L17.6129 27.2933V32.3197L19.446 32.959C19.6518 33.6351 19.921 34.2867 20.2508 34.9046L20.0454 35.3293L6.21453 19.5244C7.42846 20.0381 8.76246 20.3226 10.1613 20.3226C15.7642 20.3226 20.3226 15.7642 20.3226 10.1613C20.3226 8.76114 20.0381 7.42647 19.5238 6.21188L35.3383 20.0414L34.9053 20.2508C34.2877 19.9217 33.6358 19.6518 32.9597 19.446L32.3197 17.6129H27.2933L26.6539 19.446C25.9778 19.6518 25.3262 19.921 24.7083 20.2508L22.9618 19.4067L19.4067 22.9618L20.2508 24.7083ZM10.1613 1.35484C15.017 1.35484 18.9677 5.30557 18.9677 10.1613C18.9677 15.017 15.017 18.9677 10.1613 18.9677C5.30557 18.9677 1.35484 15.017 1.35484 10.1613C1.35484 5.30557 5.30557 1.35484 10.1613 1.35484ZM39.0505 31.9138L38.9576 32.2601C38.7422 33.0649 38.4247 33.8329 38.0135 34.5438L37.8333 34.8547L38.5669 36.3733L36.3733 38.5669L34.8547 37.8333L34.5438 38.0135C33.8329 38.424 33.0642 38.7416 32.2601 38.9576L31.9138 39.0505L31.3578 40.6452H28.2551L27.6991 39.0505L27.3528 38.9576C26.548 38.7422 25.78 38.4247 25.0691 38.0135L24.7582 37.8333L23.2397 38.5669L21.046 36.3733L21.7796 34.8547L21.5994 34.5438C21.1889 33.8329 20.8713 33.0642 20.6553 32.2601L20.5624 31.9138L18.9677 31.3578V28.2551L20.5624 27.6991L20.6553 27.3528C20.8707 26.548 21.1882 25.78 21.5994 25.0691L21.7796 24.7582L21.046 23.2397L23.2397 21.046L24.7582 21.7796L25.0691 21.5994C25.78 21.1889 26.5487 20.8713 27.3528 20.6553L27.6991 20.5624L28.2551 18.9677H31.3578L31.9138 20.5624L32.2601 20.6553C33.0649 20.8707 33.8329 21.1882 34.5438 21.5994L34.8547 21.7796L36.3733 21.046L38.5669 23.2397L37.8333 24.7582L38.0135 25.0691C38.424 25.78 38.7416 26.5487 38.9576 27.3528L39.0505 27.6991L40.6452 28.2551V31.3578L39.0505 31.9138Z" fill="black"/>
<path d="M29.8067 25.7419C27.5651 25.7419 25.7422 27.5648 25.7422 29.8065C25.7422 32.0481 27.5651 33.871 29.8067 33.871C32.0483 33.871 33.8712 32.0481 33.8712 29.8065C33.8712 27.5648 32.0483 25.7419 29.8067 25.7419ZM29.8067 32.5161C28.3123 32.5161 27.097 31.3009 27.097 29.8065C27.097 28.312 28.3123 27.0968 29.8067 27.0968C31.3011 27.0968 32.5164 28.312 32.5164 29.8065C32.5164 31.3009 31.3011 32.5161 29.8067 32.5161Z" fill="black"/>
<path d="M30.4848 12.1936C32.3523 12.1936 33.8719 10.6741 33.8719 8.80653C33.8719 6.939 32.3523 5.41943 30.4848 5.41943C28.6172 5.41943 27.0977 6.939 27.0977 8.80653C27.0977 10.6741 28.6172 12.1936 30.4848 12.1936ZM30.4848 6.77427C31.6051 6.77427 32.517 7.68621 32.517 8.80653C32.517 9.92685 31.6051 10.8388 30.4848 10.8388C29.3644 10.8388 28.4525 9.92685 28.4525 8.80653C28.4525 7.68621 29.3644 6.77427 30.4848 6.77427Z" fill="black"/>
<path d="M8.80702 27.0967C6.93948 27.0967 5.41992 28.6162 5.41992 30.4838C5.41992 32.3513 6.93948 33.8709 8.80702 33.8709C10.6746 33.8709 12.1941 32.3513 12.1941 30.4838C12.1941 28.6162 10.6746 27.0967 8.80702 27.0967ZM8.80702 32.516C7.6867 32.516 6.77476 31.6041 6.77476 30.4838C6.77476 29.3635 7.6867 28.4515 8.80702 28.4515C9.92734 28.4515 10.8393 29.3635 10.8393 30.4838C10.8393 31.6041 9.92734 32.516 8.80702 32.516Z" fill="black"/>
</g>
<defs>
<clipPath id="clip0">
<rect width="42" height="42" fill="white"/>
</clipPath>
</defs>
</svg>
