<svg width="48" height="48" viewBox="0 0 48 48" fill="none" xmlns="http://www.w3.org/2000/svg">
<path d="M37.1613 20.9032H0V2.32258C0 1.04206 1.04206 0 2.32258 0H34.8387C36.1192 0 37.1613 1.04206 37.1613 2.32258V20.9032Z" fill="#37A000"/>
<path d="M41.0323 34.0647H34.8387C31.2821 34.0647 28.3455 36.7441 27.9275 40.1893H7.17523C5.10271 40.2303 3.49316 39.7356 2.52465 38.7834C1.88671 38.1539 1.54839 37.3263 1.54839 36.3872C1.54839 34.2528 3.2849 32.5163 5.41935 32.5163H27.0968C30.0844 32.5163 32.5161 30.0845 32.5161 27.0969V24.7743H34.8387C36.1192 24.7743 37.1613 23.7323 37.1613 22.4518V19.355H36.3871H0.774194H0V22.4518C0 23.7323 1.04206 24.7743 2.32258 24.7743H13.9355V27.0969H11.6129V28.6453H25.5484V27.0969H23.2258V24.7743H30.9677V27.0969C30.9677 29.2314 29.2312 30.9679 27.0968 30.9679H5.41935C2.43174 30.9679 0 33.3996 0 36.3872C0 37.7506 0.497806 38.9599 1.43845 39.8866C2.67252 41.1013 4.58477 41.74 6.97084 41.74C7.04284 41.74 7.11484 41.74 7.18684 41.7385H27.9066C28.2612 45.2502 31.2348 48.0001 34.8387 48.0001H41.0323C44.8746 48.0001 48 44.8747 48 41.0324C48 37.1901 44.8746 34.0647 41.0323 34.0647ZM1.54839 22.4518V20.9034H35.6129V22.4518C35.6129 22.8791 35.2661 23.2259 34.8387 23.2259H2.32258C1.89523 23.2259 1.54839 22.8791 1.54839 22.4518ZM21.6774 27.0969H15.4839V24.7743H21.6774V27.0969ZM29.4813 41.8066H33.2903V40.2582H29.4813C29.8591 37.6368 32.1143 35.613 34.8387 35.613V46.4518C32.1143 46.4518 29.8591 44.428 29.4813 41.8066ZM41.0323 46.4518H36.3871V35.613H41.0323C44.0199 35.613 46.4516 38.0448 46.4516 41.0324C46.4516 44.02 44.0199 46.4518 41.0323 46.4518Z" fill="#333333"/>
<path d="M14.7098 10.0645H13.1614V11.6128H14.7098V10.0645Z" fill="#333333"/>
<path d="M17.8064 10.0645H16.2581V11.6128H17.8064V10.0645Z" fill="#333333"/>
<path d="M20.9031 10.0645H19.3547V11.6128H20.9031V10.0645Z" fill="#333333"/>
<path d="M24 10.0645H22.4517V11.6128H24V10.0645Z" fill="#333333"/>
</svg>
