<svg width="48" height="48" viewBox="0 0 48 48" fill="none" xmlns="http://www.w3.org/2000/svg">
<path d="M12.7417 19.8219C12.7417 21.2673 13.0312 22.6826 13.5662 24.0002H35.143C35.678 22.6826 35.9675 21.2673 35.9675 19.8219C35.9675 18.6018 35.7616 17.4002 35.3752 16.2583H13.334C12.9476 17.4002 12.7417 18.6018 12.7417 19.8219Z" fill="#37A000"/>
<path d="M16.6129 38.7095C14.905 38.7095 13.5161 40.0984 13.5161 41.8062V47.2256H15.0645H18.1613H19.7097V41.8062C19.7097 40.0984 18.3208 38.7095 16.6129 38.7095Z" fill="#37A000"/>
<path d="M24.3546 38.7095C22.6467 38.7095 21.2578 40.0984 21.2578 41.8062V47.2256H22.8062H25.903H27.4514V41.8062C27.4514 40.0984 26.0625 38.7095 24.3546 38.7095Z" fill="#37A000"/>
<path d="M32.0968 38.7095C30.3889 38.7095 29 40.0984 29 41.8062V47.2256H30.5484H33.6452H35.1935V41.8062C35.1935 40.0984 33.8046 38.7095 32.0968 38.7095Z" fill="#37A000"/>
<path d="M39.0645 29.4194H31.7321C32.4916 28.9316 33.193 28.3471 33.8 27.6542C34.1677 27.2338 34.4929 26.7848 34.7956 26.3226H35.1936C39.4625 26.3226 42.9355 22.8495 42.9355 18.5806C42.9355 14.3117 39.4625 10.8387 35.1936 10.8387H33.1799C32.984 10.3695 32.871 9.86864 32.871 9.34993V6.19355H33.6452C34.9257 6.19355 35.9677 5.15148 35.9677 3.87097V2.32258C35.9677 1.04206 34.9257 0 33.6452 0H15.0645C13.784 0 12.7419 1.04206 12.7419 2.32258V3.87097C12.7419 5.15148 13.784 6.19355 15.0645 6.19355H15.8387V9.34993C15.8387 9.86864 15.7257 10.3695 15.5298 10.8387H13.5161C9.24723 10.8387 5.77419 14.3117 5.77419 18.5806C5.77419 22.8495 9.24723 26.3226 13.5161 26.3226H13.9148C14.2168 26.7848 14.5427 27.2338 14.9097 27.6542C15.5159 28.3471 16.2181 28.9316 16.9775 29.4194H9.64516C7.08335 29.4194 5 31.5027 5 34.0645C5 36.6263 7.08335 38.7097 9.64516 38.7097C9.90916 38.7097 10.167 38.6826 10.4194 38.64V48H38.2903V38.64C38.5427 38.6826 38.8005 38.7097 39.0645 38.7097C41.6263 38.7097 43.7097 36.6263 43.7097 34.0645C43.7097 31.5027 41.6263 29.4194 39.0645 29.4194ZM12.1094 21.5791C11.137 21.3012 10.4194 20.4147 10.4194 19.3548V17.8065C10.4194 16.5259 11.4614 15.4839 12.7419 15.4839H12.7892C12.2511 16.855 11.9677 18.319 11.9677 19.8217C11.9677 20.4139 12.0227 20.9992 12.1094 21.5791ZM35.9205 15.4839H35.9677C37.2483 15.4839 38.2903 16.5259 38.2903 17.8065V19.3548C38.2903 20.4147 37.5726 21.3012 36.6003 21.5791C36.687 20.9992 36.7419 20.4139 36.7419 19.8217C36.7419 18.319 36.4586 16.855 35.9205 15.4839ZM13.5161 19.8217C13.5161 19.1628 13.585 18.5148 13.7058 17.8792L17.4483 23.2258H14.0999C13.7213 22.1396 13.5161 20.9915 13.5161 19.8217ZM15.0034 17.0323H22.8684L18.9355 22.6498L15.0034 17.0323ZM24.3548 17.6083L28.287 23.2258H20.4227L24.3548 17.6083ZM25.8421 17.0323H33.7071L29.7742 22.6498L25.8421 17.0323ZM35.0039 17.8792C35.1246 18.5148 35.1936 19.1628 35.1936 19.8217C35.1936 20.9915 34.9884 22.1396 34.609 23.2258H31.2606L35.0039 17.8792ZM41.3871 18.5806C41.3871 21.8369 38.8594 24.5086 35.6635 24.7502C35.8926 24.2462 36.0877 23.7283 36.2449 23.1979C38.2477 23.0524 39.8387 21.3941 39.8387 19.3548V17.8065C39.8387 15.672 38.1022 13.9355 35.9677 13.9355H35.1936V13.968C34.9884 13.6065 34.7708 13.2503 34.5262 12.9081L34.1538 12.3871H35.1936C38.6085 12.3871 41.3871 15.1657 41.3871 18.5806ZM16.3775 12.5001C17.0379 11.575 17.3871 10.4857 17.3871 9.34993V6.19355H28.2258V4.64516H15.0645C14.6372 4.64516 14.2903 4.29755 14.2903 3.87097V2.32258C14.2903 1.896 14.6372 1.54839 15.0645 1.54839H33.6452C34.0725 1.54839 34.4194 1.896 34.4194 2.32258V3.87097C34.4194 4.29755 34.0725 4.64516 33.6452 4.64516H29.7742V6.19355H31.3226V9.34993C31.3226 10.4857 31.6717 11.575 32.3321 12.4994L33.2666 13.8077C33.6459 14.3388 33.9641 14.9017 34.2343 15.4839H14.4754C14.7455 14.9017 15.0637 14.3396 15.4431 13.8077L16.3775 12.5001ZM7.32258 18.5806C7.32258 15.1657 10.1012 12.3871 13.5161 12.3871H14.5559L14.1835 12.9081C13.9388 13.2503 13.7213 13.6065 13.5161 13.968V13.9355H12.7419C10.6075 13.9355 8.87097 15.672 8.87097 17.8065V19.3548C8.87097 21.3941 10.4619 23.0524 12.4648 23.1979C12.6219 23.729 12.817 24.247 13.0462 24.7502C9.85032 24.5086 7.32258 21.8369 7.32258 18.5806ZM16.0764 26.6346C15.5747 26.0609 15.1505 25.4338 14.7905 24.7742H33.9208C33.5608 25.4338 33.1365 26.0609 32.6348 26.6346C31.0865 28.4044 28.849 29.4194 26.4978 29.4194H22.2142C19.8614 29.4194 17.6248 28.4044 16.0764 26.6346ZM39.0645 37.1613C37.3566 37.1613 35.9677 35.7724 35.9677 34.0645V33.2903H34.4194V34.0645C34.4194 34.608 34.5185 35.1275 34.6903 35.6129H18.1613V37.1613H35.6116C35.9376 37.5236 36.3177 37.8348 36.7419 38.081V46.4516H11.9677V38.081C12.392 37.8348 12.7721 37.5236 13.0981 37.1613H16.6129V35.6129H14.0194C14.192 35.1275 14.2903 34.608 14.2903 34.0645V33.2903H12.7419V34.0645C12.7419 35.7724 11.353 37.1613 9.64516 37.1613C7.93729 37.1613 6.54839 35.7724 6.54839 34.0645C6.54839 32.3566 7.93729 30.9677 9.64516 30.9677H22.2126H26.4963H39.0645C40.7724 30.9677 42.1613 32.3566 42.1613 34.0645C42.1613 35.7724 40.7724 37.1613 39.0645 37.1613Z" fill="black"/>
</svg>
