<svg width="48" height="48" viewBox="0 0 48 48" fill="none" xmlns="http://www.w3.org/2000/svg">
<path d="M29.4195 29.7849C29.4195 30.5095 29.01 31.1723 28.3612 31.4966L27.3803 31.9867C26.7323 32.3111 26.3228 32.9738 26.3228 33.6992V35.613V35.9003C27.9617 36.7 29.7958 37.1614 31.7421 37.1614C36.3246 37.1614 40.3155 34.667 42.4585 30.9679H38.7284C38.2206 30.9679 37.7344 30.7666 37.3751 30.4074L35.3994 28.4316C35.0402 28.0724 34.554 27.8711 34.0461 27.8711H31.3333C30.2766 27.8711 29.4195 28.7281 29.4195 29.7849Z" fill="#37A000"/>
<path d="M35.6131 13.0127V13.1613V16.2837C35.6131 16.7714 35.4683 17.2483 35.1981 17.6548L34.4797 18.7317C34.2095 19.1381 34.0647 19.615 34.0647 20.1035V20.7546C34.0647 22.1195 35.171 23.2259 36.5359 23.2259C37.4038 23.2259 38.209 23.6811 38.6557 24.4259L39.5382 25.8968C39.985 26.6416 40.7893 27.0968 41.658 27.0968H43.9047C44.0471 26.3435 44.1292 25.5686 44.1292 24.7742C44.1292 19.286 40.5563 14.6393 35.6131 13.0127Z" fill="#37A000"/>
<path d="M26.3227 13.6484C22.2017 15.6598 19.355 19.8791 19.355 24.7744C19.355 27.4035 20.1803 29.8376 21.5769 31.8428L21.6776 31.7421L23.1214 30.2982C23.6843 29.7354 24.0001 28.9728 24.0001 28.177C24.0001 27.0404 24.6419 26.0015 25.6585 25.4936L26.987 24.8293C28.0035 24.3215 28.6453 23.2825 28.6453 22.146V21.3718C28.6453 20.5759 28.3294 19.8133 27.7666 19.2505L27.2014 18.6853C26.6386 18.1225 26.3227 17.3599 26.3227 16.5641V13.9357V13.6484Z" fill="#37A000"/>
<path d="M13.9354 37.9354H3.09668V25.5483H13.9354V37.9354ZM4.64507 36.387H12.387V27.0967H4.64507V36.387Z" fill="#37A000"/>
<path d="M37.4316 9.53955L36.8896 10.9896C42.6086 13.1264 46.4517 18.6657 46.4517 24.7741C46.4517 30.8817 42.6094 36.4211 36.8904 38.5579L37.4324 40.0079C43.7536 37.6466 48.0001 31.5243 48.0001 24.7741C48.0001 18.0232 43.7529 11.9008 37.4316 9.53955Z" fill="#3F3A34"/>
<path d="M26.3226 39.484H1.54839V10.8389H0V41.0324H26.3226V39.484Z" fill="#3F3A34"/>
<path d="M1.54839 9.29032H9.29032V1.54839H28.6452V6.96774H30.1935V0H8.19561L0 8.19561V9.29032H0.774194H1.54839ZM2.6431 7.74194L7.74194 2.6431V7.74194H2.6431Z" fill="#3F3A34"/>
<path d="M23.9999 3.09668H10.8386V4.64507H23.9999V3.09668Z" fill="#3F3A34"/>
<path d="M27.0967 3.09668H25.5483V4.64507H27.0967V3.09668Z" fill="#3F3A34"/>
<path d="M27.0967 6.19336H10.8386V7.74175H27.0967V6.19336Z" fill="#3F3A34"/>
<path d="M26.3225 9.29053H10.8386V10.8389H26.3225V9.29053Z" fill="#3F3A34"/>
<path d="M4.64507 13.1611H3.09668V14.7095H4.64507V13.1611Z" fill="#3F3A34"/>
<path d="M19.3549 13.1611H6.1936V14.7095H19.3549V13.1611Z" fill="#3F3A34"/>
<path d="M19.3547 16.2583H3.09668V17.8067H19.3547V16.2583Z" fill="#3F3A34"/>
<path d="M14.7096 19.355H3.09668V20.9034H14.7096V19.355Z" fill="#3F3A34"/>
<path d="M11.6128 22.4517H3.09668V24H11.6128V22.4517Z" fill="#3F3A34"/>
<path d="M14.7098 22.4517H13.1614V24H14.7098V22.4517Z" fill="#3F3A34"/>
<path d="M34.0644 41.0322H35.6128V37.3525C40.9865 35.6957 44.9031 30.6844 44.9031 24.7742C44.9031 18.864 40.9865 13.8526 35.6128 12.1959V8.51611H27.8709V12.1959C22.4972 13.8526 18.5806 18.864 18.5806 24.7742C18.5806 30.6844 22.4972 35.6957 27.8709 37.3525V41.0322H29.4193V43.3548H22.4515V48H41.0322V43.3548H34.0644V41.0322ZM31.7419 36.3871C30.0897 36.3871 28.5204 36.0348 27.0967 35.4108V33.6991C27.0967 33.264 27.3382 32.8738 27.7261 32.6795L28.707 32.1894C29.6244 31.7311 30.1935 30.8098 30.1935 29.7848C30.1935 29.1561 30.7052 28.6451 31.3331 28.6451H34.0459C34.3501 28.6451 34.6366 28.7636 34.8518 28.9788L36.8275 30.9561C37.3362 31.4632 38.0113 31.7419 38.7282 31.7419H41.0105C38.8892 34.5561 35.5292 36.3871 31.7419 36.3871ZM43.3548 24.7742C43.3548 25.3006 43.3075 25.8147 43.2394 26.3226H41.6577C41.0647 26.3226 40.5073 26.0067 40.2022 25.4988L39.3197 24.0279C38.7359 23.0555 37.6699 22.4516 36.5357 22.4516C35.5997 22.4516 34.8386 21.6906 34.8386 20.7546V20.1035C34.8386 19.7667 34.937 19.4415 35.1235 19.1613L35.842 18.0844C36.1981 17.5502 36.387 16.927 36.387 16.2836V14.1375C40.4833 15.9337 43.3548 20.0222 43.3548 24.7742ZM29.4193 10.0645H34.0644V11.8304C33.3088 11.6957 32.5354 11.6129 31.7419 11.6129C30.9483 11.6129 30.1749 11.6957 29.4193 11.8304V10.0645ZM25.5483 14.9682V16.5639C25.5483 17.5726 25.9408 18.5195 26.6539 19.2325L27.219 19.7977C27.6394 20.2181 27.8709 20.777 27.8709 21.3716V22.1458C27.8709 22.9943 27.3994 23.7569 26.6407 24.1362L25.3122 24.7997C24.0255 25.4439 23.2257 26.7375 23.2257 28.1768C23.2257 28.7721 22.9942 29.3303 22.5739 29.7507L21.7168 30.6077C20.7135 28.8913 20.129 26.9017 20.129 24.7742C20.129 20.6485 22.2975 17.0284 25.5483 14.9682ZM22.601 31.913L23.6686 30.8454C24.3816 30.1324 24.7741 29.1848 24.7741 28.1768C24.7741 27.3282 25.2456 26.5657 26.0043 26.1863L27.3328 25.5228C28.6195 24.8787 29.4193 23.585 29.4193 22.1458V21.3716C29.4193 20.3628 29.0268 19.416 28.3137 18.703L27.7486 18.1378C27.3282 17.7174 27.0967 17.1584 27.0967 16.5639V14.1383C28.5204 13.5135 30.0897 13.1613 31.7419 13.1613C32.8157 13.1613 33.8508 13.3192 34.8386 13.5933V16.2836C34.8386 16.6204 34.7403 16.9455 34.5537 17.2258L33.8353 18.3027C33.4791 18.8369 33.2902 19.4601 33.2902 20.1035V20.7546C33.2902 22.5437 34.7465 24 36.5357 24C37.1287 24 37.6861 24.3159 37.9911 24.8237L38.8737 26.2947C39.4575 27.2671 40.5235 27.871 41.6577 27.871H42.9228C42.6975 28.6839 42.3924 29.4627 42.0053 30.1935H38.7282C38.4239 30.1935 38.1375 30.0751 37.9222 29.8599L35.9465 27.8826C35.4379 27.3755 34.7628 27.0968 34.0459 27.0968H31.3331C29.8513 27.0968 28.6451 28.303 28.6451 29.7848C28.6451 30.2199 28.4035 30.6101 28.0157 30.8044L27.0348 31.2944C26.1173 31.7528 25.5483 32.674 25.5483 33.6991V34.5801C24.4188 33.8648 23.4231 32.9621 22.601 31.913ZM31.7419 37.9355C32.5354 37.9355 33.3088 37.8526 34.0644 37.7179V39.4839H29.4193V37.7179C30.1749 37.8526 30.9483 37.9355 31.7419 37.9355ZM30.9677 41.0322H32.5161V43.3548H30.9677V41.0322ZM39.4838 46.4516H23.9999V44.9032H39.4838V46.4516Z" fill="#3F3A34"/>
<path d="M24 36.3872H15.4839V37.9356H24V36.3872Z" fill="#3F3A34"/>
<path d="M20.9032 33.2905H15.4839V34.8389H20.9032V33.2905Z" fill="#3F3A34"/>
</svg>
