<svg width="48" height="48" viewBox="0 0 48 48" fill="none" xmlns="http://www.w3.org/2000/svg">
<g clip-path="url(#clip0)">
<path d="M46.5439 6.96784L47.9188 4.21717C48.0388 3.97717 48.0264 3.69227 47.8847 3.46389C47.7431 3.2355 47.4946 3.09692 47.2267 3.09692H41.0332V4.64529V9.2904V10.8388H47.2267C47.4953 10.8388 47.7438 10.6994 47.8855 10.471C48.0272 10.2426 48.0396 9.95774 47.9196 9.71775L46.5439 6.96784Z" fill="#37A000"/>
<path d="M38.71 29.4192H9.29102V15.4839H38.71V29.4192Z" fill="#37A000"/>
<path d="M3.87092 0.000244141C1.7365 0.000244141 0 1.73674 0 3.87117V44.1287C0 46.2632 1.7365 47.9997 3.87092 47.9997H39.4834H41.0318V46.4513H39.4834C38.2029 46.4513 37.1608 45.4092 37.1608 44.1287C37.1608 42.8482 38.2029 41.8062 39.4834 41.8062H41.0318H41.8059V0.000244141H3.87092ZM36.406 46.4513H3.87092C2.59042 46.4513 1.54837 45.4092 1.54837 44.1287C1.54837 42.8482 2.59042 41.8062 3.87092 41.8062H36.4068C35.9152 42.455 35.6125 43.2539 35.6125 44.1287C35.6125 45.0036 35.9152 45.8025 36.406 46.4513ZM39.4834 40.2578H7.74184V37.1611H6.19347V40.2578H3.87092C2.99996 40.2578 2.19559 40.5474 1.54837 41.0336V3.87117C1.54837 2.59066 2.59042 1.54861 3.87092 1.54861H6.19347V35.6127H7.74184V1.54861H40.2576V40.2578H39.4834Z" fill="black"/>
<path d="M11.6473 13.7079L13.1268 14.1631L14.1495 10.8388H18.3657L19.3884 14.1631L20.8679 13.7079L19.9861 10.8388H20.9035V9.2904H19.51L17.6047 3.09692H14.9121L13.0068 9.2904H11.6133V10.8388H12.5307L11.6473 13.7079ZM16.0556 4.64529H16.4597L17.8888 9.2904H14.6256L16.0556 4.64529Z" fill="black"/>
<path d="M29.4181 10.8388C29.4181 9.91517 29.0116 9.08369 28.3675 8.51622C29.0109 7.94874 29.4181 7.11726 29.4181 6.19366C29.4181 4.48581 28.0292 3.09692 26.3213 3.09692H23.2246V13.9355H26.3213C28.0284 13.9355 29.4181 12.5466 29.4181 10.8388ZM24.773 4.64529H26.3213C27.1753 4.64529 27.8697 5.33974 27.8697 6.19366C27.8697 7.04759 27.1753 7.74203 26.3213 7.74203H24.773V4.64529ZM24.773 9.2904H26.3213C27.1753 9.2904 27.8697 9.98485 27.8697 10.8388C27.8697 11.6927 27.1753 12.3871 26.3213 12.3871H24.773V9.2904Z" fill="black"/>
<path d="M36.3861 13.9355V12.3871C34.2517 12.3871 32.5152 10.6506 32.5152 8.51622C32.5152 6.38179 34.2517 4.64529 36.3861 4.64529V3.09692C33.3977 3.09692 30.9668 5.52786 30.9668 8.51622C30.9668 11.5046 33.3977 13.9355 36.3861 13.9355Z" fill="black"/>
<path d="M37.9351 30.9678H10.0645V32.5161H37.9351V30.9678Z" fill="black"/>
<path d="M37.9351 34.0645H10.0645V35.6128H37.9351V34.0645Z" fill="black"/>
<path d="M37.9351 37.1611H36.3867V38.7095H37.9351V37.1611Z" fill="black"/>
<path d="M34.8383 37.1611H10.0645V38.7095H34.8383V37.1611Z" fill="black"/>
<path d="M34.064 43.3545H6.19336V44.9029H34.064V43.3545Z" fill="black"/>
<path d="M4.64602 43.3545H3.09766V44.9029H4.64602V43.3545Z" fill="black"/>
</g>
<defs>
<clipPath id="clip0">
<rect width="48" height="48" fill="white"/>
</clipPath>
</defs>
</svg>
