<svg width="48" height="48" viewBox="0 0 48 48" fill="none" xmlns="http://www.w3.org/2000/svg">
<path d="M29.425 17.8H39.8836C37.3982 11.4551 31.2153 6.95 24 6.95C16.7847 6.95 10.6018 11.4551 8.11637 17.8H18.575L17.8 19.35L18.575 20.9L17.025 24H0.75C0.75 11.159 11.159 0.75 24 0.75C36.841 0.75 47.25 11.159 47.25 24H30.975L29.425 20.9L30.2 19.35L29.425 17.8Z" fill="#37A000"/>
<path d="M24 18.75C22.7595 18.75 21.75 19.7595 21.75 21C21.75 22.2405 22.7595 23.25 24 23.25C25.2405 23.25 26.25 22.2405 26.25 21C26.25 19.7595 25.2405 18.75 24 18.75ZM24 21.75C23.586 21.75 23.25 21.4132 23.25 21C23.25 20.5868 23.586 20.25 24 20.25C24.414 20.25 24.75 20.5868 24.75 21C24.75 21.4132 24.414 21.75 24 21.75Z" fill="black"/>
<path d="M42 34.7778H38.8639V30.8889C38.8639 29.6024 37.8087 28.5556 36.5119 28.5556H34.9439C34.2249 28.5556 33.5883 28.8838 33.1563 29.3901L30.2476 20.6767L31.1375 19.2642L30.7243 18.4444H33.3759V16.8889H29.9403L29.1563 15.3333H27.1038V9.11111H20.8317V15.3333H18.7791L17.9951 16.8889H9.09341C11.8014 11.2624 17.6384 7.55556 23.9677 7.55556C30.297 7.55556 36.134 11.2624 38.842 16.8889H34.9439V18.4444H41.1854L40.766 17.3828C38.0776 10.5741 31.3272 6 23.9677 6C16.6082 6 9.85783 10.5741 7.16945 17.3828L6.75 18.4444H17.2111L16.7979 19.2642L17.6815 20.6666L10.8214 38.0592C10.7006 38.3649 10.6395 38.6861 10.6395 39.0143V39.1582C10.6395 40.223 11.2855 41.1377 12.2075 41.5468V44.1111H13.7755V41.7249C14.6599 41.5546 15.4204 40.9432 15.7481 40.0908L21.1147 26.1164L21.1805 26.2222H26.7541L26.7768 26.1864L29.5891 34.7778H29.4558V39.4444H32.5918V41.7778L33.9748 46.6871C34.1967 47.4602 34.918 48 35.7279 48C36.5378 48 37.2591 47.4602 37.481 46.6871L38.8342 41.9909L38.8569 39.4444H42V34.7778ZM34.1599 34.7778V33.2222H37.2959V34.7778H34.1599ZM34.9439 30.1111H36.5119C36.9447 30.1111 37.2959 30.4596 37.2959 30.8889V31.6667H34.1599V30.8889C34.1599 30.4596 34.5111 30.1111 34.9439 30.1111ZM22.3997 10.6667H25.5357V15.3333H22.3997V10.6667ZM14.282 39.537C14.1252 39.9469 13.723 40.2222 13.28 40.2222C12.6881 40.2222 12.2075 39.7454 12.2075 39.1582V39.0143C12.2075 38.8813 12.2318 38.7507 12.282 38.6262L18.7172 22.3108L20.0719 24.4606L14.282 39.537ZM22.0508 24.6667L18.5941 19.1802L19.7481 16.8889H28.1873L29.3421 19.1802L25.8846 24.6667H22.0508ZM27.8619 24.4644L29.1681 22.3909L32.5918 32.6474V34.7778H31.2379L27.8619 24.4644ZM35.4833 46.2609L34.4155 42.5556H37.0403L35.9725 46.2617C35.9114 46.4771 35.5444 46.4779 35.4833 46.2609ZM37.2959 41H34.1599V39.4444H37.2959V41ZM40.432 37.8889H31.0238V36.3333H40.432V37.8889Z" fill="black"/>
</svg>
