<svg width="48" height="48" viewBox="0 0 48 48" fill="none" xmlns="http://www.w3.org/2000/svg">
<path d="M44.1299 24.7741H3.87185C3.44449 24.7741 3.09766 24.4273 3.09766 23.9999V3.87087C3.09766 3.44352 3.44449 3.09668 3.87185 3.09668H44.1299C44.5573 3.09668 44.9041 3.44352 44.9041 3.87087V23.9999C44.9041 24.4273 44.5573 24.7741 44.1299 24.7741Z" fill="#37A000"/>
<path d="M45.6774 0H2.32258C1.04206 0 0 1.04206 0 2.32258V31.7419C0 33.0224 1.04206 34.0645 2.32258 34.0645H14.4093L9.76413 48H16.0413L17.5897 43.3548H30.4088L31.9572 48H38.2343L33.5892 34.0645H45.6774C46.9579 34.0645 48 33.0224 48 31.7419V2.32258C48 1.04206 46.9579 0 45.6774 0ZM14.9257 46.4516H11.9125L16.0421 34.0645H19.0552L14.9257 46.4516ZM27.3128 34.0645L28.8612 38.7097H19.1388L20.6872 34.0645H27.3128ZM18.1061 41.8064L18.6225 40.2581H29.3775L29.8939 41.8064H18.1061ZM36.0875 46.4516H33.0743L28.9455 34.0645H31.9587L36.0875 46.4516ZM45.6774 32.5161H2.32258C1.896 32.5161 1.54839 32.1693 1.54839 31.7419V29.4194H4.64516V27.871H1.54839V2.32258C1.54839 1.89523 1.896 1.54839 2.32258 1.54839H45.6774C46.104 1.54839 46.4516 1.89523 46.4516 2.32258V27.871H43.3548V27.0968C43.3548 25.8163 42.3128 24.7742 41.0323 24.7742H34.8387C33.5582 24.7742 32.5161 25.8163 32.5161 27.0968V27.871H6.19355V29.4194H46.4516V31.7419C46.4516 32.1693 46.104 32.5161 45.6774 32.5161ZM41.8064 27.871H34.0645V27.0968C34.0645 26.6694 34.4121 26.3226 34.8387 26.3226H41.0323C41.4588 26.3226 41.8064 26.6694 41.8064 27.0968V27.871Z" fill="black"/>
<path d="M10.0639 16.2581H6.19292V13.1613H10.0639V11.6129H6.19292V8.51616H10.0639V6.96777H4.64453V17.8065H10.0639V16.2581Z" fill="white"/>
<path d="M19.3557 10.0645H13.1621V11.6128H19.3557V10.0645Z" fill="white"/>
<path d="M19.3557 13.1614H13.1621V14.7098H19.3557V13.1614Z" fill="white"/>
<path d="M23.2254 12.387V13.1612V15.4838H24.7738V13.1612V12.387C24.7738 11.9597 25.1214 11.6128 25.5479 11.6128C25.9745 11.6128 26.3221 11.9597 26.3221 12.387V15.4838H27.8705V12.387C27.8705 11.9597 28.2181 11.6128 28.6447 11.6128C29.0713 11.6128 29.4189 11.9597 29.4189 12.387V15.4838H30.9673V12.387C30.9673 11.1065 29.9252 10.0645 28.6447 10.0645C28.0478 10.0645 27.5082 10.2975 27.0963 10.6683C26.6845 10.2967 26.1448 10.0645 25.5479 10.0645C24.951 10.0645 24.4114 10.2975 23.9996 10.6683C23.5877 10.2967 23.0481 10.0645 22.4512 10.0645V11.6128C22.8778 11.6128 23.2254 11.9597 23.2254 12.387Z" fill="white"/>
<path d="M35.6124 16.258H36.3866V14.7096H35.6124C34.7585 14.7096 34.064 14.0152 34.064 13.1612C34.064 12.3073 34.7585 11.6128 35.6124 11.6128H36.3866V10.0645H35.6124C33.9045 10.0645 32.5156 11.4534 32.5156 13.1612C32.5156 14.8691 33.9045 16.258 35.6124 16.258Z" fill="white"/>
<path d="M43.3541 10.0646H40.7738L42.4251 8.82591C43.0065 8.39004 43.3541 7.69559 43.3541 6.96784C43.3541 5.68733 42.3121 4.64526 41.0316 4.64526C39.751 4.64526 38.709 5.68733 38.709 6.96784H40.2574C40.2574 6.54049 40.605 6.19365 41.0316 6.19365C41.4581 6.19365 41.8058 6.54049 41.8058 6.96784C41.8058 7.21017 41.6904 7.44165 41.4961 7.5872L38.709 9.67752V11.613H43.3541V10.0646Z" fill="white"/>
</svg>
