<svg width="48" height="48" viewBox="0 0 48 48" fill="none" xmlns="http://www.w3.org/2000/svg">
<path d="M31.7425 31.7419L29.4199 28.6451V4.64509C29.4199 3.36225 30.4597 2.32251 31.7425 2.32251C33.0253 2.32251 34.0651 3.36225 34.0651 4.64509V28.6451L31.7425 31.7419Z" fill="#37A000"/>
<path d="M21.6777 22.4517H7.74219V24H21.6777V22.4517Z" fill="#37A000"/>
<path d="M21.6777 19.355H7.74219V20.9034H21.6777V19.355Z" fill="#37A000"/>
<path d="M21.6777 16.2581H7.74219V17.8064H21.6777V16.2581Z" fill="#37A000"/>
<path d="M21.6777 13.1614H7.74219V14.7098H21.6777V13.1614Z" fill="#37A000"/>
<path d="M43.3542 8.51611H39.4832V10.0645H41.8058V37.9355H24.7736V10.0645H27.0961V8.51611H4.64453V39.4839H43.3542V8.51611ZM6.19292 10.0645H23.2252V37.9355H6.19292V10.0645Z" fill="#3F3A34"/>
<path d="M44.9032 15.4839V17.0323H46.4516V42.5807H27.0968V43.3549C27.0968 45.0627 25.7079 46.4516 24 46.4516C22.2921 46.4516 20.9032 45.0627 20.9032 43.3549V42.5807H1.54839V17.0323H3.09677V15.4839H0V44.129H19.4191C19.7892 46.3231 21.7022 48 24 48C26.2978 48 28.2108 46.3231 28.5809 44.129H48V15.4839H44.9032Z" fill="#3F3A34"/>
<path d="M34.8381 28.903V6.19355H35.6123C36.0396 6.19355 36.3865 6.54039 36.3865 6.96774V21.6774H37.9349V6.96774C37.9349 5.68723 36.8928 4.64516 35.6123 4.64516H34.8381C34.8381 3.20594 33.8479 2.00439 32.5155 1.65832V0H30.9671V1.65832C29.6347 2.00439 28.6445 3.20594 28.6445 4.64516V28.903L31.7413 33.0325L34.8381 28.903ZM31.7413 3.09677C32.5952 3.09677 33.2897 3.79123 33.2897 4.64516V12.3871H30.1929V4.64516C30.1929 3.79123 30.8874 3.09677 31.7413 3.09677ZM30.1929 13.9355H33.2897V28.3874L31.7413 30.4514L30.1929 28.3874V13.9355Z" fill="#3F3A34"/>
<path d="M37.161 34.8386H26.3223V36.387H37.161V34.8386Z" fill="#3F3A34"/>
<path d="M10.0645 26.3225V34.0644H19.3548V26.3225H10.0645ZM17.8064 32.5161H11.6128V27.8709H17.8064V32.5161Z" fill="#3F3A34"/>
<path d="M40.2574 34.8386H38.709V36.387H40.2574V34.8386Z" fill="#3F3A34"/>
</svg>
