<svg width="70" height="70" viewBox="0 0 70 70" fill="primary" xmlns="http://www.w3.org/2000/svg">
<circle cx="35" cy="35" r="33.5" fill="white" stroke="#37A000" stroke-width="3"/>
<path d="M46.061 26.9602C45.9066 26.8042 45.7228 26.6803 45.5203 26.5958C45.3177 26.5113 45.1004 26.4678 44.881 26.4678C44.6615 26.4678 44.4442 26.5113 44.2416 26.5958C44.0391 26.6803 43.8553 26.8042 43.701 26.9602L31.341 39.3602L26.141 34.1402C25.9808 33.9853 25.7916 33.8634 25.5843 33.7815C25.377 33.6997 25.1555 33.6594 24.9327 33.6632C24.4826 33.6707 24.0539 33.8566 23.741 34.1802C23.428 34.5038 23.2564 34.9384 23.2639 35.3885C23.2714 35.8386 23.4574 36.2673 23.781 36.5802L30.161 42.9602C30.3153 43.1162 30.4991 43.2401 30.7016 43.3246C30.9042 43.4091 31.1215 43.4527 31.341 43.4527C31.5604 43.4527 31.7777 43.4091 31.9803 43.3246C32.1828 43.2401 32.3666 43.1162 32.521 42.9602L46.061 29.4002C46.2294 29.2448 46.3639 29.0561 46.4558 28.8461C46.5478 28.6362 46.5953 28.4094 46.5953 28.1802C46.5953 27.951 46.5478 27.7242 46.4558 27.5143C46.3639 27.3043 46.2294 27.1157 46.061 26.9602Z" fill="#37A000"/>
</svg>