<svg width="42" height="42" viewBox="0 0 42 42" fill="none" xmlns="http://www.w3.org/2000/svg">
    <path d="M26.666 14.3118L17.7285 23.2702L14.291 19.8327C14.1043 19.6146 13.8744 19.4375 13.616 19.3124C13.3575 19.1874 13.076 19.1171 12.789 19.106C12.5021 19.0949 12.216 19.1433 11.9487 19.248C11.6813 19.3528 11.4385 19.5116 11.2355 19.7147C11.0325 19.9177 10.8736 20.1605 10.7689 20.4278C10.6641 20.6952 10.6158 20.9813 10.6269 21.2682C10.6379 21.5551 10.7082 21.8367 10.8333 22.0951C10.9583 22.3536 11.1354 22.5834 11.3535 22.7702L16.2494 27.6868C16.444 27.8799 16.6749 28.0327 16.9287 28.1364C17.1825 28.24 17.4543 28.2926 17.7285 28.291C18.2751 28.2887 18.7988 28.0717 19.1869 27.6868L29.6035 17.2702C29.7988 17.0765 29.9538 16.8461 30.0595 16.5922C30.1653 16.3383 30.2198 16.066 30.2198 15.791C30.2198 15.516 30.1653 15.2437 30.0595 14.9898C29.9538 14.7359 29.7988 14.5055 29.6035 14.3118C29.2132 13.9238 28.6852 13.706 28.1348 13.706C27.5844 13.706 27.0564 13.9238 26.666 14.3118ZM20.9994 0.166016C16.8789 0.166016 12.851 1.38787 9.42498 3.67707C5.99895 5.96626 3.32869 9.21998 1.75187 13.0268C0.175042 16.8336 -0.237527 21.0225 0.566332 25.0637C1.37019 29.105 3.35437 32.8171 6.26797 35.7307C9.18156 38.6443 12.8937 40.6285 16.935 41.4324C20.9762 42.2362 25.1651 41.8237 28.9719 40.2468C32.7787 38.67 36.0324 35.9998 38.3216 32.5737C40.6108 29.1477 41.8327 25.1198 41.8327 20.9993C41.8327 18.2635 41.2938 15.5544 40.2468 13.0268C39.1999 10.4992 37.6653 8.20251 35.7307 6.26796C33.7962 4.3334 31.4995 2.79883 28.9719 1.75186C26.4443 0.704886 23.7352 0.166016 20.9994 0.166016ZM20.9994 37.666C17.703 37.666 14.4807 36.6885 11.7399 34.8572C8.99903 33.0258 6.86283 30.4228 5.60137 27.3774C4.3399 24.332 4.00985 20.9809 4.65294 17.7478C5.29602 14.5148 6.88337 11.5451 9.21424 9.21424C11.5451 6.88336 14.5148 5.29601 17.7478 4.65293C20.9809 4.00984 24.332 4.3399 27.3774 5.60136C30.4228 6.86282 33.0258 8.99903 34.8572 11.7398C36.6885 14.4807 37.666 17.703 37.666 20.9993C37.666 25.4196 35.9101 29.6589 32.7845 32.7845C29.6589 35.9101 25.4196 37.666 20.9994 37.666Z" fill="#32AF85"/>
</svg>