<svg width="16" height="16" viewBox="0 0 16 16" fill="none" xmlns="http://www.w3.org/2000/svg">
<path fill-rule="evenodd" clip-rule="evenodd" d="M6.00001 7.99967C7.28668 7.99967 8.33334 6.95301 8.33334 5.66634C8.33334 4.37967 7.28668 3.33301 6.00001 3.33301C4.71334 3.33301 3.66668 4.37967 3.66668 5.66634C3.66668 6.95301 4.71334 7.99967 6.00001 7.99967ZM6.00001 4.66634C6.55334 4.66634 7.00001 5.11301 7.00001 5.66634C7.00001 6.21967 6.55334 6.66634 6.00001 6.66634C5.44668 6.66634 5.00001 6.21967 5.00001 5.66634C5.00001 5.11301 5.44668 4.66634 6.00001 4.66634ZM3.18001 11.333H6.03334C6.01334 11.4397 6.00001 11.553 6.00001 11.6663V12.6663H1.33334V11.6663C1.33334 10.113 4.44001 9.33301 6.00001 9.33301C6.37334 9.33301 6.83334 9.37967 7.32001 9.46634C6.84668 9.78634 6.45334 10.1863 6.22668 10.673C6.19001 10.673 6.15168 10.6713 6.11334 10.6697C6.07501 10.668 6.03668 10.6663 6.00001 10.6663C4.98001 10.6663 3.84001 10.9997 3.18001 11.333ZM11 9.66634C9.77334 9.66634 7.33334 10.3397 7.33334 11.6663V12.6663H14.6667V11.6663C14.6667 10.3397 12.2267 9.66634 11 9.66634ZM12.6667 6.99967C12.6667 7.62634 12.3133 8.16634 11.8067 8.45301C11.5667 8.58634 11.2933 8.66634 11 8.66634C10.7067 8.66634 10.4333 8.58634 10.1933 8.45301C9.68668 8.16634 9.33334 7.62634 9.33334 6.99967C9.33334 6.07967 10.08 5.33301 11 5.33301C11.92 5.33301 12.6667 6.07967 12.6667 6.99967Z" fill="black" fill-opacity="0.54"/>
</svg>
