<svg width="15" height="12" viewBox="0 0 15 12" fill="none" xmlns="http://www.w3.org/2000/svg">
    <path d="M3.5 2.5C3.5 3.05469 3.05469 3.5 2.5 3.5C1.94531 3.5 1.5 3.05469 1.5 2.5C1.5 1.94531 1.94531 1.5 2.5 1.5C3.05469 1.5 3.5 1.94531 3.5 2.5ZM11.8359 7C11.8359 6.73438 11.7266 6.47656 11.5469 6.28906L5.96094 0.710937C5.5625 0.3125 4.80469 -5.96046e-07 4.25 -5.96046e-07H1C0.453125 -5.96046e-07 0 0.453125 0 1V4.25C0 4.80469 0.3125 5.5625 0.710938 5.95312L6.29688 11.5469C6.47656 11.7266 6.73438 11.8359 7 11.8359C7.26563 11.8359 7.52344 11.7266 7.71094 11.5469L11.5469 7.70312C11.7266 7.52344 11.8359 7.26562 11.8359 7ZM14.8359 7C14.8359 6.73438 14.7266 6.47656 14.5469 6.28906L8.96094 0.710937C8.5625 0.3125 7.80469 -5.96046e-07 7.25 -5.96046e-07H5.5C6.05469 -5.96046e-07 6.8125 0.3125 7.21094 0.710937L12.7969 6.28906C12.9766 6.47656 13.0859 6.73438 13.0859 7C13.0859 7.26562 12.9766 7.52344 12.7969 7.70312L9.125 11.375C9.39063 11.6484 9.59375 11.8359 10 11.8359C10.2656 11.8359 10.5234 11.7266 10.7109 11.5469L14.5469 7.70312C14.7266 7.52344 14.8359 7.26562 14.8359 7Z" fill="#32AF85"/>
</svg>