<svg width="14" height="14" viewBox="0 0 14 14" fill="none" xmlns="http://www.w3.org/2000/svg">
<path d="M8.85997 4.88984L5.98997 7.76984L4.87997 6.65984C4.81939 6.59048 4.74516 6.53435 4.66192 6.49496C4.57868 6.45556 4.48821 6.43375 4.39617 6.43089C4.30412 6.42803 4.21247 6.44417 4.12694 6.47831C4.04141 6.51245 3.96384 6.56386 3.89907 6.62932C3.83429 6.69478 3.78371 6.77289 3.75048 6.85878C3.71724 6.94466 3.70207 7.03648 3.70591 7.12849C3.70975 7.2205 3.73251 7.31074 3.77278 7.39356C3.81306 7.47638 3.86997 7.55 3.93997 7.60984L5.50997 9.18984C5.57261 9.25349 5.64734 9.30396 5.72977 9.33831C5.81221 9.37266 5.90067 9.39018 5.98997 9.38984C6.1669 9.38785 6.33586 9.31596 6.45997 9.18984L9.80997 5.83984C9.87256 5.77758 9.92222 5.70357 9.95611 5.62205C9.99 5.54053 10.0074 5.45312 10.0074 5.36484C10.0074 5.27656 9.99 5.18915 9.95611 5.10764C9.92222 5.02612 9.87256 4.9521 9.80997 4.88984C9.74771 4.82726 9.67369 4.77759 9.59218 4.7437C9.51066 4.70981 9.42325 4.69236 9.33497 4.69236C9.24669 4.69236 9.15928 4.70981 9.07776 4.7437C8.99624 4.77759 8.92223 4.82726 8.85997 4.88984ZM7.03997 0.339844C5.71483 0.339844 4.41946 0.732792 3.31765 1.469C2.21584 2.2052 1.35708 3.2516 0.849976 4.47586C0.342869 5.70013 0.210186 7.04728 0.468707 8.34695C0.727228 9.64662 1.36534 10.8404 2.30235 11.7775C3.23937 12.7145 4.43319 13.3526 5.73286 13.6111C7.03254 13.8696 8.37968 13.7369 9.60395 13.2298C10.8282 12.7227 11.8746 11.864 12.6108 10.7622C13.347 9.66035 13.74 8.36498 13.74 7.03984C13.74 5.26289 13.0341 3.55872 11.7776 2.30223C10.5211 1.04573 8.81692 0.339844 7.03997 0.339844ZM7.03997 12.3998C5.97986 12.3998 4.94356 12.0855 4.06211 11.4965C3.18066 10.9076 2.49366 10.0704 2.08797 9.09103C1.68229 8.11162 1.57614 7.0339 1.78296 5.99416C1.98978 4.95442 2.50027 3.99936 3.24988 3.24975C3.99949 2.50014 4.95455 1.98965 5.99429 1.78283C7.03402 1.57602 8.11174 1.68216 9.09115 2.08785C10.0706 2.49354 10.9077 3.18054 11.4966 4.06199C12.0856 4.94343 12.4 5.97974 12.4 7.03984C12.4 8.4614 11.8353 9.82474 10.8301 10.8299C9.82487 11.8351 8.46153 12.3998 7.03997 12.3998Z" fill="white"/>
</svg>
