<svg width="20" height="20" viewBox="0 0 20 20" fill="none" xmlns="http://www.w3.org/2000/svg">
<path fill-rule="evenodd" clip-rule="evenodd" d="M6 0H18C19.1 0 20 0.9 20 2V14C20 15.1 19.1 16 18 16H6C4.9 16 4 15.1 4 14V2C4 0.9 4.9 0 6 0ZM0 4H2V18H16V20H2C0.9 20 0 19.1 0 18V4ZM18 2V14H6V2H18ZM9.17157 12.2426L7.75736 10.8284L10.5858 8L7.75736 5.17157L9.17157 3.75736L12 6.58579L14.8284 3.75736L16.2426 5.17157L13.4142 8L16.2426 10.8284L14.8284 12.2426L12 9.41421L9.17157 12.2426Z" fill="black" fill-opacity="0.54"/>
</svg>
