<svg width="24" height="24" viewBox="0 0 24 24" fill="none" xmlns="http://www.w3.org/2000/svg">
<path d="M10.1252 19.124L12 17.2492L13.8748 19.124L15.1246 17.8742L13.2498 15.9994L15.1246 14.1246L13.8748 12.8748L12 14.7495L10.1252 12.8748L8.87538 14.1246L10.7502 15.9994L8.87538 17.8742L10.1252 19.124Z" fill="#656565"/>
<path fill-rule="evenodd" clip-rule="evenodd" d="M18 2H6V4H18V2ZM20 6H4V8H20V6ZM20 10H4C2.9 10 2 10.9 2 12V20C2 21.1 2.9 22 4 22H20C21.1 22 22 21.1 22 20V12C22 10.9 21.1 10 20 10ZM4 20H20V12H4V20Z" fill="black" fill-opacity="0.54"/>
</svg>
