<svg width="20" height="20" viewBox="0 0 20 20" fill="none" xmlns="http://www.w3.org/2000/svg">
<circle r="9.25" transform="matrix(1 0 0 -1 10 10)" fill="white" stroke="#32AF85" stroke-width="1.5"/>
<path d="M13.4706 11.9651C13.3405 12.0944 13.1645 12.167 12.981 12.167C12.7976 12.167 12.6216 12.0944 12.4914 11.9651L9.99838 9.50672L7.54005 11.9651C7.40994 12.0944 7.23393 12.167 7.05047 12.167C6.86701 12.167 6.691 12.0944 6.56088 11.9651C6.4958 11.9005 6.44413 11.8237 6.40888 11.7391C6.37362 11.6544 6.35547 11.5637 6.35547 11.472C6.35547 11.3803 6.37362 11.2896 6.40888 11.2049C6.44413 11.1203 6.4958 11.0435 6.56088 10.9789L9.50533 8.0345C9.56989 7.96941 9.64669 7.91775 9.73132 7.88249C9.81594 7.84723 9.90671 7.82908 9.99838 7.82908C10.0901 7.82908 10.1808 7.84723 10.2655 7.88249C10.3501 7.91775 10.4269 7.96941 10.4914 8.0345L13.4706 10.9789C13.5357 11.0435 13.5874 11.1203 13.6226 11.2049C13.6579 11.2896 13.676 11.3803 13.676 11.472C13.676 11.5637 13.6579 11.6544 13.6226 11.7391C13.5874 11.8237 13.5357 11.9005 13.4706 11.9651Z" fill="#32AF85"/>
</svg>