<svg width="10" height="6" viewBox="0 0 10 6" fill="none" xmlns="http://www.w3.org/2000/svg">
<path d="M9.23718 4.22507L5.64968 0.675075C5.57165 0.594943 5.47835 0.531255 5.3753 0.487767C5.27225 0.44428 5.16154 0.421875 5.04968 0.421875C4.93783 0.421875 4.82712 0.44428 4.72407 0.487767C4.62102 0.531255 4.52772 0.594943 4.44968 0.675075L0.899684 4.22507C0.819552 4.30311 0.755864 4.39641 0.712377 4.49946C0.668889 4.60251 0.646484 4.71322 0.646484 4.82508C0.646484 4.93693 0.668889 5.04764 0.712377 5.15069C0.755864 5.25374 0.819552 5.34704 0.899684 5.42507C0.97751 5.50331 1.07003 5.56539 1.17192 5.60775C1.27382 5.65012 1.38308 5.67192 1.49343 5.67192C1.60379 5.67192 1.71305 5.65012 1.81494 5.60775C1.91684 5.56539 2.00936 5.50331 2.08718 5.42507L5.04968 2.45008L8.01218 5.42507C8.16935 5.57813 8.3803 5.66341 8.59968 5.66258C8.71043 5.66463 8.82049 5.6447 8.92348 5.60393C9.02647 5.56317 9.12035 5.50237 9.19968 5.42507C9.2823 5.34957 9.34895 5.25828 9.39569 5.15659C9.44243 5.05489 9.46832 4.94486 9.47181 4.83299C9.47531 4.72113 9.45635 4.60969 9.41605 4.50528C9.37575 4.40087 9.31493 4.30559 9.23718 4.22507Z" fill="#32AF85"/>
</svg>
