<svg width="12" height="14" viewBox="0 0 12 14" fill="none" xmlns="http://www.w3.org/2000/svg">
<path d="M4.47333 3.47333L5.33333 2.60667V10.3333C5.33333 10.5101 5.40357 10.6797 5.5286 10.8047C5.65362 10.9298 5.82319 11 6 11C6.17681 11 6.34638 10.9298 6.4714 10.8047C6.59643 10.6797 6.66667 10.5101 6.66667 10.3333V2.60667L7.52667 3.47333C7.58864 3.53582 7.66238 3.58542 7.74362 3.61926C7.82486 3.65311 7.91199 3.67053 8 3.67053C8.08801 3.67053 8.17515 3.65311 8.25638 3.61926C8.33762 3.58542 8.41136 3.53582 8.47333 3.47333C8.53582 3.41136 8.58541 3.33762 8.61926 3.25638C8.65311 3.17515 8.67053 3.08801 8.67053 3C8.67053 2.91199 8.65311 2.82486 8.61926 2.74362C8.58541 2.66238 8.53582 2.58864 8.47333 2.52667L6.47333 0.526667C6.41136 0.464181 6.33762 0.414585 6.25638 0.380739C6.17515 0.346893 6.08801 0.329468 6 0.329468C5.91199 0.329468 5.82486 0.346893 5.74362 0.380739C5.66238 0.414585 5.58864 0.464181 5.52667 0.526667L3.52667 2.52667C3.40113 2.6522 3.33061 2.82247 3.33061 3C3.33061 3.17753 3.40113 3.3478 3.52667 3.47333C3.6522 3.59887 3.82247 3.66939 4 3.66939C4.17753 3.66939 4.3478 3.59887 4.47333 3.47333ZM10 5H8.66667C8.48986 5 8.32029 5.07024 8.19526 5.19526C8.07024 5.32029 8 5.48986 8 5.66667C8 5.84348 8.07024 6.01305 8.19526 6.13807C8.32029 6.2631 8.48986 6.33333 8.66667 6.33333H10C10.1768 6.33333 10.3464 6.40357 10.4714 6.5286C10.5964 6.65362 10.6667 6.82319 10.6667 7V11.6667C10.6667 11.8435 10.5964 12.013 10.4714 12.1381C10.3464 12.2631 10.1768 12.3333 10 12.3333H2C1.82319 12.3333 1.65362 12.2631 1.5286 12.1381C1.40357 12.013 1.33333 11.8435 1.33333 11.6667V7C1.33333 6.82319 1.40357 6.65362 1.5286 6.5286C1.65362 6.40357 1.82319 6.33333 2 6.33333H3.33333C3.51014 6.33333 3.67971 6.2631 3.80474 6.13807C3.92976 6.01305 4 5.84348 4 5.66667C4 5.48986 3.92976 5.32029 3.80474 5.19526C3.67971 5.07024 3.51014 5 3.33333 5H2C1.46957 5 0.960859 5.21071 0.585787 5.58579C0.210714 5.96086 0 6.46957 0 7V11.6667C0 12.1971 0.210714 12.7058 0.585787 13.0809C0.960859 13.456 1.46957 13.6667 2 13.6667H10C10.5304 13.6667 11.0391 13.456 11.4142 13.0809C11.7893 12.7058 12 12.1971 12 11.6667V7C12 6.46957 11.7893 5.96086 11.4142 5.58579C11.0391 5.21071 10.5304 5 10 5Z" fill="white"/>
</svg>
