<svg width="48" height="48" viewBox="0 0 48 48" fill="none" xmlns="http://www.w3.org/2000/svg">
    <path d="M16.3237 13.9894L21.667 8.62277V30.9994C21.667 31.6183 21.9128 32.2118 22.3504 32.6493C22.788 33.0869 23.3815 33.3328 24.0003 33.3328C24.6192 33.3328 25.2127 33.0869 25.6502 32.6493C26.0878 32.2118 26.3337 31.6183 26.3337 30.9994V8.62277L31.677 13.9894C31.8939 14.2081 32.152 14.3817 32.4363 14.5002C32.7207 14.6186 33.0256 14.6796 33.3337 14.6796C33.6417 14.6796 33.9467 14.6186 34.231 14.5002C34.5153 14.3817 34.7734 14.2081 34.9903 13.9894C35.209 13.7725 35.3826 13.5145 35.5011 13.2301C35.6195 12.9458 35.6805 12.6408 35.6805 12.3328C35.6805 12.0247 35.6195 11.7198 35.5011 11.4354C35.3826 11.1511 35.209 10.893 34.9903 10.6761L25.657 1.34277C25.4351 1.13034 25.1734 0.96382 24.887 0.852766C24.3189 0.619391 23.6817 0.619391 23.1137 0.852766C22.8272 0.96382 22.5656 1.13034 22.3437 1.34277L13.0103 10.6761C12.7928 10.8937 12.6202 11.1519 12.5025 11.4362C12.3847 11.7204 12.3241 12.0251 12.3241 12.3328C12.3241 12.6404 12.3847 12.9451 12.5025 13.2293C12.6202 13.5136 12.7928 13.7719 13.0103 13.9894C13.2279 14.207 13.4862 14.3796 13.7704 14.4973C14.0547 14.615 14.3593 14.6756 14.667 14.6756C14.9747 14.6756 15.2793 14.615 15.5636 14.4973C15.8478 14.3796 16.1061 14.207 16.3237 13.9894ZM45.0003 23.9994C44.3815 23.9994 43.788 24.2453 43.3504 24.6829C42.9128 25.1204 42.667 25.7139 42.667 26.3328V40.3328C42.667 40.9516 42.4212 41.5451 41.9836 41.9827C41.546 42.4203 40.9525 42.6661 40.3337 42.6661H7.66699C7.04815 42.6661 6.45466 42.4203 6.01708 41.9827C5.57949 41.5451 5.33366 40.9516 5.33366 40.3328V26.3328C5.33366 25.7139 5.08783 25.1204 4.65024 24.6829C4.21266 24.2453 3.61916 23.9994 3.00033 23.9994C2.38149 23.9994 1.78799 24.2453 1.35041 24.6829C0.912825 25.1204 0.666992 25.7139 0.666992 26.3328V40.3328C0.666992 42.1893 1.40449 43.9698 2.71725 45.2825C4.03 46.5953 5.81048 47.3328 7.66699 47.3328H40.3337C42.1902 47.3328 43.9707 46.5953 45.2834 45.2825C46.5962 43.9698 47.3337 42.1893 47.3337 40.3328V26.3328C47.3337 25.7139 47.0878 25.1204 46.6502 24.6829C46.2127 24.2453 45.6192 23.9994 45.0003 23.9994Z" fill="#CCCCCC"/>
</svg>