
<svg width="22" height="17" viewBox="0 0 22 17" fill="none" xmlns="http://www.w3.org/2000/svg">
<path d="M11.3 8.91612C11.8336 8.48722 12.2616 7.95673 12.5549 7.36067C12.8482 6.76461 13 6.11692 13 5.46157C13 4.23012 12.4732 3.0491 11.5355 2.17833C10.5979 1.30755 9.32608 0.818359 8 0.818359C6.67392 0.818359 5.40215 1.30755 4.46447 2.17833C3.52678 3.0491 3 4.23012 3 5.46157C2.99999 6.11692 3.1518 6.76461 3.44513 7.36067C3.73845 7.95673 4.16642 8.48722 4.7 8.91612C3.30014 9.50478 2.11247 10.4554 1.27898 11.6543C0.445495 12.8532 0.00147185 14.2496 0 15.6766C0 15.9229 0.105357 16.1591 0.292893 16.3333C0.48043 16.5074 0.734784 16.6053 1 16.6053C1.26522 16.6053 1.51957 16.5074 1.70711 16.3333C1.89464 16.1591 2 15.9229 2 15.6766C2 14.1989 2.63214 12.7817 3.75736 11.7367C4.88258 10.6918 6.4087 10.1048 8 10.1048C9.5913 10.1048 11.1174 10.6918 12.2426 11.7367C13.3679 12.7817 14 14.1989 14 15.6766C14 15.9229 14.1054 16.1591 14.2929 16.3333C14.4804 16.5074 14.7348 16.6053 15 16.6053C15.2652 16.6053 15.5196 16.5074 15.7071 16.3333C15.8946 16.1591 16 15.9229 16 15.6766C15.9985 14.2496 15.5545 12.8532 14.721 11.6543C13.8875 10.4554 12.6999 9.50478 11.3 8.91612ZM8 8.2475C7.40666 8.2475 6.82664 8.08411 6.33329 7.77799C5.83994 7.47187 5.45542 7.03676 5.22836 6.5277C5.0013 6.01864 4.94189 5.45848 5.05764 4.91807C5.1734 4.37765 5.45912 3.88124 5.87868 3.49162C6.29824 3.10201 6.83279 2.83667 7.41473 2.72918C7.99667 2.62168 8.59987 2.67685 9.14805 2.88771C9.69623 3.09857 10.1648 3.45565 10.4944 3.91379C10.8241 4.37194 11 4.91057 11 5.46157C11 6.20045 10.6839 6.90906 10.1213 7.43152C9.55871 7.95399 8.79565 8.2475 8 8.2475Z" fill="white"/>
<path d="M21.4419 8.22515C21.686 7.98107 21.686 7.58534 21.4419 7.34126L17.4645 3.36379C17.2204 3.11971 16.8247 3.11971 16.5806 3.36379C16.3365 3.60787 16.3365 4.00359 16.5806 4.24767L20.1161 7.7832L16.5806 11.3187C16.3365 11.5628 16.3365 11.9585 16.5806 12.2026C16.8247 12.4467 17.2204 12.4467 17.4645 12.2026L21.4419 8.22515ZM13.5 8.40821L21 8.4082L21 7.1582L13.5 7.15821L13.5 8.40821Z" fill="white"/>
</svg>