<svg width="22" height="21" viewBox="0 0 22 21" fill="none" xmlns="http://www.w3.org/2000/svg">
<path d="M6.90541 10.8571C6.32506 10.0201 6.0014 9.01562 6.0014 8C6.0014 7.75446 6.02372 7.50893 6.0572 7.26339C5.57729 7.4308 5.08622 7.52009 4.57282 7.52009C3.06613 7.52009 1.90541 6.57143 1.67104 6.57143C0.253627 6.57143 0.287109 9.60714 0.287109 10.5112C0.287109 11.75 1.33622 12.2857 2.45229 12.2857H3.94782C4.69559 11.3929 5.7447 10.8906 6.90541 10.8571ZM18.8585 17.9665C18.8585 15.4442 18.267 11.5714 14.9969 11.5714C14.6175 11.5714 13.2335 13.1228 11.0014 13.1228C8.76925 13.1228 7.38532 11.5714 7.00586 11.5714C3.73577 11.5714 3.14425 15.4442 3.14425 17.9665C3.14425 19.7746 4.33845 20.8571 6.12416 20.8571H15.8786C17.6643 20.8571 18.8585 19.7746 18.8585 17.9665ZM7.42997 3.71429C7.42997 2.14062 6.14648 0.857141 4.57282 0.857141C2.99916 0.857141 1.71568 2.14062 1.71568 3.71429C1.71568 5.28795 2.99916 6.57143 4.57282 6.57143C6.14648 6.57143 7.42997 5.28795 7.42997 3.71429ZM15.2871 8C15.2871 5.63393 13.3675 3.71429 11.0014 3.71429C8.63532 3.71429 6.71568 5.63393 6.71568 8C6.71568 10.3661 8.63532 12.2857 11.0014 12.2857C13.3675 12.2857 15.2871 10.3661 15.2871 8ZM21.7157 10.5112C21.7157 9.60714 21.7492 6.57143 20.3318 6.57143C20.0974 6.57143 18.9367 7.52009 17.43 7.52009C16.9166 7.52009 16.4255 7.4308 15.9456 7.26339C15.9791 7.50893 16.0014 7.75446 16.0014 8C16.0014 9.01562 15.6777 10.0201 15.0974 10.8571C16.2581 10.8906 17.3072 11.3929 18.055 12.2857H19.5505C20.6666 12.2857 21.7157 11.75 21.7157 10.5112ZM20.2871 3.71429C20.2871 2.14062 19.0036 0.857141 17.43 0.857141C15.8563 0.857141 14.5728 2.14062 14.5728 3.71429C14.5728 5.28795 15.8563 6.57143 17.43 6.57143C19.0036 6.57143 20.2871 5.28795 20.2871 3.71429Z" fill="#999999"/>
</svg>
