<svg width="18" height="18" viewBox="0 0 18 18" fill="none" xmlns="http://www.w3.org/2000/svg">
<path d="M9.00012 0.666016C7.38385 0.669086 5.80336 1.14211 4.45115 2.02746C3.09893 2.91282 2.03337 4.1723 1.38424 5.65249C0.735111 7.13268 0.530436 8.7697 0.795144 10.3641C1.05985 11.9586 1.78252 13.4417 2.87512 14.6327C3.65547 15.4786 4.60257 16.1536 5.65674 16.6154C6.7109 17.0771 7.84927 17.3155 9.00012 17.3155C10.151 17.3155 11.2893 17.0771 12.3435 16.6154C13.3977 16.1536 14.3448 15.4786 15.1251 14.6327C16.2177 13.4417 16.9404 11.9586 17.2051 10.3641C17.4698 8.7697 17.2651 7.13268 16.616 5.65249C15.9669 4.1723 14.9013 2.91282 13.5491 2.02746C12.1969 1.14211 10.6164 0.669086 9.00012 0.666016ZM9.00012 15.666C7.27384 15.6634 5.61588 14.9912 4.37512 13.791C4.75183 12.874 5.39265 12.0896 6.21617 11.5376C7.03968 10.9856 8.00871 10.6909 9.00012 10.6909C9.99153 10.6909 10.9606 10.9856 11.7841 11.5376C12.6076 12.0896 13.2484 12.874 13.6251 13.791C12.3844 14.9912 10.7264 15.6634 9.00012 15.666ZM7.33346 7.33268C7.33346 7.00305 7.4312 6.68081 7.61434 6.40673C7.79748 6.13265 8.05777 5.91903 8.36232 5.79288C8.66686 5.66674 9.00197 5.63373 9.32527 5.69804C9.64857 5.76235 9.94555 5.92108 10.1786 6.15417C10.4117 6.38726 10.5705 6.68423 10.6348 7.00753C10.6991 7.33083 10.6661 7.66594 10.5399 7.97049C10.4138 8.27503 10.2002 8.53533 9.92607 8.71846C9.65199 8.9016 9.32976 8.99935 9.00012 8.99935C8.55809 8.99935 8.13417 8.82375 7.82161 8.51119C7.50905 8.19863 7.33346 7.77471 7.33346 7.33268ZM14.7585 12.3327C14.0139 11.0591 12.868 10.0685 11.5001 9.51602C11.9244 9.0349 12.2009 8.44156 12.2963 7.80721C12.3918 7.17286 12.3022 6.52444 12.0382 5.93976C11.7743 5.35508 11.3473 4.85898 10.8084 4.51099C10.2695 4.16299 9.64161 3.97789 9.00012 3.97789C8.35863 3.97789 7.73076 4.16299 7.19187 4.51099C6.65297 4.85898 6.22593 5.35508 5.962 5.93976C5.69806 6.52444 5.60844 7.17286 5.7039 7.80721C5.79935 8.44156 6.07582 9.0349 6.50012 9.51602C5.13229 10.0685 3.98635 11.0591 3.24179 12.3327C2.64841 11.3219 2.33489 10.1714 2.33346 8.99935C2.33346 7.23124 3.03583 5.53555 4.28608 4.2853C5.53632 3.03506 7.23201 2.33268 9.00012 2.33268C10.7682 2.33268 12.4639 3.03506 13.7142 4.2853C14.9644 5.53555 15.6668 7.23124 15.6668 8.99935C15.6654 10.1714 15.3518 11.3219 14.7585 12.3327Z" fill="#32AF85"/>
</svg>
