<svg width="20" height="15" viewBox="0 0 20 15" fill="none" xmlns="http://www.w3.org/2000/svg">
<path d="M20 1.78571C20 1.49554 19.8214 1.23884 19.5647 1.12723C19.4754 1.09375 19.375 1.07143 19.2857 1.07143C19.096 1.07143 18.9174 1.13839 18.7835 1.28348L14.2857 5.77009V3.92857C14.2857 2.15402 12.846 0.714285 11.0714 0.714285H3.21429C1.43973 0.714285 0 2.15402 0 3.92857V11.7857C0 13.5603 1.43973 15 3.21429 15H11.0714C12.846 15 14.2857 13.5603 14.2857 11.7857V9.93304L18.7835 14.4308C18.9174 14.5759 19.096 14.6429 19.2857 14.6429C19.375 14.6429 19.4754 14.6205 19.5647 14.5871C19.8214 14.4754 20 14.2188 20 13.9286V1.78571Z" fill="#32AF85"/>
</svg>
