<svg width="16" height="14" viewBox="0 0 16 14" fill="none" xmlns="http://www.w3.org/2000/svg">
<path d="M2.35259 13.75H13.6476C14.8026 13.75 15.5226 12.4975 14.9451 11.5L9.29759 1.74251C8.72009 0.74501 7.28009 0.74501 6.70259 1.74251L1.05509 11.5C0.477591 12.4975 1.19759 13.75 2.35259 13.75ZM8.00009 8.50001C7.58759 8.50001 7.25009 8.16251 7.25009 7.75001V6.25001C7.25009 5.83751 7.58759 5.50001 8.00009 5.50001C8.41259 5.50001 8.75009 5.83751 8.75009 6.25001V7.75001C8.75009 8.16251 8.41259 8.50001 8.00009 8.50001ZM8.75009 11.5H7.25009V10H8.75009V11.5Z" fill="#F7A400"/>
</svg>