<svg width="399" height="338" viewBox="0 0 399 338" fill="none" xmlns="http://www.w3.org/2000/svg">
<g clip-path="url(#clip0)">
<rect width="399" height="338" fill="white"/>
<path d="M326.746 145.248C326.746 218.75 266.846 278.32 192.937 278.32C119.028 278.32 18.0918 267.02 18.0918 193.518C18.0918 120.016 118.917 12.0664 192.937 12.0664C266.846 12.1761 326.746 71.7457 326.746 145.248Z" fill="#F2F2F2"/>
<path d="M307.662 282.053C257.139 282.053 216.213 248.373 216.213 206.795C216.213 165.217 223.935 108.5 274.458 108.5C324.981 108.5 399.001 165.217 399.001 206.795C399.001 248.373 358.075 282.053 307.662 282.053Z" fill="#F2F2F2"/>
<path d="M234.857 29.4008C234.857 25.1223 231.327 21.6118 227.024 21.6118C225.921 21.6118 224.818 21.8312 223.825 22.27C224.267 21.0632 224.487 19.7468 224.487 18.4303C224.487 12.3966 219.523 7.45987 213.456 7.45987C210.147 7.45987 207.058 8.99573 205.072 11.2995C204.631 5.70459 199.888 1.31641 194.151 1.31641C188.305 1.31641 183.561 5.924 183.23 11.6286C182.127 10.9704 180.693 10.5316 179.369 10.5316C175.067 10.5316 171.537 14.0421 171.537 18.3206C171.537 19.4177 171.758 20.5147 172.199 21.5021C171.979 21.5021 171.758 21.5021 171.537 21.5021C167.235 21.5021 163.705 25.0126 163.705 29.2911C163.705 33.1307 166.573 36.4219 170.324 36.9704H170.434C170.875 37.0801 171.206 37.0801 171.648 37.0801C172.089 37.0801 172.42 37.0801 172.861 36.9704H226.032C226.363 37.0801 226.804 37.0801 227.245 37.0801C227.686 37.0801 228.017 37.0801 228.458 36.9704H228.569C231.988 36.4219 234.857 33.2404 234.857 29.4008Z" fill="white"/>
<path d="M230.554 33.459C230.113 33.5687 229.672 33.5687 229.341 33.5687C228.9 33.5687 228.569 33.5687 228.128 33.459H174.957C174.516 33.5687 174.185 33.5687 173.744 33.5687C173.302 33.5687 172.971 33.5687 172.53 33.459H172.42C168.669 32.9105 165.801 29.6194 165.801 25.7797C165.801 25.1215 165.911 24.3535 166.132 23.6953C164.588 25.1215 163.705 27.0962 163.705 29.4C163.705 33.2396 166.573 36.5308 170.324 37.0793H170.434C170.875 37.189 171.206 37.189 171.648 37.189C172.089 37.189 172.42 37.189 172.861 37.0793H226.032C226.363 37.189 226.804 37.189 227.245 37.189C227.686 37.189 228.017 37.189 228.458 37.0793H228.569C231.658 36.6405 234.084 34.3367 234.857 31.4843C233.643 32.4717 232.209 33.1299 230.554 33.459Z" fill="#008329"/>
<path d="M227.024 38.5063C226.583 38.5063 226.252 38.5063 225.7 38.3966H172.75C171.757 38.5063 171.095 38.5063 170.103 38.3966H169.992C165.47 37.6287 162.16 33.8987 162.16 29.2911C162.16 24.6835 165.69 20.7342 170.213 20.1857C170.103 19.6371 169.992 18.9789 169.992 18.4304C169.992 13.384 174.184 9.21519 179.259 9.21519C180.141 9.21519 181.134 9.32489 182.016 9.65401C183.23 4.05907 188.194 0 194.151 0C199.666 0 204.41 3.51055 205.954 8.55696C208.05 6.91139 210.698 6.03376 213.455 6.03376C220.295 6.03376 225.921 11.519 225.921 18.4304C225.921 19.0886 225.921 19.6371 225.81 20.1857C226.252 20.1857 226.583 20.0759 227.024 20.0759C232.098 20.0759 236.29 24.2447 236.29 29.2911C236.29 33.789 233.091 37.519 228.679 38.2869C228.568 38.2869 228.458 38.2869 228.348 38.3966C227.906 38.5063 227.465 38.5063 227.024 38.5063ZM172.75 35.654H225.921C226.031 35.654 226.031 35.654 226.141 35.654C226.914 35.7637 227.355 35.7637 228.127 35.654C231.216 35.2152 233.532 32.4726 233.532 29.4008C233.532 25.8903 230.664 23.038 227.134 23.038C226.252 23.038 225.369 23.2574 224.487 23.5865C223.935 23.8059 223.384 23.6962 222.942 23.3671C222.501 22.9283 222.391 22.3797 222.611 21.8312C223.053 20.7342 223.163 19.6371 223.163 18.5401C223.163 13.2743 218.861 8.99578 213.566 8.99578C210.808 8.99578 208.05 10.2025 206.285 12.3966C205.954 12.8354 205.292 13.0549 204.741 12.8354C204.189 12.616 203.748 12.1772 203.748 11.6287C203.307 6.80169 199.115 2.96203 194.261 2.96203C189.187 2.96203 184.995 6.91139 184.774 11.9578C184.774 12.3966 184.443 12.9451 184.002 13.1646C183.561 13.384 183.009 13.384 182.568 13.1646C181.575 12.616 180.472 12.2869 179.369 12.2869C175.839 12.2869 172.971 15.1392 172.971 18.6498C172.971 19.5274 173.191 20.4051 173.522 21.2827C173.743 21.7215 173.633 22.27 173.412 22.7089C173.081 23.1477 172.64 23.3671 172.088 23.2574C171.868 23.2574 171.757 23.2574 171.537 23.2574C168.007 23.2574 165.139 26.1097 165.139 29.6203C165.139 32.8017 167.455 35.4346 170.544 35.8734C171.316 35.9831 171.757 35.9831 172.53 35.8734C172.53 35.654 172.64 35.654 172.75 35.654Z" fill="#1D4354"/>
<path d="M110.644 108.17C110.644 103.892 107.114 100.381 102.811 100.381C101.708 100.381 100.605 100.601 99.6124 101.04C100.054 99.8328 100.274 98.5163 100.274 97.1999C100.274 91.1661 95.3103 86.2294 89.2431 86.2294C85.9337 86.2294 82.845 87.7653 80.8593 90.0691C80.4181 84.4741 75.6747 80.0859 69.9384 80.0859C64.0919 80.0859 59.3484 84.6935 59.0175 90.3982C57.9144 89.7399 56.4803 89.3011 55.1565 89.3011C50.8544 89.3011 47.3244 92.8117 47.3244 97.0902C47.3244 98.1872 47.545 99.2842 47.9862 100.272C47.7656 100.272 47.545 100.272 47.3244 100.272C43.0222 100.272 39.4922 103.782 39.4922 108.061C39.4922 111.9 42.3603 115.191 46.1109 115.74H46.2212C46.6625 115.85 46.9934 115.85 47.4347 115.85C47.8759 115.85 48.2069 115.85 48.6481 115.74H101.819C102.26 115.85 102.591 115.85 103.032 115.85C103.473 115.85 103.804 115.85 104.246 115.74H104.356C107.886 115.301 110.644 112.12 110.644 108.17Z" fill="white"/>
<path d="M106.451 112.338C106.01 112.448 105.568 112.448 105.237 112.448C104.796 112.448 104.465 112.448 104.024 112.338H50.8534C50.4122 112.448 50.0812 112.448 49.64 112.448C49.1987 112.448 48.8678 112.448 48.4266 112.338H48.3162C44.5656 111.789 41.6975 108.498 41.6975 104.659C41.6975 104 41.8078 103.232 42.0284 102.574C40.4841 104 39.6016 105.975 39.6016 108.169C39.6016 112.009 42.4697 115.3 46.2203 115.848H46.3306C46.7719 115.958 47.1028 115.958 47.5441 115.958C47.9853 115.958 48.3162 115.958 48.7575 115.848H101.928C102.369 115.958 102.7 115.958 103.141 115.958C103.583 115.958 103.914 115.958 104.355 115.848H104.465C107.554 115.41 109.981 113.106 110.753 110.254C109.429 111.351 107.995 112.009 106.451 112.338Z" fill="#008329"/>
<path d="M102.811 117.385C102.37 117.385 102.039 117.385 101.487 117.276H48.5373C47.5444 117.385 46.8826 117.385 45.8898 117.276H45.7794C41.2566 116.508 37.9473 112.778 37.9473 108.17C37.9473 103.562 41.4773 99.6131 46.0001 99.0646C45.8898 98.516 45.7794 97.8578 45.7794 97.3093C45.7794 92.2629 49.9713 88.0941 55.0457 88.0941C55.9282 88.0941 56.921 88.2038 57.8035 88.5329C59.0169 82.938 63.981 78.8789 69.9379 78.8789C75.4535 78.8789 80.1969 82.3894 81.7413 87.4359C83.8372 85.7903 86.4847 84.9127 89.2425 84.9127C96.0819 84.9127 101.708 90.3979 101.708 97.3093C101.708 97.9675 101.708 98.516 101.598 99.0646C102.039 99.0646 102.37 98.9548 102.811 98.9548C107.885 98.9548 112.077 103.124 112.077 108.17C112.077 112.668 108.878 116.398 104.466 117.166C104.355 117.166 104.245 117.166 104.135 117.166C103.693 117.385 103.252 117.385 102.811 117.385ZM48.5373 114.423H101.708C101.818 114.423 101.818 114.423 101.928 114.423C102.701 114.533 103.142 114.533 103.914 114.423C107.003 113.984 109.319 111.242 109.319 108.17C109.319 104.659 106.451 101.807 102.921 101.807C102.039 101.807 101.156 102.027 100.274 102.356C99.7222 102.575 99.1707 102.465 98.7294 102.136C98.2882 101.697 98.1778 101.149 98.3985 100.6C98.8397 99.5034 98.95 98.4063 98.95 97.3093C98.95 92.0435 94.6478 87.765 89.3528 87.765C86.595 87.765 83.8372 88.9717 82.0722 91.1658C81.7413 91.6046 81.0794 91.8241 80.5279 91.6046C79.9763 91.3852 79.535 90.9464 79.535 90.3979C79.0938 85.5709 74.9019 81.7312 70.0482 81.7312C64.9738 81.7312 60.7819 85.6806 60.5613 90.727C60.5613 91.1658 60.2304 91.7144 59.7891 91.9338C59.3479 92.1532 58.7963 92.1532 58.3551 91.9338C57.3623 91.2755 56.2591 90.9464 55.156 90.9464C51.626 90.9464 48.7579 93.7987 48.7579 97.3093C48.7579 98.1869 48.9785 99.0646 49.3094 99.9422C49.5301 100.381 49.4198 100.93 49.1991 101.368C48.8682 101.807 48.4269 102.027 47.8754 101.917C47.6548 101.917 47.5444 101.917 47.3238 101.917C43.7938 101.917 40.9257 104.769 40.9257 108.28C40.9257 111.461 43.2423 114.094 46.331 114.533C47.1032 114.643 47.5444 114.643 48.3166 114.533C48.4269 114.423 48.5373 114.423 48.5373 114.423Z" fill="#1D4354"/>
<path d="M345.608 90.3969C345.608 86.1184 342.078 82.6079 337.776 82.6079C336.673 82.6079 335.57 82.8273 334.577 83.2661C335.018 82.0593 335.239 80.7429 335.239 79.4264C335.239 73.3927 330.275 68.456 324.208 68.456C320.899 68.456 317.81 69.9918 315.824 72.2956C315.383 66.7007 310.639 62.3125 304.903 62.3125C299.057 62.3125 294.313 66.9201 293.982 72.6247C292.879 71.9665 291.445 71.5277 290.121 71.5277C285.819 71.5277 282.289 75.0382 282.289 79.3167C282.289 80.4138 282.51 81.5108 282.951 82.4981C282.73 82.4981 282.51 82.4981 282.289 82.4981C277.987 82.4981 274.457 86.0087 274.457 90.2872C274.457 94.1268 277.325 97.418 281.076 97.9665H281.186C281.627 98.0762 281.958 98.0762 282.4 98.0762C282.841 98.0762 283.172 98.0762 283.613 97.9665H336.783C337.225 98.0762 337.556 98.0762 337.997 98.0762C338.438 98.0762 338.769 98.0762 339.21 97.9665H339.321C342.74 97.418 345.608 94.2365 345.608 90.3969Z" fill="white"/>
<path d="M341.306 94.4551C340.865 94.5648 340.424 94.5648 340.093 94.5648C339.652 94.5648 339.321 94.5648 338.879 94.4551H285.709C285.378 94.5648 284.937 94.5648 284.495 94.5648C284.054 94.5648 283.723 94.5648 283.282 94.4551H283.172C279.421 93.9066 276.553 90.6155 276.553 86.7758C276.553 86.1176 276.663 85.3496 276.884 84.6914C275.34 86.1176 274.457 88.0923 274.457 90.3961C274.457 94.2357 277.325 97.5269 281.076 98.0754H281.186C281.517 98.1851 281.958 98.1851 282.4 98.1851C282.841 98.1851 283.172 98.1851 283.613 98.0754H336.783C337.114 98.1851 337.556 98.1851 337.997 98.1851C338.438 98.1851 338.769 98.1851 339.21 98.0754H339.321C342.409 97.6366 344.836 95.3328 345.608 92.4804C344.285 93.4678 342.851 94.126 341.306 94.4551Z" fill="#008329"/>
<path d="M337.776 99.5024C337.335 99.5024 337.004 99.5024 336.452 99.3927H283.502C282.509 99.5024 281.847 99.5024 280.855 99.3927H280.744C276.221 98.6248 272.912 94.8948 272.912 90.2872C272.912 85.6796 276.442 81.7303 280.965 81.1817C280.855 80.6332 280.744 79.975 280.744 79.4265C280.744 74.3801 284.936 70.2113 290.011 70.2113C290.893 70.2113 291.886 70.321 292.768 70.6501C293.982 65.0552 298.946 60.9961 304.903 60.9961C310.418 60.9961 315.162 64.5066 316.706 69.5531C318.802 67.9075 321.45 67.0298 324.207 67.0298C331.047 67.0298 336.673 72.5151 336.673 79.4265C336.673 80.0847 336.673 80.6332 336.562 81.1817C337.004 81.1817 337.335 81.072 337.776 81.072C342.85 81.072 347.042 85.2408 347.042 90.2872C347.042 94.7851 343.843 98.5151 339.431 99.283C339.32 99.283 339.21 99.283 339.1 99.283C338.548 99.5024 338.107 99.5024 337.776 99.5024ZM283.392 96.6501H336.562C336.673 96.6501 336.673 96.6501 336.783 96.6501C337.555 96.7598 337.996 96.7598 338.769 96.6501C341.857 96.2113 344.174 93.5784 344.174 90.3969C344.174 86.8864 341.306 84.0341 337.776 84.0341C336.893 84.0341 336.011 84.2535 335.128 84.5826C334.577 84.802 334.025 84.6923 333.584 84.3632C333.143 83.9244 333.032 83.3758 333.253 82.8273C333.694 81.7303 333.805 80.6332 333.805 79.5362C333.805 74.2704 329.502 69.9919 324.207 69.9919C321.45 69.9919 318.692 71.1986 316.927 73.3927C316.596 73.8315 315.934 74.0509 315.382 73.8315C314.831 73.6121 314.39 73.1733 314.39 72.6248C313.948 67.7978 309.756 63.9581 304.903 63.9581C299.828 63.9581 295.636 67.9075 295.416 72.9539C295.416 73.3927 295.085 73.9412 294.644 74.1606C294.202 74.3801 293.651 74.3801 293.21 74.1606C292.217 73.6121 291.114 73.283 290.011 73.283C286.481 73.283 283.612 76.1353 283.612 79.6459C283.612 80.5235 283.833 81.4012 284.164 82.2788C284.385 82.7176 284.274 83.2661 284.054 83.705C283.723 84.1438 283.281 84.3632 282.73 84.2535C282.509 84.2535 282.399 84.2535 282.178 84.2535C278.648 84.2535 275.78 87.1058 275.78 90.6163C275.78 93.7978 278.097 96.4307 281.186 96.8695C281.958 96.9792 282.399 96.9792 283.171 96.8695C283.281 96.6501 283.392 96.6501 283.392 96.6501Z" fill="#1D4354"/>
<path d="M158.188 122.866H134.25V111.567L151.569 51.668H164.365L146.274 111.567H158.188V87.7608H170.212V111.567H175.948V122.866H170.212V135.263H158.188V122.866Z" fill="#37A000"/>
<path d="M181.023 69.003C181.023 66.1506 181.465 63.6274 182.457 61.543C183.45 59.3489 184.774 57.484 186.429 55.9481C188.083 54.4122 189.959 53.2055 192.165 52.3278C194.371 51.5599 196.577 51.1211 199.004 51.1211C201.431 51.1211 203.637 51.5599 205.844 52.3278C208.05 53.0958 209.925 54.3025 211.58 55.9481C213.235 57.484 214.558 59.3489 215.551 61.543C216.544 63.7371 216.985 66.2603 216.985 69.003V118.041C216.985 120.893 216.544 123.416 215.551 125.501C214.558 127.695 213.235 129.56 211.58 131.096C209.925 132.632 208.05 133.838 205.844 134.716C203.637 135.484 201.431 135.923 199.004 135.923C196.577 135.923 194.371 135.484 192.165 134.716C189.959 133.948 188.083 132.741 186.429 131.096C184.774 129.56 183.45 127.695 182.457 125.501C181.465 123.307 181.023 120.784 181.023 118.041V69.003ZM193.158 118.041C193.158 119.796 193.709 121.222 194.812 122.319C195.916 123.416 197.35 124.075 199.115 124.075C200.88 124.075 202.314 123.526 203.417 122.319C204.52 121.222 205.072 119.796 205.072 118.041V69.003C205.072 67.2477 204.52 65.8215 203.417 64.7245C202.314 63.6274 200.88 62.9692 199.115 62.9692C197.35 62.9692 195.916 63.5177 194.812 64.7245C193.709 65.8215 193.158 67.2477 193.158 69.003V118.041Z" fill="#37A000"/>
<path d="M245.996 122.866H222.059V111.567L239.378 51.668H252.174L234.083 111.567H245.996V87.7608H258.02V111.567H263.757V122.866H258.02V135.263H245.996V122.866Z" fill="#37A000"/>
<path d="M133.918 150.844H136.124V152.051C136.896 151.173 137.779 150.734 138.992 150.734C140.316 150.734 141.309 151.283 141.971 152.27C142.302 152.599 142.522 153.148 142.633 153.696C142.743 154.245 142.743 155.232 142.743 156.658C142.743 157.975 142.743 158.962 142.633 159.511C142.522 160.059 142.302 160.608 141.971 160.937C141.64 161.376 141.309 161.705 140.757 162.034C140.316 162.253 139.654 162.473 138.992 162.473C138.441 162.473 137.889 162.363 137.448 162.144C137.007 161.924 136.565 161.595 136.124 161.156V166.971H133.918V150.844ZM138.33 159.95C138.882 159.95 139.323 159.84 139.544 159.62C139.875 159.401 140.095 159.182 140.206 158.853C140.316 158.523 140.426 158.085 140.537 157.755C140.537 157.317 140.537 156.878 140.537 156.549C140.537 156.11 140.537 155.671 140.537 155.232C140.537 154.793 140.426 154.464 140.206 154.135C140.095 153.806 139.875 153.477 139.544 153.367C139.213 153.148 138.772 153.148 138.33 153.148C137.889 153.148 137.448 153.258 137.117 153.477C136.786 153.696 136.565 153.916 136.455 154.355C136.345 154.684 136.235 155.123 136.235 155.452C136.235 155.89 136.124 156.329 136.124 156.768C136.124 157.207 136.124 157.536 136.235 157.975C136.235 158.414 136.345 158.743 136.455 159.072C136.565 159.401 136.786 159.73 137.117 159.95C137.448 159.84 137.779 159.95 138.33 159.95Z" fill="#1D4354"/>
<path d="M151.346 161.16C151.126 161.599 150.795 161.818 150.353 162.038C149.912 162.257 149.361 162.367 148.588 162.367C147.375 162.367 146.382 162.038 145.72 161.379C145.058 160.721 144.617 159.953 144.617 158.966C144.617 157.978 144.948 157.211 145.5 156.552C146.162 155.894 147.044 155.565 148.147 155.565H151.236V154.358C151.236 153.371 150.464 152.822 149.03 152.932C148.478 152.932 148.037 153.042 147.706 153.151C147.375 153.261 147.154 153.481 146.934 153.81L145.169 152.493C146.051 151.396 147.265 150.848 148.919 150.848C150.353 150.848 151.457 151.067 152.229 151.616C153.111 152.164 153.442 153.151 153.442 154.578V162.257H151.236V161.16H151.346ZM151.346 157.32H148.699C147.375 157.32 146.823 157.759 146.823 158.637C146.823 159.076 147.044 159.295 147.375 159.624C147.706 159.953 148.257 160.063 148.919 160.063C149.802 160.063 150.464 159.953 150.905 159.734C151.236 159.514 151.457 158.966 151.457 158.088V157.32H151.346Z" fill="#1D4354"/>
<path d="M162.929 160.937C162.157 161.815 161.275 162.253 160.061 162.253C159.399 162.253 158.737 162.034 158.296 161.815C157.855 161.485 157.414 161.266 157.193 160.937C156.862 160.608 156.641 160.059 156.531 159.62C156.421 159.072 156.311 158.085 156.311 156.549C156.311 155.013 156.421 154.026 156.531 153.477C156.641 152.928 156.862 152.49 157.193 152.161C157.414 151.831 157.855 151.502 158.296 151.173C158.737 150.954 159.399 150.734 160.061 150.734C161.164 150.734 162.157 151.173 162.929 152.051V150.844H165.136V161.924C165.136 163.68 164.584 164.886 163.701 165.654C162.819 166.422 161.606 166.861 160.392 166.861C158.848 166.861 157.634 166.203 156.531 164.996L158.296 163.57C158.627 163.789 158.958 164.118 159.289 164.228C159.62 164.447 160.061 164.557 160.502 164.557C161.275 164.557 161.826 164.338 162.378 163.899C162.819 163.46 163.04 162.802 163.04 162.034V160.937H162.929ZM158.627 156.439C158.627 157.317 158.627 157.865 158.737 158.194C158.737 158.523 158.958 158.853 159.068 159.072C159.179 159.291 159.399 159.511 159.73 159.62C160.061 159.84 160.392 159.95 160.833 159.95C161.275 159.95 161.606 159.84 161.936 159.62C162.267 159.401 162.488 159.291 162.598 159.072C162.819 158.853 162.929 158.523 162.929 158.194C162.929 157.865 163.04 157.317 163.04 156.439C163.04 155.561 163.04 154.903 162.929 154.574C162.819 154.245 162.709 153.916 162.598 153.696C162.488 153.477 162.267 153.258 161.936 153.148C161.606 152.928 161.275 152.928 160.833 152.928C160.392 152.928 160.061 153.038 159.73 153.148C159.399 153.367 159.179 153.587 159.068 153.696C158.848 153.916 158.737 154.135 158.737 154.574C158.627 155.013 158.627 155.561 158.627 156.439Z" fill="#1D4354"/>
<path d="M170.101 157.32C170.101 158.198 170.321 158.966 170.873 159.405C171.314 159.843 171.976 160.173 172.748 160.173C173.631 160.173 174.403 159.843 175.175 159.076L176.83 160.502C175.727 161.708 174.403 162.367 172.859 162.367C172.307 162.367 171.756 162.257 171.204 162.147C170.873 162.038 170.652 161.928 170.432 161.818C170.101 161.708 169.88 161.489 169.66 161.27C169.218 160.831 168.777 160.282 168.556 159.514C168.226 158.746 168.115 157.869 168.115 156.662C168.115 155.565 168.226 154.578 168.556 153.919C168.777 153.151 169.218 152.603 169.66 152.164C170.101 151.725 170.542 151.396 171.094 151.177C171.645 150.957 172.197 150.848 172.638 150.848C173.852 150.848 174.955 151.286 175.837 152.164C176.72 153.042 177.161 154.139 177.161 155.675V157.54H170.101V157.32ZM174.734 155.455C174.734 154.578 174.513 153.919 174.072 153.481C173.631 153.042 173.079 152.822 172.417 152.822C171.756 152.822 171.204 153.042 170.763 153.481C170.321 153.919 170.101 154.578 170.101 155.455H174.734Z" fill="#1D4354"/>
<path d="M184.992 150.844H187.198V152.051C187.971 151.173 188.853 150.734 190.067 150.734C190.949 150.734 191.832 151.063 192.604 151.722C193.376 152.38 193.707 153.367 193.817 154.684V162.253H191.611V155.561C191.611 154.793 191.39 154.135 190.949 153.696C190.508 153.258 190.067 153.038 189.405 153.038C188.743 153.038 188.191 153.258 187.86 153.696C187.419 154.135 187.198 154.684 187.198 155.561V162.253H184.992V150.844Z" fill="#1D4354"/>
<path d="M196.576 156.439C196.576 155.232 196.686 154.355 196.907 153.696C197.128 153.038 197.459 152.49 197.79 152.161C198.121 151.831 198.562 151.502 199.113 151.173C199.665 150.844 200.327 150.734 201.209 150.734C202.092 150.734 202.754 150.844 203.305 151.173C203.857 151.502 204.298 151.831 204.519 152.161C204.96 152.599 205.291 153.148 205.401 153.696C205.622 154.355 205.622 155.232 205.622 156.439C205.622 157.646 205.511 158.523 205.401 159.182C205.181 159.84 204.96 160.388 204.519 160.827C204.408 161.047 204.188 161.156 203.967 161.266C203.746 161.485 203.526 161.595 203.305 161.705C202.754 162.034 202.092 162.144 201.209 162.144C200.327 162.144 199.665 161.924 199.113 161.705C198.562 161.376 198.121 161.156 197.79 160.717C197.348 160.279 197.128 159.73 196.907 159.072C196.686 158.523 196.576 157.646 196.576 156.439ZM203.416 156.439C203.416 155.671 203.416 155.013 203.305 154.684C203.195 154.355 203.085 154.026 202.864 153.696C202.754 153.477 202.423 153.258 202.092 153.148C201.761 153.038 201.43 152.928 200.989 152.928C200.658 152.928 200.216 153.038 199.996 153.148C199.665 153.258 199.444 153.477 199.224 153.696C199.003 153.916 198.893 154.245 198.782 154.684C198.672 155.013 198.672 155.671 198.672 156.439C198.672 157.207 198.672 157.755 198.782 158.194C198.893 158.523 199.003 158.853 199.224 159.182C199.444 159.401 199.665 159.62 199.996 159.73C200.327 159.84 200.658 159.95 200.989 159.95C201.43 159.95 201.761 159.84 202.092 159.73C202.423 159.511 202.643 159.401 202.864 159.182C203.085 158.853 203.195 158.523 203.305 158.194C203.416 157.865 203.416 157.207 203.416 156.439Z" fill="#1D4354"/>
<path d="M208.489 147.336H210.695V150.737H212.35V152.492H210.695V159.074C210.695 159.623 210.916 159.952 211.467 159.952H212.35V162.036H211.247C210.474 162.036 209.813 161.817 209.371 161.268C208.82 160.83 208.599 160.062 208.599 159.184V152.382H207.496V150.627H208.599V147.336H208.489Z" fill="#1D4354"/>
<path d="M220.293 152.601H219.189V150.846H220.293V149.31C220.293 148.213 220.624 147.445 221.175 146.897C221.727 146.458 222.499 146.238 223.271 146.238H224.705V148.323H223.492C222.83 148.323 222.499 148.652 222.499 149.31V150.846H224.705V152.601H222.499V162.145H220.293V152.601Z" fill="#1D4354"/>
<path d="M225.588 156.439C225.588 155.232 225.698 154.355 225.919 153.696C226.139 153.038 226.47 152.49 226.801 152.161C227.132 151.831 227.574 151.502 228.125 151.173C228.677 150.844 229.339 150.734 230.221 150.734C231.104 150.734 231.765 150.844 232.317 151.173C232.869 151.502 233.31 151.831 233.53 152.161C233.972 152.599 234.303 153.148 234.413 153.696C234.634 154.355 234.634 155.232 234.634 156.439C234.634 157.646 234.523 158.523 234.413 159.182C234.192 159.84 233.972 160.388 233.53 160.827C233.42 161.047 233.199 161.156 232.979 161.266C232.758 161.485 232.538 161.595 232.317 161.705C231.765 162.034 231.104 162.144 230.221 162.144C229.339 162.144 228.677 161.924 228.125 161.705C227.574 161.376 227.132 161.156 226.801 160.717C226.36 160.279 226.139 159.73 225.919 159.072C225.698 158.523 225.588 157.646 225.588 156.439ZM232.538 156.439C232.538 155.671 232.538 155.013 232.427 154.684C232.317 154.355 232.207 154.026 231.986 153.696C231.876 153.477 231.545 153.258 231.214 153.148C230.883 153.038 230.552 152.928 230.111 152.928C229.78 152.928 229.339 153.038 229.118 153.148C228.787 153.258 228.566 153.477 228.346 153.696C228.125 153.916 228.015 154.245 227.904 154.684C227.794 155.013 227.794 155.671 227.794 156.439C227.794 157.207 227.794 157.755 227.904 158.194C228.015 158.523 228.125 158.853 228.346 159.182C228.566 159.401 228.787 159.62 229.118 159.73C229.449 159.84 229.78 159.95 230.111 159.95C230.552 159.95 230.883 159.84 231.214 159.73C231.545 159.511 231.765 159.401 231.986 159.182C232.207 158.853 232.317 158.523 232.427 158.194C232.427 157.865 232.538 157.207 232.538 156.439Z" fill="#1D4354"/>
<path d="M237.391 150.848H239.597V157.54C239.597 158.308 239.818 158.856 240.259 159.295C240.7 159.734 241.141 159.953 241.803 159.953C242.465 159.953 242.906 159.734 243.348 159.295C243.789 158.856 244.009 158.308 244.009 157.54V150.848H246.216V162.147H244.009V160.94C243.237 161.818 242.355 162.257 241.141 162.257C240.259 162.257 239.376 161.928 238.714 161.27C237.942 160.611 237.501 159.624 237.501 158.417V150.848H237.391Z" fill="#1D4354"/>
<path d="M249.414 150.844H251.62V152.051C252.392 151.173 253.275 150.734 254.488 150.734C255.371 150.734 256.253 151.063 257.026 151.722C257.798 152.38 258.129 153.367 258.239 154.684V162.253H256.033V155.561C256.033 154.793 255.812 154.135 255.371 153.696C254.93 153.258 254.488 153.038 253.827 153.038C253.165 153.038 252.613 153.258 252.282 153.696C251.841 154.135 251.62 154.684 251.62 155.561V162.253H249.414V150.844Z" fill="#1D4354"/>
<path d="M268.057 160.939C267.285 161.816 266.403 162.255 265.189 162.255C264.527 162.255 263.976 162.145 263.534 161.816C263.093 161.597 262.652 161.158 262.321 160.719C261.99 160.39 261.769 159.842 261.769 159.293C261.659 158.745 261.549 157.757 261.549 156.441C261.549 155.124 261.659 154.137 261.769 153.588C261.88 153.04 262.1 152.491 262.321 152.162C262.983 151.175 263.976 150.736 265.299 150.736C265.851 150.736 266.403 150.846 266.844 151.065C267.285 151.285 267.726 151.614 268.168 152.053V146.238H270.374V162.145H268.168V160.939H268.057ZM265.961 152.93C265.41 152.93 265.079 153.04 264.748 153.15C264.417 153.369 264.196 153.588 264.086 153.918C263.976 154.247 263.865 154.686 263.865 155.015C263.865 155.453 263.755 155.892 263.755 156.331C263.755 156.77 263.755 157.209 263.865 157.538C263.865 157.977 263.976 158.306 264.086 158.745C264.196 159.074 264.417 159.293 264.748 159.513C264.968 159.732 265.41 159.842 265.961 159.842C266.513 159.842 266.954 159.732 267.175 159.513C267.506 159.293 267.726 159.074 267.837 158.635C267.947 158.306 268.057 157.867 268.168 157.538C268.168 157.099 268.168 156.66 268.168 156.331C268.168 155.892 268.168 155.453 268.168 155.124C268.168 154.686 268.057 154.356 267.837 154.027C267.726 153.698 267.506 153.369 267.175 153.15C266.844 153.04 266.403 152.93 265.961 152.93Z" fill="#1D4354"/>
<path d="M103.144 189.129H88.0312V336.023H103.144V189.129Z" fill="white"/>
<path d="M95.5312 169.93C90.8981 169.93 87.2578 173.66 87.2578 178.158V189.018H103.915V178.158C103.915 173.66 100.164 169.93 95.5312 169.93Z" fill="#008329"/>
<path d="M95.5312 169.929C101.624 169.929 106.562 165.018 106.562 158.959C106.562 152.9 101.624 147.988 95.5312 147.988C89.4388 147.988 84.5 152.9 84.5 158.959C84.5 165.018 89.4388 169.929 95.5312 169.929Z" fill="#37A000"/>
<path opacity="0.5" d="M93.5467 151.5C99.6139 151.5 104.578 156.437 104.578 162.47C104.578 163.458 104.468 164.335 104.247 165.213C105.681 163.348 106.453 161.154 106.453 158.631C106.453 152.597 101.489 147.66 95.422 147.66C90.3477 147.66 86.0455 151.171 84.832 155.778C86.8177 153.145 89.9064 151.5 93.5467 151.5Z" fill="white"/>
<path d="M95.5327 163.017C97.7869 163.017 99.6143 161.199 99.6143 158.957C99.6143 156.716 97.7869 154.898 95.5327 154.898C93.2785 154.898 91.4512 156.716 91.4512 158.957C91.4512 161.199 93.2785 163.017 95.5327 163.017Z" fill="white"/>
<path d="M103.915 190.445H87.2583C86.4861 190.445 85.8242 189.787 85.8242 189.019V178.158C85.8242 172.782 90.2367 168.504 95.5317 168.504C100.937 168.504 105.239 172.892 105.239 178.158V189.019C105.35 189.896 104.688 190.445 103.915 190.445ZM88.6923 187.702H102.481V178.268C102.481 174.538 99.3926 171.466 95.642 171.466C91.8914 171.466 88.8027 174.538 88.8027 178.268V187.702H88.6923Z" fill="#1D4354"/>
<path d="M95.5317 171.356C88.6923 171.356 83.0664 165.761 83.0664 158.959C83.0664 152.157 88.6923 146.562 95.5317 146.562C102.371 146.562 107.997 152.157 107.997 158.959C107.997 165.761 102.371 171.356 95.5317 171.356ZM95.5317 149.525C90.2367 149.525 85.9345 153.803 85.9345 159.069C85.9345 164.335 90.2367 168.613 95.5317 168.613C100.827 168.613 105.129 164.335 105.129 159.069C105.129 153.693 100.827 149.525 95.5317 149.525Z" fill="#1D4354"/>
<path d="M103.144 240.25H88.0312V250.672H103.144V240.25Z" fill="#008329"/>
<path d="M103.143 337.996H88.0298C87.2576 337.996 86.5957 337.338 86.5957 336.57V180.789C86.5957 180.022 87.2576 179.363 88.0298 179.363H103.143C103.915 179.363 104.577 180.022 104.577 180.789V336.57C104.577 337.338 103.915 337.996 103.143 337.996ZM89.4638 335.144H101.709V182.216H89.4638V335.144Z" fill="#1D4354"/>
<path d="M300.382 189.129H285.27V336.023H300.382V189.129Z" fill="white"/>
<path d="M292.881 169.93C288.248 169.93 284.607 173.66 284.607 178.158V189.018H301.154V178.158C301.154 173.66 297.404 169.93 292.881 169.93Z" fill="#008329"/>
<path d="M292.881 169.929C298.973 169.929 303.912 165.018 303.912 158.959C303.912 152.9 298.973 147.988 292.881 147.988C286.788 147.988 281.85 152.9 281.85 158.959C281.85 165.018 286.788 169.929 292.881 169.929Z" fill="#37A000"/>
<path opacity="0.5" d="M290.785 151.5C296.852 151.5 301.816 156.437 301.816 162.47C301.816 163.458 301.706 164.335 301.485 165.213C302.919 163.348 303.692 161.154 303.692 158.631C303.692 152.597 298.727 147.66 292.66 147.66C287.586 147.66 283.284 151.171 282.07 155.778C284.056 153.145 287.255 151.5 290.785 151.5Z" fill="white"/>
<path d="M292.88 163.017C295.135 163.017 296.962 161.199 296.962 158.957C296.962 156.716 295.135 154.898 292.88 154.898C290.626 154.898 288.799 156.716 288.799 158.957C288.799 161.199 290.626 163.017 292.88 163.017Z" fill="white"/>
<path d="M301.154 190.445H284.497C283.724 190.445 283.062 189.787 283.062 189.019V178.158C283.062 172.782 287.475 168.504 292.77 168.504C298.175 168.504 302.478 172.892 302.478 178.158V189.019C302.588 189.896 301.926 190.445 301.154 190.445ZM285.931 187.702H299.72V178.268C299.72 174.538 296.631 171.466 292.88 171.466C289.13 171.466 286.041 174.538 286.041 178.268V187.702H285.931Z" fill="#1D4354"/>
<path d="M292.881 171.356C286.042 171.356 280.416 165.761 280.416 158.959C280.416 152.157 286.042 146.562 292.881 146.562C299.721 146.562 305.347 152.157 305.347 158.959C305.236 165.761 299.721 171.356 292.881 171.356ZM292.881 149.525C287.586 149.525 283.284 153.803 283.284 159.069C283.284 164.335 287.586 168.613 292.881 168.613C298.176 168.613 302.478 164.335 302.478 159.069C302.368 153.693 298.066 149.525 292.881 149.525Z" fill="#1D4354"/>
<path d="M300.382 240.25H285.27V250.672H300.382V240.25Z" fill="#008329"/>
<path d="M300.383 337.996H285.27C284.498 337.996 283.836 337.338 283.836 336.57V180.789C283.836 180.022 284.498 179.363 285.27 179.363H300.383C301.155 179.363 301.817 180.022 301.817 180.789V336.57C301.817 337.338 301.155 337.996 300.383 337.996ZM286.704 335.144H298.949V182.216H286.704V335.144Z" fill="#1D4354"/>
<path d="M313.288 296.855H75.123V317.699H313.288V296.855Z" fill="white"/>
<path d="M310.53 180.789H77.8809V239.152H310.53V180.789Z" fill="white"/>
<path d="M125.315 180.789L75.123 230.705V239.152H92.8833L151.459 180.789H125.315Z" fill="#37A000"/>
<path d="M75.123 189.565V215.565L110.092 180.789H83.948L75.123 189.565Z" fill="#37A000"/>
<path d="M233.862 180.789H207.608L148.922 239.152H175.176L233.862 180.789Z" fill="#37A000"/>
<path d="M192.495 180.789H166.241L107.555 239.152H133.809L192.495 180.789Z" fill="#37A000"/>
<path d="M275.01 180.789H248.756L190.18 239.152H216.324L275.01 180.789Z" fill="#37A000"/>
<path d="M313.286 224.563V198.453L272.471 239.154H298.615L313.286 224.563Z" fill="#37A000"/>
<path d="M313.288 183.422V180.789H289.792L231.105 239.152H257.25L313.288 183.422Z" fill="#37A000"/>
<path opacity="0.5" d="M313.288 180.789H75.123V186.823H313.288V180.789Z" fill="white"/>
<path d="M313.288 240.578H75.1235C74.3513 240.578 73.6895 239.92 73.6895 239.152V180.789C73.6895 180.022 74.3513 179.363 75.1235 179.363H313.288C314.06 179.363 314.722 180.022 314.722 180.789V239.152C314.722 239.92 314.06 240.578 313.288 240.578ZM76.5576 237.726H311.854V182.216H76.5576V237.726Z" fill="#1D4354"/>
<path d="M87.2574 296.855L75.123 308.923V317.699H84.279L105.238 296.855H87.2574Z" fill="#37A000"/>
<path d="M135.795 296.855H117.704L96.7441 317.699H114.725L135.795 296.855Z" fill="#37A000"/>
<path d="M165.47 296.855H147.489L126.529 317.699H144.51L165.47 296.855Z" fill="#37A000"/>
<path d="M195.915 296.855H177.934L156.975 317.699H174.956L195.915 296.855Z" fill="#37A000"/>
<path d="M228.347 296.855H210.367L189.297 317.699H207.388L228.347 296.855Z" fill="#37A000"/>
<path d="M258.794 296.855H240.813L219.854 317.699H237.834L258.794 296.855Z" fill="#37A000"/>
<path d="M290.343 296.855H272.362L251.402 317.699H269.383L290.343 296.855Z" fill="#37A000"/>
<path d="M313.287 304.315V296.855H302.807L281.848 317.699H299.829L313.287 304.315Z" fill="#37A000"/>
<path d="M313.288 319.13H75.1235C74.3513 319.13 73.6895 318.472 73.6895 317.704V296.86C73.6895 296.092 74.3513 295.434 75.1235 295.434H313.288C314.06 295.434 314.722 296.092 314.722 296.86V317.704C314.722 318.472 314.06 319.13 313.288 319.13ZM76.5576 316.278H311.854V298.286H76.5576V316.278Z" fill="#1D4354"/>
<path d="M360.832 338.001H27.5786C26.8064 338.001 26.1445 337.343 26.1445 336.575C26.1445 335.807 26.8064 335.148 27.5786 335.148H360.722C361.494 335.148 362.156 335.807 362.156 336.575C362.156 337.343 361.605 338.001 360.832 338.001Z" fill="#1D4354"/>
<path d="M375.945 326.37L356.751 247.383H354.214H349.36H346.823L327.518 326.37H315.936V336.573H387.528V326.37H375.945Z" fill="#6FDA44"/>
<path d="M367.561 290.824H336.232L338.439 281.719H365.134L367.561 290.824Z" fill="#F1F1F2"/>
<path d="M370.429 301.137H331.488V310.242H370.429V301.137Z" fill="#F1F1F2"/>
<path opacity="0.5" d="M370.319 326.37L351.896 247.383H356.199L375.945 326.37H370.319Z" fill="white"/>
<path opacity="0.5" d="M386.976 326.371H315.383V331.418H386.976V326.371Z" fill="white"/>
<path d="M386.976 337.999H315.383C314.611 337.999 313.949 337.341 313.949 336.573V326.371C313.949 325.603 314.611 324.944 315.383 324.944H325.863L344.837 247.054C344.947 246.396 345.609 245.957 346.271 245.957H356.199C356.861 245.957 357.412 246.396 357.633 247.054L376.607 324.944H387.086C387.858 324.944 388.52 325.603 388.52 326.371V336.573C388.41 337.341 387.748 337.999 386.976 337.999ZM316.817 335.147H385.542V327.797H375.393C374.731 327.797 374.18 327.358 373.959 326.7L354.985 248.809H347.264L328.29 326.7C328.18 327.358 327.518 327.797 326.856 327.797H316.707V335.147H316.817Z" fill="#1D4354"/>
<path d="M357.301 327.794H327.627C326.855 327.794 326.193 327.136 326.193 326.368C326.193 325.6 326.855 324.941 327.627 324.941H357.301C358.074 324.941 358.735 325.6 358.735 326.368C358.735 327.136 358.074 327.794 357.301 327.794Z" fill="#1D4354"/>
<path d="M382.564 327.794H365.686C364.914 327.794 364.252 327.136 364.252 326.368C364.252 325.6 364.914 324.941 365.686 324.941H382.564C383.336 324.941 383.998 325.6 383.998 326.368C383.998 327.136 383.336 327.794 382.564 327.794Z" fill="#1D4354"/>
<path d="M61.9963 326.37L42.8019 247.383H40.2647H35.411H32.8738L13.5691 326.37H1.98633V336.573H73.5791V326.37H61.9963Z" fill="#6FDA44"/>
<path d="M53.6119 290.824H22.2832L24.4895 281.719H51.1851L53.6119 290.824Z" fill="#F1F1F2"/>
<path d="M56.4793 301.137H17.5391V310.242H56.4793V301.137Z" fill="#F1F1F2"/>
<path opacity="0.5" d="M56.3694 326.37L37.9473 247.383H42.2494L61.9954 326.37H56.3694Z" fill="white"/>
<path opacity="0.5" d="M73.0263 326.371H1.43359V331.418H73.0263V326.371Z" fill="white"/>
<path d="M73.0268 337.999H1.43406C0.661874 337.999 0 337.341 0 336.573V326.371C0 325.603 0.661874 324.944 1.43406 324.944H11.9137L30.8875 247.054C30.9978 246.396 31.6597 245.957 32.3215 245.957H42.2497C42.9115 245.957 43.4631 246.396 43.6837 247.054L62.6575 324.944H73.1371C73.9093 324.944 74.5712 325.603 74.5712 326.371V336.573C74.4609 337.341 73.799 337.999 73.0268 337.999ZM2.86812 335.147H71.5928V327.797H61.444C60.7821 327.797 60.2306 327.358 60.01 326.7L41.0362 248.809H33.3144L14.3406 326.7C14.2303 327.358 13.5684 327.797 12.9066 327.797H2.86812V335.147Z" fill="#1D4354"/>
<path d="M43.3532 327.794H13.5688C12.7966 327.794 12.1348 327.136 12.1348 326.368C12.1348 325.6 12.7966 324.941 13.5688 324.941H43.2429C44.0151 324.941 44.6769 325.6 44.6769 326.368C44.7872 327.136 44.1254 327.794 43.3532 327.794Z" fill="#1D4354"/>
<path d="M68.6136 327.794H51.6255C50.8533 327.794 50.1914 327.136 50.1914 326.368C50.1914 325.6 50.8533 324.941 51.6255 324.941H68.5033C69.2754 324.941 69.9373 325.6 69.9373 326.368C70.0476 327.136 69.3857 327.794 68.6136 327.794Z" fill="#1D4354"/>
</g>
<defs>
<clipPath id="clip0">
<rect width="399" height="338" fill="white"/>
</clipPath>
</defs>
</svg>
