<svg viewBox="0 0 129 31" fill="none" xmlns="http://www.w3.org/2000/svg">
<path d="M15.3184 16.4961C15.3184 17.8242 14.9814 19.0059 14.3076 20.041C13.6338 21.0664 12.6621 21.8672 11.3926 22.4434C10.123 23.0098 8.63379 23.293 6.9248 23.293C5.49902 23.293 4.30273 23.1953 3.33594 23C2.36914 22.7949 1.36328 22.4434 0.318359 21.9453V16.7891C1.42188 17.3555 2.56934 17.7998 3.76074 18.1221C4.95215 18.4346 6.0459 18.5908 7.04199 18.5908C7.90137 18.5908 8.53125 18.4443 8.93164 18.1514C9.33203 17.8486 9.53223 17.4629 9.53223 16.9941C9.53223 16.7012 9.44922 16.4473 9.2832 16.2324C9.12695 16.0078 8.86816 15.7832 8.50684 15.5586C8.15527 15.334 7.20801 14.875 5.66504 14.1816C4.26855 13.5469 3.21875 12.9316 2.51562 12.3359C1.82227 11.7402 1.30469 11.0566 0.962891 10.2852C0.630859 9.51367 0.464844 8.60059 0.464844 7.5459C0.464844 5.57324 1.18262 4.03516 2.61816 2.93164C4.05371 1.82813 6.02637 1.27637 8.53613 1.27637C10.7529 1.27637 13.0137 1.78906 15.3184 2.81445L13.5459 7.28223C11.5439 6.36426 9.81543 5.90527 8.36035 5.90527C7.6084 5.90527 7.06152 6.03711 6.71973 6.30078C6.37793 6.56445 6.20703 6.8916 6.20703 7.28223C6.20703 7.70215 6.42188 8.07812 6.85156 8.41016C7.29102 8.74219 8.47266 9.34766 10.3965 10.2266C12.2422 11.0566 13.5215 11.9502 14.2344 12.9072C14.957 13.8545 15.3184 15.0508 15.3184 16.4961ZM25.8506 23.293C23.1357 23.293 21.0752 22.5605 19.6689 21.0957C18.2725 19.6309 17.5742 17.5264 17.5742 14.7822C17.5742 12.0283 18.3311 9.89453 19.8447 8.38086C21.3584 6.86719 23.5117 6.11035 26.3047 6.11035C28.2285 6.11035 30.04 6.53027 31.7393 7.37012L30.0547 11.6035C29.3613 11.3008 28.7217 11.0615 28.1357 10.8857C27.5498 10.7002 26.9395 10.6074 26.3047 10.6074C25.377 10.6074 24.6592 10.9688 24.1514 11.6914C23.6436 12.4141 23.3896 13.4346 23.3896 14.7529C23.3896 17.4092 24.3711 18.7373 26.334 18.7373C28.0137 18.7373 29.625 18.249 31.168 17.2725V21.8281C29.6934 22.8047 27.9209 23.293 25.8506 23.293ZM44.9082 23V13.9473C44.9082 11.7207 44.249 10.6074 42.9307 10.6074C41.9932 10.6074 41.2998 11.0029 40.8506 11.7939C40.4111 12.5752 40.1914 13.8789 40.1914 15.7051V23H34.4639V0.207031H40.1914V3.44434C40.1914 4.90918 40.1133 6.5791 39.957 8.4541H40.2207C40.7676 7.59473 41.417 6.98926 42.1689 6.6377C42.9209 6.28613 43.7949 6.11035 44.791 6.11035C46.6465 6.11035 48.0869 6.64746 49.1123 7.72168C50.1475 8.78613 50.665 10.2803 50.665 12.2041V23H44.9082ZM70.4111 14.665C70.4111 17.3799 69.6787 19.499 68.2139 21.0225C66.7588 22.5361 64.7178 23.293 62.0908 23.293C59.5713 23.293 57.5645 22.5166 56.0703 20.9639C54.5859 19.4111 53.8438 17.3115 53.8438 14.665C53.8438 11.96 54.5713 9.86035 56.0264 8.36621C57.4912 6.8623 59.542 6.11035 62.1787 6.11035C63.8096 6.11035 65.25 6.45703 66.5 7.15039C67.75 7.84375 68.7119 8.83984 69.3857 10.1387C70.0693 11.4277 70.4111 12.9365 70.4111 14.665ZM59.6592 14.665C59.6592 16.0908 59.8496 17.1797 60.2305 17.9316C60.6113 18.6738 61.251 19.0449 62.1494 19.0449C63.0381 19.0449 63.6631 18.6738 64.0244 17.9316C64.3955 17.1797 64.5811 16.0908 64.5811 14.665C64.5811 13.249 64.3955 12.1797 64.0244 11.457C63.6533 10.7344 63.0186 10.373 62.1201 10.373C61.2412 10.373 60.6113 10.7344 60.2305 11.457C59.8496 12.1699 59.6592 13.2393 59.6592 14.665ZM89.542 14.665C89.542 17.3799 88.8096 19.499 87.3447 21.0225C85.8896 22.5361 83.8486 23.293 81.2217 23.293C78.7021 23.293 76.6953 22.5166 75.2012 20.9639C73.7168 19.4111 72.9746 17.3115 72.9746 14.665C72.9746 11.96 73.7021 9.86035 75.1572 8.36621C76.6221 6.8623 78.6729 6.11035 81.3096 6.11035C82.9404 6.11035 84.3809 6.45703 85.6309 7.15039C86.8809 7.84375 87.8428 8.83984 88.5166 10.1387C89.2002 11.4277 89.542 12.9365 89.542 14.665ZM78.79 14.665C78.79 16.0908 78.9805 17.1797 79.3613 17.9316C79.7422 18.6738 80.3818 19.0449 81.2803 19.0449C82.1689 19.0449 82.7939 18.6738 83.1553 17.9316C83.5264 17.1797 83.7119 16.0908 83.7119 14.665C83.7119 13.249 83.5264 12.1797 83.1553 11.457C82.7842 10.7344 82.1494 10.373 81.251 10.373C80.3721 10.373 79.7422 10.7344 79.3613 11.457C78.9805 12.1699 78.79 13.2393 78.79 14.665ZM98.5508 23H92.8232V0.207031H98.5508V23ZM108.248 23H102.521V0.207031H108.248V23ZM110.211 6.40332H116.246L119.059 15.9248C119.195 16.4229 119.288 17.0234 119.337 17.7266H119.454C119.532 17.0527 119.649 16.4619 119.806 15.9541L122.691 6.40332H128.536L121.974 24.0547C121.134 26.3008 120.099 27.8877 118.868 28.8154C117.647 29.7432 116.051 30.207 114.078 30.207C113.316 30.207 112.535 30.124 111.734 29.958V25.4609C112.252 25.5781 112.843 25.6367 113.507 25.6367C114.015 25.6367 114.459 25.5391 114.84 25.3438C115.221 25.1484 115.553 24.8701 115.836 24.5088C116.119 24.1572 116.422 23.5762 116.744 22.7656L110.211 6.40332Z" fill="#6FDA44"/>
</svg>
