<svg width="1188" height="320" viewBox="0 0 1188 320" fill="none" xmlns="http://www.w3.org/2000/svg">
<path d="M190.403 11.7361C174.063 -4.60388 146.715 -3.74389 128.656 13.4561L14.0179 127.922C-3.18206 145.982 -4.04206 173.33 12.2979 189.669C28.6378 206.009 55.9858 205.149 74.0457 187.949L188.683 73.4838C205.797 55.4239 206.743 28.076 190.403 11.7361Z" fill="url(#paint0_linear)"/>
<path d="M251.033 159.656C251.033 136.608 231.081 117.774 206.313 117.172V117.086H44.7198V117.172C19.8659 117.774 0 136.522 0 159.656C0 182.789 19.9519 201.537 44.7198 202.139V202.225H206.313V202.139C231.081 201.451 251.033 182.703 251.033 159.656Z" fill="url(#paint1_linear)"/>
<path d="M239.165 129.556C222.825 113.216 195.477 114.076 177.417 131.19L62.9518 245.655C45.8378 263.629 44.9778 291.063 61.3178 307.403C77.6577 323.743 105.006 322.883 123.066 305.769L237.531 191.303C254.645 173.243 255.505 145.896 239.165 129.556Z" fill="url(#paint2_linear)"/>
<path d="M303.751 198.183L314.759 173.76C326.627 182.36 344.257 188.38 361.027 188.38C380.291 188.38 388.117 181.93 388.117 173.33C388.117 147.1 306.589 165.16 306.589 113.044C306.589 89.2218 325.853 69.3559 365.671 69.3559C383.301 69.3559 401.361 73.5699 414.347 81.7398L404.285 106.422C391.299 99.0258 377.797 95.4138 365.413 95.4138C346.149 95.4138 338.753 102.638 338.753 111.41C338.753 137.296 420.281 119.408 420.281 170.922C420.281 194.399 400.845 214.437 360.769 214.437C338.581 214.351 316.135 207.815 303.751 198.183Z" fill="#2B5468"/>
<path d="M432.407 158.882C432.407 126.46 457.433 103.412 492.52 103.412C515.138 103.412 533.026 113.216 540.852 130.846L516.6 143.918C510.752 133.684 502.152 129.126 492.348 129.126C476.524 129.126 464.054 140.134 464.054 158.968C464.054 177.802 476.438 188.81 492.348 188.81C502.152 188.81 510.752 184.424 516.6 174.018L540.852 187.261C533.026 204.461 515.224 214.523 492.52 214.523C457.433 214.351 432.407 191.389 432.407 158.882Z" fill="#2B5468"/>
<path d="M668.304 152.432V214.351H637V157.248C637 139.79 629.002 131.706 615.156 131.706C600.106 131.706 589.27 140.908 589.27 160.86V214.351H557.966V65.1419H589.27V117.43C597.698 109.002 609.738 104.53 623.498 104.53C649.04 104.616 668.304 119.494 668.304 152.432Z" fill="#2B5468"/>
<path d="M689.718 158.882C689.718 126.46 714.744 103.412 749.058 103.412C783.371 103.412 808.139 126.46 808.139 158.882C808.139 191.389 783.285 214.437 749.058 214.437C714.83 214.437 689.718 191.389 689.718 158.882ZM776.491 158.882C776.491 140.22 764.623 129.04 749.058 129.04C733.492 129.04 721.366 140.22 721.366 158.882C721.366 177.544 733.406 188.723 749.058 188.723C764.709 188.723 776.491 177.544 776.491 158.882Z" fill="#2B5468"/>
<path d="M821.039 158.882C821.039 126.46 846.065 103.412 880.379 103.412C914.693 103.412 939.461 126.46 939.461 158.882C939.461 191.389 914.607 214.437 880.379 214.437C846.151 214.437 821.039 191.389 821.039 158.882ZM907.813 158.882C907.813 140.22 896.031 129.04 880.379 129.04C864.727 129.04 852.687 140.22 852.687 158.882C852.687 177.544 864.727 188.723 880.379 188.723C895.945 188.723 907.813 177.544 907.813 158.882Z" fill="#2B5468"/>
<path d="M960.359 65.1419H991.663V214.351H960.359V65.1419Z" fill="#2B5468"/>
<path d="M1020.64 65.1419H1051.95V214.351H1020.64V65.1419Z" fill="#2B5468"/>
<path d="M1188 106.078L1139.32 220.543C1128.92 246.601 1114.04 254.427 1094.6 254.427C1083.6 254.427 1071.56 250.815 1064.5 244.623L1075.94 222.349C1080.76 226.563 1087.38 229.143 1093.57 229.143C1102.17 229.143 1106.99 225.359 1111.2 215.727L1111.63 214.695L1064.93 106.078H1097.18L1127.46 179.178L1157.9 106.078H1188Z" fill="#2B5468"/>
<defs>
<linearGradient id="paint0_linear" x1="0.67606" y1="100.731" x2="202.105" y2="100.731" gradientUnits="userSpaceOnUse">
<stop stop-color="#27DB06"/>
<stop offset="0.9944" stop-color="#37A000"/>
</linearGradient>
<linearGradient id="paint1_linear" x1="-0.0297559" y1="159.639" x2="251.03" y2="159.639" gradientUnits="userSpaceOnUse">
<stop stop-color="#1DD606"/>
<stop offset="1" stop-color="#36DE00"/>
</linearGradient>
<linearGradient id="paint2_linear" x1="49.6182" y1="218.46" x2="250.889" y2="218.46" gradientUnits="userSpaceOnUse">
<stop stop-color="#ABE206"/>
<stop offset="0.9944" stop-color="#33E200"/>
</linearGradient>
</defs>
</svg>
